<svg width="1023" height="1023" viewBox="0 0 1023 1023" fill="none" xmlns="http://www.w3.org/2000/svg">
<path d="M263.5 0C272.061 0 279 6.93966 279 15.5C279 24.0608 272.061 31 263.5 31C254.94 31 248 24.0608 248 15.5C248 6.93966 254.94 0 263.5 0Z" fill="#1E1E1E"/>
<path d="M387.5 0C396.061 0 403 6.93966 403 15.5C403 24.0608 396.061 31 387.5 31C378.94 31 372 24.0608 372 15.5C372 6.93966 378.94 0 387.5 0Z" fill="#1E1E1E"/>
<path d="M573.5 0C582.061 0 589 6.93966 589 15.5C589 24.0608 582.061 31 573.5 31C564.94 31 558 24.0608 558 15.5C558 6.93966 564.94 0 573.5 0Z" fill="#1E1E1E"/>
<path d="M635.5 0C644.061 0 651 6.93966 651 15.5C651 24.0608 644.061 31 635.5 31C626.94 31 620 24.0608 620 15.5C620 6.93966 626.94 0 635.5 0Z" fill="#1E1E1E"/>
<path d="M666.5 0C675.061 0 682 6.93966 682 15.5C682 24.0608 675.061 31 666.5 31C657.94 31 651 24.0608 651 15.5C651 6.93966 657.94 0 666.5 0Z" fill="#1E1E1E"/>
<path d="M697.5 0C706.061 0 713 6.93966 713 15.5C713 24.0608 706.061 31 697.5 31C688.94 31 682 24.0608 682 15.5C682 6.93966 688.94 0 697.5 0Z" fill="#1E1E1E"/>
<path d="M728.5 0C737.061 0 744 6.93966 744 15.5C744 24.0608 737.061 31 728.5 31C719.94 31 713 24.0608 713 15.5C713 6.93966 719.94 0 728.5 0Z" fill="#1E1E1E"/>
<path d="M759.5 0C768.061 0 775 6.93966 775 15.5C775 24.0608 768.061 31 759.5 31C750.94 31 744 24.0608 744 15.5C744 6.93966 750.94 0 759.5 0Z" fill="#1E1E1E"/>
<path d="M294.5 31C303.061 31 310 37.9397 310 46.5C310 55.0608 303.061 62 294.5 62C285.94 62 279 55.0608 279 46.5C279 37.9397 285.94 31 294.5 31Z" fill="#1E1E1E"/>
<path d="M325.5 31C334.061 31 341 37.9397 341 46.5C341 55.0608 334.061 62 325.5 62C316.94 62 310 55.0608 310 46.5C310 37.9397 316.94 31 325.5 31Z" fill="#1E1E1E"/>
<path d="M356.5 31C365.061 31 372 37.9397 372 46.5C372 55.0608 365.061 62 356.5 62C347.94 62 341 55.0608 341 46.5C341 37.9397 347.94 31 356.5 31Z" fill="#1E1E1E"/>
<path d="M387.5 31C396.061 31 403 37.9397 403 46.5C403 55.0608 396.061 62 387.5 62C378.94 62 372 55.0608 372 46.5C372 37.9397 378.94 31 387.5 31Z" fill="#1E1E1E"/>
<path d="M418.5 31C427.061 31 434 37.9397 434 46.5C434 55.0608 427.061 62 418.5 62C409.94 62 403 55.0608 403 46.5C403 37.9397 409.94 31 418.5 31Z" fill="#1E1E1E"/>
<path d="M449.5 31C458.061 31 465 37.9397 465 46.5C465 55.0608 458.061 62 449.5 62C440.94 62 434 55.0608 434 46.5C434 37.9397 440.94 31 449.5 31Z" fill="#1E1E1E"/>
<path d="M480.5 31C489.061 31 496 37.9397 496 46.5C496 55.0608 489.061 62 480.5 62C471.94 62 465 55.0608 465 46.5C465 37.9397 471.94 31 480.5 31Z" fill="#1E1E1E"/>
<path d="M542.5 31C551.061 31 558 37.9397 558 46.5C558 55.0608 551.061 62 542.5 62C533.94 62 527 55.0608 527 46.5C527 37.9397 533.94 31 542.5 31Z" fill="#1E1E1E"/>
<path d="M573.5 31C582.061 31 589 37.9397 589 46.5C589 55.0608 582.061 62 573.5 62C564.94 62 558 55.0608 558 46.5C558 37.9397 564.94 31 573.5 31Z" fill="#1E1E1E"/>
<path d="M604.5 31C613.061 31 620 37.9397 620 46.5C620 55.0608 613.061 62 604.5 62C595.94 62 589 55.0608 589 46.5C589 37.9397 595.94 31 604.5 31Z" fill="#1E1E1E"/>
<path d="M666.5 31C675.061 31 682 37.9397 682 46.5C682 55.0608 675.061 62 666.5 62C657.94 62 651 55.0608 651 46.5C651 37.9397 657.94 31 666.5 31Z" fill="#1E1E1E"/>
<path d="M728.5 31C737.061 31 744 37.9397 744 46.5C744 55.0608 737.061 62 728.5 62C719.94 62 713 55.0608 713 46.5C713 37.9397 719.94 31 728.5 31Z" fill="#1E1E1E"/>
<path d="M325.5 62C334.061 62 341 68.9397 341 77.5C341 86.0608 334.061 93 325.5 93C316.94 93 310 86.0608 310 77.5C310 68.9397 316.94 62 325.5 62Z" fill="#1E1E1E"/>
<path d="M511.5 62C520.061 62 527 68.9397 527 77.5C527 86.0608 520.061 93 511.5 93C502.94 93 496 86.0608 496 77.5C496 68.9397 502.94 62 511.5 62Z" fill="#1E1E1E"/>
<path d="M728.5 62C737.061 62 744 68.9397 744 77.5C744 86.0608 737.061 93 728.5 93C719.94 93 713 86.0608 713 77.5C713 68.9397 719.94 62 728.5 62Z" fill="#1E1E1E"/>
<path d="M759.5 62C768.061 62 775 68.9397 775 77.5C775 86.0608 768.061 93 759.5 93C750.94 93 744 86.0608 744 77.5C744 68.9397 750.94 62 759.5 62Z" fill="#1E1E1E"/>
<path d="M263.5 93C272.061 93 279 99.9397 279 108.5C279 117.061 272.061 124 263.5 124C254.94 124 248 117.061 248 108.5C248 99.9397 254.94 93 263.5 93Z" fill="#1E1E1E"/>
<path d="M294.5 93C303.061 93 310 99.9397 310 108.5C310 117.061 303.061 124 294.5 124C285.94 124 279 117.061 279 108.5C279 99.9397 285.94 93 294.5 93Z" fill="#1E1E1E"/>
<path d="M325.5 93C334.061 93 341 99.9397 341 108.5C341 117.061 334.061 124 325.5 124C316.94 124 310 117.061 310 108.5C310 99.9397 316.94 93 325.5 93Z" fill="#1E1E1E"/>
<path d="M356.5 93C365.061 93 372 99.9397 372 108.5C372 117.061 365.061 124 356.5 124C347.94 124 341 117.061 341 108.5C341 99.9397 347.94 93 356.5 93Z" fill="#1E1E1E"/>
<path d="M418.5 93C427.061 93 434 99.9397 434 108.5C434 117.061 427.061 124 418.5 124C409.94 124 403 117.061 403 108.5C403 99.9397 409.94 93 418.5 93Z" fill="#1E1E1E"/>
<path d="M480.5 93C489.061 93 496 99.9397 496 108.5C496 117.061 489.061 124 480.5 124C471.94 124 465 117.061 465 108.5C465 99.9397 471.94 93 480.5 93Z" fill="#1E1E1E"/>
<path d="M511.5 93C520.061 93 527 99.9397 527 108.5C527 117.061 520.061 124 511.5 124C502.94 124 496 117.061 496 108.5C496 99.9397 502.94 93 511.5 93Z" fill="#1E1E1E"/>
<path d="M573.5 93C582.061 93 589 99.9397 589 108.5C589 117.061 582.061 124 573.5 124C564.94 124 558 117.061 558 108.5C558 99.9397 564.94 93 573.5 93Z" fill="#1E1E1E"/>
<path d="M604.5 93C613.061 93 620 99.9397 620 108.5C620 117.061 613.061 124 604.5 124C595.94 124 589 117.061 589 108.5C589 99.9397 595.94 93 604.5 93Z" fill="#1E1E1E"/>
<path d="M697.5 93C706.061 93 713 99.9397 713 108.5C713 117.061 706.061 124 697.5 124C688.94 124 682 117.061 682 108.5C682 99.9397 688.94 93 697.5 93Z" fill="#1E1E1E"/>
<path d="M759.5 93C768.061 93 775 99.9397 775 108.5C775 117.061 768.061 124 759.5 124C750.94 124 744 117.061 744 108.5C744 99.9397 750.94 93 759.5 93Z" fill="#1E1E1E"/>
<path d="M325.5 124C334.061 124 341 130.94 341 139.5C341 148.061 334.061 155 325.5 155C316.94 155 310 148.061 310 139.5C310 130.94 316.94 124 325.5 124Z" fill="#1E1E1E"/>
<path d="M418.5 124C427.061 124 434 130.94 434 139.5C434 148.061 427.061 155 418.5 155C409.94 155 403 148.061 403 139.5C403 130.94 409.94 124 418.5 124Z" fill="#1E1E1E"/>
<path d="M480.5 124C489.061 124 496 130.94 496 139.5C496 148.061 489.061 155 480.5 155C471.94 155 465 148.061 465 139.5C465 130.94 471.94 124 480.5 124Z" fill="#1E1E1E"/>
<path d="M511.5 124C520.061 124 527 130.94 527 139.5C527 148.061 520.061 155 511.5 155C502.94 155 496 148.061 496 139.5C496 130.94 502.94 124 511.5 124Z" fill="#1E1E1E"/>
<path d="M604.5 124C613.061 124 620 130.94 620 139.5C620 148.061 613.061 155 604.5 155C595.94 155 589 148.061 589 139.5C589 130.94 595.94 124 604.5 124Z" fill="#1E1E1E"/>
<path d="M635.5 124C644.061 124 651 130.94 651 139.5C651 148.061 644.061 155 635.5 155C626.94 155 620 148.061 620 139.5C620 130.94 626.94 124 635.5 124Z" fill="#1E1E1E"/>
<path d="M759.5 124C768.061 124 775 130.94 775 139.5C775 148.061 768.061 155 759.5 155C750.94 155 744 148.061 744 139.5C744 130.94 750.94 124 759.5 124Z" fill="#1E1E1E"/>
<path d="M294.5 155C303.061 155 310 161.94 310 170.5C310 179.061 303.061 186 294.5 186C285.94 186 279 179.061 279 170.5C279 161.94 285.94 155 294.5 155Z" fill="#1E1E1E"/>
<path d="M325.5 155C334.061 155 341 161.94 341 170.5C341 179.061 334.061 186 325.5 186C316.94 186 310 179.061 310 170.5C310 161.94 316.94 155 325.5 155Z" fill="#1E1E1E"/>
<path d="M635.5 155C644.061 155 651 161.94 651 170.5C651 179.061 644.061 186 635.5 186C626.94 186 620 179.061 620 170.5C620 161.94 626.94 155 635.5 155Z" fill="#1E1E1E"/>
<path d="M666.5 155C675.061 155 682 161.94 682 170.5C682 179.061 675.061 186 666.5 186C657.94 186 651 179.061 651 170.5C651 161.94 657.94 155 666.5 155Z" fill="#1E1E1E"/>
<path d="M697.5 155C706.061 155 713 161.94 713 170.5C713 179.061 706.061 186 697.5 186C688.94 186 682 179.061 682 170.5C682 161.94 688.94 155 697.5 155Z" fill="#1E1E1E"/>
<path d="M728.5 155C737.061 155 744 161.94 744 170.5C744 179.061 737.061 186 728.5 186C719.94 186 713 179.061 713 170.5C713 161.94 719.94 155 728.5 155Z" fill="#1E1E1E"/>
<path d="M759.5 155C768.061 155 775 161.94 775 170.5C775 179.061 768.061 186 759.5 186C750.94 186 744 179.061 744 170.5C744 161.94 750.94 155 759.5 155Z" fill="#1E1E1E"/>
<path d="M263.5 186C272.061 186 279 192.94 279 201.5C279 210.061 272.061 217 263.5 217C254.94 217 248 210.061 248 201.5C248 192.94 254.94 186 263.5 186Z" fill="#1E1E1E"/>
<path d="M325.5 186C334.061 186 341 192.94 341 201.5C341 210.061 334.061 217 325.5 217C316.94 217 310 210.061 310 201.5C310 192.94 316.94 186 325.5 186Z" fill="#1E1E1E"/>
<path d="M387.5 186C396.061 186 403 192.94 403 201.5C403 210.061 396.061 217 387.5 217C378.94 217 372 210.061 372 201.5C372 192.94 378.94 186 387.5 186Z" fill="#1E1E1E"/>
<path d="M449.5 186C458.061 186 465 192.94 465 201.5C465 210.061 458.061 217 449.5 217C440.94 217 434 210.061 434 201.5C434 192.94 440.94 186 449.5 186Z" fill="#1E1E1E"/>
<path d="M511.5 186C520.061 186 527 192.94 527 201.5C527 210.061 520.061 217 511.5 217C502.94 217 496 210.061 496 201.5C496 192.94 502.94 186 511.5 186Z" fill="#1E1E1E"/>
<path d="M573.5 186C582.061 186 589 192.94 589 201.5C589 210.061 582.061 217 573.5 217C564.94 217 558 210.061 558 201.5C558 192.94 564.94 186 573.5 186Z" fill="#1E1E1E"/>
<path d="M635.5 186C644.061 186 651 192.94 651 201.5C651 210.061 644.061 217 635.5 217C626.94 217 620 210.061 620 201.5C620 192.94 626.94 186 635.5 186Z" fill="#1E1E1E"/>
<path d="M697.5 186C706.061 186 713 192.94 713 201.5C713 210.061 706.061 217 697.5 217C688.94 217 682 210.061 682 201.5C682 192.94 688.94 186 697.5 186Z" fill="#1E1E1E"/>
<path d="M759.5 186C768.061 186 775 192.94 775 201.5C775 210.061 768.061 217 759.5 217C750.94 217 744 210.061 744 201.5C744 192.94 750.94 186 759.5 186Z" fill="#1E1E1E"/>
<path d="M294.5 217C303.061 217 310 223.94 310 232.5C310 241.061 303.061 248 294.5 248C285.94 248 279 241.061 279 232.5C279 223.94 285.94 217 294.5 217Z" fill="#1E1E1E"/>
<path d="M325.5 217C334.061 217 341 223.94 341 232.5C341 241.061 334.061 248 325.5 248C316.94 248 310 241.061 310 232.5C310 223.94 316.94 217 325.5 217Z" fill="#1E1E1E"/>
<path d="M387.5 217C396.061 217 403 223.94 403 232.5C403 241.061 396.061 248 387.5 248C378.94 248 372 241.061 372 232.5C372 223.94 378.94 217 387.5 217Z" fill="#1E1E1E"/>
<path d="M449.5 217C458.061 217 465 223.94 465 232.5C465 241.061 458.061 248 449.5 248C440.94 248 434 241.061 434 232.5C434 223.94 440.94 217 449.5 217Z" fill="#1E1E1E"/>
<path d="M480.5 217C489.061 217 496 223.94 496 232.5C496 241.061 489.061 248 480.5 248C471.94 248 465 241.061 465 232.5C465 223.94 471.94 217 480.5 217Z" fill="#1E1E1E"/>
<path d="M604.5 217C613.061 217 620 223.94 620 232.5C620 241.061 613.061 248 604.5 248C595.94 248 589 241.061 589 232.5C589 223.94 595.94 217 604.5 217Z" fill="#1E1E1E"/>
<path d="M666.5 217C675.061 217 682 223.94 682 232.5C682 241.061 675.061 248 666.5 248C657.94 248 651 241.061 651 232.5C651 223.94 657.94 217 666.5 217Z" fill="#1E1E1E"/>
<path d="M697.5 217C706.061 217 713 223.94 713 232.5C713 241.061 706.061 248 697.5 248C688.94 248 682 241.061 682 232.5C682 223.94 688.94 217 697.5 217Z" fill="#1E1E1E"/>
<path d="M728.5 217C737.061 217 744 223.94 744 232.5C744 241.061 737.061 248 728.5 248C719.94 248 713 241.061 713 232.5C713 223.94 719.94 217 728.5 217Z" fill="#1E1E1E"/>
<path d="M77.5 248C86.0608 248 93 254.94 93 263.5C93 272.061 86.0608 279 77.5 279C68.9397 279 62 272.061 62 263.5C62 254.94 68.9397 248 77.5 248Z" fill="#1E1E1E"/>
<path d="M139.5 248C148.061 248 155 254.94 155 263.5C155 272.061 148.061 279 139.5 279C130.94 279 124 272.061 124 263.5C124 254.94 130.94 248 139.5 248Z" fill="#1E1E1E"/>
<path d="M170.5 248C179.061 248 186 254.94 186 263.5C186 272.061 179.061 279 170.5 279C161.94 279 155 272.061 155 263.5C155 254.94 161.94 248 170.5 248Z" fill="#1E1E1E"/>
<path d="M201.5 248C210.061 248 217 254.94 217 263.5C217 272.061 210.061 279 201.5 279C192.94 279 186 272.061 186 263.5C186 254.94 192.94 248 201.5 248Z" fill="#1E1E1E"/>
<path d="M263.5 248C272.061 248 279 254.94 279 263.5C279 272.061 272.061 279 263.5 279C254.94 279 248 272.061 248 263.5C248 254.94 254.94 248 263.5 248Z" fill="#1E1E1E"/>
<path d="M294.5 248C303.061 248 310 254.94 310 263.5C310 272.061 303.061 279 294.5 279C285.94 279 279 272.061 279 263.5C279 254.94 285.94 248 294.5 248Z" fill="#1E1E1E"/>
<path d="M387.5 248C396.061 248 403 254.94 403 263.5C403 272.061 396.061 279 387.5 279C378.94 279 372 272.061 372 263.5C372 254.94 378.94 248 387.5 248Z" fill="#1E1E1E"/>
<path d="M511.5 248C520.061 248 527 254.94 527 263.5C527 272.061 520.061 279 511.5 279C502.94 279 496 272.061 496 263.5C496 254.94 502.94 248 511.5 248Z" fill="#1E1E1E"/>
<path d="M542.5 248C551.061 248 558 254.94 558 263.5C558 272.061 551.061 279 542.5 279C533.94 279 527 272.061 527 263.5C527 254.94 533.94 248 542.5 248Z" fill="#1E1E1E"/>
<path d="M666.5 248C675.061 248 682 254.94 682 263.5C682 272.061 675.061 279 666.5 279C657.94 279 651 272.061 651 263.5C651 254.94 657.94 248 666.5 248Z" fill="#1E1E1E"/>
<path d="M759.5 248C768.061 248 775 254.94 775 263.5C775 272.061 768.061 279 759.5 279C750.94 279 744 272.061 744 263.5C744 254.94 750.94 248 759.5 248Z" fill="#1E1E1E"/>
<path d="M790.5 248C799.061 248 806 254.94 806 263.5C806 272.061 799.061 279 790.5 279C781.94 279 775 272.061 775 263.5C775 254.94 781.94 248 790.5 248Z" fill="#1E1E1E"/>
<path d="M914.5 248C923.061 248 930 254.94 930 263.5C930 272.061 923.061 279 914.5 279C905.94 279 899 272.061 899 263.5C899 254.94 905.94 248 914.5 248Z" fill="#1E1E1E"/>
<path d="M1007.5 248C1016.06 248 1023 254.94 1023 263.5C1023 272.061 1016.06 279 1007.5 279C998.94 279 992 272.061 992 263.5C992 254.94 998.94 248 1007.5 248Z" fill="#1E1E1E"/>
<path d="M108.5 279C117.061 279 124 285.94 124 294.5C124 303.061 117.061 310 108.5 310C99.9397 310 93 303.061 93 294.5C93 285.94 99.9397 279 108.5 279Z" fill="#1E1E1E"/>
<path d="M139.5 279C148.061 279 155 285.94 155 294.5C155 303.061 148.061 310 139.5 310C130.94 310 124 303.061 124 294.5C124 285.94 130.94 279 139.5 279Z" fill="#1E1E1E"/>
<path d="M232.5 279C241.061 279 248 285.94 248 294.5C248 303.061 241.061 310 232.5 310C223.94 310 217 303.061 217 294.5C217 285.94 223.94 279 232.5 279Z" fill="#1E1E1E"/>
<path d="M387.5 279C396.061 279 403 285.94 403 294.5C403 303.061 396.061 310 387.5 310C378.94 310 372 303.061 372 294.5C372 285.94 378.94 279 387.5 279Z" fill="#1E1E1E"/>
<path d="M449.5 279C458.061 279 465 285.94 465 294.5C465 303.061 458.061 310 449.5 310C440.94 310 434 303.061 434 294.5C434 285.94 440.94 279 449.5 279Z" fill="#1E1E1E"/>
<path d="M542.5 279C551.061 279 558 285.94 558 294.5C558 303.061 551.061 310 542.5 310C533.94 310 527 303.061 527 294.5C527 285.94 533.94 279 542.5 279Z" fill="#1E1E1E"/>
<path d="M573.5 279C582.061 279 589 285.94 589 294.5C589 303.061 582.061 310 573.5 310C564.94 310 558 303.061 558 294.5C558 285.94 564.94 279 573.5 279Z" fill="#1E1E1E"/>
<path d="M604.5 279C613.061 279 620 285.94 620 294.5C620 303.061 613.061 310 604.5 310C595.94 310 589 303.061 589 294.5C589 285.94 595.94 279 604.5 279Z" fill="#1E1E1E"/>
<path d="M635.5 279C644.061 279 651 285.94 651 294.5C651 303.061 644.061 310 635.5 310C626.94 310 620 303.061 620 294.5C620 285.94 626.94 279 635.5 279Z" fill="#1E1E1E"/>
<path d="M759.5 279C768.061 279 775 285.94 775 294.5C775 303.061 768.061 310 759.5 310C750.94 310 744 303.061 744 294.5C744 285.94 750.94 279 759.5 279Z" fill="#1E1E1E"/>
<path d="M821.5 279C830.061 279 837 285.94 837 294.5C837 303.061 830.061 310 821.5 310C812.94 310 806 303.061 806 294.5C806 285.94 812.94 279 821.5 279Z" fill="#1E1E1E"/>
<path d="M945.5 279C954.061 279 961 285.94 961 294.5C961 303.061 954.061 310 945.5 310C936.94 310 930 303.061 930 294.5C930 285.94 936.94 279 945.5 279Z" fill="#1E1E1E"/>
<path d="M976.5 279C985.061 279 992 285.94 992 294.5C992 303.061 985.061 310 976.5 310C967.94 310 961 303.061 961 294.5C961 285.94 967.94 279 976.5 279Z" fill="#1E1E1E"/>
<path d="M1007.5 279C1016.06 279 1023 285.94 1023 294.5C1023 303.061 1016.06 310 1007.5 310C998.94 310 992 303.061 992 294.5C992 285.94 998.94 279 1007.5 279Z" fill="#1E1E1E"/>
<path d="M15.5 310C24.0608 310 31 316.94 31 325.5C31 334.061 24.0608 341 15.5 341C6.93966 341 0 334.061 0 325.5C0 316.94 6.93966 310 15.5 310Z" fill="#1E1E1E"/>
<path d="M46.5 310C55.0608 310 62 316.94 62 325.5C62 334.061 55.0608 341 46.5 341C37.9397 341 31 334.061 31 325.5C31 316.94 37.9397 310 46.5 310Z" fill="#1E1E1E"/>
<path d="M77.5 310C86.0608 310 93 316.94 93 325.5C93 334.061 86.0608 341 77.5 341C68.9397 341 62 334.061 62 325.5C62 316.94 68.9397 310 77.5 310Z" fill="#1E1E1E"/>
<path d="M108.5 310C117.061 310 124 316.94 124 325.5C124 334.061 117.061 341 108.5 341C99.9397 341 93 334.061 93 325.5C93 316.94 99.9397 310 108.5 310Z" fill="#1E1E1E"/>
<path d="M139.5 310C148.061 310 155 316.94 155 325.5C155 334.061 148.061 341 139.5 341C130.94 341 124 334.061 124 325.5C124 316.94 130.94 310 139.5 310Z" fill="#1E1E1E"/>
<path d="M170.5 310C179.061 310 186 316.94 186 325.5C186 334.061 179.061 341 170.5 341C161.94 341 155 334.061 155 325.5C155 316.94 161.94 310 170.5 310Z" fill="#1E1E1E"/>
<path d="M201.5 310C210.061 310 217 316.94 217 325.5C217 334.061 210.061 341 201.5 341C192.94 341 186 334.061 186 325.5C186 316.94 192.94 310 201.5 310Z" fill="#1E1E1E"/>
<path d="M232.5 310C241.061 310 248 316.94 248 325.5C248 334.061 241.061 341 232.5 341C223.94 341 217 334.061 217 325.5C217 316.94 223.94 310 232.5 310Z" fill="#1E1E1E"/>
<path d="M387.5 310C396.061 310 403 316.94 403 325.5C403 334.061 396.061 341 387.5 341C378.94 341 372 334.061 372 325.5C372 316.94 378.94 310 387.5 310Z" fill="#1E1E1E"/>
<path d="M480.5 310C489.061 310 496 316.94 496 325.5C496 334.061 489.061 341 480.5 341C471.94 341 465 334.061 465 325.5C465 316.94 471.94 310 480.5 310Z" fill="#1E1E1E"/>
<path d="M511.5 310C520.061 310 527 316.94 527 325.5C527 334.061 520.061 341 511.5 341C502.94 341 496 334.061 496 325.5C496 316.94 502.94 310 511.5 310Z" fill="#1E1E1E"/>
<path d="M542.5 310C551.061 310 558 316.94 558 325.5C558 334.061 551.061 341 542.5 341C533.94 341 527 334.061 527 325.5C527 316.94 533.94 310 542.5 310Z" fill="#1E1E1E"/>
<path d="M573.5 310C582.061 310 589 316.94 589 325.5C589 334.061 582.061 341 573.5 341C564.94 341 558 334.061 558 325.5C558 316.94 564.94 310 573.5 310Z" fill="#1E1E1E"/>
<path d="M635.5 310C644.061 310 651 316.94 651 325.5C651 334.061 644.061 341 635.5 341C626.94 341 620 334.061 620 325.5C620 316.94 626.94 310 635.5 310Z" fill="#1E1E1E"/>
<path d="M666.5 310C675.061 310 682 316.94 682 325.5C682 334.061 675.061 341 666.5 341C657.94 341 651 334.061 651 325.5C651 316.94 657.94 310 666.5 310Z" fill="#1E1E1E"/>
<path d="M759.5 310C768.061 310 775 316.94 775 325.5C775 334.061 768.061 341 759.5 341C750.94 341 744 334.061 744 325.5C744 316.94 750.94 310 759.5 310Z" fill="#1E1E1E"/>
<path d="M883.5 310C892.061 310 899 316.94 899 325.5C899 334.061 892.061 341 883.5 341C874.94 341 868 334.061 868 325.5C868 316.94 874.94 310 883.5 310Z" fill="#1E1E1E"/>
<path d="M976.5 310C985.061 310 992 316.94 992 325.5C992 334.061 985.061 341 976.5 341C967.94 341 961 334.061 961 325.5C961 316.94 967.94 310 976.5 310Z" fill="#1E1E1E"/>
<path d="M1007.5 310C1016.06 310 1023 316.94 1023 325.5C1023 334.061 1016.06 341 1007.5 341C998.94 341 992 334.061 992 325.5C992 316.94 998.94 310 1007.5 310Z" fill="#1E1E1E"/>
<path d="M15.5 341C24.0608 341 31 347.94 31 356.5C31 365.061 24.0608 372 15.5 372C6.93966 372 0 365.061 0 356.5C0 347.94 6.93966 341 15.5 341Z" fill="#1E1E1E"/>
<path d="M108.5 341C117.061 341 124 347.94 124 356.5C124 365.061 117.061 372 108.5 372C99.9397 372 93 365.061 93 356.5C93 347.94 99.9397 341 108.5 341Z" fill="#1E1E1E"/>
<path d="M139.5 341C148.061 341 155 347.94 155 356.5C155 365.061 148.061 372 139.5 372C130.94 372 124 365.061 124 356.5C124 347.94 130.94 341 139.5 341Z" fill="#1E1E1E"/>
<path d="M232.5 341C241.061 341 248 347.94 248 356.5C248 365.061 241.061 372 232.5 372C223.94 372 217 365.061 217 356.5C217 347.94 223.94 341 232.5 341Z" fill="#1E1E1E"/>
<path d="M263.5 341C272.061 341 279 347.94 279 356.5C279 365.061 272.061 372 263.5 372C254.94 372 248 365.061 248 356.5C248 347.94 254.94 341 263.5 341Z" fill="#1E1E1E"/>
<path d="M294.5 341C303.061 341 310 347.94 310 356.5C310 365.061 303.061 372 294.5 372C285.94 372 279 365.061 279 356.5C279 347.94 285.94 341 294.5 341Z" fill="#1E1E1E"/>
<path d="M356.5 341C365.061 341 372 347.94 372 356.5C372 365.061 365.061 372 356.5 372C347.94 372 341 365.061 341 356.5C341 347.94 347.94 341 356.5 341Z" fill="#1E1E1E"/>
<path d="M387.5 341C396.061 341 403 347.94 403 356.5C403 365.061 396.061 372 387.5 372C378.94 372 372 365.061 372 356.5C372 347.94 378.94 341 387.5 341Z" fill="#1E1E1E"/>
<path d="M418.5 341C427.061 341 434 347.94 434 356.5C434 365.061 427.061 372 418.5 372C409.94 372 403 365.061 403 356.5C403 347.94 409.94 341 418.5 341Z" fill="#1E1E1E"/>
<path d="M542.5 341C551.061 341 558 347.94 558 356.5C558 365.061 551.061 372 542.5 372C533.94 372 527 365.061 527 356.5C527 347.94 533.94 341 542.5 341Z" fill="#1E1E1E"/>
<path d="M604.5 341C613.061 341 620 347.94 620 356.5C620 365.061 613.061 372 604.5 372C595.94 372 589 365.061 589 356.5C589 347.94 595.94 341 604.5 341Z" fill="#1E1E1E"/>
<path d="M728.5 341C737.061 341 744 347.94 744 356.5C744 365.061 737.061 372 728.5 372C719.94 372 713 365.061 713 356.5C713 347.94 719.94 341 728.5 341Z" fill="#1E1E1E"/>
<path d="M759.5 341C768.061 341 775 347.94 775 356.5C775 365.061 768.061 372 759.5 372C750.94 372 744 365.061 744 356.5C744 347.94 750.94 341 759.5 341Z" fill="#1E1E1E"/>
<path d="M821.5 341C830.061 341 837 347.94 837 356.5C837 365.061 830.061 372 821.5 372C812.94 372 806 365.061 806 356.5C806 347.94 812.94 341 821.5 341Z" fill="#1E1E1E"/>
<path d="M976.5 341C985.061 341 992 347.94 992 356.5C992 365.061 985.061 372 976.5 372C967.94 372 961 365.061 961 356.5C961 347.94 967.94 341 976.5 341Z" fill="#1E1E1E"/>
<path d="M108.5 372C117.061 372 124 378.94 124 387.5C124 396.061 117.061 403 108.5 403C99.9397 403 93 396.061 93 387.5C93 378.94 99.9397 372 108.5 372Z" fill="#1E1E1E"/>
<path d="M170.5 372C179.061 372 186 378.94 186 387.5C186 396.061 179.061 403 170.5 403C161.94 403 155 396.061 155 387.5C155 378.94 161.94 372 170.5 372Z" fill="#1E1E1E"/>
<path d="M201.5 372C210.061 372 217 378.94 217 387.5C217 396.061 210.061 403 201.5 403C192.94 403 186 396.061 186 387.5C186 378.94 192.94 372 201.5 372Z" fill="#1E1E1E"/>
<path d="M294.5 372C303.061 372 310 378.94 310 387.5C310 396.061 303.061 403 294.5 403C285.94 403 279 396.061 279 387.5C279 378.94 285.94 372 294.5 372Z" fill="#1E1E1E"/>
<path d="M325.5 372C334.061 372 341 378.94 341 387.5C341 396.061 334.061 403 325.5 403C316.94 403 310 396.061 310 387.5C310 378.94 316.94 372 325.5 372Z" fill="#1E1E1E"/>
<path d="M728.5 372C737.061 372 744 378.94 744 387.5C744 396.061 737.061 403 728.5 403C719.94 403 713 396.061 713 387.5C713 378.94 719.94 372 728.5 372Z" fill="#1E1E1E"/>
<path d="M759.5 372C768.061 372 775 378.94 775 387.5C775 396.061 768.061 403 759.5 403C750.94 403 744 396.061 744 387.5C744 378.94 750.94 372 759.5 372Z" fill="#1E1E1E"/>
<path d="M790.5 372C799.061 372 806 378.94 806 387.5C806 396.061 799.061 403 790.5 403C781.94 403 775 396.061 775 387.5C775 378.94 781.94 372 790.5 372Z" fill="#1E1E1E"/>
<path d="M821.5 372C830.061 372 837 378.94 837 387.5C837 396.061 830.061 403 821.5 403C812.94 403 806 396.061 806 387.5C806 378.94 812.94 372 821.5 372Z" fill="#1E1E1E"/>
<path d="M976.5 372C985.061 372 992 378.94 992 387.5C992 396.061 985.061 403 976.5 403C967.94 403 961 396.061 961 387.5C961 378.94 967.94 372 976.5 372Z" fill="#1E1E1E"/>
<path d="M170.5 403C179.061 403 186 409.94 186 418.5C186 427.061 179.061 434 170.5 434C161.94 434 155 427.061 155 418.5C155 409.94 161.94 403 170.5 403Z" fill="#1E1E1E"/>
<path d="M325.5 403C334.061 403 341 409.94 341 418.5C341 427.061 334.061 434 325.5 434C316.94 434 310 427.061 310 418.5C310 409.94 316.94 403 325.5 403Z" fill="#1E1E1E"/>
<path d="M759.5 403C768.061 403 775 409.94 775 418.5C775 427.061 768.061 434 759.5 434C750.94 434 744 427.061 744 418.5C744 409.94 750.94 403 759.5 403Z" fill="#1E1E1E"/>
<path d="M790.5 403C799.061 403 806 409.94 806 418.5C806 427.061 799.061 434 790.5 434C781.94 434 775 427.061 775 418.5C775 409.94 781.94 403 790.5 403Z" fill="#1E1E1E"/>
<path d="M821.5 403C830.061 403 837 409.94 837 418.5C837 427.061 830.061 434 821.5 434C812.94 434 806 427.061 806 418.5C806 409.94 812.94 403 821.5 403Z" fill="#1E1E1E"/>
<path d="M945.5 403C954.061 403 961 409.94 961 418.5C961 427.061 954.061 434 945.5 434C936.94 434 930 427.061 930 418.5C930 409.94 936.94 403 945.5 403Z" fill="#1E1E1E"/>
<path d="M976.5 403C985.061 403 992 409.94 992 418.5C992 427.061 985.061 434 976.5 434C967.94 434 961 427.061 961 418.5C961 409.94 967.94 403 976.5 403Z" fill="#1E1E1E"/>
<path d="M1007.5 403C1016.06 403 1023 409.94 1023 418.5C1023 427.061 1016.06 434 1007.5 434C998.94 434 992 427.061 992 418.5C992 409.94 998.94 403 1007.5 403Z" fill="#1E1E1E"/>
<path d="M77.5 434C86.0608 434 93 440.94 93 449.5C93 458.061 86.0608 465 77.5 465C68.9397 465 62 458.061 62 449.5C62 440.94 68.9397 434 77.5 434Z" fill="#1E1E1E"/>
<path d="M108.5 434C117.061 434 124 440.94 124 449.5C124 458.061 117.061 465 108.5 465C99.9397 465 93 458.061 93 449.5C93 440.94 99.9397 434 108.5 434Z" fill="#1E1E1E"/>
<path d="M201.5 434C210.061 434 217 440.94 217 449.5C217 458.061 210.061 465 201.5 465C192.94 465 186 458.061 186 449.5C186 440.94 192.94 434 201.5 434Z" fill="#1E1E1E"/>
<path d="M263.5 434C272.061 434 279 440.94 279 449.5C279 458.061 272.061 465 263.5 465C254.94 465 248 458.061 248 449.5C248 440.94 254.94 434 263.5 434Z" fill="#1E1E1E"/>
<path d="M325.5 434C334.061 434 341 440.94 341 449.5C341 458.061 334.061 465 325.5 465C316.94 465 310 458.061 310 449.5C310 440.94 316.94 434 325.5 434Z" fill="#1E1E1E"/>
<path d="M759.5 434C768.061 434 775 440.94 775 449.5C775 458.061 768.061 465 759.5 465C750.94 465 744 458.061 744 449.5C744 440.94 750.94 434 759.5 434Z" fill="#1E1E1E"/>
<path d="M790.5 434C799.061 434 806 440.94 806 449.5C806 458.061 799.061 465 790.5 465C781.94 465 775 458.061 775 449.5C775 440.94 781.94 434 790.5 434Z" fill="#1E1E1E"/>
<path d="M976.5 434C985.061 434 992 440.94 992 449.5C992 458.061 985.061 465 976.5 465C967.94 465 961 458.061 961 449.5C961 440.94 967.94 434 976.5 434Z" fill="#1E1E1E"/>
<path d="M1007.5 434C1016.06 434 1023 440.94 1023 449.5C1023 458.061 1016.06 465 1007.5 465C998.94 465 992 458.061 992 449.5C992 440.94 998.94 434 1007.5 434Z" fill="#1E1E1E"/>
<path d="M15.5 465C24.0608 465 31 471.94 31 480.5C31 489.061 24.0608 496 15.5 496C6.93966 496 0 489.061 0 480.5C0 471.94 6.93966 465 15.5 465Z" fill="#1E1E1E"/>
<path d="M46.5 465C55.0608 465 62 471.94 62 480.5C62 489.061 55.0608 496 46.5 496C37.9397 496 31 489.061 31 480.5C31 471.94 37.9397 465 46.5 465Z" fill="#1E1E1E"/>
<path d="M77.5 465C86.0608 465 93 471.94 93 480.5C93 489.061 86.0608 496 77.5 496C68.9397 496 62 489.061 62 480.5C62 471.94 68.9397 465 77.5 465Z" fill="#1E1E1E"/>
<path d="M108.5 465C117.061 465 124 471.94 124 480.5C124 489.061 117.061 496 108.5 496C99.9397 496 93 489.061 93 480.5C93 471.94 99.9397 465 108.5 465Z" fill="#1E1E1E"/>
<path d="M170.5 465C179.061 465 186 471.94 186 480.5C186 489.061 179.061 496 170.5 496C161.94 496 155 489.061 155 480.5C155 471.94 161.94 465 170.5 465Z" fill="#1E1E1E"/>
<path d="M263.5 465C272.061 465 279 471.94 279 480.5C279 489.061 272.061 496 263.5 496C254.94 496 248 489.061 248 480.5C248 471.94 254.94 465 263.5 465Z" fill="#1E1E1E"/>
<path d="M325.5 465C334.061 465 341 471.94 341 480.5C341 489.061 334.061 496 325.5 496C316.94 496 310 489.061 310 480.5C310 471.94 316.94 465 325.5 465Z" fill="#1E1E1E"/>
<path d="M697.5 465C706.061 465 713 471.94 713 480.5C713 489.061 706.061 496 697.5 496C688.94 496 682 489.061 682 480.5C682 471.94 688.94 465 697.5 465Z" fill="#1E1E1E"/>
<path d="M728.5 465C737.061 465 744 471.94 744 480.5C744 489.061 737.061 496 728.5 496C719.94 496 713 489.061 713 480.5C713 471.94 719.94 465 728.5 465Z" fill="#1E1E1E"/>
<path d="M759.5 465C768.061 465 775 471.94 775 480.5C775 489.061 768.061 496 759.5 496C750.94 496 744 489.061 744 480.5C744 471.94 750.94 465 759.5 465Z" fill="#1E1E1E"/>
<path d="M976.5 465C985.061 465 992 471.94 992 480.5C992 489.061 985.061 496 976.5 496C967.94 496 961 489.061 961 480.5C961 471.94 967.94 465 976.5 465Z" fill="#1E1E1E"/>
<path d="M1007.5 465C1016.06 465 1023 471.94 1023 480.5C1023 489.061 1016.06 496 1007.5 496C998.94 496 992 489.061 992 480.5C992 471.94 998.94 465 1007.5 465Z" fill="#1E1E1E"/>
<path d="M15.5 496C24.0608 496 31 502.94 31 511.5C31 520.061 24.0608 527 15.5 527C6.93966 527 0 520.061 0 511.5C0 502.94 6.93966 496 15.5 496Z" fill="#1E1E1E"/>
<path d="M139.5 496C148.061 496 155 502.94 155 511.5C155 520.061 148.061 527 139.5 527C130.94 527 124 520.061 124 511.5C124 502.94 130.94 496 139.5 496Z" fill="#1E1E1E"/>
<path d="M201.5 496C210.061 496 217 502.94 217 511.5C217 520.061 210.061 527 201.5 527C192.94 527 186 520.061 186 511.5C186 502.94 192.94 496 201.5 496Z" fill="#1E1E1E"/>
<path d="M232.5 496C241.061 496 248 502.94 248 511.5C248 520.061 241.061 527 232.5 527C223.94 527 217 520.061 217 511.5C217 502.94 223.94 496 232.5 496Z" fill="#1E1E1E"/>
<path d="M263.5 496C272.061 496 279 502.94 279 511.5C279 520.061 272.061 527 263.5 527C254.94 527 248 520.061 248 511.5C248 502.94 254.94 496 263.5 496Z" fill="#1E1E1E"/>
<path d="M294.5 496C303.061 496 310 502.94 310 511.5C310 520.061 303.061 527 294.5 527C285.94 527 279 520.061 279 511.5C279 502.94 285.94 496 294.5 496Z" fill="#1E1E1E"/>
<path d="M697.5 496C706.061 496 713 502.94 713 511.5C713 520.061 706.061 527 697.5 527C688.94 527 682 520.061 682 511.5C682 502.94 688.94 496 697.5 496Z" fill="#1E1E1E"/>
<path d="M821.5 496C830.061 496 837 502.94 837 511.5C837 520.061 830.061 527 821.5 527C812.94 527 806 520.061 806 511.5C806 502.94 812.94 496 821.5 496Z" fill="#1E1E1E"/>
<path d="M976.5 496C985.061 496 992 502.94 992 511.5C992 520.061 985.061 527 976.5 527C967.94 527 961 520.061 961 511.5C961 502.94 967.94 496 976.5 496Z" fill="#1E1E1E"/>
<path d="M15.5 527C24.0608 527 31 533.94 31 542.5C31 551.061 24.0608 558 15.5 558C6.93966 558 0 551.061 0 542.5C0 533.94 6.93966 527 15.5 527Z" fill="#1E1E1E"/>
<path d="M46.5 527C55.0608 527 62 533.94 62 542.5C62 551.061 55.0608 558 46.5 558C37.9397 558 31 551.061 31 542.5C31 533.94 37.9397 527 46.5 527Z" fill="#1E1E1E"/>
<path d="M170.5 527C179.061 527 186 533.94 186 542.5C186 551.061 179.061 558 170.5 558C161.94 558 155 551.061 155 542.5C155 533.94 161.94 527 170.5 527Z" fill="#1E1E1E"/>
<path d="M325.5 527C334.061 527 341 533.94 341 542.5C341 551.061 334.061 558 325.5 558C316.94 558 310 551.061 310 542.5C310 533.94 316.94 527 325.5 527Z" fill="#1E1E1E"/>
<path d="M790.5 527C799.061 527 806 533.94 806 542.5C806 551.061 799.061 558 790.5 558C781.94 558 775 551.061 775 542.5C775 533.94 781.94 527 790.5 527Z" fill="#1E1E1E"/>
<path d="M821.5 527C830.061 527 837 533.94 837 542.5C837 551.061 830.061 558 821.5 558C812.94 558 806 551.061 806 542.5C806 533.94 812.94 527 821.5 527Z" fill="#1E1E1E"/>
<path d="M914.5 527C923.061 527 930 533.94 930 542.5C930 551.061 923.061 558 914.5 558C905.94 558 899 551.061 899 542.5C899 533.94 905.94 527 914.5 527Z" fill="#1E1E1E"/>
<path d="M945.5 527C954.061 527 961 533.94 961 542.5C961 551.061 954.061 558 945.5 558C936.94 558 930 551.061 930 542.5C930 533.94 936.94 527 945.5 527Z" fill="#1E1E1E"/>
<path d="M976.5 527C985.061 527 992 533.94 992 542.5C992 551.061 985.061 558 976.5 558C967.94 558 961 551.061 961 542.5C961 533.94 967.94 527 976.5 527Z" fill="#1E1E1E"/>
<path d="M1007.5 527C1016.06 527 1023 533.94 1023 542.5C1023 551.061 1016.06 558 1007.5 558C998.94 558 992 551.061 992 542.5C992 533.94 998.94 527 1007.5 527Z" fill="#1E1E1E"/>
<path d="M46.5 558C55.0608 558 62 564.94 62 573.5C62 582.061 55.0608 589 46.5 589C37.9397 589 31 582.061 31 573.5C31 564.94 37.9397 558 46.5 558Z" fill="#1E1E1E"/>
<path d="M77.5 558C86.0608 558 93 564.94 93 573.5C93 582.061 86.0608 589 77.5 589C68.9397 589 62 582.061 62 573.5C62 564.94 68.9397 558 77.5 558Z" fill="#1E1E1E"/>
<path d="M170.5 558C179.061 558 186 564.94 186 573.5C186 582.061 179.061 589 170.5 589C161.94 589 155 582.061 155 573.5C155 564.94 161.94 558 170.5 558Z" fill="#1E1E1E"/>
<path d="M201.5 558C210.061 558 217 564.94 217 573.5C217 582.061 210.061 589 201.5 589C192.94 589 186 582.061 186 573.5C186 564.94 192.94 558 201.5 558Z" fill="#1E1E1E"/>
<path d="M232.5 558C241.061 558 248 564.94 248 573.5C248 582.061 241.061 589 232.5 589C223.94 589 217 582.061 217 573.5C217 564.94 223.94 558 232.5 558Z" fill="#1E1E1E"/>
<path d="M325.5 558C334.061 558 341 564.94 341 573.5C341 582.061 334.061 589 325.5 589C316.94 589 310 582.061 310 573.5C310 564.94 316.94 558 325.5 558Z" fill="#1E1E1E"/>
<path d="M790.5 558C799.061 558 806 564.94 806 573.5C806 582.061 799.061 589 790.5 589C781.94 589 775 582.061 775 573.5C775 564.94 781.94 558 790.5 558Z" fill="#1E1E1E"/>
<path d="M852.5 558C861.061 558 868 564.94 868 573.5C868 582.061 861.061 589 852.5 589C843.94 589 837 582.061 837 573.5C837 564.94 843.94 558 852.5 558Z" fill="#1E1E1E"/>
<path d="M945.5 558C954.061 558 961 564.94 961 573.5C961 582.061 954.061 589 945.5 589C936.94 589 930 582.061 930 573.5C930 564.94 936.94 558 945.5 558Z" fill="#1E1E1E"/>
<path d="M976.5 558C985.061 558 992 564.94 992 573.5C992 582.061 985.061 589 976.5 589C967.94 589 961 582.061 961 573.5C961 564.94 967.94 558 976.5 558Z" fill="#1E1E1E"/>
<path d="M1007.5 558C1016.06 558 1023 564.94 1023 573.5C1023 582.061 1016.06 589 1007.5 589C998.94 589 992 582.061 992 573.5C992 564.94 998.94 558 1007.5 558Z" fill="#1E1E1E"/>
<path d="M77.5 589C86.0608 589 93 595.94 93 604.5C93 613.061 86.0608 620 77.5 620C68.9397 620 62 613.061 62 604.5C62 595.94 68.9397 589 77.5 589Z" fill="#1E1E1E"/>
<path d="M108.5 589C117.061 589 124 595.94 124 604.5C124 613.061 117.061 620 108.5 620C99.9397 620 93 613.061 93 604.5C93 595.94 99.9397 589 108.5 589Z" fill="#1E1E1E"/>
<path d="M139.5 589C148.061 589 155 595.94 155 604.5C155 613.061 148.061 620 139.5 620C130.94 620 124 613.061 124 604.5C124 595.94 130.94 589 139.5 589Z" fill="#1E1E1E"/>
<path d="M170.5 589C179.061 589 186 595.94 186 604.5C186 613.061 179.061 620 170.5 620C161.94 620 155 613.061 155 604.5C155 595.94 161.94 589 170.5 589Z" fill="#1E1E1E"/>
<path d="M232.5 589C241.061 589 248 595.94 248 604.5C248 613.061 241.061 620 232.5 620C223.94 620 217 613.061 217 604.5C217 595.94 223.94 589 232.5 589Z" fill="#1E1E1E"/>
<path d="M821.5 589C830.061 589 837 595.94 837 604.5C837 613.061 830.061 620 821.5 620C812.94 620 806 613.061 806 604.5C806 595.94 812.94 589 821.5 589Z" fill="#1E1E1E"/>
<path d="M883.5 589C892.061 589 899 595.94 899 604.5C899 613.061 892.061 620 883.5 620C874.94 620 868 613.061 868 604.5C868 595.94 874.94 589 883.5 589Z" fill="#1E1E1E"/>
<path d="M976.5 589C985.061 589 992 595.94 992 604.5C992 613.061 985.061 620 976.5 620C967.94 620 961 613.061 961 604.5C961 595.94 967.94 589 976.5 589Z" fill="#1E1E1E"/>
<path d="M1007.5 589C1016.06 589 1023 595.94 1023 604.5C1023 613.061 1016.06 620 1007.5 620C998.94 620 992 613.061 992 604.5C992 595.94 998.94 589 1007.5 589Z" fill="#1E1E1E"/>
<path d="M15.5 620C24.0608 620 31 626.94 31 635.5C31 644.061 24.0608 651 15.5 651C6.93966 651 0 644.061 0 635.5C0 626.94 6.93966 620 15.5 620Z" fill="#1E1E1E"/>
<path d="M46.5 620C55.0608 620 62 626.94 62 635.5C62 644.061 55.0608 651 46.5 651C37.9397 651 31 644.061 31 635.5C31 626.94 37.9397 620 46.5 620Z" fill="#1E1E1E"/>
<path d="M77.5 620C86.0608 620 93 626.94 93 635.5C93 644.061 86.0608 651 77.5 651C68.9397 651 62 644.061 62 635.5C62 626.94 68.9397 620 77.5 620Z" fill="#1E1E1E"/>
<path d="M170.5 620C179.061 620 186 626.94 186 635.5C186 644.061 179.061 651 170.5 651C161.94 651 155 644.061 155 635.5C155 626.94 161.94 620 170.5 620Z" fill="#1E1E1E"/>
<path d="M201.5 620C210.061 620 217 626.94 217 635.5C217 644.061 210.061 651 201.5 651C192.94 651 186 644.061 186 635.5C186 626.94 192.94 620 201.5 620Z" fill="#1E1E1E"/>
<path d="M232.5 620C241.061 620 248 626.94 248 635.5C248 644.061 241.061 651 232.5 651C223.94 651 217 644.061 217 635.5C217 626.94 223.94 620 232.5 620Z" fill="#1E1E1E"/>
<path d="M759.5 620C768.061 620 775 626.94 775 635.5C775 644.061 768.061 651 759.5 651C750.94 651 744 644.061 744 635.5C744 626.94 750.94 620 759.5 620Z" fill="#1E1E1E"/>
<path d="M821.5 620C830.061 620 837 626.94 837 635.5C837 644.061 830.061 651 821.5 651C812.94 651 806 644.061 806 635.5C806 626.94 812.94 620 821.5 620Z" fill="#1E1E1E"/>
<path d="M914.5 620C923.061 620 930 626.94 930 635.5C930 644.061 923.061 651 914.5 651C905.94 651 899 644.061 899 635.5C899 626.94 905.94 620 914.5 620Z" fill="#1E1E1E"/>
<path d="M1007.5 620C1016.06 620 1023 626.94 1023 635.5C1023 644.061 1016.06 651 1007.5 651C998.94 651 992 644.061 992 635.5C992 626.94 998.94 620 1007.5 620Z" fill="#1E1E1E"/>
<path d="M46.5 651C55.0608 651 62 657.94 62 666.5C62 675.061 55.0608 682 46.5 682C37.9397 682 31 675.061 31 666.5C31 657.94 37.9397 651 46.5 651Z" fill="#1E1E1E"/>
<path d="M77.5 651C86.0608 651 93 657.94 93 666.5C93 675.061 86.0608 682 77.5 682C68.9397 682 62 675.061 62 666.5C62 657.94 68.9397 651 77.5 651Z" fill="#1E1E1E"/>
<path d="M139.5 651C148.061 651 155 657.94 155 666.5C155 675.061 148.061 682 139.5 682C130.94 682 124 675.061 124 666.5C124 657.94 130.94 651 139.5 651Z" fill="#1E1E1E"/>
<path d="M170.5 651C179.061 651 186 657.94 186 666.5C186 675.061 179.061 682 170.5 682C161.94 682 155 675.061 155 666.5C155 657.94 161.94 651 170.5 651Z" fill="#1E1E1E"/>
<path d="M232.5 651C241.061 651 248 657.94 248 666.5C248 675.061 241.061 682 232.5 682C223.94 682 217 675.061 217 666.5C217 657.94 223.94 651 232.5 651Z" fill="#1E1E1E"/>
<path d="M294.5 651C303.061 651 310 657.94 310 666.5C310 675.061 303.061 682 294.5 682C285.94 682 279 675.061 279 666.5C279 657.94 285.94 651 294.5 651Z" fill="#1E1E1E"/>
<path d="M325.5 651C334.061 651 341 657.94 341 666.5C341 675.061 334.061 682 325.5 682C316.94 682 310 675.061 310 666.5C310 657.94 316.94 651 325.5 651Z" fill="#1E1E1E"/>
<path d="M356.5 651C365.061 651 372 657.94 372 666.5C372 675.061 365.061 682 356.5 682C347.94 682 341 675.061 341 666.5C341 657.94 347.94 651 356.5 651Z" fill="#1E1E1E"/>
<path d="M480.5 651C489.061 651 496 657.94 496 666.5C496 675.061 489.061 682 480.5 682C471.94 682 465 675.061 465 666.5C465 657.94 471.94 651 480.5 651Z" fill="#1E1E1E"/>
<path d="M511.5 651C520.061 651 527 657.94 527 666.5C527 675.061 520.061 682 511.5 682C502.94 682 496 675.061 496 666.5C496 657.94 502.94 651 511.5 651Z" fill="#1E1E1E"/>
<path d="M604.5 651C613.061 651 620 657.94 620 666.5C620 675.061 613.061 682 604.5 682C595.94 682 589 675.061 589 666.5C589 657.94 595.94 651 604.5 651Z" fill="#1E1E1E"/>
<path d="M666.5 651C675.061 651 682 657.94 682 666.5C682 675.061 675.061 682 666.5 682C657.94 682 651 675.061 651 666.5C651 657.94 657.94 651 666.5 651Z" fill="#1E1E1E"/>
<path d="M728.5 651C737.061 651 744 657.94 744 666.5C744 675.061 737.061 682 728.5 682C719.94 682 713 675.061 713 666.5C713 657.94 719.94 651 728.5 651Z" fill="#1E1E1E"/>
<path d="M759.5 651C768.061 651 775 657.94 775 666.5C775 675.061 768.061 682 759.5 682C750.94 682 744 675.061 744 666.5C744 657.94 750.94 651 759.5 651Z" fill="#1E1E1E"/>
<path d="M790.5 651C799.061 651 806 657.94 806 666.5C806 675.061 799.061 682 790.5 682C781.94 682 775 675.061 775 666.5C775 657.94 781.94 651 790.5 651Z" fill="#1E1E1E"/>
<path d="M914.5 651C923.061 651 930 657.94 930 666.5C930 675.061 923.061 682 914.5 682C905.94 682 899 675.061 899 666.5C899 657.94 905.94 651 914.5 651Z" fill="#1E1E1E"/>
<path d="M945.5 651C954.061 651 961 657.94 961 666.5C961 675.061 954.061 682 945.5 682C936.94 682 930 675.061 930 666.5C930 657.94 936.94 651 945.5 651Z" fill="#1E1E1E"/>
<path d="M976.5 651C985.061 651 992 657.94 992 666.5C992 675.061 985.061 682 976.5 682C967.94 682 961 675.061 961 666.5C961 657.94 967.94 651 976.5 651Z" fill="#1E1E1E"/>
<path d="M1007.5 651C1016.06 651 1023 657.94 1023 666.5C1023 675.061 1016.06 682 1007.5 682C998.94 682 992 675.061 992 666.5C992 657.94 998.94 651 1007.5 651Z" fill="#1E1E1E"/>
<path d="M15.5 682C24.0608 682 31 688.94 31 697.5C31 706.061 24.0608 713 15.5 713C6.93966 713 0 706.061 0 697.5C0 688.94 6.93966 682 15.5 682Z" fill="#1E1E1E"/>
<path d="M108.5 682C117.061 682 124 688.94 124 697.5C124 706.061 117.061 713 108.5 713C99.9397 713 93 706.061 93 697.5C93 688.94 99.9397 682 108.5 682Z" fill="#1E1E1E"/>
<path d="M170.5 682C179.061 682 186 688.94 186 697.5C186 706.061 179.061 713 170.5 713C161.94 713 155 706.061 155 697.5C155 688.94 161.94 682 170.5 682Z" fill="#1E1E1E"/>
<path d="M201.5 682C210.061 682 217 688.94 217 697.5C217 706.061 210.061 713 201.5 713C192.94 713 186 706.061 186 697.5C186 688.94 192.94 682 201.5 682Z" fill="#1E1E1E"/>
<path d="M232.5 682C241.061 682 248 688.94 248 697.5C248 706.061 241.061 713 232.5 713C223.94 713 217 706.061 217 697.5C217 688.94 223.94 682 232.5 682Z" fill="#1E1E1E"/>
<path d="M263.5 682C272.061 682 279 688.94 279 697.5C279 706.061 272.061 713 263.5 713C254.94 713 248 706.061 248 697.5C248 688.94 254.94 682 263.5 682Z" fill="#1E1E1E"/>
<path d="M356.5 682C365.061 682 372 688.94 372 697.5C372 706.061 365.061 713 356.5 713C347.94 713 341 706.061 341 697.5C341 688.94 347.94 682 356.5 682Z" fill="#1E1E1E"/>
<path d="M387.5 682C396.061 682 403 688.94 403 697.5C403 706.061 396.061 713 387.5 713C378.94 713 372 706.061 372 697.5C372 688.94 378.94 682 387.5 682Z" fill="#1E1E1E"/>
<path d="M418.5 682C427.061 682 434 688.94 434 697.5C434 706.061 427.061 713 418.5 713C409.94 713 403 706.061 403 697.5C403 688.94 409.94 682 418.5 682Z" fill="#1E1E1E"/>
<path d="M480.5 682C489.061 682 496 688.94 496 697.5C496 706.061 489.061 713 480.5 713C471.94 713 465 706.061 465 697.5C465 688.94 471.94 682 480.5 682Z" fill="#1E1E1E"/>
<path d="M542.5 682C551.061 682 558 688.94 558 697.5C558 706.061 551.061 713 542.5 713C533.94 713 527 706.061 527 697.5C527 688.94 533.94 682 542.5 682Z" fill="#1E1E1E"/>
<path d="M573.5 682C582.061 682 589 688.94 589 697.5C589 706.061 582.061 713 573.5 713C564.94 713 558 706.061 558 697.5C558 688.94 564.94 682 573.5 682Z" fill="#1E1E1E"/>
<path d="M635.5 682C644.061 682 651 688.94 651 697.5C651 706.061 644.061 713 635.5 713C626.94 713 620 706.061 620 697.5C620 688.94 626.94 682 635.5 682Z" fill="#1E1E1E"/>
<path d="M697.5 682C706.061 682 713 688.94 713 697.5C713 706.061 706.061 713 697.5 713C688.94 713 682 706.061 682 697.5C682 688.94 688.94 682 697.5 682Z" fill="#1E1E1E"/>
<path d="M728.5 682C737.061 682 744 688.94 744 697.5C744 706.061 737.061 713 728.5 713C719.94 713 713 706.061 713 697.5C713 688.94 719.94 682 728.5 682Z" fill="#1E1E1E"/>
<path d="M759.5 682C768.061 682 775 688.94 775 697.5C775 706.061 768.061 713 759.5 713C750.94 713 744 706.061 744 697.5C744 688.94 750.94 682 759.5 682Z" fill="#1E1E1E"/>
<path d="M821.5 682C830.061 682 837 688.94 837 697.5C837 706.061 830.061 713 821.5 713C812.94 713 806 706.061 806 697.5C806 688.94 812.94 682 821.5 682Z" fill="#1E1E1E"/>
<path d="M914.5 682C923.061 682 930 688.94 930 697.5C930 706.061 923.061 713 914.5 713C905.94 713 899 706.061 899 697.5C899 688.94 905.94 682 914.5 682Z" fill="#1E1E1E"/>
<path d="M945.5 682C954.061 682 961 688.94 961 697.5C961 706.061 954.061 713 945.5 713C936.94 713 930 706.061 930 697.5C930 688.94 936.94 682 945.5 682Z" fill="#1E1E1E"/>
<path d="M1007.5 682C1016.06 682 1023 688.94 1023 697.5C1023 706.061 1016.06 713 1007.5 713C998.94 713 992 706.061 992 697.5C992 688.94 998.94 682 1007.5 682Z" fill="#1E1E1E"/>
<path d="M46.5 713C55.0608 713 62 719.94 62 728.5C62 737.061 55.0608 744 46.5 744C37.9397 744 31 737.061 31 728.5C31 719.94 37.9397 713 46.5 713Z" fill="#1E1E1E"/>
<path d="M108.5 713C117.061 713 124 719.94 124 728.5C124 737.061 117.061 744 108.5 744C99.9397 744 93 737.061 93 728.5C93 719.94 99.9397 713 108.5 713Z" fill="#1E1E1E"/>
<path d="M170.5 713C179.061 713 186 719.94 186 728.5C186 737.061 179.061 744 170.5 744C161.94 744 155 737.061 155 728.5C155 719.94 161.94 713 170.5 713Z" fill="#1E1E1E"/>
<path d="M232.5 713C241.061 713 248 719.94 248 728.5C248 737.061 241.061 744 232.5 744C223.94 744 217 737.061 217 728.5C217 719.94 223.94 713 232.5 713Z" fill="#1E1E1E"/>
<path d="M325.5 713C334.061 713 341 719.94 341 728.5C341 737.061 334.061 744 325.5 744C316.94 744 310 737.061 310 728.5C310 719.94 316.94 713 325.5 713Z" fill="#1E1E1E"/>
<path d="M387.5 713C396.061 713 403 719.94 403 728.5C403 737.061 396.061 744 387.5 744C378.94 744 372 737.061 372 728.5C372 719.94 378.94 713 387.5 713Z" fill="#1E1E1E"/>
<path d="M418.5 713C427.061 713 434 719.94 434 728.5C434 737.061 427.061 744 418.5 744C409.94 744 403 737.061 403 728.5C403 719.94 409.94 713 418.5 713Z" fill="#1E1E1E"/>
<path d="M511.5 713C520.061 713 527 719.94 527 728.5C527 737.061 520.061 744 511.5 744C502.94 744 496 737.061 496 728.5C496 719.94 502.94 713 511.5 713Z" fill="#1E1E1E"/>
<path d="M542.5 713C551.061 713 558 719.94 558 728.5C558 737.061 551.061 744 542.5 744C533.94 744 527 737.061 527 728.5C527 719.94 533.94 713 542.5 713Z" fill="#1E1E1E"/>
<path d="M604.5 713C613.061 713 620 719.94 620 728.5C620 737.061 613.061 744 604.5 744C595.94 744 589 737.061 589 728.5C589 719.94 595.94 713 604.5 713Z" fill="#1E1E1E"/>
<path d="M666.5 713C675.061 713 682 719.94 682 728.5C682 737.061 675.061 744 666.5 744C657.94 744 651 737.061 651 728.5C651 719.94 657.94 713 666.5 713Z" fill="#1E1E1E"/>
<path d="M697.5 713C706.061 713 713 719.94 713 728.5C713 737.061 706.061 744 697.5 744C688.94 744 682 737.061 682 728.5C682 719.94 688.94 713 697.5 713Z" fill="#1E1E1E"/>
<path d="M759.5 713C768.061 713 775 719.94 775 728.5C775 737.061 768.061 744 759.5 744C750.94 744 744 737.061 744 728.5C744 719.94 750.94 713 759.5 713Z" fill="#1E1E1E"/>
<path d="M790.5 713C799.061 713 806 719.94 806 728.5C806 737.061 799.061 744 790.5 744C781.94 744 775 737.061 775 728.5C775 719.94 781.94 713 790.5 713Z" fill="#1E1E1E"/>
<path d="M883.5 713C892.061 713 899 719.94 899 728.5C899 737.061 892.061 744 883.5 744C874.94 744 868 737.061 868 728.5C868 719.94 874.94 713 883.5 713Z" fill="#1E1E1E"/>
<path d="M1007.5 713C1016.06 713 1023 719.94 1023 728.5C1023 737.061 1016.06 744 1007.5 744C998.94 744 992 737.061 992 728.5C992 719.94 998.94 713 1007.5 713Z" fill="#1E1E1E"/>
<path d="M15.5 744C24.0608 744 31 750.94 31 759.5C31 768.061 24.0608 775 15.5 775C6.93966 775 0 768.061 0 759.5C0 750.94 6.93966 744 15.5 744Z" fill="#1E1E1E"/>
<path d="M108.5 744C117.061 744 124 750.94 124 759.5C124 768.061 117.061 775 108.5 775C99.9397 775 93 768.061 93 759.5C93 750.94 99.9397 744 108.5 744Z" fill="#1E1E1E"/>
<path d="M139.5 744C148.061 744 155 750.94 155 759.5C155 768.061 148.061 775 139.5 775C130.94 775 124 768.061 124 759.5C124 750.94 130.94 744 139.5 744Z" fill="#1E1E1E"/>
<path d="M170.5 744C179.061 744 186 750.94 186 759.5C186 768.061 179.061 775 170.5 775C161.94 775 155 768.061 155 759.5C155 750.94 161.94 744 170.5 744Z" fill="#1E1E1E"/>
<path d="M201.5 744C210.061 744 217 750.94 217 759.5C217 768.061 210.061 775 201.5 775C192.94 775 186 768.061 186 759.5C186 750.94 192.94 744 201.5 744Z" fill="#1E1E1E"/>
<path d="M232.5 744C241.061 744 248 750.94 248 759.5C248 768.061 241.061 775 232.5 775C223.94 775 217 768.061 217 759.5C217 750.94 223.94 744 232.5 744Z" fill="#1E1E1E"/>
<path d="M356.5 744C365.061 744 372 750.94 372 759.5C372 768.061 365.061 775 356.5 775C347.94 775 341 768.061 341 759.5C341 750.94 347.94 744 356.5 744Z" fill="#1E1E1E"/>
<path d="M449.5 744C458.061 744 465 750.94 465 759.5C465 768.061 458.061 775 449.5 775C440.94 775 434 768.061 434 759.5C434 750.94 440.94 744 449.5 744Z" fill="#1E1E1E"/>
<path d="M511.5 744C520.061 744 527 750.94 527 759.5C527 768.061 520.061 775 511.5 775C502.94 775 496 768.061 496 759.5C496 750.94 502.94 744 511.5 744Z" fill="#1E1E1E"/>
<path d="M635.5 744C644.061 744 651 750.94 651 759.5C651 768.061 644.061 775 635.5 775C626.94 775 620 768.061 620 759.5C620 750.94 626.94 744 635.5 744Z" fill="#1E1E1E"/>
<path d="M666.5 744C675.061 744 682 750.94 682 759.5C682 768.061 675.061 775 666.5 775C657.94 775 651 768.061 651 759.5C651 750.94 657.94 744 666.5 744Z" fill="#1E1E1E"/>
<path d="M728.5 744C737.061 744 744 750.94 744 759.5C744 768.061 737.061 775 728.5 775C719.94 775 713 768.061 713 759.5C713 750.94 719.94 744 728.5 744Z" fill="#1E1E1E"/>
<path d="M759.5 744C768.061 744 775 750.94 775 759.5C775 768.061 768.061 775 759.5 775C750.94 775 744 768.061 744 759.5C744 750.94 750.94 744 759.5 744Z" fill="#1E1E1E"/>
<path d="M790.5 744C799.061 744 806 750.94 806 759.5C806 768.061 799.061 775 790.5 775C781.94 775 775 768.061 775 759.5C775 750.94 781.94 744 790.5 744Z" fill="#1E1E1E"/>
<path d="M821.5 744C830.061 744 837 750.94 837 759.5C837 768.061 830.061 775 821.5 775C812.94 775 806 768.061 806 759.5C806 750.94 812.94 744 821.5 744Z" fill="#1E1E1E"/>
<path d="M852.5 744C861.061 744 868 750.94 868 759.5C868 768.061 861.061 775 852.5 775C843.94 775 837 768.061 837 759.5C837 750.94 843.94 744 852.5 744Z" fill="#1E1E1E"/>
<path d="M883.5 744C892.061 744 899 750.94 899 759.5C899 768.061 892.061 775 883.5 775C874.94 775 868 768.061 868 759.5C868 750.94 874.94 744 883.5 744Z" fill="#1E1E1E"/>
<path d="M976.5 744C985.061 744 992 750.94 992 759.5C992 768.061 985.061 775 976.5 775C967.94 775 961 768.061 961 759.5C961 750.94 967.94 744 976.5 744Z" fill="#1E1E1E"/>
<path d="M263.5 775C272.061 775 279 781.94 279 790.5C279 799.061 272.061 806 263.5 806C254.94 806 248 799.061 248 790.5C248 781.94 254.94 775 263.5 775Z" fill="#1E1E1E"/>
<path d="M294.5 775C303.061 775 310 781.94 310 790.5C310 799.061 303.061 806 294.5 806C285.94 806 279 799.061 279 790.5C279 781.94 285.94 775 294.5 775Z" fill="#1E1E1E"/>
<path d="M325.5 775C334.061 775 341 781.94 341 790.5C341 799.061 334.061 806 325.5 806C316.94 806 310 799.061 310 790.5C310 781.94 316.94 775 325.5 775Z" fill="#1E1E1E"/>
<path d="M356.5 775C365.061 775 372 781.94 372 790.5C372 799.061 365.061 806 356.5 806C347.94 806 341 799.061 341 790.5C341 781.94 347.94 775 356.5 775Z" fill="#1E1E1E"/>
<path d="M387.5 775C396.061 775 403 781.94 403 790.5C403 799.061 396.061 806 387.5 806C378.94 806 372 799.061 372 790.5C372 781.94 378.94 775 387.5 775Z" fill="#1E1E1E"/>
<path d="M449.5 775C458.061 775 465 781.94 465 790.5C465 799.061 458.061 806 449.5 806C440.94 806 434 799.061 434 790.5C434 781.94 440.94 775 449.5 775Z" fill="#1E1E1E"/>
<path d="M480.5 775C489.061 775 496 781.94 496 790.5C496 799.061 489.061 806 480.5 806C471.94 806 465 799.061 465 790.5C465 781.94 471.94 775 480.5 775Z" fill="#1E1E1E"/>
<path d="M542.5 775C551.061 775 558 781.94 558 790.5C558 799.061 551.061 806 542.5 806C533.94 806 527 799.061 527 790.5C527 781.94 533.94 775 542.5 775Z" fill="#1E1E1E"/>
<path d="M573.5 775C582.061 775 589 781.94 589 790.5C589 799.061 582.061 806 573.5 806C564.94 806 558 799.061 558 790.5C558 781.94 564.94 775 573.5 775Z" fill="#1E1E1E"/>
<path d="M604.5 775C613.061 775 620 781.94 620 790.5C620 799.061 613.061 806 604.5 806C595.94 806 589 799.061 589 790.5C589 781.94 595.94 775 604.5 775Z" fill="#1E1E1E"/>
<path d="M666.5 775C675.061 775 682 781.94 682 790.5C682 799.061 675.061 806 666.5 806C657.94 806 651 799.061 651 790.5C651 781.94 657.94 775 666.5 775Z" fill="#1E1E1E"/>
<path d="M697.5 775C706.061 775 713 781.94 713 790.5C713 799.061 706.061 806 697.5 806C688.94 806 682 799.061 682 790.5C682 781.94 688.94 775 697.5 775Z" fill="#1E1E1E"/>
<path d="M728.5 775C737.061 775 744 781.94 744 790.5C744 799.061 737.061 806 728.5 806C719.94 806 713 799.061 713 790.5C713 781.94 719.94 775 728.5 775Z" fill="#1E1E1E"/>
<path d="M759.5 775C768.061 775 775 781.94 775 790.5C775 799.061 768.061 806 759.5 806C750.94 806 744 799.061 744 790.5C744 781.94 750.94 775 759.5 775Z" fill="#1E1E1E"/>
<path d="M883.5 775C892.061 775 899 781.94 899 790.5C899 799.061 892.061 806 883.5 806C874.94 806 868 799.061 868 790.5C868 781.94 874.94 775 883.5 775Z" fill="#1E1E1E"/>
<path d="M914.5 775C923.061 775 930 781.94 930 790.5C930 799.061 923.061 806 914.5 806C905.94 806 899 799.061 899 790.5C899 781.94 905.94 775 914.5 775Z" fill="#1E1E1E"/>
<path d="M976.5 775C985.061 775 992 781.94 992 790.5C992 799.061 985.061 806 976.5 806C967.94 806 961 799.061 961 790.5C961 781.94 967.94 775 976.5 775Z" fill="#1E1E1E"/>
<path d="M1007.5 775C1016.06 775 1023 781.94 1023 790.5C1023 799.061 1016.06 806 1007.5 806C998.94 806 992 799.061 992 790.5C992 781.94 998.94 775 1007.5 775Z" fill="#1E1E1E"/>
<path d="M294.5 806C303.061 806 310 812.94 310 821.5C310 830.061 303.061 837 294.5 837C285.94 837 279 830.061 279 821.5C279 812.94 285.94 806 294.5 806Z" fill="#1E1E1E"/>
<path d="M325.5 806C334.061 806 341 812.94 341 821.5C341 830.061 334.061 837 325.5 837C316.94 837 310 830.061 310 821.5C310 812.94 316.94 806 325.5 806Z" fill="#1E1E1E"/>
<path d="M356.5 806C365.061 806 372 812.94 372 821.5C372 830.061 365.061 837 356.5 837C347.94 837 341 830.061 341 821.5C341 812.94 347.94 806 356.5 806Z" fill="#1E1E1E"/>
<path d="M480.5 806C489.061 806 496 812.94 496 821.5C496 830.061 489.061 837 480.5 837C471.94 837 465 830.061 465 821.5C465 812.94 471.94 806 480.5 806Z" fill="#1E1E1E"/>
<path d="M542.5 806C551.061 806 558 812.94 558 821.5C558 830.061 551.061 837 542.5 837C533.94 837 527 830.061 527 821.5C527 812.94 533.94 806 542.5 806Z" fill="#1E1E1E"/>
<path d="M573.5 806C582.061 806 589 812.94 589 821.5C589 830.061 582.061 837 573.5 837C564.94 837 558 830.061 558 821.5C558 812.94 564.94 806 573.5 806Z" fill="#1E1E1E"/>
<path d="M697.5 806C706.061 806 713 812.94 713 821.5C713 830.061 706.061 837 697.5 837C688.94 837 682 830.061 682 821.5C682 812.94 688.94 806 697.5 806Z" fill="#1E1E1E"/>
<path d="M728.5 806C737.061 806 744 812.94 744 821.5C744 830.061 737.061 837 728.5 837C719.94 837 713 830.061 713 821.5C713 812.94 719.94 806 728.5 806Z" fill="#1E1E1E"/>
<path d="M759.5 806C768.061 806 775 812.94 775 821.5C775 830.061 768.061 837 759.5 837C750.94 837 744 830.061 744 821.5C744 812.94 750.94 806 759.5 806Z" fill="#1E1E1E"/>
<path d="M821.5 806C830.061 806 837 812.94 837 821.5C837 830.061 830.061 837 821.5 837C812.94 837 806 830.061 806 821.5C806 812.94 812.94 806 821.5 806Z" fill="#1E1E1E"/>
<path d="M883.5 806C892.061 806 899 812.94 899 821.5C899 830.061 892.061 837 883.5 837C874.94 837 868 830.061 868 821.5C868 812.94 874.94 806 883.5 806Z" fill="#1E1E1E"/>
<path d="M914.5 806C923.061 806 930 812.94 930 821.5C930 830.061 923.061 837 914.5 837C905.94 837 899 830.061 899 821.5C899 812.94 905.94 806 914.5 806Z" fill="#1E1E1E"/>
<path d="M976.5 806C985.061 806 992 812.94 992 821.5C992 830.061 985.061 837 976.5 837C967.94 837 961 830.061 961 821.5C961 812.94 967.94 806 976.5 806Z" fill="#1E1E1E"/>
<path d="M1007.5 806C1016.06 806 1023 812.94 1023 821.5C1023 830.061 1016.06 837 1007.5 837C998.94 837 992 830.061 992 821.5C992 812.94 998.94 806 1007.5 806Z" fill="#1E1E1E"/>
<path d="M263.5 837C272.061 837 279 843.94 279 852.5C279 861.061 272.061 868 263.5 868C254.94 868 248 861.061 248 852.5C248 843.94 254.94 837 263.5 837Z" fill="#1E1E1E"/>
<path d="M294.5 837C303.061 837 310 843.94 310 852.5C310 861.061 303.061 868 294.5 868C285.94 868 279 861.061 279 852.5C279 843.94 285.94 837 294.5 837Z" fill="#1E1E1E"/>
<path d="M325.5 837C334.061 837 341 843.94 341 852.5C341 861.061 334.061 868 325.5 868C316.94 868 310 861.061 310 852.5C310 843.94 316.94 837 325.5 837Z" fill="#1E1E1E"/>
<path d="M356.5 837C365.061 837 372 843.94 372 852.5C372 861.061 365.061 868 356.5 868C347.94 868 341 861.061 341 852.5C341 843.94 347.94 837 356.5 837Z" fill="#1E1E1E"/>
<path d="M418.5 837C427.061 837 434 843.94 434 852.5C434 861.061 427.061 868 418.5 868C409.94 868 403 861.061 403 852.5C403 843.94 409.94 837 418.5 837Z" fill="#1E1E1E"/>
<path d="M480.5 837C489.061 837 496 843.94 496 852.5C496 861.061 489.061 868 480.5 868C471.94 868 465 861.061 465 852.5C465 843.94 471.94 837 480.5 837Z" fill="#1E1E1E"/>
<path d="M542.5 837C551.061 837 558 843.94 558 852.5C558 861.061 551.061 868 542.5 868C533.94 868 527 861.061 527 852.5C527 843.94 533.94 837 542.5 837Z" fill="#1E1E1E"/>
<path d="M573.5 837C582.061 837 589 843.94 589 852.5C589 861.061 582.061 868 573.5 868C564.94 868 558 861.061 558 852.5C558 843.94 564.94 837 573.5 837Z" fill="#1E1E1E"/>
<path d="M635.5 837C644.061 837 651 843.94 651 852.5C651 861.061 644.061 868 635.5 868C626.94 868 620 861.061 620 852.5C620 843.94 626.94 837 635.5 837Z" fill="#1E1E1E"/>
<path d="M666.5 837C675.061 837 682 843.94 682 852.5C682 861.061 675.061 868 666.5 868C657.94 868 651 861.061 651 852.5C651 843.94 657.94 837 666.5 837Z" fill="#1E1E1E"/>
<path d="M697.5 837C706.061 837 713 843.94 713 852.5C713 861.061 706.061 868 697.5 868C688.94 868 682 861.061 682 852.5C682 843.94 688.94 837 697.5 837Z" fill="#1E1E1E"/>
<path d="M759.5 837C768.061 837 775 843.94 775 852.5C775 861.061 768.061 868 759.5 868C750.94 868 744 861.061 744 852.5C744 843.94 750.94 837 759.5 837Z" fill="#1E1E1E"/>
<path d="M883.5 837C892.061 837 899 843.94 899 852.5C899 861.061 892.061 868 883.5 868C874.94 868 868 861.061 868 852.5C868 843.94 874.94 837 883.5 837Z" fill="#1E1E1E"/>
<path d="M1007.5 837C1016.06 837 1023 843.94 1023 852.5C1023 861.061 1016.06 868 1007.5 868C998.94 868 992 861.061 992 852.5C992 843.94 998.94 837 1007.5 837Z" fill="#1E1E1E"/>
<path d="M263.5 868C272.061 868 279 874.94 279 883.5C279 892.061 272.061 899 263.5 899C254.94 899 248 892.061 248 883.5C248 874.94 254.94 868 263.5 868Z" fill="#1E1E1E"/>
<path d="M294.5 868C303.061 868 310 874.94 310 883.5C310 892.061 303.061 899 294.5 899C285.94 899 279 892.061 279 883.5C279 874.94 285.94 868 294.5 868Z" fill="#1E1E1E"/>
<path d="M325.5 868C334.061 868 341 874.94 341 883.5C341 892.061 334.061 899 325.5 899C316.94 899 310 892.061 310 883.5C310 874.94 316.94 868 325.5 868Z" fill="#1E1E1E"/>
<path d="M356.5 868C365.061 868 372 874.94 372 883.5C372 892.061 365.061 899 356.5 899C347.94 899 341 892.061 341 883.5C341 874.94 347.94 868 356.5 868Z" fill="#1E1E1E"/>
<path d="M387.5 868C396.061 868 403 874.94 403 883.5C403 892.061 396.061 899 387.5 899C378.94 899 372 892.061 372 883.5C372 874.94 378.94 868 387.5 868Z" fill="#1E1E1E"/>
<path d="M480.5 868C489.061 868 496 874.94 496 883.5C496 892.061 489.061 899 480.5 899C471.94 899 465 892.061 465 883.5C465 874.94 471.94 868 480.5 868Z" fill="#1E1E1E"/>
<path d="M511.5 868C520.061 868 527 874.94 527 883.5C527 892.061 520.061 899 511.5 899C502.94 899 496 892.061 496 883.5C496 874.94 502.94 868 511.5 868Z" fill="#1E1E1E"/>
<path d="M697.5 868C706.061 868 713 874.94 713 883.5C713 892.061 706.061 899 697.5 899C688.94 899 682 892.061 682 883.5C682 874.94 688.94 868 697.5 868Z" fill="#1E1E1E"/>
<path d="M759.5 868C768.061 868 775 874.94 775 883.5C775 892.061 768.061 899 759.5 899C750.94 899 744 892.061 744 883.5C744 874.94 750.94 868 759.5 868Z" fill="#1E1E1E"/>
<path d="M790.5 868C799.061 868 806 874.94 806 883.5C806 892.061 799.061 899 790.5 899C781.94 899 775 892.061 775 883.5C775 874.94 781.94 868 790.5 868Z" fill="#1E1E1E"/>
<path d="M821.5 868C830.061 868 837 874.94 837 883.5C837 892.061 830.061 899 821.5 899C812.94 899 806 892.061 806 883.5C806 874.94 812.94 868 821.5 868Z" fill="#1E1E1E"/>
<path d="M852.5 868C861.061 868 868 874.94 868 883.5C868 892.061 861.061 899 852.5 899C843.94 899 837 892.061 837 883.5C837 874.94 843.94 868 852.5 868Z" fill="#1E1E1E"/>
<path d="M883.5 868C892.061 868 899 874.94 899 883.5C899 892.061 892.061 899 883.5 899C874.94 899 868 892.061 868 883.5C868 874.94 874.94 868 883.5 868Z" fill="#1E1E1E"/>
<path d="M976.5 868C985.061 868 992 874.94 992 883.5C992 892.061 985.061 899 976.5 899C967.94 899 961 892.061 961 883.5C961 874.94 967.94 868 976.5 868Z" fill="#1E1E1E"/>
<path d="M294.5 899C303.061 899 310 905.94 310 914.5C310 923.061 303.061 930 294.5 930C285.94 930 279 923.061 279 914.5C279 905.94 285.94 899 294.5 899Z" fill="#1E1E1E"/>
<path d="M387.5 899C396.061 899 403 905.94 403 914.5C403 923.061 396.061 930 387.5 930C378.94 930 372 923.061 372 914.5C372 905.94 378.94 899 387.5 899Z" fill="#1E1E1E"/>
<path d="M480.5 899C489.061 899 496 905.94 496 914.5C496 923.061 489.061 930 480.5 930C471.94 930 465 923.061 465 914.5C465 905.94 471.94 899 480.5 899Z" fill="#1E1E1E"/>
<path d="M573.5 899C582.061 899 589 905.94 589 914.5C589 923.061 582.061 930 573.5 930C564.94 930 558 923.061 558 914.5C558 905.94 564.94 899 573.5 899Z" fill="#1E1E1E"/>
<path d="M604.5 899C613.061 899 620 905.94 620 914.5C620 923.061 613.061 930 604.5 930C595.94 930 589 923.061 589 914.5C589 905.94 595.94 899 604.5 899Z" fill="#1E1E1E"/>
<path d="M697.5 899C706.061 899 713 905.94 713 914.5C713 923.061 706.061 930 697.5 930C688.94 930 682 923.061 682 914.5C682 905.94 688.94 899 697.5 899Z" fill="#1E1E1E"/>
<path d="M759.5 899C768.061 899 775 905.94 775 914.5C775 923.061 768.061 930 759.5 930C750.94 930 744 923.061 744 914.5C744 905.94 750.94 899 759.5 899Z" fill="#1E1E1E"/>
<path d="M883.5 899C892.061 899 899 905.94 899 914.5C899 923.061 892.061 930 883.5 930C874.94 930 868 923.061 868 914.5C868 905.94 874.94 899 883.5 899Z" fill="#1E1E1E"/>
<path d="M914.5 899C923.061 899 930 905.94 930 914.5C930 923.061 923.061 930 914.5 930C905.94 930 899 923.061 899 914.5C899 905.94 905.94 899 914.5 899Z" fill="#1E1E1E"/>
<path d="M945.5 899C954.061 899 961 905.94 961 914.5C961 923.061 954.061 930 945.5 930C936.94 930 930 923.061 930 914.5C930 905.94 936.94 899 945.5 899Z" fill="#1E1E1E"/>
<path d="M263.5 930C272.061 930 279 936.94 279 945.5C279 954.061 272.061 961 263.5 961C254.94 961 248 954.061 248 945.5C248 936.94 254.94 930 263.5 930Z" fill="#1E1E1E"/>
<path d="M294.5 930C303.061 930 310 936.94 310 945.5C310 954.061 303.061 961 294.5 961C285.94 961 279 954.061 279 945.5C279 936.94 285.94 930 294.5 930Z" fill="#1E1E1E"/>
<path d="M418.5 930C427.061 930 434 936.94 434 945.5C434 954.061 427.061 961 418.5 961C409.94 961 403 954.061 403 945.5C403 936.94 409.94 930 418.5 930Z" fill="#1E1E1E"/>
<path d="M511.5 930C520.061 930 527 936.94 527 945.5C527 954.061 520.061 961 511.5 961C502.94 961 496 954.061 496 945.5C496 936.94 502.94 930 511.5 930Z" fill="#1E1E1E"/>
<path d="M542.5 930C551.061 930 558 936.94 558 945.5C558 954.061 551.061 961 542.5 961C533.94 961 527 954.061 527 945.5C527 936.94 533.94 930 542.5 930Z" fill="#1E1E1E"/>
<path d="M604.5 930C613.061 930 620 936.94 620 945.5C620 954.061 613.061 961 604.5 961C595.94 961 589 954.061 589 945.5C589 936.94 595.94 930 604.5 930Z" fill="#1E1E1E"/>
<path d="M697.5 930C706.061 930 713 936.94 713 945.5C713 954.061 706.061 961 697.5 961C688.94 961 682 954.061 682 945.5C682 936.94 688.94 930 697.5 930Z" fill="#1E1E1E"/>
<path d="M728.5 930C737.061 930 744 936.94 744 945.5C744 954.061 737.061 961 728.5 961C719.94 961 713 954.061 713 945.5C713 936.94 719.94 930 728.5 930Z" fill="#1E1E1E"/>
<path d="M790.5 930C799.061 930 806 936.94 806 945.5C806 954.061 799.061 961 790.5 961C781.94 961 775 954.061 775 945.5C775 936.94 781.94 930 790.5 930Z" fill="#1E1E1E"/>
<path d="M852.5 930C861.061 930 868 936.94 868 945.5C868 954.061 861.061 961 852.5 961C843.94 961 837 954.061 837 945.5C837 936.94 843.94 930 852.5 930Z" fill="#1E1E1E"/>
<path d="M883.5 930C892.061 930 899 936.94 899 945.5C899 954.061 892.061 961 883.5 961C874.94 961 868 954.061 868 945.5C868 936.94 874.94 930 883.5 930Z" fill="#1E1E1E"/>
<path d="M914.5 930C923.061 930 930 936.94 930 945.5C930 954.061 923.061 961 914.5 961C905.94 961 899 954.061 899 945.5C899 936.94 905.94 930 914.5 930Z" fill="#1E1E1E"/>
<path d="M945.5 930C954.061 930 961 936.94 961 945.5C961 954.061 954.061 961 945.5 961C936.94 961 930 954.061 930 945.5C930 936.94 936.94 930 945.5 930Z" fill="#1E1E1E"/>
<path d="M1007.5 930C1016.06 930 1023 936.94 1023 945.5C1023 954.061 1016.06 961 1007.5 961C998.94 961 992 954.061 992 945.5C992 936.94 998.94 930 1007.5 930Z" fill="#1E1E1E"/>
<path d="M325.5 961C334.061 961 341 967.94 341 976.5C341 985.061 334.061 992 325.5 992C316.94 992 310 985.061 310 976.5C310 967.94 316.94 961 325.5 961Z" fill="#1E1E1E"/>
<path d="M356.5 961C365.061 961 372 967.94 372 976.5C372 985.061 365.061 992 356.5 992C347.94 992 341 985.061 341 976.5C341 967.94 347.94 961 356.5 961Z" fill="#1E1E1E"/>
<path d="M418.5 961C427.061 961 434 967.94 434 976.5C434 985.061 427.061 992 418.5 992C409.94 992 403 985.061 403 976.5C403 967.94 409.94 961 418.5 961Z" fill="#1E1E1E"/>
<path d="M480.5 961C489.061 961 496 967.94 496 976.5C496 985.061 489.061 992 480.5 992C471.94 992 465 985.061 465 976.5C465 967.94 471.94 961 480.5 961Z" fill="#1E1E1E"/>
<path d="M573.5 961C582.061 961 589 967.94 589 976.5C589 985.061 582.061 992 573.5 992C564.94 992 558 985.061 558 976.5C558 967.94 564.94 961 573.5 961Z" fill="#1E1E1E"/>
<path d="M604.5 961C613.061 961 620 967.94 620 976.5C620 985.061 613.061 992 604.5 992C595.94 992 589 985.061 589 976.5C589 967.94 595.94 961 604.5 961Z" fill="#1E1E1E"/>
<path d="M666.5 961C675.061 961 682 967.94 682 976.5C682 985.061 675.061 992 666.5 992C657.94 992 651 985.061 651 976.5C651 967.94 657.94 961 666.5 961Z" fill="#1E1E1E"/>
<path d="M728.5 961C737.061 961 744 967.94 744 976.5C744 985.061 737.061 992 728.5 992C719.94 992 713 985.061 713 976.5C713 967.94 719.94 961 728.5 961Z" fill="#1E1E1E"/>
<path d="M759.5 961C768.061 961 775 967.94 775 976.5C775 985.061 768.061 992 759.5 992C750.94 992 744 985.061 744 976.5C744 967.94 750.94 961 759.5 961Z" fill="#1E1E1E"/>
<path d="M852.5 961C861.061 961 868 967.94 868 976.5C868 985.061 861.061 992 852.5 992C843.94 992 837 985.061 837 976.5C837 967.94 843.94 961 852.5 961Z" fill="#1E1E1E"/>
<path d="M976.5 961C985.061 961 992 967.94 992 976.5C992 985.061 985.061 992 976.5 992C967.94 992 961 985.061 961 976.5C961 967.94 967.94 961 976.5 961Z" fill="#1E1E1E"/>
<path d="M294.5 992C303.061 992 310 998.94 310 1007.5C310 1016.06 303.061 1023 294.5 1023C285.94 1023 279 1016.06 279 1007.5C279 998.94 285.94 992 294.5 992Z" fill="#1E1E1E"/>
<path d="M325.5 992C334.061 992 341 998.94 341 1007.5C341 1016.06 334.061 1023 325.5 1023C316.94 1023 310 1016.06 310 1007.5C310 998.94 316.94 992 325.5 992Z" fill="#1E1E1E"/>
<path d="M387.5 992C396.061 992 403 998.94 403 1007.5C403 1016.06 396.061 1023 387.5 1023C378.94 1023 372 1016.06 372 1007.5C372 998.94 378.94 992 387.5 992Z" fill="#1E1E1E"/>
<path d="M418.5 992C427.061 992 434 998.94 434 1007.5C434 1016.06 427.061 1023 418.5 1023C409.94 1023 403 1016.06 403 1007.5C403 998.94 409.94 992 418.5 992Z" fill="#1E1E1E"/>
<path d="M449.5 992C458.061 992 465 998.94 465 1007.5C465 1016.06 458.061 1023 449.5 1023C440.94 1023 434 1016.06 434 1007.5C434 998.94 440.94 992 449.5 992Z" fill="#1E1E1E"/>
<path d="M480.5 992C489.061 992 496 998.94 496 1007.5C496 1016.06 489.061 1023 480.5 1023C471.94 1023 465 1016.06 465 1007.5C465 998.94 471.94 992 480.5 992Z" fill="#1E1E1E"/>
<path d="M542.5 992C551.061 992 558 998.94 558 1007.5C558 1016.06 551.061 1023 542.5 1023C533.94 1023 527 1016.06 527 1007.5C527 998.94 533.94 992 542.5 992Z" fill="#1E1E1E"/>
<path d="M635.5 992C644.061 992 651 998.94 651 1007.5C651 1016.06 644.061 1023 635.5 1023C626.94 1023 620 1016.06 620 1007.5C620 998.94 626.94 992 635.5 992Z" fill="#1E1E1E"/>
<path d="M697.5 992C706.061 992 713 998.94 713 1007.5C713 1016.06 706.061 1023 697.5 1023C688.94 1023 682 1016.06 682 1007.5C682 998.94 688.94 992 697.5 992Z" fill="#1E1E1E"/>
<path d="M728.5 992C737.061 992 744 998.94 744 1007.5C744 1016.06 737.061 1023 728.5 1023C719.94 1023 713 1016.06 713 1007.5C713 998.94 719.94 992 728.5 992Z" fill="#1E1E1E"/>
<path d="M759.5 992C768.061 992 775 998.94 775 1007.5C775 1016.06 768.061 1023 759.5 1023C750.94 1023 744 1016.06 744 1007.5C744 998.94 750.94 992 759.5 992Z" fill="#1E1E1E"/>
<path d="M790.5 992C799.061 992 806 998.94 806 1007.5C806 1016.06 799.061 1023 790.5 1023C781.94 1023 775 1016.06 775 1007.5C775 998.94 781.94 992 790.5 992Z" fill="#1E1E1E"/>
<path d="M821.5 992C830.061 992 837 998.94 837 1007.5C837 1016.06 830.061 1023 821.5 1023C812.94 1023 806 1016.06 806 1007.5C806 998.94 812.94 992 821.5 992Z" fill="#1E1E1E"/>
<path d="M852.5 992C861.061 992 868 998.94 868 1007.5C868 1016.06 861.061 1023 852.5 1023C843.94 1023 837 1016.06 837 1007.5C837 998.94 843.94 992 852.5 992Z" fill="#1E1E1E"/>
<path d="M883.5 992C892.061 992 899 998.94 899 1007.5C899 1016.06 892.061 1023 883.5 1023C874.94 1023 868 1016.06 868 1007.5C868 998.94 874.94 992 883.5 992Z" fill="#1E1E1E"/>
<path d="M914.5 992C923.061 992 930 998.94 930 1007.5C930 1016.06 923.061 1023 914.5 1023C905.94 1023 899 1016.06 899 1007.5C899 998.94 905.94 992 914.5 992Z" fill="#1E1E1E"/>
<path d="M976.5 992C985.061 992 992 998.94 992 1007.5C992 1016.06 985.061 1023 976.5 1023C967.94 1023 961 1016.06 961 1007.5C961 998.94 967.94 992 976.5 992Z" fill="#1E1E1E"/>
<path d="M1007.5 992C1016.06 992 1023 998.94 1023 1007.5C1023 1016.06 1016.06 1023 1007.5 1023C998.94 1023 992 1016.06 992 1007.5C992 998.94 998.94 992 1007.5 992Z" fill="#1E1E1E"/>
<path d="M142.914 0.017334H74.086C40.5421 0.017334 12.1238 22.1795 3.038 52.4706C2.09839 55.6041 1.36493 58.8243 0.85498 62.1162C0.29295 65.7488 0 69.4682 0 73.2548V143.717C0 184.12 33.2444 216.976 74.086 216.976L108.5 216.983L142.914 216.974C183.753 216.974 217 184.118 217 143.715V73.2548C217 32.8711 183.756 0.017334 142.914 0.017334ZM184.45 143.717C184.45 166.163 165.818 184.426 142.905 184.426L108.5 184.433L74.0947 184.424C51.1816 184.424 32.55 166.161 32.55 143.717V73.2548C32.55 66.2436 34.3685 59.6424 37.5692 53.8746C40.6506 48.3259 45.0101 43.554 50.2594 39.941C57.0081 35.295 65.2259 32.5673 74.0838 32.5673H142.914C165.818 32.5673 184.45 50.8192 184.45 73.2548V143.717Z" fill="#1E1E1E"/>
<path d="M948.914 0.017334H880.086C846.542 0.017334 818.124 22.1795 809.038 52.4706C808.098 55.6041 807.365 58.8243 806.855 62.1162C806.293 65.7488 806 69.4682 806 73.2548V143.717C806 184.12 839.244 216.976 880.086 216.976L914.5 216.983L948.914 216.974C989.753 216.974 1023 184.118 1023 143.715V73.2548C1023 32.8711 989.756 0.017334 948.914 0.017334ZM990.45 143.717C990.45 166.163 971.818 184.426 948.905 184.426L914.5 184.433L880.095 184.424C857.182 184.424 838.55 166.161 838.55 143.717V73.2548C838.55 66.2436 840.368 59.6424 843.569 53.8746C846.651 48.3259 851.01 43.554 856.259 39.941C863.008 35.295 871.226 32.5673 880.084 32.5673H948.914C971.818 32.5673 990.45 50.8192 990.45 73.2548V143.717Z" fill="#1E1E1E"/>
<path d="M142.914 806.017H74.086C40.5421 806.017 12.1238 828.18 3.038 858.471C2.09839 861.604 1.36493 864.824 0.85498 868.116C0.29295 871.749 0 875.468 0 879.255V949.717C0 990.12 33.2444 1022.98 74.086 1022.98L108.5 1022.98L142.914 1022.97C183.753 1022.97 217 990.118 217 949.715V879.255C217 838.871 183.756 806.017 142.914 806.017ZM184.45 949.717C184.45 972.163 165.818 990.426 142.905 990.426L108.5 990.433L74.0947 990.424C51.1816 990.424 32.55 972.161 32.55 949.717V879.255C32.55 872.244 34.3685 865.642 37.5692 859.875C40.6506 854.326 45.0101 849.554 50.2594 845.941C57.0081 841.295 65.2259 838.567 74.0838 838.567H142.914C165.818 838.567 184.45 856.819 184.45 879.255V949.717Z" fill="#1E1E1E"/>
<path d="M87.4365 155C73.4028 155 61.9871 143.81 61.9871 130.069V86.9184C61.9871 82.6255 63.1031 78.5856 65.057 75.0507C66.944 71.6488 69.6149 68.7248 72.8318 66.5189C76.9638 63.6749 82.0007 62 87.4226 62H129.577C143.597 62 155.013 73.1767 155.013 86.9175V130.068C155.013 143.808 143.598 154.999 129.577 154.999H108.5L87.4365 155Z" fill="#1E1E1E"/>
<path d="M893.437 155C879.403 155 867.987 143.81 867.987 130.069V86.9184C867.987 82.6255 869.103 78.5856 871.057 75.0507C872.944 71.6488 875.615 68.7248 878.832 66.5189C882.964 63.6749 888.001 62 893.423 62H935.577C949.597 62 961.013 73.1767 961.013 86.9175V130.068C961.013 143.808 949.598 154.999 935.577 154.999H914.5L893.437 155Z" fill="#1E1E1E"/>
<path d="M87.4365 961C73.4028 961 61.9871 949.81 61.9871 936.069V892.918C61.9871 888.626 63.1031 884.586 65.057 881.051C66.944 877.649 69.6149 874.725 72.8318 872.519C76.9638 869.675 82.0007 868 87.4226 868H129.577C143.597 868 155.013 879.177 155.013 892.917V936.068C155.013 949.808 143.598 960.999 129.577 960.999H108.5L87.4365 961Z" fill="#1E1E1E"/>
<path d="M359.399 444.539C359.399 418.857 380.175 398.038 405.807 398.038H616.685C642.316 398.038 663.093 418.857 663.093 444.539V578.461C663.093 604.143 642.316 624.962 616.685 624.962H405.807C380.175 624.962 359.399 604.143 359.399 578.461V444.539Z" fill="#1E1E1E"/>
<path d="M403.866 478.763H427.07V578.088H403.866V478.763ZM415.561 462.394C411.351 462.394 407.824 461.092 404.98 458.488C402.132 455.76 400.71 452.412 400.71 448.444C400.71 444.476 402.132 441.19 404.98 438.586C407.824 435.858 411.351 434.494 415.561 434.494C419.767 434.494 423.294 435.796 426.142 438.4C428.986 440.88 430.411 444.042 430.411 447.886C430.411 451.978 428.986 455.45 426.142 458.302C423.417 461.03 419.89 462.394 415.561 462.394ZM541.059 478.763L498.549 578.088H474.603L432.093 478.763H456.225L487.04 552.42L518.784 478.763H541.059ZM588.112 579.391C578.088 579.391 569.052 577.221 561.01 572.88C552.966 568.54 546.654 562.526 542.076 554.838C537.621 547.027 535.393 538.222 535.393 528.426C535.393 518.629 537.621 509.887 542.076 502.199C546.654 494.511 552.966 488.497 561.01 484.157C569.052 479.817 578.088 477.647 588.112 477.647C598.259 477.647 607.355 479.817 615.401 484.157C623.442 488.497 629.695 494.511 634.15 502.199C638.727 509.887 641.017 518.629 641.017 528.426C641.017 538.222 638.727 547.027 634.15 554.838C629.695 562.526 623.442 568.54 615.401 572.88C607.355 577.221 598.259 579.391 588.112 579.391ZM588.112 559.488C596.652 559.488 603.706 556.636 609.275 550.932C614.844 545.228 617.628 537.726 617.628 528.426C617.628 519.126 614.844 511.623 609.275 505.919C603.706 500.215 596.652 497.363 588.112 497.363C579.574 497.363 572.519 500.215 566.951 505.919C561.504 511.623 558.782 519.126 558.782 528.426C558.782 537.726 561.504 545.228 566.951 550.932C572.519 556.636 579.574 559.488 588.112 559.488Z" fill="#F5F5F5"/>
</svg>
