<svg width="1036" height="1036" viewBox="0 0 1036 1036" fill="none" xmlns="http://www.w3.org/2000/svg">
<path d="M266 0C273.732 0 280 6.26808 280 14C280 21.7323 273.732 28 266 28C258.268 28 252 21.7323 252 14C252 6.26808 258.268 0 266 0Z" fill="#1E1E1E"/>
<path d="M294 0C301.732 0 308 6.26808 308 14C308 21.7323 301.732 28 294 28C286.268 28 280 21.7323 280 14C280 6.26808 286.268 0 294 0Z" fill="#1E1E1E"/>
<path d="M322 0C329.732 0 336 6.26808 336 14C336 21.7323 329.732 28 322 28C314.268 28 308 21.7323 308 14C308 6.26808 314.268 0 322 0Z" fill="#1E1E1E"/>
<path d="M434 0C441.732 0 448 6.26808 448 14C448 21.7323 441.732 28 434 28C426.268 28 420 21.7323 420 14C420 6.26808 426.268 0 434 0Z" fill="#1E1E1E"/>
<path d="M462 0C469.732 0 476 6.26808 476 14C476 21.7323 469.732 28 462 28C454.268 28 448 21.7323 448 14C448 6.26808 454.268 0 462 0Z" fill="#1E1E1E"/>
<path d="M574 0C581.732 0 588 6.26808 588 14C588 21.7323 581.732 28 574 28C566.268 28 560 21.7323 560 14C560 6.26808 566.268 0 574 0Z" fill="#1E1E1E"/>
<path d="M630 0C637.732 0 644 6.26808 644 14C644 21.7323 637.732 28 630 28C622.268 28 616 21.7323 616 14C616 6.26808 622.268 0 630 0Z" fill="#1E1E1E"/>
<path d="M742 0C749.732 0 756 6.26808 756 14C756 21.7323 749.732 28 742 28C734.268 28 728 21.7323 728 14C728 6.26808 734.268 0 742 0Z" fill="#1E1E1E"/>
<path d="M266 28C273.732 28 280 34.2681 280 42C280 49.7323 273.732 56 266 56C258.268 56 252 49.7323 252 42C252 34.2681 258.268 28 266 28Z" fill="#1E1E1E"/>
<path d="M294 28C301.732 28 308 34.2681 308 42C308 49.7323 301.732 56 294 56C286.268 56 280 49.7323 280 42C280 34.2681 286.268 28 294 28Z" fill="#1E1E1E"/>
<path d="M322 28C329.732 28 336 34.2681 336 42C336 49.7323 329.732 56 322 56C314.268 56 308 49.7323 308 42C308 34.2681 314.268 28 322 28Z" fill="#1E1E1E"/>
<path d="M350 28C357.732 28 364 34.2681 364 42C364 49.7323 357.732 56 350 56C342.268 56 336 49.7323 336 42C336 34.2681 342.268 28 350 28Z" fill="#1E1E1E"/>
<path d="M378 28C385.732 28 392 34.2681 392 42C392 49.7323 385.732 56 378 56C370.268 56 364 49.7323 364 42C364 34.2681 370.268 28 378 28Z" fill="#1E1E1E"/>
<path d="M406 28C413.732 28 420 34.2681 420 42C420 49.7323 413.732 56 406 56C398.268 56 392 49.7323 392 42C392 34.2681 398.268 28 406 28Z" fill="#1E1E1E"/>
<path d="M434 28C441.732 28 448 34.2681 448 42C448 49.7323 441.732 56 434 56C426.268 56 420 49.7323 420 42C420 34.2681 426.268 28 434 28Z" fill="#1E1E1E"/>
<path d="M462 28C469.732 28 476 34.2681 476 42C476 49.7323 469.732 56 462 56C454.268 56 448 49.7323 448 42C448 34.2681 454.268 28 462 28Z" fill="#1E1E1E"/>
<path d="M490 28C497.732 28 504 34.2681 504 42C504 49.7323 497.732 56 490 56C482.268 56 476 49.7323 476 42C476 34.2681 482.268 28 490 28Z" fill="#1E1E1E"/>
<path d="M546 28C553.732 28 560 34.2681 560 42C560 49.7323 553.732 56 546 56C538.268 56 532 49.7323 532 42C532 34.2681 538.268 28 546 28Z" fill="#1E1E1E"/>
<path d="M574 28C581.732 28 588 34.2681 588 42C588 49.7323 581.732 56 574 56C566.268 56 560 49.7323 560 42C560 34.2681 566.268 28 574 28Z" fill="#1E1E1E"/>
<path d="M658 28C665.732 28 672 34.2681 672 42C672 49.7323 665.732 56 658 56C650.268 56 644 49.7323 644 42C644 34.2681 650.268 28 658 28Z" fill="#1E1E1E"/>
<path d="M686 28C693.732 28 700 34.2681 700 42C700 49.7323 693.732 56 686 56C678.268 56 672 49.7323 672 42C672 34.2681 678.268 28 686 28Z" fill="#1E1E1E"/>
<path d="M238 56C245.732 56 252 62.2681 252 70C252 77.7323 245.732 84 238 84C230.268 84 224 77.7323 224 70C224 62.2681 230.268 56 238 56Z" fill="#1E1E1E"/>
<path d="M266 56C273.732 56 280 62.2681 280 70C280 77.7323 273.732 84 266 84C258.268 84 252 77.7323 252 70C252 62.2681 258.268 56 266 56Z" fill="#1E1E1E"/>
<path d="M294 56C301.732 56 308 62.2681 308 70C308 77.7323 301.732 84 294 84C286.268 84 280 77.7323 280 70C280 62.2681 286.268 56 294 56Z" fill="#1E1E1E"/>
<path d="M434 56C441.732 56 448 62.2681 448 70C448 77.7323 441.732 84 434 84C426.268 84 420 77.7323 420 70C420 62.2681 426.268 56 434 56Z" fill="#1E1E1E"/>
<path d="M462 56C469.732 56 476 62.2681 476 70C476 77.7323 469.732 84 462 84C454.268 84 448 77.7323 448 70C448 62.2681 454.268 56 462 56Z" fill="#1E1E1E"/>
<path d="M518 56C525.732 56 532 62.2681 532 70C532 77.7323 525.732 84 518 84C510.268 84 504 77.7323 504 70C504 62.2681 510.268 56 518 56Z" fill="#1E1E1E"/>
<path d="M546 56C553.732 56 560 62.2681 560 70C560 77.7323 553.732 84 546 84C538.268 84 532 77.7323 532 70C532 62.2681 538.268 56 546 56Z" fill="#1E1E1E"/>
<path d="M602 56C609.732 56 616 62.2681 616 70C616 77.7323 609.732 84 602 84C594.268 84 588 77.7323 588 70C588 62.2681 594.268 56 602 56Z" fill="#1E1E1E"/>
<path d="M630 56C637.732 56 644 62.2681 644 70C644 77.7323 637.732 84 630 84C622.268 84 616 77.7323 616 70C616 62.2681 622.268 56 630 56Z" fill="#1E1E1E"/>
<path d="M714 56C721.732 56 728 62.2681 728 70C728 77.7323 721.732 84 714 84C706.268 84 700 77.7323 700 70C700 62.2681 706.268 56 714 56Z" fill="#1E1E1E"/>
<path d="M770 56C777.732 56 784 62.2681 784 70C784 77.7323 777.732 84 770 84C762.268 84 756 77.7323 756 70C756 62.2681 762.268 56 770 56Z" fill="#1E1E1E"/>
<path d="M238 84C245.732 84 252 90.2681 252 98C252 105.732 245.732 112 238 112C230.268 112 224 105.732 224 98C224 90.2681 230.268 84 238 84Z" fill="#1E1E1E"/>
<path d="M294 84C301.732 84 308 90.2681 308 98C308 105.732 301.732 112 294 112C286.268 112 280 105.732 280 98C280 90.2681 286.268 84 294 84Z" fill="#1E1E1E"/>
<path d="M406 84C413.732 84 420 90.2681 420 98C420 105.732 413.732 112 406 112C398.268 112 392 105.732 392 98C392 90.2681 398.268 84 406 84Z" fill="#1E1E1E"/>
<path d="M434 84C441.732 84 448 90.2681 448 98C448 105.732 441.732 112 434 112C426.268 112 420 105.732 420 98C420 90.2681 426.268 84 434 84Z" fill="#1E1E1E"/>
<path d="M462 84C469.732 84 476 90.2681 476 98C476 105.732 469.732 112 462 112C454.268 112 448 105.732 448 98C448 90.2681 454.268 84 462 84Z" fill="#1E1E1E"/>
<path d="M546 84C553.732 84 560 90.2681 560 98C560 105.732 553.732 112 546 112C538.268 112 532 105.732 532 98C532 90.2681 538.268 84 546 84Z" fill="#1E1E1E"/>
<path d="M630 84C637.732 84 644 90.2681 644 98C644 105.732 637.732 112 630 112C622.268 112 616 105.732 616 98C616 90.2681 622.268 84 630 84Z" fill="#1E1E1E"/>
<path d="M686 84C693.732 84 700 90.2681 700 98C700 105.732 693.732 112 686 112C678.268 112 672 105.732 672 98C672 90.2681 678.268 84 686 84Z" fill="#1E1E1E"/>
<path d="M714 84C721.732 84 728 90.2681 728 98C728 105.732 721.732 112 714 112C706.268 112 700 105.732 700 98C700 90.2681 706.268 84 714 84Z" fill="#1E1E1E"/>
<path d="M798 84C805.732 84 812 90.2681 812 98C812 105.732 805.732 112 798 112C790.268 112 784 105.732 784 98C784 90.2681 790.268 84 798 84Z" fill="#1E1E1E"/>
<path d="M266 112C273.732 112 280 118.268 280 126C280 133.732 273.732 140 266 140C258.268 140 252 133.732 252 126C252 118.268 258.268 112 266 112Z" fill="#1E1E1E"/>
<path d="M294 112C301.732 112 308 118.268 308 126C308 133.732 301.732 140 294 140C286.268 140 280 133.732 280 126C280 118.268 286.268 112 294 112Z" fill="#1E1E1E"/>
<path d="M322 112C329.732 112 336 118.268 336 126C336 133.732 329.732 140 322 140C314.268 140 308 133.732 308 126C308 118.268 314.268 112 322 112Z" fill="#1E1E1E"/>
<path d="M350 112C357.732 112 364 118.268 364 126C364 133.732 357.732 140 350 140C342.268 140 336 133.732 336 126C336 118.268 342.268 112 350 112Z" fill="#1E1E1E"/>
<path d="M378 112C385.732 112 392 118.268 392 126C392 133.732 385.732 140 378 140C370.268 140 364 133.732 364 126C364 118.268 370.268 112 378 112Z" fill="#1E1E1E"/>
<path d="M406 112C413.732 112 420 118.268 420 126C420 133.732 413.732 140 406 140C398.268 140 392 133.732 392 126C392 118.268 398.268 112 406 112Z" fill="#1E1E1E"/>
<path d="M490 112C497.732 112 504 118.268 504 126C504 133.732 497.732 140 490 140C482.268 140 476 133.732 476 126C476 118.268 482.268 112 490 112Z" fill="#1E1E1E"/>
<path d="M574 112C581.732 112 588 118.268 588 126C588 133.732 581.732 140 574 140C566.268 140 560 133.732 560 126C560 118.268 566.268 112 574 112Z" fill="#1E1E1E"/>
<path d="M658 112C665.732 112 672 118.268 672 126C672 133.732 665.732 140 658 140C650.268 140 644 133.732 644 126C644 118.268 650.268 112 658 112Z" fill="#1E1E1E"/>
<path d="M686 112C693.732 112 700 118.268 700 126C700 133.732 693.732 140 686 140C678.268 140 672 133.732 672 126C672 118.268 678.268 112 686 112Z" fill="#1E1E1E"/>
<path d="M742 112C749.732 112 756 118.268 756 126C756 133.732 749.732 140 742 140C734.268 140 728 133.732 728 126C728 118.268 734.268 112 742 112Z" fill="#1E1E1E"/>
<path d="M294 140C301.732 140 308 146.268 308 154C308 161.732 301.732 168 294 168C286.268 168 280 161.732 280 154C280 146.268 286.268 140 294 140Z" fill="#1E1E1E"/>
<path d="M350 140C357.732 140 364 146.268 364 154C364 161.732 357.732 168 350 168C342.268 168 336 161.732 336 154C336 146.268 342.268 140 350 140Z" fill="#1E1E1E"/>
<path d="M434 140C441.732 140 448 146.268 448 154C448 161.732 441.732 168 434 168C426.268 168 420 161.732 420 154C420 146.268 426.268 140 434 140Z" fill="#1E1E1E"/>
<path d="M462 140C469.732 140 476 146.268 476 154C476 161.732 469.732 168 462 168C454.268 168 448 161.732 448 154C448 146.268 454.268 140 462 140Z" fill="#1E1E1E"/>
<path d="M490 140C497.732 140 504 146.268 504 154C504 161.732 497.732 168 490 168C482.268 168 476 161.732 476 154C476 146.268 482.268 140 490 140Z" fill="#1E1E1E"/>
<path d="M630 140C637.732 140 644 146.268 644 154C644 161.732 637.732 168 630 168C622.268 168 616 161.732 616 154C616 146.268 622.268 140 630 140Z" fill="#1E1E1E"/>
<path d="M238 168C245.732 168 252 174.268 252 182C252 189.732 245.732 196 238 196C230.268 196 224 189.732 224 182C224 174.268 230.268 168 238 168Z" fill="#1E1E1E"/>
<path d="M294 168C301.732 168 308 174.268 308 182C308 189.732 301.732 196 294 196C286.268 196 280 189.732 280 182C280 174.268 286.268 168 294 168Z" fill="#1E1E1E"/>
<path d="M350 168C357.732 168 364 174.268 364 182C364 189.732 357.732 196 350 196C342.268 196 336 189.732 336 182C336 174.268 342.268 168 350 168Z" fill="#1E1E1E"/>
<path d="M406 168C413.732 168 420 174.268 420 182C420 189.732 413.732 196 406 196C398.268 196 392 189.732 392 182C392 174.268 398.268 168 406 168Z" fill="#1E1E1E"/>
<path d="M462 168C469.732 168 476 174.268 476 182C476 189.732 469.732 196 462 196C454.268 196 448 189.732 448 182C448 174.268 454.268 168 462 168Z" fill="#1E1E1E"/>
<path d="M518 168C525.732 168 532 174.268 532 182C532 189.732 525.732 196 518 196C510.268 196 504 189.732 504 182C504 174.268 510.268 168 518 168Z" fill="#1E1E1E"/>
<path d="M574 168C581.732 168 588 174.268 588 182C588 189.732 581.732 196 574 196C566.268 196 560 189.732 560 182C560 174.268 566.268 168 574 168Z" fill="#1E1E1E"/>
<path d="M630 168C637.732 168 644 174.268 644 182C644 189.732 637.732 196 630 196C622.268 196 616 189.732 616 182C616 174.268 622.268 168 630 168Z" fill="#1E1E1E"/>
<path d="M686 168C693.732 168 700 174.268 700 182C700 189.732 693.732 196 686 196C678.268 196 672 189.732 672 182C672 174.268 678.268 168 686 168Z" fill="#1E1E1E"/>
<path d="M742 168C749.732 168 756 174.268 756 182C756 189.732 749.732 196 742 196C734.268 196 728 189.732 728 182C728 174.268 734.268 168 742 168Z" fill="#1E1E1E"/>
<path d="M798 168C805.732 168 812 174.268 812 182C812 189.732 805.732 196 798 196C790.268 196 784 189.732 784 182C784 174.268 790.268 168 798 168Z" fill="#1E1E1E"/>
<path d="M266 196C273.732 196 280 202.268 280 210C280 217.732 273.732 224 266 224C258.268 224 252 217.732 252 210C252 202.268 258.268 196 266 196Z" fill="#1E1E1E"/>
<path d="M294 196C301.732 196 308 202.268 308 210C308 217.732 301.732 224 294 224C286.268 224 280 217.732 280 210C280 202.268 286.268 196 294 196Z" fill="#1E1E1E"/>
<path d="M322 196C329.732 196 336 202.268 336 210C336 217.732 329.732 224 322 224C314.268 224 308 217.732 308 210C308 202.268 314.268 196 322 196Z" fill="#1E1E1E"/>
<path d="M350 196C357.732 196 364 202.268 364 210C364 217.732 357.732 224 350 224C342.268 224 336 217.732 336 210C336 202.268 342.268 196 350 196Z" fill="#1E1E1E"/>
<path d="M378 196C385.732 196 392 202.268 392 210C392 217.732 385.732 224 378 224C370.268 224 364 217.732 364 210C364 202.268 370.268 196 378 196Z" fill="#1E1E1E"/>
<path d="M462 196C469.732 196 476 202.268 476 210C476 217.732 469.732 224 462 224C454.268 224 448 217.732 448 210C448 202.268 454.268 196 462 196Z" fill="#1E1E1E"/>
<path d="M490 196C497.732 196 504 202.268 504 210C504 217.732 497.732 224 490 224C482.268 224 476 217.732 476 210C476 202.268 482.268 196 490 196Z" fill="#1E1E1E"/>
<path d="M518 196C525.732 196 532 202.268 532 210C532 217.732 525.732 224 518 224C510.268 224 504 217.732 504 210C504 202.268 510.268 196 518 196Z" fill="#1E1E1E"/>
<path d="M602 196C609.732 196 616 202.268 616 210C616 217.732 609.732 224 602 224C594.268 224 588 217.732 588 210C588 202.268 594.268 196 602 196Z" fill="#1E1E1E"/>
<path d="M658 196C665.732 196 672 202.268 672 210C672 217.732 665.732 224 658 224C650.268 224 644 217.732 644 210C644 202.268 650.268 196 658 196Z" fill="#1E1E1E"/>
<path d="M714 196C721.732 196 728 202.268 728 210C728 217.732 721.732 224 714 224C706.268 224 700 217.732 700 210C700 202.268 706.268 196 714 196Z" fill="#1E1E1E"/>
<path d="M770 196C777.732 196 784 202.268 784 210C784 217.732 777.732 224 770 224C762.268 224 756 217.732 756 210C756 202.268 762.268 196 770 196Z" fill="#1E1E1E"/>
<path d="M798 196C805.732 196 812 202.268 812 210C812 217.732 805.732 224 798 224C790.268 224 784 217.732 784 210C784 202.268 790.268 196 798 196Z" fill="#1E1E1E"/>
<path d="M98 224C105.732 224 112 230.268 112 238C112 245.732 105.732 252 98 252C90.2681 252 84 245.732 84 238C84 230.268 90.2681 224 98 224Z" fill="#1E1E1E"/>
<path d="M126 224C133.732 224 140 230.268 140 238C140 245.732 133.732 252 126 252C118.268 252 112 245.732 112 238C112 230.268 118.268 224 126 224Z" fill="#1E1E1E"/>
<path d="M182 224C189.732 224 196 230.268 196 238C196 245.732 189.732 252 182 252C174.268 252 168 245.732 168 238C168 230.268 174.268 224 182 224Z" fill="#1E1E1E"/>
<path d="M210 224C217.732 224 224 230.268 224 238C224 245.732 217.732 252 210 252C202.268 252 196 245.732 196 238C196 230.268 202.268 224 210 224Z" fill="#1E1E1E"/>
<path d="M294 224C301.732 224 308 230.268 308 238C308 245.732 301.732 252 294 252C286.268 252 280 245.732 280 238C280 230.268 286.268 224 294 224Z" fill="#1E1E1E"/>
<path d="M322 224C329.732 224 336 230.268 336 238C336 245.732 329.732 252 322 252C314.268 252 308 245.732 308 238C308 230.268 314.268 224 322 224Z" fill="#1E1E1E"/>
<path d="M406 224C413.732 224 420 230.268 420 238C420 245.732 413.732 252 406 252C398.268 252 392 245.732 392 238C392 230.268 398.268 224 406 224Z" fill="#1E1E1E"/>
<path d="M462 224C469.732 224 476 230.268 476 238C476 245.732 469.732 252 462 252C454.268 252 448 245.732 448 238C448 230.268 454.268 224 462 224Z" fill="#1E1E1E"/>
<path d="M518 224C525.732 224 532 230.268 532 238C532 245.732 525.732 252 518 252C510.268 252 504 245.732 504 238C504 230.268 510.268 224 518 224Z" fill="#1E1E1E"/>
<path d="M602 224C609.732 224 616 230.268 616 238C616 245.732 609.732 252 602 252C594.268 252 588 245.732 588 238C588 230.268 594.268 224 602 224Z" fill="#1E1E1E"/>
<path d="M630 224C637.732 224 644 230.268 644 238C644 245.732 637.732 252 630 252C622.268 252 616 245.732 616 238C616 230.268 622.268 224 630 224Z" fill="#1E1E1E"/>
<path d="M686 224C693.732 224 700 230.268 700 238C700 245.732 693.732 252 686 252C678.268 252 672 245.732 672 238C672 230.268 678.268 224 686 224Z" fill="#1E1E1E"/>
<path d="M714 224C721.732 224 728 230.268 728 238C728 245.732 721.732 252 714 252C706.268 252 700 245.732 700 238C700 230.268 706.268 224 714 224Z" fill="#1E1E1E"/>
<path d="M798 224C805.732 224 812 230.268 812 238C812 245.732 805.732 252 798 252C790.268 252 784 245.732 784 238C784 230.268 790.268 224 798 224Z" fill="#1E1E1E"/>
<path d="M938 224C945.732 224 952 230.268 952 238C952 245.732 945.732 252 938 252C930.268 252 924 245.732 924 238C924 230.268 930.268 224 938 224Z" fill="#1E1E1E"/>
<path d="M966 224C973.732 224 980 230.268 980 238C980 245.732 973.732 252 966 252C958.268 252 952 245.732 952 238C952 230.268 958.268 224 966 224Z" fill="#1E1E1E"/>
<path d="M42 252C49.7323 252 56 258.268 56 266C56 273.732 49.7323 280 42 280C34.2681 280 28 273.732 28 266C28 258.268 34.2681 252 42 252Z" fill="#1E1E1E"/>
<path d="M210 252C217.732 252 224 258.268 224 266C224 273.732 217.732 280 210 280C202.268 280 196 273.732 196 266C196 258.268 202.268 252 210 252Z" fill="#1E1E1E"/>
<path d="M238 252C245.732 252 252 258.268 252 266C252 273.732 245.732 280 238 280C230.268 280 224 273.732 224 266C224 258.268 230.268 252 238 252Z" fill="#1E1E1E"/>
<path d="M266 252C273.732 252 280 258.268 280 266C280 273.732 273.732 280 266 280C258.268 280 252 273.732 252 266C252 258.268 258.268 252 266 252Z" fill="#1E1E1E"/>
<path d="M294 252C301.732 252 308 258.268 308 266C308 273.732 301.732 280 294 280C286.268 280 280 273.732 280 266C280 258.268 286.268 252 294 252Z" fill="#1E1E1E"/>
<path d="M350 252C357.732 252 364 258.268 364 266C364 273.732 357.732 280 350 280C342.268 280 336 273.732 336 266C336 258.268 342.268 252 350 252Z" fill="#1E1E1E"/>
<path d="M406 252C413.732 252 420 258.268 420 266C420 273.732 413.732 280 406 280C398.268 280 392 273.732 392 266C392 258.268 398.268 252 406 252Z" fill="#1E1E1E"/>
<path d="M462 252C469.732 252 476 258.268 476 266C476 273.732 469.732 280 462 280C454.268 280 448 273.732 448 266C448 258.268 454.268 252 462 252Z" fill="#1E1E1E"/>
<path d="M490 252C497.732 252 504 258.268 504 266C504 273.732 497.732 280 490 280C482.268 280 476 273.732 476 266C476 258.268 482.268 252 490 252Z" fill="#1E1E1E"/>
<path d="M546 252C553.732 252 560 258.268 560 266C560 273.732 553.732 280 546 280C538.268 280 532 273.732 532 266C532 258.268 538.268 252 546 252Z" fill="#1E1E1E"/>
<path d="M686 252C693.732 252 700 258.268 700 266C700 273.732 693.732 280 686 280C678.268 280 672 273.732 672 266C672 258.268 678.268 252 686 252Z" fill="#1E1E1E"/>
<path d="M714 252C721.732 252 728 258.268 728 266C728 273.732 721.732 280 714 280C706.268 280 700 273.732 700 266C700 258.268 706.268 252 714 252Z" fill="#1E1E1E"/>
<path d="M826 252C833.732 252 840 258.268 840 266C840 273.732 833.732 280 826 280C818.268 280 812 273.732 812 266C812 258.268 818.268 252 826 252Z" fill="#1E1E1E"/>
<path d="M854 252C861.732 252 868 258.268 868 266C868 273.732 861.732 280 854 280C846.268 280 840 273.732 840 266C840 258.268 846.268 252 854 252Z" fill="#1E1E1E"/>
<path d="M910 252C917.732 252 924 258.268 924 266C924 273.732 917.732 280 910 280C902.268 280 896 273.732 896 266C896 258.268 902.268 252 910 252Z" fill="#1E1E1E"/>
<path d="M938 252C945.732 252 952 258.268 952 266C952 273.732 945.732 280 938 280C930.268 280 924 273.732 924 266C924 258.268 930.268 252 938 252Z" fill="#1E1E1E"/>
<path d="M966 252C973.732 252 980 258.268 980 266C980 273.732 973.732 280 966 280C958.268 280 952 273.732 952 266C952 258.268 958.268 252 966 252Z" fill="#1E1E1E"/>
<path d="M14 280C21.7323 280 28 286.268 28 294C28 301.732 21.7323 308 14 308C6.26808 308 0 301.732 0 294C0 286.268 6.26808 280 14 280Z" fill="#1E1E1E"/>
<path d="M42 280C49.7323 280 56 286.268 56 294C56 301.732 49.7323 308 42 308C34.2681 308 28 301.732 28 294C28 286.268 34.2681 280 42 280Z" fill="#1E1E1E"/>
<path d="M126 280C133.732 280 140 286.268 140 294C140 301.732 133.732 308 126 308C118.268 308 112 301.732 112 294C112 286.268 118.268 280 126 280Z" fill="#1E1E1E"/>
<path d="M154 280C161.732 280 168 286.268 168 294C168 301.732 161.732 308 154 308C146.268 308 140 301.732 140 294C140 286.268 146.268 280 154 280Z" fill="#1E1E1E"/>
<path d="M182 280C189.732 280 196 286.268 196 294C196 301.732 189.732 308 182 308C174.268 308 168 301.732 168 294C168 286.268 174.268 280 182 280Z" fill="#1E1E1E"/>
<path d="M210 280C217.732 280 224 286.268 224 294C224 301.732 217.732 308 210 308C202.268 308 196 301.732 196 294C196 286.268 202.268 280 210 280Z" fill="#1E1E1E"/>
<path d="M266 280C273.732 280 280 286.268 280 294C280 301.732 273.732 308 266 308C258.268 308 252 301.732 252 294C252 286.268 258.268 280 266 280Z" fill="#1E1E1E"/>
<path d="M294 280C301.732 280 308 286.268 308 294C308 301.732 301.732 308 294 308C286.268 308 280 301.732 280 294C280 286.268 286.268 280 294 280Z" fill="#1E1E1E"/>
<path d="M378 280C385.732 280 392 286.268 392 294C392 301.732 385.732 308 378 308C370.268 308 364 301.732 364 294C364 286.268 370.268 280 378 280Z" fill="#1E1E1E"/>
<path d="M434 280C441.732 280 448 286.268 448 294C448 301.732 441.732 308 434 308C426.268 308 420 301.732 420 294C420 286.268 426.268 280 434 280Z" fill="#1E1E1E"/>
<path d="M462 280C469.732 280 476 286.268 476 294C476 301.732 469.732 308 462 308C454.268 308 448 301.732 448 294C448 286.268 454.268 280 462 280Z" fill="#1E1E1E"/>
<path d="M546 280C553.732 280 560 286.268 560 294C560 301.732 553.732 308 546 308C538.268 308 532 301.732 532 294C532 286.268 538.268 280 546 280Z" fill="#1E1E1E"/>
<path d="M574 280C581.732 280 588 286.268 588 294C588 301.732 581.732 308 574 308C566.268 308 560 301.732 560 294C560 286.268 566.268 280 574 280Z" fill="#1E1E1E"/>
<path d="M658 280C665.732 280 672 286.268 672 294C672 301.732 665.732 308 658 308C650.268 308 644 301.732 644 294C644 286.268 650.268 280 658 280Z" fill="#1E1E1E"/>
<path d="M686 280C693.732 280 700 286.268 700 294C700 301.732 693.732 308 686 308C678.268 308 672 301.732 672 294C672 286.268 678.268 280 686 280Z" fill="#1E1E1E"/>
<path d="M714 280C721.732 280 728 286.268 728 294C728 301.732 721.732 308 714 308C706.268 308 700 301.732 700 294C700 286.268 706.268 280 714 280Z" fill="#1E1E1E"/>
<path d="M826 280C833.732 280 840 286.268 840 294C840 301.732 833.732 308 826 308C818.268 308 812 301.732 812 294C812 286.268 818.268 280 826 280Z" fill="#1E1E1E"/>
<path d="M854 280C861.732 280 868 286.268 868 294C868 301.732 861.732 308 854 308C846.268 308 840 301.732 840 294C840 286.268 846.268 280 854 280Z" fill="#1E1E1E"/>
<path d="M882 280C889.732 280 896 286.268 896 294C896 301.732 889.732 308 882 308C874.268 308 868 301.732 868 294C868 286.268 874.268 280 882 280Z" fill="#1E1E1E"/>
<path d="M910 280C917.732 280 924 286.268 924 294C924 301.732 917.732 308 910 308C902.268 308 896 301.732 896 294C896 286.268 902.268 280 910 280Z" fill="#1E1E1E"/>
<path d="M938 280C945.732 280 952 286.268 952 294C952 301.732 945.732 308 938 308C930.268 308 924 301.732 924 294C924 286.268 930.268 280 938 280Z" fill="#1E1E1E"/>
<path d="M966 280C973.732 280 980 286.268 980 294C980 301.732 973.732 308 966 308C958.268 308 952 301.732 952 294C952 286.268 958.268 280 966 280Z" fill="#1E1E1E"/>
<path d="M1022 280C1029.73 280 1036 286.268 1036 294C1036 301.732 1029.73 308 1022 308C1014.27 308 1008 301.732 1008 294C1008 286.268 1014.27 280 1022 280Z" fill="#1E1E1E"/>
<path d="M14 308C21.7323 308 28 314.268 28 322C28 329.732 21.7323 336 14 336C6.26808 336 0 329.732 0 322C0 314.268 6.26808 308 14 308Z" fill="#1E1E1E"/>
<path d="M42 308C49.7323 308 56 314.268 56 322C56 329.732 49.7323 336 42 336C34.2681 336 28 329.732 28 322C28 314.268 34.2681 308 42 308Z" fill="#1E1E1E"/>
<path d="M126 308C133.732 308 140 314.268 140 322C140 329.732 133.732 336 126 336C118.268 336 112 329.732 112 322C112 314.268 118.268 308 126 308Z" fill="#1E1E1E"/>
<path d="M210 308C217.732 308 224 314.268 224 322C224 329.732 217.732 336 210 336C202.268 336 196 329.732 196 322C196 314.268 202.268 308 210 308Z" fill="#1E1E1E"/>
<path d="M294 308C301.732 308 308 314.268 308 322C308 329.732 301.732 336 294 336C286.268 336 280 329.732 280 322C280 314.268 286.268 308 294 308Z" fill="#1E1E1E"/>
<path d="M322 308C329.732 308 336 314.268 336 322C336 329.732 329.732 336 322 336C314.268 336 308 329.732 308 322C308 314.268 314.268 308 322 308Z" fill="#1E1E1E"/>
<path d="M350 308C357.732 308 364 314.268 364 322C364 329.732 357.732 336 350 336C342.268 336 336 329.732 336 322C336 314.268 342.268 308 350 308Z" fill="#1E1E1E"/>
<path d="M406 308C413.732 308 420 314.268 420 322C420 329.732 413.732 336 406 336C398.268 336 392 329.732 392 322C392 314.268 398.268 308 406 308Z" fill="#1E1E1E"/>
<path d="M574 308C581.732 308 588 314.268 588 322C588 329.732 581.732 336 574 336C566.268 336 560 329.732 560 322C560 314.268 566.268 308 574 308Z" fill="#1E1E1E"/>
<path d="M630 308C637.732 308 644 314.268 644 322C644 329.732 637.732 336 630 336C622.268 336 616 329.732 616 322C616 314.268 622.268 308 630 308Z" fill="#1E1E1E"/>
<path d="M658 308C665.732 308 672 314.268 672 322C672 329.732 665.732 336 658 336C650.268 336 644 329.732 644 322C644 314.268 650.268 308 658 308Z" fill="#1E1E1E"/>
<path d="M686 308C693.732 308 700 314.268 700 322C700 329.732 693.732 336 686 336C678.268 336 672 329.732 672 322C672 314.268 678.268 308 686 308Z" fill="#1E1E1E"/>
<path d="M742 308C749.732 308 756 314.268 756 322C756 329.732 749.732 336 742 336C734.268 336 728 329.732 728 322C728 314.268 734.268 308 742 308Z" fill="#1E1E1E"/>
<path d="M770 308C777.732 308 784 314.268 784 322C784 329.732 777.732 336 770 336C762.268 336 756 329.732 756 322C756 314.268 762.268 308 770 308Z" fill="#1E1E1E"/>
<path d="M826 308C833.732 308 840 314.268 840 322C840 329.732 833.732 336 826 336C818.268 336 812 329.732 812 322C812 314.268 818.268 308 826 308Z" fill="#1E1E1E"/>
<path d="M854 308C861.732 308 868 314.268 868 322C868 329.732 861.732 336 854 336C846.268 336 840 329.732 840 322C840 314.268 846.268 308 854 308Z" fill="#1E1E1E"/>
<path d="M938 308C945.732 308 952 314.268 952 322C952 329.732 945.732 336 938 336C930.268 336 924 329.732 924 322C924 314.268 930.268 308 938 308Z" fill="#1E1E1E"/>
<path d="M966 308C973.732 308 980 314.268 980 322C980 329.732 973.732 336 966 336C958.268 336 952 329.732 952 322C952 314.268 958.268 308 966 308Z" fill="#1E1E1E"/>
<path d="M994 308C1001.73 308 1008 314.268 1008 322C1008 329.732 1001.73 336 994 336C986.268 336 980 329.732 980 322C980 314.268 986.268 308 994 308Z" fill="#1E1E1E"/>
<path d="M70 336C77.7323 336 84 342.268 84 350C84 357.732 77.7323 364 70 364C62.2681 364 56 357.732 56 350C56 342.268 62.2681 336 70 336Z" fill="#1E1E1E"/>
<path d="M126 336C133.732 336 140 342.268 140 350C140 357.732 133.732 364 126 364C118.268 364 112 357.732 112 350C112 342.268 118.268 336 126 336Z" fill="#1E1E1E"/>
<path d="M154 336C161.732 336 168 342.268 168 350C168 357.732 161.732 364 154 364C146.268 364 140 357.732 140 350C140 342.268 146.268 336 154 336Z" fill="#1E1E1E"/>
<path d="M182 336C189.732 336 196 342.268 196 350C196 357.732 189.732 364 182 364C174.268 364 168 357.732 168 350C168 342.268 174.268 336 182 336Z" fill="#1E1E1E"/>
<path d="M238 336C245.732 336 252 342.268 252 350C252 357.732 245.732 364 238 364C230.268 364 224 357.732 224 350C224 342.268 230.268 336 238 336Z" fill="#1E1E1E"/>
<path d="M294 336C301.732 336 308 342.268 308 350C308 357.732 301.732 364 294 364C286.268 364 280 357.732 280 350C280 342.268 286.268 336 294 336Z" fill="#1E1E1E"/>
<path d="M322 336C329.732 336 336 342.268 336 350C336 357.732 329.732 364 322 364C314.268 364 308 357.732 308 350C308 342.268 314.268 336 322 336Z" fill="#1E1E1E"/>
<path d="M378 336C385.732 336 392 342.268 392 350C392 357.732 385.732 364 378 364C370.268 364 364 357.732 364 350C364 342.268 370.268 336 378 336Z" fill="#1E1E1E"/>
<path d="M434 336C441.732 336 448 342.268 448 350C448 357.732 441.732 364 434 364C426.268 364 420 357.732 420 350C420 342.268 426.268 336 434 336Z" fill="#1E1E1E"/>
<path d="M462 336C469.732 336 476 342.268 476 350C476 357.732 469.732 364 462 364C454.268 364 448 357.732 448 350C448 342.268 454.268 336 462 336Z" fill="#1E1E1E"/>
<path d="M518 336C525.732 336 532 342.268 532 350C532 357.732 525.732 364 518 364C510.268 364 504 357.732 504 350C504 342.268 510.268 336 518 336Z" fill="#1E1E1E"/>
<path d="M574 336C581.732 336 588 342.268 588 350C588 357.732 581.732 364 574 364C566.268 364 560 357.732 560 350C560 342.268 566.268 336 574 336Z" fill="#1E1E1E"/>
<path d="M602 336C609.732 336 616 342.268 616 350C616 357.732 609.732 364 602 364C594.268 364 588 357.732 588 350C588 342.268 594.268 336 602 336Z" fill="#1E1E1E"/>
<path d="M686 336C693.732 336 700 342.268 700 350C700 357.732 693.732 364 686 364C678.268 364 672 357.732 672 350C672 342.268 678.268 336 686 336Z" fill="#1E1E1E"/>
<path d="M798 336C805.732 336 812 342.268 812 350C812 357.732 805.732 364 798 364C790.268 364 784 357.732 784 350C784 342.268 790.268 336 798 336Z" fill="#1E1E1E"/>
<path d="M854 336C861.732 336 868 342.268 868 350C868 357.732 861.732 364 854 364C846.268 364 840 357.732 840 350C840 342.268 846.268 336 854 336Z" fill="#1E1E1E"/>
<path d="M882 336C889.732 336 896 342.268 896 350C896 357.732 889.732 364 882 364C874.268 364 868 357.732 868 350C868 342.268 874.268 336 882 336Z" fill="#1E1E1E"/>
<path d="M938 336C945.732 336 952 342.268 952 350C952 357.732 945.732 364 938 364C930.268 364 924 357.732 924 350C924 342.268 930.268 336 938 336Z" fill="#1E1E1E"/>
<path d="M42 364C49.7323 364 56 370.268 56 378C56 385.732 49.7323 392 42 392C34.2681 392 28 385.732 28 378C28 370.268 34.2681 364 42 364Z" fill="#1E1E1E"/>
<path d="M154 364C161.732 364 168 370.268 168 378C168 385.732 161.732 392 154 392C146.268 392 140 385.732 140 378C140 370.268 146.268 364 154 364Z" fill="#1E1E1E"/>
<path d="M266 364C273.732 364 280 370.268 280 378C280 385.732 273.732 392 266 392C258.268 392 252 385.732 252 378C252 370.268 258.268 364 266 364Z" fill="#1E1E1E"/>
<path d="M294 364C301.732 364 308 370.268 308 378C308 385.732 301.732 392 294 392C286.268 392 280 385.732 280 378C280 370.268 286.268 364 294 364Z" fill="#1E1E1E"/>
<path d="M322 364C329.732 364 336 370.268 336 378C336 385.732 329.732 392 322 392C314.268 392 308 385.732 308 378C308 370.268 314.268 364 322 364Z" fill="#1E1E1E"/>
<path d="M770 364C777.732 364 784 370.268 784 378C784 385.732 777.732 392 770 392C762.268 392 756 385.732 756 378C756 370.268 762.268 364 770 364Z" fill="#1E1E1E"/>
<path d="M798 364C805.732 364 812 370.268 812 378C812 385.732 805.732 392 798 392C790.268 392 784 385.732 784 378C784 370.268 790.268 364 798 364Z" fill="#1E1E1E"/>
<path d="M826 364C833.732 364 840 370.268 840 378C840 385.732 833.732 392 826 392C818.268 392 812 385.732 812 378C812 370.268 818.268 364 826 364Z" fill="#1E1E1E"/>
<path d="M882 364C889.732 364 896 370.268 896 378C896 385.732 889.732 392 882 392C874.268 392 868 385.732 868 378C868 370.268 874.268 364 882 364Z" fill="#1E1E1E"/>
<path d="M910 364C917.732 364 924 370.268 924 378C924 385.732 917.732 392 910 392C902.268 392 896 385.732 896 378C896 370.268 902.268 364 910 364Z" fill="#1E1E1E"/>
<path d="M966 364C973.732 364 980 370.268 980 378C980 385.732 973.732 392 966 392C958.268 392 952 385.732 952 378C952 370.268 958.268 364 966 364Z" fill="#1E1E1E"/>
<path d="M14 392C21.7323 392 28 398.268 28 406C28 413.732 21.7323 420 14 420C6.26808 420 0 413.732 0 406C0 398.268 6.26808 392 14 392Z" fill="#1E1E1E"/>
<path d="M42 392C49.7323 392 56 398.268 56 406C56 413.732 49.7323 420 42 420C34.2681 420 28 413.732 28 406C28 398.268 34.2681 392 42 392Z" fill="#1E1E1E"/>
<path d="M126 392C133.732 392 140 398.268 140 406C140 413.732 133.732 420 126 420C118.268 420 112 413.732 112 406C112 398.268 118.268 392 126 392Z" fill="#1E1E1E"/>
<path d="M154 392C161.732 392 168 398.268 168 406C168 413.732 161.732 420 154 420C146.268 420 140 413.732 140 406C140 398.268 146.268 392 154 392Z" fill="#1E1E1E"/>
<path d="M182 392C189.732 392 196 398.268 196 406C196 413.732 189.732 420 182 420C174.268 420 168 413.732 168 406C168 398.268 174.268 392 182 392Z" fill="#1E1E1E"/>
<path d="M266 392C273.732 392 280 398.268 280 406C280 413.732 273.732 420 266 420C258.268 420 252 413.732 252 406C252 398.268 258.268 392 266 392Z" fill="#1E1E1E"/>
<path d="M322 392C329.732 392 336 398.268 336 406C336 413.732 329.732 420 322 420C314.268 420 308 413.732 308 406C308 398.268 314.268 392 322 392Z" fill="#1E1E1E"/>
<path d="M714 392C721.732 392 728 398.268 728 406C728 413.732 721.732 420 714 420C706.268 420 700 413.732 700 406C700 398.268 706.268 392 714 392Z" fill="#1E1E1E"/>
<path d="M770 392C777.732 392 784 398.268 784 406C784 413.732 777.732 420 770 420C762.268 420 756 413.732 756 406C756 398.268 762.268 392 770 392Z" fill="#1E1E1E"/>
<path d="M826 392C833.732 392 840 398.268 840 406C840 413.732 833.732 420 826 420C818.268 420 812 413.732 812 406C812 398.268 818.268 392 826 392Z" fill="#1E1E1E"/>
<path d="M938 392C945.732 392 952 398.268 952 406C952 413.732 945.732 420 938 420C930.268 420 924 413.732 924 406C924 398.268 930.268 392 938 392Z" fill="#1E1E1E"/>
<path d="M966 392C973.732 392 980 398.268 980 406C980 413.732 973.732 420 966 420C958.268 420 952 413.732 952 406C952 398.268 958.268 392 966 392Z" fill="#1E1E1E"/>
<path d="M1022 392C1029.73 392 1036 398.268 1036 406C1036 413.732 1029.73 420 1022 420C1014.27 420 1008 413.732 1008 406C1008 398.268 1014.27 392 1022 392Z" fill="#1E1E1E"/>
<path d="M98 420C105.732 420 112 426.268 112 434C112 441.732 105.732 448 98 448C90.2681 448 84 441.732 84 434C84 426.268 90.2681 420 98 420Z" fill="#1E1E1E"/>
<path d="M266 420C273.732 420 280 426.268 280 434C280 441.732 273.732 448 266 448C258.268 448 252 441.732 252 434C252 426.268 258.268 420 266 420Z" fill="#1E1E1E"/>
<path d="M294 420C301.732 420 308 426.268 308 434C308 441.732 301.732 448 294 448C286.268 448 280 441.732 280 434C280 426.268 286.268 420 294 420Z" fill="#1E1E1E"/>
<path d="M798 420C805.732 420 812 426.268 812 434C812 441.732 805.732 448 798 448C790.268 448 784 441.732 784 434C784 426.268 790.268 420 798 420Z" fill="#1E1E1E"/>
<path d="M882 420C889.732 420 896 426.268 896 434C896 441.732 889.732 448 882 448C874.268 448 868 441.732 868 434C868 426.268 874.268 420 882 420Z" fill="#1E1E1E"/>
<path d="M938 420C945.732 420 952 426.268 952 434C952 441.732 945.732 448 938 448C930.268 448 924 441.732 924 434C924 426.268 930.268 420 938 420Z" fill="#1E1E1E"/>
<path d="M966 420C973.732 420 980 426.268 980 434C980 441.732 973.732 448 966 448C958.268 448 952 441.732 952 434C952 426.268 958.268 420 966 420Z" fill="#1E1E1E"/>
<path d="M994 420C1001.73 420 1008 426.268 1008 434C1008 441.732 1001.73 448 994 448C986.268 448 980 441.732 980 434C980 426.268 986.268 420 994 420Z" fill="#1E1E1E"/>
<path d="M14 448C21.7323 448 28 454.268 28 462C28 469.732 21.7323 476 14 476C6.26808 476 0 469.732 0 462C0 454.268 6.26808 448 14 448Z" fill="#1E1E1E"/>
<path d="M70 448C77.7323 448 84 454.268 84 462C84 469.732 77.7323 476 70 476C62.2681 476 56 469.732 56 462C56 454.268 62.2681 448 70 448Z" fill="#1E1E1E"/>
<path d="M98 448C105.732 448 112 454.268 112 462C112 469.732 105.732 476 98 476C90.2681 476 84 469.732 84 462C84 454.268 90.2681 448 98 448Z" fill="#1E1E1E"/>
<path d="M126 448C133.732 448 140 454.268 140 462C140 469.732 133.732 476 126 476C118.268 476 112 469.732 112 462C112 454.268 118.268 448 126 448Z" fill="#1E1E1E"/>
<path d="M154 448C161.732 448 168 454.268 168 462C168 469.732 161.732 476 154 476C146.268 476 140 469.732 140 462C140 454.268 146.268 448 154 448Z" fill="#1E1E1E"/>
<path d="M182 448C189.732 448 196 454.268 196 462C196 469.732 189.732 476 182 476C174.268 476 168 469.732 168 462C168 454.268 174.268 448 182 448Z" fill="#1E1E1E"/>
<path d="M294 448C301.732 448 308 454.268 308 462C308 469.732 301.732 476 294 476C286.268 476 280 469.732 280 462C280 454.268 286.268 448 294 448Z" fill="#1E1E1E"/>
<path d="M322 448C329.732 448 336 454.268 336 462C336 469.732 329.732 476 322 476C314.268 476 308 469.732 308 462C308 454.268 314.268 448 322 448Z" fill="#1E1E1E"/>
<path d="M714 448C721.732 448 728 454.268 728 462C728 469.732 721.732 476 714 476C706.268 476 700 469.732 700 462C700 454.268 706.268 448 714 448Z" fill="#1E1E1E"/>
<path d="M854 448C861.732 448 868 454.268 868 462C868 469.732 861.732 476 854 476C846.268 476 840 469.732 840 462C840 454.268 846.268 448 854 448Z" fill="#1E1E1E"/>
<path d="M966 448C973.732 448 980 454.268 980 462C980 469.732 973.732 476 966 476C958.268 476 952 469.732 952 462C952 454.268 958.268 448 966 448Z" fill="#1E1E1E"/>
<path d="M1022 448C1029.73 448 1036 454.268 1036 462C1036 469.732 1029.73 476 1022 476C1014.27 476 1008 469.732 1008 462C1008 454.268 1014.27 448 1022 448Z" fill="#1E1E1E"/>
<path d="M14 476C21.7323 476 28 482.268 28 490C28 497.732 21.7323 504 14 504C6.26808 504 0 497.732 0 490C0 482.268 6.26808 476 14 476Z" fill="#1E1E1E"/>
<path d="M42 476C49.7323 476 56 482.268 56 490C56 497.732 49.7323 504 42 504C34.2681 504 28 497.732 28 490C28 482.268 34.2681 476 42 476Z" fill="#1E1E1E"/>
<path d="M70 476C77.7323 476 84 482.268 84 490C84 497.732 77.7323 504 70 504C62.2681 504 56 497.732 56 490C56 482.268 62.2681 476 70 476Z" fill="#1E1E1E"/>
<path d="M126 476C133.732 476 140 482.268 140 490C140 497.732 133.732 504 126 504C118.268 504 112 497.732 112 490C112 482.268 118.268 476 126 476Z" fill="#1E1E1E"/>
<path d="M294 476C301.732 476 308 482.268 308 490C308 497.732 301.732 504 294 504C286.268 504 280 497.732 280 490C280 482.268 286.268 476 294 476Z" fill="#1E1E1E"/>
<path d="M714 476C721.732 476 728 482.268 728 490C728 497.732 721.732 504 714 504C706.268 504 700 497.732 700 490C700 482.268 706.268 476 714 476Z" fill="#1E1E1E"/>
<path d="M742 476C749.732 476 756 482.268 756 490C756 497.732 749.732 504 742 504C734.268 504 728 497.732 728 490C728 482.268 734.268 476 742 476Z" fill="#1E1E1E"/>
<path d="M770 476C777.732 476 784 482.268 784 490C784 497.732 777.732 504 770 504C762.268 504 756 497.732 756 490C756 482.268 762.268 476 770 476Z" fill="#1E1E1E"/>
<path d="M826 476C833.732 476 840 482.268 840 490C840 497.732 833.732 504 826 504C818.268 504 812 497.732 812 490C812 482.268 818.268 476 826 476Z" fill="#1E1E1E"/>
<path d="M882 476C889.732 476 896 482.268 896 490C896 497.732 889.732 504 882 504C874.268 504 868 497.732 868 490C868 482.268 874.268 476 882 476Z" fill="#1E1E1E"/>
<path d="M938 476C945.732 476 952 482.268 952 490C952 497.732 945.732 504 938 504C930.268 504 924 497.732 924 490C924 482.268 930.268 476 938 476Z" fill="#1E1E1E"/>
<path d="M994 476C1001.73 476 1008 482.268 1008 490C1008 497.732 1001.73 504 994 504C986.268 504 980 497.732 980 490C980 482.268 986.268 476 994 476Z" fill="#1E1E1E"/>
<path d="M14 504C21.7323 504 28 510.268 28 518C28 525.732 21.7323 532 14 532C6.26808 532 0 525.732 0 518C0 510.268 6.26808 504 14 504Z" fill="#1E1E1E"/>
<path d="M70 504C77.7323 504 84 510.268 84 518C84 525.732 77.7323 532 70 532C62.2681 532 56 525.732 56 518C56 510.268 62.2681 504 70 504Z" fill="#1E1E1E"/>
<path d="M154 504C161.732 504 168 510.268 168 518C168 525.732 161.732 532 154 532C146.268 532 140 525.732 140 518C140 510.268 146.268 504 154 504Z" fill="#1E1E1E"/>
<path d="M182 504C189.732 504 196 510.268 196 518C196 525.732 189.732 532 182 532C174.268 532 168 525.732 168 518C168 510.268 174.268 504 182 504Z" fill="#1E1E1E"/>
<path d="M210 504C217.732 504 224 510.268 224 518C224 525.732 217.732 532 210 532C202.268 532 196 525.732 196 518C196 510.268 202.268 504 210 504Z" fill="#1E1E1E"/>
<path d="M238 504C245.732 504 252 510.268 252 518C252 525.732 245.732 532 238 532C230.268 532 224 525.732 224 518C224 510.268 230.268 504 238 504Z" fill="#1E1E1E"/>
<path d="M742 504C749.732 504 756 510.268 756 518C756 525.732 749.732 532 742 532C734.268 532 728 525.732 728 518C728 510.268 734.268 504 742 504Z" fill="#1E1E1E"/>
<path d="M770 504C777.732 504 784 510.268 784 518C784 525.732 777.732 532 770 532C762.268 532 756 525.732 756 518C756 510.268 762.268 504 770 504Z" fill="#1E1E1E"/>
<path d="M910 504C917.732 504 924 510.268 924 518C924 525.732 917.732 532 910 532C902.268 532 896 525.732 896 518C896 510.268 902.268 504 910 504Z" fill="#1E1E1E"/>
<path d="M938 504C945.732 504 952 510.268 952 518C952 525.732 945.732 532 938 532C930.268 532 924 525.732 924 518C924 510.268 930.268 504 938 504Z" fill="#1E1E1E"/>
<path d="M1022 504C1029.73 504 1036 510.268 1036 518C1036 525.732 1029.73 532 1022 532C1014.27 532 1008 525.732 1008 518C1008 510.268 1014.27 504 1022 504Z" fill="#1E1E1E"/>
<path d="M14 532C21.7323 532 28 538.268 28 546C28 553.732 21.7323 560 14 560C6.26808 560 0 553.732 0 546C0 538.268 6.26808 532 14 532Z" fill="#1E1E1E"/>
<path d="M98 532C105.732 532 112 538.268 112 546C112 553.732 105.732 560 98 560C90.2681 560 84 553.732 84 546C84 538.268 90.2681 532 98 532Z" fill="#1E1E1E"/>
<path d="M154 532C161.732 532 168 538.268 168 546C168 553.732 161.732 560 154 560C146.268 560 140 553.732 140 546C140 538.268 146.268 532 154 532Z" fill="#1E1E1E"/>
<path d="M210 532C217.732 532 224 538.268 224 546C224 553.732 217.732 560 210 560C202.268 560 196 553.732 196 546C196 538.268 202.268 532 210 532Z" fill="#1E1E1E"/>
<path d="M714 532C721.732 532 728 538.268 728 546C728 553.732 721.732 560 714 560C706.268 560 700 553.732 700 546C700 538.268 706.268 532 714 532Z" fill="#1E1E1E"/>
<path d="M798 532C805.732 532 812 538.268 812 546C812 553.732 805.732 560 798 560C790.268 560 784 553.732 784 546C784 538.268 790.268 532 798 532Z" fill="#1E1E1E"/>
<path d="M826 532C833.732 532 840 538.268 840 546C840 553.732 833.732 560 826 560C818.268 560 812 553.732 812 546C812 538.268 818.268 532 826 532Z" fill="#1E1E1E"/>
<path d="M882 532C889.732 532 896 538.268 896 546C896 553.732 889.732 560 882 560C874.268 560 868 553.732 868 546C868 538.268 874.268 532 882 532Z" fill="#1E1E1E"/>
<path d="M938 532C945.732 532 952 538.268 952 546C952 553.732 945.732 560 938 560C930.268 560 924 553.732 924 546C924 538.268 930.268 532 938 532Z" fill="#1E1E1E"/>
<path d="M994 532C1001.73 532 1008 538.268 1008 546C1008 553.732 1001.73 560 994 560C986.268 560 980 553.732 980 546C980 538.268 986.268 532 994 532Z" fill="#1E1E1E"/>
<path d="M14 560C21.7323 560 28 566.268 28 574C28 581.732 21.7323 588 14 588C6.26808 588 0 581.732 0 574C0 566.268 6.26808 560 14 560Z" fill="#1E1E1E"/>
<path d="M98 560C105.732 560 112 566.268 112 574C112 581.732 105.732 588 98 588C90.2681 588 84 581.732 84 574C84 566.268 90.2681 560 98 560Z" fill="#1E1E1E"/>
<path d="M154 560C161.732 560 168 566.268 168 574C168 581.732 161.732 588 154 588C146.268 588 140 581.732 140 574C140 566.268 146.268 560 154 560Z" fill="#1E1E1E"/>
<path d="M182 560C189.732 560 196 566.268 196 574C196 581.732 189.732 588 182 588C174.268 588 168 581.732 168 574C168 566.268 174.268 560 182 560Z" fill="#1E1E1E"/>
<path d="M210 560C217.732 560 224 566.268 224 574C224 581.732 217.732 588 210 588C202.268 588 196 581.732 196 574C196 566.268 202.268 560 210 560Z" fill="#1E1E1E"/>
<path d="M294 560C301.732 560 308 566.268 308 574C308 581.732 301.732 588 294 588C286.268 588 280 581.732 280 574C280 566.268 286.268 560 294 560Z" fill="#1E1E1E"/>
<path d="M322 560C329.732 560 336 566.268 336 574C336 581.732 329.732 588 322 588C314.268 588 308 581.732 308 574C308 566.268 314.268 560 322 560Z" fill="#1E1E1E"/>
<path d="M742 560C749.732 560 756 566.268 756 574C756 581.732 749.732 588 742 588C734.268 588 728 581.732 728 574C728 566.268 734.268 560 742 560Z" fill="#1E1E1E"/>
<path d="M770 560C777.732 560 784 566.268 784 574C784 581.732 777.732 588 770 588C762.268 588 756 581.732 756 574C756 566.268 762.268 560 770 560Z" fill="#1E1E1E"/>
<path d="M798 560C805.732 560 812 566.268 812 574C812 581.732 805.732 588 798 588C790.268 588 784 581.732 784 574C784 566.268 790.268 560 798 560Z" fill="#1E1E1E"/>
<path d="M826 560C833.732 560 840 566.268 840 574C840 581.732 833.732 588 826 588C818.268 588 812 581.732 812 574C812 566.268 818.268 560 826 560Z" fill="#1E1E1E"/>
<path d="M854 560C861.732 560 868 566.268 868 574C868 581.732 861.732 588 854 588C846.268 588 840 581.732 840 574C840 566.268 846.268 560 854 560Z" fill="#1E1E1E"/>
<path d="M910 560C917.732 560 924 566.268 924 574C924 581.732 917.732 588 910 588C902.268 588 896 581.732 896 574C896 566.268 902.268 560 910 560Z" fill="#1E1E1E"/>
<path d="M938 560C945.732 560 952 566.268 952 574C952 581.732 945.732 588 938 588C930.268 588 924 581.732 924 574C924 566.268 930.268 560 938 560Z" fill="#1E1E1E"/>
<path d="M1022 560C1029.73 560 1036 566.268 1036 574C1036 581.732 1029.73 588 1022 588C1014.27 588 1008 581.732 1008 574C1008 566.268 1014.27 560 1022 560Z" fill="#1E1E1E"/>
<path d="M14 588C21.7323 588 28 594.268 28 602C28 609.732 21.7323 616 14 616C6.26808 616 0 609.732 0 602C0 594.268 6.26808 588 14 588Z" fill="#1E1E1E"/>
<path d="M154 588C161.732 588 168 594.268 168 602C168 609.732 161.732 616 154 616C146.268 616 140 609.732 140 602C140 594.268 146.268 588 154 588Z" fill="#1E1E1E"/>
<path d="M210 588C217.732 588 224 594.268 224 602C224 609.732 217.732 616 210 616C202.268 616 196 609.732 196 602C196 594.268 202.268 588 210 588Z" fill="#1E1E1E"/>
<path d="M238 588C245.732 588 252 594.268 252 602C252 609.732 245.732 616 238 616C230.268 616 224 609.732 224 602C224 594.268 230.268 588 238 588Z" fill="#1E1E1E"/>
<path d="M294 588C301.732 588 308 594.268 308 602C308 609.732 301.732 616 294 616C286.268 616 280 609.732 280 602C280 594.268 286.268 588 294 588Z" fill="#1E1E1E"/>
<path d="M322 588C329.732 588 336 594.268 336 602C336 609.732 329.732 616 322 616C314.268 616 308 609.732 308 602C308 594.268 314.268 588 322 588Z" fill="#1E1E1E"/>
<path d="M714 588C721.732 588 728 594.268 728 602C728 609.732 721.732 616 714 616C706.268 616 700 609.732 700 602C700 594.268 706.268 588 714 588Z" fill="#1E1E1E"/>
<path d="M742 588C749.732 588 756 594.268 756 602C756 609.732 749.732 616 742 616C734.268 616 728 609.732 728 602C728 594.268 734.268 588 742 588Z" fill="#1E1E1E"/>
<path d="M770 588C777.732 588 784 594.268 784 602C784 609.732 777.732 616 770 616C762.268 616 756 609.732 756 602C756 594.268 762.268 588 770 588Z" fill="#1E1E1E"/>
<path d="M798 588C805.732 588 812 594.268 812 602C812 609.732 805.732 616 798 616C790.268 616 784 609.732 784 602C784 594.268 790.268 588 798 588Z" fill="#1E1E1E"/>
<path d="M882 588C889.732 588 896 594.268 896 602C896 609.732 889.732 616 882 616C874.268 616 868 609.732 868 602C868 594.268 874.268 588 882 588Z" fill="#1E1E1E"/>
<path d="M910 588C917.732 588 924 594.268 924 602C924 609.732 917.732 616 910 616C902.268 616 896 609.732 896 602C896 594.268 902.268 588 910 588Z" fill="#1E1E1E"/>
<path d="M966 588C973.732 588 980 594.268 980 602C980 609.732 973.732 616 966 616C958.268 616 952 609.732 952 602C952 594.268 958.268 588 966 588Z" fill="#1E1E1E"/>
<path d="M994 588C1001.73 588 1008 594.268 1008 602C1008 609.732 1001.73 616 994 616C986.268 616 980 609.732 980 602C980 594.268 986.268 588 994 588Z" fill="#1E1E1E"/>
<path d="M14 616C21.7323 616 28 622.268 28 630C28 637.732 21.7323 644 14 644C6.26808 644 0 637.732 0 630C0 622.268 6.26808 616 14 616Z" fill="#1E1E1E"/>
<path d="M42 616C49.7323 616 56 622.268 56 630C56 637.732 49.7323 644 42 644C34.2681 644 28 637.732 28 630C28 622.268 34.2681 616 42 616Z" fill="#1E1E1E"/>
<path d="M70 616C77.7323 616 84 622.268 84 630C84 637.732 77.7323 644 70 644C62.2681 644 56 637.732 56 630C56 622.268 62.2681 616 70 616Z" fill="#1E1E1E"/>
<path d="M98 616C105.732 616 112 622.268 112 630C112 637.732 105.732 644 98 644C90.2681 644 84 637.732 84 630C84 622.268 90.2681 616 98 616Z" fill="#1E1E1E"/>
<path d="M182 616C189.732 616 196 622.268 196 630C196 637.732 189.732 644 182 644C174.268 644 168 637.732 168 630C168 622.268 174.268 616 182 616Z" fill="#1E1E1E"/>
<path d="M210 616C217.732 616 224 622.268 224 630C224 637.732 217.732 644 210 644C202.268 644 196 637.732 196 630C196 622.268 202.268 616 210 616Z" fill="#1E1E1E"/>
<path d="M238 616C245.732 616 252 622.268 252 630C252 637.732 245.732 644 238 644C230.268 644 224 637.732 224 630C224 622.268 230.268 616 238 616Z" fill="#1E1E1E"/>
<path d="M322 616C329.732 616 336 622.268 336 630C336 637.732 329.732 644 322 644C314.268 644 308 637.732 308 630C308 622.268 314.268 616 322 616Z" fill="#1E1E1E"/>
<path d="M714 616C721.732 616 728 622.268 728 630C728 637.732 721.732 644 714 644C706.268 644 700 637.732 700 630C700 622.268 706.268 616 714 616Z" fill="#1E1E1E"/>
<path d="M770 616C777.732 616 784 622.268 784 630C784 637.732 777.732 644 770 644C762.268 644 756 637.732 756 630C756 622.268 762.268 616 770 616Z" fill="#1E1E1E"/>
<path d="M910 616C917.732 616 924 622.268 924 630C924 637.732 917.732 644 910 644C902.268 644 896 637.732 896 630C896 622.268 902.268 616 910 616Z" fill="#1E1E1E"/>
<path d="M966 616C973.732 616 980 622.268 980 630C980 637.732 973.732 644 966 644C958.268 644 952 637.732 952 630C952 622.268 958.268 616 966 616Z" fill="#1E1E1E"/>
<path d="M1022 616C1029.73 616 1036 622.268 1036 630C1036 637.732 1029.73 644 1022 644C1014.27 644 1008 637.732 1008 630C1008 622.268 1014.27 616 1022 616Z" fill="#1E1E1E"/>
<path d="M42 644C49.7323 644 56 650.268 56 658C56 665.732 49.7323 672 42 672C34.2681 672 28 665.732 28 658C28 650.268 34.2681 644 42 644Z" fill="#1E1E1E"/>
<path d="M210 644C217.732 644 224 650.268 224 658C224 665.732 217.732 672 210 672C202.268 672 196 665.732 196 658C196 650.268 202.268 644 210 644Z" fill="#1E1E1E"/>
<path d="M238 644C245.732 644 252 650.268 252 658C252 665.732 245.732 672 238 672C230.268 672 224 665.732 224 658C224 650.268 230.268 644 238 644Z" fill="#1E1E1E"/>
<path d="M294 644C301.732 644 308 650.268 308 658C308 665.732 301.732 672 294 672C286.268 672 280 665.732 280 658C280 650.268 286.268 644 294 644Z" fill="#1E1E1E"/>
<path d="M714 644C721.732 644 728 650.268 728 658C728 665.732 721.732 672 714 672C706.268 672 700 665.732 700 658C700 650.268 706.268 644 714 644Z" fill="#1E1E1E"/>
<path d="M770 644C777.732 644 784 650.268 784 658C784 665.732 777.732 672 770 672C762.268 672 756 665.732 756 658C756 650.268 762.268 644 770 644Z" fill="#1E1E1E"/>
<path d="M798 644C805.732 644 812 650.268 812 658C812 665.732 805.732 672 798 672C790.268 672 784 665.732 784 658C784 650.268 790.268 644 798 644Z" fill="#1E1E1E"/>
<path d="M826 644C833.732 644 840 650.268 840 658C840 665.732 833.732 672 826 672C818.268 672 812 665.732 812 658C812 650.268 818.268 644 826 644Z" fill="#1E1E1E"/>
<path d="M882 644C889.732 644 896 650.268 896 658C896 665.732 889.732 672 882 672C874.268 672 868 665.732 868 658C868 650.268 874.268 644 882 644Z" fill="#1E1E1E"/>
<path d="M938 644C945.732 644 952 650.268 952 658C952 665.732 945.732 672 938 672C930.268 672 924 665.732 924 658C924 650.268 930.268 644 938 644Z" fill="#1E1E1E"/>
<path d="M966 644C973.732 644 980 650.268 980 658C980 665.732 973.732 672 966 672C958.268 672 952 665.732 952 658C952 650.268 958.268 644 966 644Z" fill="#1E1E1E"/>
<path d="M1022 644C1029.73 644 1036 650.268 1036 658C1036 665.732 1029.73 672 1022 672C1014.27 672 1008 665.732 1008 658C1008 650.268 1014.27 644 1022 644Z" fill="#1E1E1E"/>
<path d="M42 672C49.7323 672 56 678.268 56 686C56 693.732 49.7323 700 42 700C34.2681 700 28 693.732 28 686C28 678.268 34.2681 672 42 672Z" fill="#1E1E1E"/>
<path d="M126 672C133.732 672 140 678.268 140 686C140 693.732 133.732 700 126 700C118.268 700 112 693.732 112 686C112 678.268 118.268 672 126 672Z" fill="#1E1E1E"/>
<path d="M182 672C189.732 672 196 678.268 196 686C196 693.732 189.732 700 182 700C174.268 700 168 693.732 168 686C168 678.268 174.268 672 182 672Z" fill="#1E1E1E"/>
<path d="M266 672C273.732 672 280 678.268 280 686C280 693.732 273.732 700 266 700C258.268 700 252 693.732 252 686C252 678.268 258.268 672 266 672Z" fill="#1E1E1E"/>
<path d="M294 672C301.732 672 308 678.268 308 686C308 693.732 301.732 700 294 700C286.268 700 280 693.732 280 686C280 678.268 286.268 672 294 672Z" fill="#1E1E1E"/>
<path d="M350 672C357.732 672 364 678.268 364 686C364 693.732 357.732 700 350 700C342.268 700 336 693.732 336 686C336 678.268 342.268 672 350 672Z" fill="#1E1E1E"/>
<path d="M406 672C413.732 672 420 678.268 420 686C420 693.732 413.732 700 406 700C398.268 700 392 693.732 392 686C392 678.268 398.268 672 406 672Z" fill="#1E1E1E"/>
<path d="M462 672C469.732 672 476 678.268 476 686C476 693.732 469.732 700 462 700C454.268 700 448 693.732 448 686C448 678.268 454.268 672 462 672Z" fill="#1E1E1E"/>
<path d="M518 672C525.732 672 532 678.268 532 686C532 693.732 525.732 700 518 700C510.268 700 504 693.732 504 686C504 678.268 510.268 672 518 672Z" fill="#1E1E1E"/>
<path d="M546 672C553.732 672 560 678.268 560 686C560 693.732 553.732 700 546 700C538.268 700 532 693.732 532 686C532 678.268 538.268 672 546 672Z" fill="#1E1E1E"/>
<path d="M574 672C581.732 672 588 678.268 588 686C588 693.732 581.732 700 574 700C566.268 700 560 693.732 560 686C560 678.268 566.268 672 574 672Z" fill="#1E1E1E"/>
<path d="M602 672C609.732 672 616 678.268 616 686C616 693.732 609.732 700 602 700C594.268 700 588 693.732 588 686C588 678.268 594.268 672 602 672Z" fill="#1E1E1E"/>
<path d="M658 672C665.732 672 672 678.268 672 686C672 693.732 665.732 700 658 700C650.268 700 644 693.732 644 686C644 678.268 650.268 672 658 672Z" fill="#1E1E1E"/>
<path d="M686 672C693.732 672 700 678.268 700 686C700 693.732 693.732 700 686 700C678.268 700 672 693.732 672 686C672 678.268 678.268 672 686 672Z" fill="#1E1E1E"/>
<path d="M714 672C721.732 672 728 678.268 728 686C728 693.732 721.732 700 714 700C706.268 700 700 693.732 700 686C700 678.268 706.268 672 714 672Z" fill="#1E1E1E"/>
<path d="M882 672C889.732 672 896 678.268 896 686C896 693.732 889.732 700 882 700C874.268 700 868 693.732 868 686C868 678.268 874.268 672 882 672Z" fill="#1E1E1E"/>
<path d="M910 672C917.732 672 924 678.268 924 686C924 693.732 917.732 700 910 700C902.268 700 896 693.732 896 686C896 678.268 902.268 672 910 672Z" fill="#1E1E1E"/>
<path d="M938 672C945.732 672 952 678.268 952 686C952 693.732 945.732 700 938 700C930.268 700 924 693.732 924 686C924 678.268 930.268 672 938 672Z" fill="#1E1E1E"/>
<path d="M994 672C1001.73 672 1008 678.268 1008 686C1008 693.732 1001.73 700 994 700C986.268 700 980 693.732 980 686C980 678.268 986.268 672 994 672Z" fill="#1E1E1E"/>
<path d="M14 700C21.7323 700 28 706.268 28 714C28 721.732 21.7323 728 14 728C6.26808 728 0 721.732 0 714C0 706.268 6.26808 700 14 700Z" fill="#1E1E1E"/>
<path d="M126 700C133.732 700 140 706.268 140 714C140 721.732 133.732 728 126 728C118.268 728 112 721.732 112 714C112 706.268 118.268 700 126 700Z" fill="#1E1E1E"/>
<path d="M294 700C301.732 700 308 706.268 308 714C308 721.732 301.732 728 294 728C286.268 728 280 721.732 280 714C280 706.268 286.268 700 294 700Z" fill="#1E1E1E"/>
<path d="M322 700C329.732 700 336 706.268 336 714C336 721.732 329.732 728 322 728C314.268 728 308 721.732 308 714C308 706.268 314.268 700 322 700Z" fill="#1E1E1E"/>
<path d="M378 700C385.732 700 392 706.268 392 714C392 721.732 385.732 728 378 728C370.268 728 364 721.732 364 714C364 706.268 370.268 700 378 700Z" fill="#1E1E1E"/>
<path d="M434 700C441.732 700 448 706.268 448 714C448 721.732 441.732 728 434 728C426.268 728 420 721.732 420 714C420 706.268 426.268 700 434 700Z" fill="#1E1E1E"/>
<path d="M462 700C469.732 700 476 706.268 476 714C476 721.732 469.732 728 462 728C454.268 728 448 721.732 448 714C448 706.268 454.268 700 462 700Z" fill="#1E1E1E"/>
<path d="M546 700C553.732 700 560 706.268 560 714C560 721.732 553.732 728 546 728C538.268 728 532 721.732 532 714C532 706.268 538.268 700 546 700Z" fill="#1E1E1E"/>
<path d="M714 700C721.732 700 728 706.268 728 714C728 721.732 721.732 728 714 728C706.268 728 700 721.732 700 714C700 706.268 706.268 700 714 700Z" fill="#1E1E1E"/>
<path d="M742 700C749.732 700 756 706.268 756 714C756 721.732 749.732 728 742 728C734.268 728 728 721.732 728 714C728 706.268 734.268 700 742 700Z" fill="#1E1E1E"/>
<path d="M854 700C861.732 700 868 706.268 868 714C868 721.732 861.732 728 854 728C846.268 728 840 721.732 840 714C840 706.268 846.268 700 854 700Z" fill="#1E1E1E"/>
<path d="M938 700C945.732 700 952 706.268 952 714C952 721.732 945.732 728 938 728C930.268 728 924 721.732 924 714C924 706.268 930.268 700 938 700Z" fill="#1E1E1E"/>
<path d="M966 700C973.732 700 980 706.268 980 714C980 721.732 973.732 728 966 728C958.268 728 952 721.732 952 714C952 706.268 958.268 700 966 700Z" fill="#1E1E1E"/>
<path d="M14 728C21.7323 728 28 734.268 28 742C28 749.732 21.7323 756 14 756C6.26808 756 0 749.732 0 742C0 734.268 6.26808 728 14 728Z" fill="#1E1E1E"/>
<path d="M42 728C49.7323 728 56 734.268 56 742C56 749.732 49.7323 756 42 756C34.2681 756 28 749.732 28 742C28 734.268 34.2681 728 42 728Z" fill="#1E1E1E"/>
<path d="M98 728C105.732 728 112 734.268 112 742C112 749.732 105.732 756 98 756C90.2681 756 84 749.732 84 742C84 734.268 90.2681 728 98 728Z" fill="#1E1E1E"/>
<path d="M126 728C133.732 728 140 734.268 140 742C140 749.732 133.732 756 126 756C118.268 756 112 749.732 112 742C112 734.268 118.268 728 126 728Z" fill="#1E1E1E"/>
<path d="M154 728C161.732 728 168 734.268 168 742C168 749.732 161.732 756 154 756C146.268 756 140 749.732 140 742C140 734.268 146.268 728 154 728Z" fill="#1E1E1E"/>
<path d="M182 728C189.732 728 196 734.268 196 742C196 749.732 189.732 756 182 756C174.268 756 168 749.732 168 742C168 734.268 174.268 728 182 728Z" fill="#1E1E1E"/>
<path d="M238 728C245.732 728 252 734.268 252 742C252 749.732 245.732 756 238 756C230.268 756 224 749.732 224 742C224 734.268 230.268 728 238 728Z" fill="#1E1E1E"/>
<path d="M266 728C273.732 728 280 734.268 280 742C280 749.732 273.732 756 266 756C258.268 756 252 749.732 252 742C252 734.268 258.268 728 266 728Z" fill="#1E1E1E"/>
<path d="M294 728C301.732 728 308 734.268 308 742C308 749.732 301.732 756 294 756C286.268 756 280 749.732 280 742C280 734.268 286.268 728 294 728Z" fill="#1E1E1E"/>
<path d="M322 728C329.732 728 336 734.268 336 742C336 749.732 329.732 756 322 756C314.268 756 308 749.732 308 742C308 734.268 314.268 728 322 728Z" fill="#1E1E1E"/>
<path d="M350 728C357.732 728 364 734.268 364 742C364 749.732 357.732 756 350 756C342.268 756 336 749.732 336 742C336 734.268 342.268 728 350 728Z" fill="#1E1E1E"/>
<path d="M378 728C385.732 728 392 734.268 392 742C392 749.732 385.732 756 378 756C370.268 756 364 749.732 364 742C364 734.268 370.268 728 378 728Z" fill="#1E1E1E"/>
<path d="M434 728C441.732 728 448 734.268 448 742C448 749.732 441.732 756 434 756C426.268 756 420 749.732 420 742C420 734.268 426.268 728 434 728Z" fill="#1E1E1E"/>
<path d="M490 728C497.732 728 504 734.268 504 742C504 749.732 497.732 756 490 756C482.268 756 476 749.732 476 742C476 734.268 482.268 728 490 728Z" fill="#1E1E1E"/>
<path d="M574 728C581.732 728 588 734.268 588 742C588 749.732 581.732 756 574 756C566.268 756 560 749.732 560 742C560 734.268 566.268 728 574 728Z" fill="#1E1E1E"/>
<path d="M658 728C665.732 728 672 734.268 672 742C672 749.732 665.732 756 658 756C650.268 756 644 749.732 644 742C644 734.268 650.268 728 658 728Z" fill="#1E1E1E"/>
<path d="M686 728C693.732 728 700 734.268 700 742C700 749.732 693.732 756 686 756C678.268 756 672 749.732 672 742C672 734.268 678.268 728 686 728Z" fill="#1E1E1E"/>
<path d="M742 728C749.732 728 756 734.268 756 742C756 749.732 749.732 756 742 756C734.268 756 728 749.732 728 742C728 734.268 734.268 728 742 728Z" fill="#1E1E1E"/>
<path d="M770 728C777.732 728 784 734.268 784 742C784 749.732 777.732 756 770 756C762.268 756 756 749.732 756 742C756 734.268 762.268 728 770 728Z" fill="#1E1E1E"/>
<path d="M854 728C861.732 728 868 734.268 868 742C868 749.732 861.732 756 854 756C846.268 756 840 749.732 840 742C840 734.268 846.268 728 854 728Z" fill="#1E1E1E"/>
<path d="M882 728C889.732 728 896 734.268 896 742C896 749.732 889.732 756 882 756C874.268 756 868 749.732 868 742C868 734.268 874.268 728 882 728Z" fill="#1E1E1E"/>
<path d="M910 728C917.732 728 924 734.268 924 742C924 749.732 917.732 756 910 756C902.268 756 896 749.732 896 742C896 734.268 902.268 728 910 728Z" fill="#1E1E1E"/>
<path d="M1022 728C1029.73 728 1036 734.268 1036 742C1036 749.732 1029.73 756 1022 756C1014.27 756 1008 749.732 1008 742C1008 734.268 1014.27 728 1022 728Z" fill="#1E1E1E"/>
<path d="M14 756C21.7323 756 28 762.268 28 770C28 777.732 21.7323 784 14 784C6.26808 784 0 777.732 0 770C0 762.268 6.26808 756 14 756Z" fill="#1E1E1E"/>
<path d="M98 756C105.732 756 112 762.268 112 770C112 777.732 105.732 784 98 784C90.2681 784 84 777.732 84 770C84 762.268 90.2681 756 98 756Z" fill="#1E1E1E"/>
<path d="M126 756C133.732 756 140 762.268 140 770C140 777.732 133.732 784 126 784C118.268 784 112 777.732 112 770C112 762.268 118.268 756 126 756Z" fill="#1E1E1E"/>
<path d="M210 756C217.732 756 224 762.268 224 770C224 777.732 217.732 784 210 784C202.268 784 196 777.732 196 770C196 762.268 202.268 756 210 756Z" fill="#1E1E1E"/>
<path d="M238 756C245.732 756 252 762.268 252 770C252 777.732 245.732 784 238 784C230.268 784 224 777.732 224 770C224 762.268 230.268 756 238 756Z" fill="#1E1E1E"/>
<path d="M266 756C273.732 756 280 762.268 280 770C280 777.732 273.732 784 266 784C258.268 784 252 777.732 252 770C252 762.268 258.268 756 266 756Z" fill="#1E1E1E"/>
<path d="M294 756C301.732 756 308 762.268 308 770C308 777.732 301.732 784 294 784C286.268 784 280 777.732 280 770C280 762.268 286.268 756 294 756Z" fill="#1E1E1E"/>
<path d="M350 756C357.732 756 364 762.268 364 770C364 777.732 357.732 784 350 784C342.268 784 336 777.732 336 770C336 762.268 342.268 756 350 756Z" fill="#1E1E1E"/>
<path d="M378 756C385.732 756 392 762.268 392 770C392 777.732 385.732 784 378 784C370.268 784 364 777.732 364 770C364 762.268 370.268 756 378 756Z" fill="#1E1E1E"/>
<path d="M490 756C497.732 756 504 762.268 504 770C504 777.732 497.732 784 490 784C482.268 784 476 777.732 476 770C476 762.268 482.268 756 490 756Z" fill="#1E1E1E"/>
<path d="M518 756C525.732 756 532 762.268 532 770C532 777.732 525.732 784 518 784C510.268 784 504 777.732 504 770C504 762.268 510.268 756 518 756Z" fill="#1E1E1E"/>
<path d="M574 756C581.732 756 588 762.268 588 770C588 777.732 581.732 784 574 784C566.268 784 560 777.732 560 770C560 762.268 566.268 756 574 756Z" fill="#1E1E1E"/>
<path d="M602 756C609.732 756 616 762.268 616 770C616 777.732 609.732 784 602 784C594.268 784 588 777.732 588 770C588 762.268 594.268 756 602 756Z" fill="#1E1E1E"/>
<path d="M630 756C637.732 756 644 762.268 644 770C644 777.732 637.732 784 630 784C622.268 784 616 777.732 616 770C616 762.268 622.268 756 630 756Z" fill="#1E1E1E"/>
<path d="M658 756C665.732 756 672 762.268 672 770C672 777.732 665.732 784 658 784C650.268 784 644 777.732 644 770C644 762.268 650.268 756 658 756Z" fill="#1E1E1E"/>
<path d="M798 756C805.732 756 812 762.268 812 770C812 777.732 805.732 784 798 784C790.268 784 784 777.732 784 770C784 762.268 790.268 756 798 756Z" fill="#1E1E1E"/>
<path d="M826 756C833.732 756 840 762.268 840 770C840 777.732 833.732 784 826 784C818.268 784 812 777.732 812 770C812 762.268 818.268 756 826 756Z" fill="#1E1E1E"/>
<path d="M882 756C889.732 756 896 762.268 896 770C896 777.732 889.732 784 882 784C874.268 784 868 777.732 868 770C868 762.268 874.268 756 882 756Z" fill="#1E1E1E"/>
<path d="M966 756C973.732 756 980 762.268 980 770C980 777.732 973.732 784 966 784C958.268 784 952 777.732 952 770C952 762.268 958.268 756 966 756Z" fill="#1E1E1E"/>
<path d="M994 756C1001.73 756 1008 762.268 1008 770C1008 777.732 1001.73 784 994 784C986.268 784 980 777.732 980 770C980 762.268 986.268 756 994 756Z" fill="#1E1E1E"/>
<path d="M14 784C21.7323 784 28 790.268 28 798C28 805.732 21.7323 812 14 812C6.26808 812 0 805.732 0 798C0 790.268 6.26808 784 14 784Z" fill="#1E1E1E"/>
<path d="M70 784C77.7323 784 84 790.268 84 798C84 805.732 77.7323 812 70 812C62.2681 812 56 805.732 56 798C56 790.268 62.2681 784 70 784Z" fill="#1E1E1E"/>
<path d="M98 784C105.732 784 112 790.268 112 798C112 805.732 105.732 812 98 812C90.2681 812 84 805.732 84 798C84 790.268 90.2681 784 98 784Z" fill="#1E1E1E"/>
<path d="M182 784C189.732 784 196 790.268 196 798C196 805.732 189.732 812 182 812C174.268 812 168 805.732 168 798C168 790.268 174.268 784 182 784Z" fill="#1E1E1E"/>
<path d="M238 784C245.732 784 252 790.268 252 798C252 805.732 245.732 812 238 812C230.268 812 224 805.732 224 798C224 790.268 230.268 784 238 784Z" fill="#1E1E1E"/>
<path d="M266 784C273.732 784 280 790.268 280 798C280 805.732 273.732 812 266 812C258.268 812 252 805.732 252 798C252 790.268 258.268 784 266 784Z" fill="#1E1E1E"/>
<path d="M350 784C357.732 784 364 790.268 364 798C364 805.732 357.732 812 350 812C342.268 812 336 805.732 336 798C336 790.268 342.268 784 350 784Z" fill="#1E1E1E"/>
<path d="M378 784C385.732 784 392 790.268 392 798C392 805.732 385.732 812 378 812C370.268 812 364 805.732 364 798C364 790.268 370.268 784 378 784Z" fill="#1E1E1E"/>
<path d="M406 784C413.732 784 420 790.268 420 798C420 805.732 413.732 812 406 812C398.268 812 392 805.732 392 798C392 790.268 398.268 784 406 784Z" fill="#1E1E1E"/>
<path d="M434 784C441.732 784 448 790.268 448 798C448 805.732 441.732 812 434 812C426.268 812 420 805.732 420 798C420 790.268 426.268 784 434 784Z" fill="#1E1E1E"/>
<path d="M490 784C497.732 784 504 790.268 504 798C504 805.732 497.732 812 490 812C482.268 812 476 805.732 476 798C476 790.268 482.268 784 490 784Z" fill="#1E1E1E"/>
<path d="M574 784C581.732 784 588 790.268 588 798C588 805.732 581.732 812 574 812C566.268 812 560 805.732 560 798C560 790.268 566.268 784 574 784Z" fill="#1E1E1E"/>
<path d="M686 784C693.732 784 700 790.268 700 798C700 805.732 693.732 812 686 812C678.268 812 672 805.732 672 798C672 790.268 678.268 784 686 784Z" fill="#1E1E1E"/>
<path d="M714 784C721.732 784 728 790.268 728 798C728 805.732 721.732 812 714 812C706.268 812 700 805.732 700 798C700 790.268 706.268 784 714 784Z" fill="#1E1E1E"/>
<path d="M770 784C777.732 784 784 790.268 784 798C784 805.732 777.732 812 770 812C762.268 812 756 805.732 756 798C756 790.268 762.268 784 770 784Z" fill="#1E1E1E"/>
<path d="M798 784C805.732 784 812 790.268 812 798C812 805.732 805.732 812 798 812C790.268 812 784 805.732 784 798C784 790.268 790.268 784 798 784Z" fill="#1E1E1E"/>
<path d="M826 784C833.732 784 840 790.268 840 798C840 805.732 833.732 812 826 812C818.268 812 812 805.732 812 798C812 790.268 818.268 784 826 784Z" fill="#1E1E1E"/>
<path d="M854 784C861.732 784 868 790.268 868 798C868 805.732 861.732 812 854 812C846.268 812 840 805.732 840 798C840 790.268 846.268 784 854 784Z" fill="#1E1E1E"/>
<path d="M882 784C889.732 784 896 790.268 896 798C896 805.732 889.732 812 882 812C874.268 812 868 805.732 868 798C868 790.268 874.268 784 882 784Z" fill="#1E1E1E"/>
<path d="M910 784C917.732 784 924 790.268 924 798C924 805.732 917.732 812 910 812C902.268 812 896 805.732 896 798C896 790.268 902.268 784 910 784Z" fill="#1E1E1E"/>
<path d="M938 784C945.732 784 952 790.268 952 798C952 805.732 945.732 812 938 812C930.268 812 924 805.732 924 798C924 790.268 930.268 784 938 784Z" fill="#1E1E1E"/>
<path d="M238 812C245.732 812 252 818.268 252 826C252 833.732 245.732 840 238 840C230.268 840 224 833.732 224 826C224 818.268 230.268 812 238 812Z" fill="#1E1E1E"/>
<path d="M294 812C301.732 812 308 818.268 308 826C308 833.732 301.732 840 294 840C286.268 840 280 833.732 280 826C280 818.268 286.268 812 294 812Z" fill="#1E1E1E"/>
<path d="M434 812C441.732 812 448 818.268 448 826C448 833.732 441.732 840 434 840C426.268 840 420 833.732 420 826C420 818.268 426.268 812 434 812Z" fill="#1E1E1E"/>
<path d="M518 812C525.732 812 532 818.268 532 826C532 833.732 525.732 840 518 840C510.268 840 504 833.732 504 826C504 818.268 510.268 812 518 812Z" fill="#1E1E1E"/>
<path d="M602 812C609.732 812 616 818.268 616 826C616 833.732 609.732 840 602 840C594.268 840 588 833.732 588 826C588 818.268 594.268 812 602 812Z" fill="#1E1E1E"/>
<path d="M742 812C749.732 812 756 818.268 756 826C756 833.732 749.732 840 742 840C734.268 840 728 833.732 728 826C728 818.268 734.268 812 742 812Z" fill="#1E1E1E"/>
<path d="M798 812C805.732 812 812 818.268 812 826C812 833.732 805.732 840 798 840C790.268 840 784 833.732 784 826C784 818.268 790.268 812 798 812Z" fill="#1E1E1E"/>
<path d="M910 812C917.732 812 924 818.268 924 826C924 833.732 917.732 840 910 840C902.268 840 896 833.732 896 826C896 818.268 902.268 812 910 812Z" fill="#1E1E1E"/>
<path d="M938 812C945.732 812 952 818.268 952 826C952 833.732 945.732 840 938 840C930.268 840 924 833.732 924 826C924 818.268 930.268 812 938 812Z" fill="#1E1E1E"/>
<path d="M966 812C973.732 812 980 818.268 980 826C980 833.732 973.732 840 966 840C958.268 840 952 833.732 952 826C952 818.268 958.268 812 966 812Z" fill="#1E1E1E"/>
<path d="M238 840C245.732 840 252 846.268 252 854C252 861.732 245.732 868 238 868C230.268 868 224 861.732 224 854C224 846.268 230.268 840 238 840Z" fill="#1E1E1E"/>
<path d="M266 840C273.732 840 280 846.268 280 854C280 861.732 273.732 868 266 868C258.268 868 252 861.732 252 854C252 846.268 258.268 840 266 840Z" fill="#1E1E1E"/>
<path d="M294 840C301.732 840 308 846.268 308 854C308 861.732 301.732 868 294 868C286.268 868 280 861.732 280 854C280 846.268 286.268 840 294 840Z" fill="#1E1E1E"/>
<path d="M378 840C385.732 840 392 846.268 392 854C392 861.732 385.732 868 378 868C370.268 868 364 861.732 364 854C364 846.268 370.268 840 378 840Z" fill="#1E1E1E"/>
<path d="M434 840C441.732 840 448 846.268 448 854C448 861.732 441.732 868 434 868C426.268 868 420 861.732 420 854C420 846.268 426.268 840 434 840Z" fill="#1E1E1E"/>
<path d="M462 840C469.732 840 476 846.268 476 854C476 861.732 469.732 868 462 868C454.268 868 448 861.732 448 854C448 846.268 454.268 840 462 840Z" fill="#1E1E1E"/>
<path d="M490 840C497.732 840 504 846.268 504 854C504 861.732 497.732 868 490 868C482.268 868 476 861.732 476 854C476 846.268 482.268 840 490 840Z" fill="#1E1E1E"/>
<path d="M518 840C525.732 840 532 846.268 532 854C532 861.732 525.732 868 518 868C510.268 868 504 861.732 504 854C504 846.268 510.268 840 518 840Z" fill="#1E1E1E"/>
<path d="M574 840C581.732 840 588 846.268 588 854C588 861.732 581.732 868 574 868C566.268 868 560 861.732 560 854C560 846.268 566.268 840 574 840Z" fill="#1E1E1E"/>
<path d="M602 840C609.732 840 616 846.268 616 854C616 861.732 609.732 868 602 868C594.268 868 588 861.732 588 854C588 846.268 594.268 840 602 840Z" fill="#1E1E1E"/>
<path d="M658 840C665.732 840 672 846.268 672 854C672 861.732 665.732 868 658 868C650.268 868 644 861.732 644 854C644 846.268 650.268 840 658 840Z" fill="#1E1E1E"/>
<path d="M686 840C693.732 840 700 846.268 700 854C700 861.732 693.732 868 686 868C678.268 868 672 861.732 672 854C672 846.268 678.268 840 686 840Z" fill="#1E1E1E"/>
<path d="M798 840C805.732 840 812 846.268 812 854C812 861.732 805.732 868 798 868C790.268 868 784 861.732 784 854C784 846.268 790.268 840 798 840Z" fill="#1E1E1E"/>
<path d="M854 840C861.732 840 868 846.268 868 854C868 861.732 861.732 868 854 868C846.268 868 840 861.732 840 854C840 846.268 846.268 840 854 840Z" fill="#1E1E1E"/>
<path d="M910 840C917.732 840 924 846.268 924 854C924 861.732 917.732 868 910 868C902.268 868 896 861.732 896 854C896 846.268 902.268 840 910 840Z" fill="#1E1E1E"/>
<path d="M938 840C945.732 840 952 846.268 952 854C952 861.732 945.732 868 938 868C930.268 868 924 861.732 924 854C924 846.268 930.268 840 938 840Z" fill="#1E1E1E"/>
<path d="M966 840C973.732 840 980 846.268 980 854C980 861.732 973.732 868 966 868C958.268 868 952 861.732 952 854C952 846.268 958.268 840 966 840Z" fill="#1E1E1E"/>
<path d="M1022 840C1029.73 840 1036 846.268 1036 854C1036 861.732 1029.73 868 1022 868C1014.27 868 1008 861.732 1008 854C1008 846.268 1014.27 840 1022 840Z" fill="#1E1E1E"/>
<path d="M266 868C273.732 868 280 874.268 280 882C280 889.732 273.732 896 266 896C258.268 896 252 889.732 252 882C252 874.268 258.268 868 266 868Z" fill="#1E1E1E"/>
<path d="M350 868C357.732 868 364 874.268 364 882C364 889.732 357.732 896 350 896C342.268 896 336 889.732 336 882C336 874.268 342.268 868 350 868Z" fill="#1E1E1E"/>
<path d="M406 868C413.732 868 420 874.268 420 882C420 889.732 413.732 896 406 896C398.268 896 392 889.732 392 882C392 874.268 398.268 868 406 868Z" fill="#1E1E1E"/>
<path d="M462 868C469.732 868 476 874.268 476 882C476 889.732 469.732 896 462 896C454.268 896 448 889.732 448 882C448 874.268 454.268 868 462 868Z" fill="#1E1E1E"/>
<path d="M490 868C497.732 868 504 874.268 504 882C504 889.732 497.732 896 490 896C482.268 896 476 889.732 476 882C476 874.268 482.268 868 490 868Z" fill="#1E1E1E"/>
<path d="M518 868C525.732 868 532 874.268 532 882C532 889.732 525.732 896 518 896C510.268 896 504 889.732 504 882C504 874.268 510.268 868 518 868Z" fill="#1E1E1E"/>
<path d="M714 868C721.732 868 728 874.268 728 882C728 889.732 721.732 896 714 896C706.268 896 700 889.732 700 882C700 874.268 706.268 868 714 868Z" fill="#1E1E1E"/>
<path d="M742 868C749.732 868 756 874.268 756 882C756 889.732 749.732 896 742 896C734.268 896 728 889.732 728 882C728 874.268 734.268 868 742 868Z" fill="#1E1E1E"/>
<path d="M770 868C777.732 868 784 874.268 784 882C784 889.732 777.732 896 770 896C762.268 896 756 889.732 756 882C756 874.268 762.268 868 770 868Z" fill="#1E1E1E"/>
<path d="M798 868C805.732 868 812 874.268 812 882C812 889.732 805.732 896 798 896C790.268 896 784 889.732 784 882C784 874.268 790.268 868 798 868Z" fill="#1E1E1E"/>
<path d="M910 868C917.732 868 924 874.268 924 882C924 889.732 917.732 896 910 896C902.268 896 896 889.732 896 882C896 874.268 902.268 868 910 868Z" fill="#1E1E1E"/>
<path d="M938 868C945.732 868 952 874.268 952 882C952 889.732 945.732 896 938 896C930.268 896 924 889.732 924 882C924 874.268 930.268 868 938 868Z" fill="#1E1E1E"/>
<path d="M994 868C1001.73 868 1008 874.268 1008 882C1008 889.732 1001.73 896 994 896C986.268 896 980 889.732 980 882C980 874.268 986.268 868 994 868Z" fill="#1E1E1E"/>
<path d="M238 896C245.732 896 252 902.268 252 910C252 917.732 245.732 924 238 924C230.268 924 224 917.732 224 910C224 902.268 230.268 896 238 896Z" fill="#1E1E1E"/>
<path d="M266 896C273.732 896 280 902.268 280 910C280 917.732 273.732 924 266 924C258.268 924 252 917.732 252 910C252 902.268 258.268 896 266 896Z" fill="#1E1E1E"/>
<path d="M294 896C301.732 896 308 902.268 308 910C308 917.732 301.732 924 294 924C286.268 924 280 917.732 280 910C280 902.268 286.268 896 294 896Z" fill="#1E1E1E"/>
<path d="M406 896C413.732 896 420 902.268 420 910C420 917.732 413.732 924 406 924C398.268 924 392 917.732 392 910C392 902.268 398.268 896 406 896Z" fill="#1E1E1E"/>
<path d="M462 896C469.732 896 476 902.268 476 910C476 917.732 469.732 924 462 924C454.268 924 448 917.732 448 910C448 902.268 454.268 896 462 896Z" fill="#1E1E1E"/>
<path d="M490 896C497.732 896 504 902.268 504 910C504 917.732 497.732 924 490 924C482.268 924 476 917.732 476 910C476 902.268 482.268 896 490 896Z" fill="#1E1E1E"/>
<path d="M546 896C553.732 896 560 902.268 560 910C560 917.732 553.732 924 546 924C538.268 924 532 917.732 532 910C532 902.268 538.268 896 546 896Z" fill="#1E1E1E"/>
<path d="M742 896C749.732 896 756 902.268 756 910C756 917.732 749.732 924 742 924C734.268 924 728 917.732 728 910C728 902.268 734.268 896 742 896Z" fill="#1E1E1E"/>
<path d="M770 896C777.732 896 784 902.268 784 910C784 917.732 777.732 924 770 924C762.268 924 756 917.732 756 910C756 902.268 762.268 896 770 896Z" fill="#1E1E1E"/>
<path d="M798 896C805.732 896 812 902.268 812 910C812 917.732 805.732 924 798 924C790.268 924 784 917.732 784 910C784 902.268 790.268 896 798 896Z" fill="#1E1E1E"/>
<path d="M826 896C833.732 896 840 902.268 840 910C840 917.732 833.732 924 826 924C818.268 924 812 917.732 812 910C812 902.268 818.268 896 826 896Z" fill="#1E1E1E"/>
<path d="M854 896C861.732 896 868 902.268 868 910C868 917.732 861.732 924 854 924C846.268 924 840 917.732 840 910C840 902.268 846.268 896 854 896Z" fill="#1E1E1E"/>
<path d="M882 896C889.732 896 896 902.268 896 910C896 917.732 889.732 924 882 924C874.268 924 868 917.732 868 910C868 902.268 874.268 896 882 896Z" fill="#1E1E1E"/>
<path d="M910 896C917.732 896 924 902.268 924 910C924 917.732 917.732 924 910 924C902.268 924 896 917.732 896 910C896 902.268 902.268 896 910 896Z" fill="#1E1E1E"/>
<path d="M994 896C1001.73 896 1008 902.268 1008 910C1008 917.732 1001.73 924 994 924C986.268 924 980 917.732 980 910C980 902.268 986.268 896 994 896Z" fill="#1E1E1E"/>
<path d="M1022 896C1029.73 896 1036 902.268 1036 910C1036 917.732 1029.73 924 1022 924C1014.27 924 1008 917.732 1008 910C1008 902.268 1014.27 896 1022 896Z" fill="#1E1E1E"/>
<path d="M238 924C245.732 924 252 930.268 252 938C252 945.732 245.732 952 238 952C230.268 952 224 945.732 224 938C224 930.268 230.268 924 238 924Z" fill="#1E1E1E"/>
<path d="M266 924C273.732 924 280 930.268 280 938C280 945.732 273.732 952 266 952C258.268 952 252 945.732 252 938C252 930.268 258.268 924 266 924Z" fill="#1E1E1E"/>
<path d="M294 924C301.732 924 308 930.268 308 938C308 945.732 301.732 952 294 952C286.268 952 280 945.732 280 938C280 930.268 286.268 924 294 924Z" fill="#1E1E1E"/>
<path d="M350 924C357.732 924 364 930.268 364 938C364 945.732 357.732 952 350 952C342.268 952 336 945.732 336 938C336 930.268 342.268 924 350 924Z" fill="#1E1E1E"/>
<path d="M378 924C385.732 924 392 930.268 392 938C392 945.732 385.732 952 378 952C370.268 952 364 945.732 364 938C364 930.268 370.268 924 378 924Z" fill="#1E1E1E"/>
<path d="M406 924C413.732 924 420 930.268 420 938C420 945.732 413.732 952 406 952C398.268 952 392 945.732 392 938C392 930.268 398.268 924 406 924Z" fill="#1E1E1E"/>
<path d="M434 924C441.732 924 448 930.268 448 938C448 945.732 441.732 952 434 952C426.268 952 420 945.732 420 938C420 930.268 426.268 924 434 924Z" fill="#1E1E1E"/>
<path d="M518 924C525.732 924 532 930.268 532 938C532 945.732 525.732 952 518 952C510.268 952 504 945.732 504 938C504 930.268 510.268 924 518 924Z" fill="#1E1E1E"/>
<path d="M546 924C553.732 924 560 930.268 560 938C560 945.732 553.732 952 546 952C538.268 952 532 945.732 532 938C532 930.268 538.268 924 546 924Z" fill="#1E1E1E"/>
<path d="M602 924C609.732 924 616 930.268 616 938C616 945.732 609.732 952 602 952C594.268 952 588 945.732 588 938C588 930.268 594.268 924 602 924Z" fill="#1E1E1E"/>
<path d="M686 924C693.732 924 700 930.268 700 938C700 945.732 693.732 952 686 952C678.268 952 672 945.732 672 938C672 930.268 678.268 924 686 924Z" fill="#1E1E1E"/>
<path d="M742 924C749.732 924 756 930.268 756 938C756 945.732 749.732 952 742 952C734.268 952 728 945.732 728 938C728 930.268 734.268 924 742 924Z" fill="#1E1E1E"/>
<path d="M798 924C805.732 924 812 930.268 812 938C812 945.732 805.732 952 798 952C790.268 952 784 945.732 784 938C784 930.268 790.268 924 798 924Z" fill="#1E1E1E"/>
<path d="M854 924C861.732 924 868 930.268 868 938C868 945.732 861.732 952 854 952C846.268 952 840 945.732 840 938C840 930.268 846.268 924 854 924Z" fill="#1E1E1E"/>
<path d="M938 924C945.732 924 952 930.268 952 938C952 945.732 945.732 952 938 952C930.268 952 924 945.732 924 938C924 930.268 930.268 924 938 924Z" fill="#1E1E1E"/>
<path d="M266 952C273.732 952 280 958.268 280 966C280 973.732 273.732 980 266 980C258.268 980 252 973.732 252 966C252 958.268 258.268 952 266 952Z" fill="#1E1E1E"/>
<path d="M294 952C301.732 952 308 958.268 308 966C308 973.732 301.732 980 294 980C286.268 980 280 973.732 280 966C280 958.268 286.268 952 294 952Z" fill="#1E1E1E"/>
<path d="M406 952C413.732 952 420 958.268 420 966C420 973.732 413.732 980 406 980C398.268 980 392 973.732 392 966C392 958.268 398.268 952 406 952Z" fill="#1E1E1E"/>
<path d="M490 952C497.732 952 504 958.268 504 966C504 973.732 497.732 980 490 980C482.268 980 476 973.732 476 966C476 958.268 482.268 952 490 952Z" fill="#1E1E1E"/>
<path d="M630 952C637.732 952 644 958.268 644 966C644 973.732 637.732 980 630 980C622.268 980 616 973.732 616 966C616 958.268 622.268 952 630 952Z" fill="#1E1E1E"/>
<path d="M658 952C665.732 952 672 958.268 672 966C672 973.732 665.732 980 658 980C650.268 980 644 973.732 644 966C644 958.268 650.268 952 658 952Z" fill="#1E1E1E"/>
<path d="M798 952C805.732 952 812 958.268 812 966C812 973.732 805.732 980 798 980C790.268 980 784 973.732 784 966C784 958.268 790.268 952 798 952Z" fill="#1E1E1E"/>
<path d="M882 952C889.732 952 896 958.268 896 966C896 973.732 889.732 980 882 980C874.268 980 868 973.732 868 966C868 958.268 874.268 952 882 952Z" fill="#1E1E1E"/>
<path d="M910 952C917.732 952 924 958.268 924 966C924 973.732 917.732 980 910 980C902.268 980 896 973.732 896 966C896 958.268 902.268 952 910 952Z" fill="#1E1E1E"/>
<path d="M938 952C945.732 952 952 958.268 952 966C952 973.732 945.732 980 938 980C930.268 980 924 973.732 924 966C924 958.268 930.268 952 938 952Z" fill="#1E1E1E"/>
<path d="M994 952C1001.73 952 1008 958.268 1008 966C1008 973.732 1001.73 980 994 980C986.268 980 980 973.732 980 966C980 958.268 986.268 952 994 952Z" fill="#1E1E1E"/>
<path d="M1022 952C1029.73 952 1036 958.268 1036 966C1036 973.732 1029.73 980 1022 980C1014.27 980 1008 973.732 1008 966C1008 958.268 1014.27 952 1022 952Z" fill="#1E1E1E"/>
<path d="M266 980C273.732 980 280 986.268 280 994C280 1001.73 273.732 1008 266 1008C258.268 1008 252 1001.73 252 994C252 986.268 258.268 980 266 980Z" fill="#1E1E1E"/>
<path d="M294 980C301.732 980 308 986.268 308 994C308 1001.73 301.732 1008 294 1008C286.268 1008 280 1001.73 280 994C280 986.268 286.268 980 294 980Z" fill="#1E1E1E"/>
<path d="M322 980C329.732 980 336 986.268 336 994C336 1001.73 329.732 1008 322 1008C314.268 1008 308 1001.73 308 994C308 986.268 314.268 980 322 980Z" fill="#1E1E1E"/>
<path d="M350 980C357.732 980 364 986.268 364 994C364 1001.73 357.732 1008 350 1008C342.268 1008 336 1001.73 336 994C336 986.268 342.268 980 350 980Z" fill="#1E1E1E"/>
<path d="M378 980C385.732 980 392 986.268 392 994C392 1001.73 385.732 1008 378 1008C370.268 1008 364 1001.73 364 994C364 986.268 370.268 980 378 980Z" fill="#1E1E1E"/>
<path d="M406 980C413.732 980 420 986.268 420 994C420 1001.73 413.732 1008 406 1008C398.268 1008 392 1001.73 392 994C392 986.268 398.268 980 406 980Z" fill="#1E1E1E"/>
<path d="M434 980C441.732 980 448 986.268 448 994C448 1001.73 441.732 1008 434 1008C426.268 1008 420 1001.73 420 994C420 986.268 426.268 980 434 980Z" fill="#1E1E1E"/>
<path d="M462 980C469.732 980 476 986.268 476 994C476 1001.73 469.732 1008 462 1008C454.268 1008 448 1001.73 448 994C448 986.268 454.268 980 462 980Z" fill="#1E1E1E"/>
<path d="M546 980C553.732 980 560 986.268 560 994C560 1001.73 553.732 1008 546 1008C538.268 1008 532 1001.73 532 994C532 986.268 538.268 980 546 980Z" fill="#1E1E1E"/>
<path d="M574 980C581.732 980 588 986.268 588 994C588 1001.73 581.732 1008 574 1008C566.268 1008 560 1001.73 560 994C560 986.268 566.268 980 574 980Z" fill="#1E1E1E"/>
<path d="M602 980C609.732 980 616 986.268 616 994C616 1001.73 609.732 1008 602 1008C594.268 1008 588 1001.73 588 994C588 986.268 594.268 980 602 980Z" fill="#1E1E1E"/>
<path d="M630 980C637.732 980 644 986.268 644 994C644 1001.73 637.732 1008 630 1008C622.268 1008 616 1001.73 616 994C616 986.268 622.268 980 630 980Z" fill="#1E1E1E"/>
<path d="M658 980C665.732 980 672 986.268 672 994C672 1001.73 665.732 1008 658 1008C650.268 1008 644 1001.73 644 994C644 986.268 650.268 980 658 980Z" fill="#1E1E1E"/>
<path d="M686 980C693.732 980 700 986.268 700 994C700 1001.73 693.732 1008 686 1008C678.268 1008 672 1001.73 672 994C672 986.268 678.268 980 686 980Z" fill="#1E1E1E"/>
<path d="M742 980C749.732 980 756 986.268 756 994C756 1001.73 749.732 1008 742 1008C734.268 1008 728 1001.73 728 994C728 986.268 734.268 980 742 980Z" fill="#1E1E1E"/>
<path d="M826 980C833.732 980 840 986.268 840 994C840 1001.73 833.732 1008 826 1008C818.268 1008 812 1001.73 812 994C812 986.268 818.268 980 826 980Z" fill="#1E1E1E"/>
<path d="M882 980C889.732 980 896 986.268 896 994C896 1001.73 889.732 1008 882 1008C874.268 1008 868 1001.73 868 994C868 986.268 874.268 980 882 980Z" fill="#1E1E1E"/>
<path d="M910 980C917.732 980 924 986.268 924 994C924 1001.73 917.732 1008 910 1008C902.268 1008 896 1001.73 896 994C896 986.268 902.268 980 910 980Z" fill="#1E1E1E"/>
<path d="M938 980C945.732 980 952 986.268 952 994C952 1001.73 945.732 1008 938 1008C930.268 1008 924 1001.73 924 994C924 986.268 930.268 980 938 980Z" fill="#1E1E1E"/>
<path d="M966 980C973.732 980 980 986.268 980 994C980 1001.73 973.732 1008 966 1008C958.268 1008 952 1001.73 952 994C952 986.268 958.268 980 966 980Z" fill="#1E1E1E"/>
<path d="M994 980C1001.73 980 1008 986.268 1008 994C1008 1001.73 1001.73 1008 994 1008C986.268 1008 980 1001.73 980 994C980 986.268 986.268 980 994 980Z" fill="#1E1E1E"/>
<path d="M1022 980C1029.73 980 1036 986.268 1036 994C1036 1001.73 1029.73 1008 1022 1008C1014.27 1008 1008 1001.73 1008 994C1008 986.268 1014.27 980 1022 980Z" fill="#1E1E1E"/>
<path d="M406 1008C413.732 1008 420 1014.27 420 1022C420 1029.73 413.732 1036 406 1036C398.268 1036 392 1029.73 392 1022C392 1014.27 398.268 1008 406 1008Z" fill="#1E1E1E"/>
<path d="M434 1008C441.732 1008 448 1014.27 448 1022C448 1029.73 441.732 1036 434 1036C426.268 1036 420 1029.73 420 1022C420 1014.27 426.268 1008 434 1008Z" fill="#1E1E1E"/>
<path d="M462 1008C469.732 1008 476 1014.27 476 1022C476 1029.73 469.732 1036 462 1036C454.268 1036 448 1029.73 448 1022C448 1014.27 454.268 1008 462 1008Z" fill="#1E1E1E"/>
<path d="M518 1008C525.732 1008 532 1014.27 532 1022C532 1029.73 525.732 1036 518 1036C510.268 1036 504 1029.73 504 1022C504 1014.27 510.268 1008 518 1008Z" fill="#1E1E1E"/>
<path d="M602 1008C609.732 1008 616 1014.27 616 1022C616 1029.73 609.732 1036 602 1036C594.268 1036 588 1029.73 588 1022C588 1014.27 594.268 1008 602 1008Z" fill="#1E1E1E"/>
<path d="M630 1008C637.732 1008 644 1014.27 644 1022C644 1029.73 637.732 1036 630 1036C622.268 1036 616 1029.73 616 1022C616 1014.27 622.268 1008 630 1008Z" fill="#1E1E1E"/>
<path d="M658 1008C665.732 1008 672 1014.27 672 1022C672 1029.73 665.732 1036 658 1036C650.268 1036 644 1029.73 644 1022C644 1014.27 650.268 1008 658 1008Z" fill="#1E1E1E"/>
<path d="M686 1008C693.732 1008 700 1014.27 700 1022C700 1029.73 693.732 1036 686 1036C678.268 1036 672 1029.73 672 1022C672 1014.27 678.268 1008 686 1008Z" fill="#1E1E1E"/>
<path d="M798 1008C805.732 1008 812 1014.27 812 1022C812 1029.73 805.732 1036 798 1036C790.268 1036 784 1029.73 784 1022C784 1014.27 790.268 1008 798 1008Z" fill="#1E1E1E"/>
<path d="M938 1008C945.732 1008 952 1014.27 952 1022C952 1029.73 945.732 1036 938 1036C930.268 1036 924 1029.73 924 1022C924 1014.27 930.268 1008 938 1008Z" fill="#1E1E1E"/>
<path d="M1022 1008C1029.73 1008 1036 1014.27 1036 1022C1036 1029.73 1029.73 1036 1022 1036C1014.27 1036 1008 1029.73 1008 1022C1008 1014.27 1014.27 1008 1022 1008Z" fill="#1E1E1E"/>
<path d="M129.084 0.015625H66.9164C36.6187 0.015625 10.9505 20.0331 2.744 47.3927C1.89532 50.223 1.23284 53.1316 0.77224 56.1049C0.2646 59.386 0 62.7454 0 66.1656V129.809C0 166.302 30.0272 195.978 66.9164 195.978L98 195.984L129.084 195.976C165.971 195.976 196 166.3 196 129.807V66.1656C196 29.69 165.973 0.015625 129.084 0.015625ZM166.6 129.809C166.6 150.083 149.771 166.578 129.076 166.578L98 166.584L66.9242 166.576C46.2286 166.576 29.4 150.081 29.4 129.809V66.1656C29.4 59.8329 31.0425 53.8705 33.9335 48.6609C36.7167 43.6491 40.6543 39.3391 45.3956 36.0757C51.4912 31.8793 58.9137 29.4156 66.9144 29.4156H129.084C149.771 29.4156 166.6 45.9012 166.6 66.1656V129.809Z" fill="#1E1E1E"/>
<path d="M969.084 0.015625H906.916C876.619 0.015625 850.951 20.0331 842.744 47.3927C841.895 50.223 841.233 53.1316 840.772 56.1049C840.265 59.386 840 62.7454 840 66.1656V129.809C840 166.302 870.027 195.978 906.916 195.978L938 195.984L969.084 195.976C1005.97 195.976 1036 166.3 1036 129.807V66.1656C1036 29.69 1005.97 0.015625 969.084 0.015625ZM1006.6 129.809C1006.6 150.083 989.771 166.578 969.076 166.578L938 166.584L906.924 166.576C886.229 166.576 869.4 150.081 869.4 129.809V66.1656C869.4 59.8329 871.042 53.8705 873.933 48.6609C876.717 43.6491 880.654 39.3391 885.396 36.0757C891.491 31.8793 898.914 29.4156 906.914 29.4156H969.084C989.771 29.4156 1006.6 45.9012 1006.6 66.1656V129.809Z" fill="#1E1E1E"/>
<path d="M129.084 840.016H66.9164C36.6187 840.016 10.9505 860.033 2.744 887.393C1.89532 890.223 1.23284 893.132 0.77224 896.105C0.2646 899.386 0 902.745 0 906.166V969.809C0 1006.3 30.0272 1035.98 66.9164 1035.98L98 1035.98L129.084 1035.98C165.971 1035.98 196 1006.3 196 969.807V906.166C196 869.69 165.973 840.016 129.084 840.016ZM166.6 969.809C166.6 990.083 149.771 1006.58 129.076 1006.58L98 1006.58L66.9242 1006.58C46.2286 1006.58 29.4 990.081 29.4 969.809V906.166C29.4 899.833 31.0425 893.871 33.9335 888.661C36.7167 883.649 40.6543 879.339 45.3956 876.076C51.4912 871.879 58.9137 869.416 66.9144 869.416H129.084C149.771 869.416 166.6 885.901 166.6 906.166V969.809Z" fill="#1E1E1E"/>
<path d="M78.9749 140C66.2993 140 55.9883 129.893 55.9883 117.481V78.507C55.9883 74.6295 56.9963 70.9806 58.7611 67.7877C60.4655 64.715 62.878 62.074 65.7835 60.0816C69.5156 57.5128 74.0651 56 78.9623 56H117.037C129.701 56 140.012 66.0951 140.012 78.5061V117.48C140.012 129.891 129.702 139.999 117.037 139.999H98L78.9749 140Z" fill="#1E1E1E"/>
<path d="M918.975 140C906.299 140 895.988 129.893 895.988 117.481V78.507C895.988 74.6295 896.996 70.9806 898.761 67.7877C900.465 64.715 902.878 62.074 905.784 60.0816C909.516 57.5128 914.065 56 918.962 56H957.037C969.701 56 980.012 66.0951 980.012 78.5061V117.48C980.012 129.891 969.702 139.999 957.037 139.999H938L918.975 140Z" fill="#1E1E1E"/>
<path d="M78.9749 980C66.2993 980 55.9883 969.893 55.9883 957.481V918.507C55.9883 914.63 56.9963 910.981 58.7611 907.788C60.4655 904.715 62.878 902.074 65.7835 900.082C69.5156 897.513 74.0651 896 78.9623 896H117.037C129.701 896 140.012 906.095 140.012 918.506V957.48C140.012 969.891 129.702 979.999 117.037 979.999H98L78.9749 980Z" fill="#1E1E1E"/>
<path d="M355.64 446.522C355.64 419.108 377.818 396.885 405.178 396.885H630.28C657.64 396.885 679.818 419.108 679.818 446.522V589.477C679.818 616.891 657.64 639.115 630.28 639.115H405.178C377.818 639.115 355.64 616.891 355.64 589.477V446.522Z" fill="#1E1E1E"/>
<path d="M403.106 483.056H427.875V589.081H403.106V483.056ZM415.59 465.583C411.096 465.583 407.331 464.193 404.295 461.414C401.255 458.502 399.738 454.928 399.738 450.692C399.738 446.456 401.255 442.949 404.295 440.169C407.331 437.257 411.096 435.801 415.59 435.801C420.08 435.801 423.845 437.191 426.884 439.97C429.92 442.618 431.442 445.993 431.442 450.096C431.442 454.464 429.92 458.171 426.884 461.215C423.975 464.127 420.211 465.583 415.59 465.583ZM549.553 483.056L504.176 589.081H478.615L433.237 483.056H458.997L491.89 561.681L525.775 483.056H549.553ZM599.78 590.471C589.079 590.471 579.433 588.155 570.849 583.521C562.263 578.889 555.525 572.469 550.638 564.262C545.883 555.924 543.505 546.525 543.505 536.069C543.505 525.611 545.883 516.279 550.638 508.072C555.525 499.866 562.263 493.446 570.849 488.813C579.433 484.181 589.079 481.864 599.78 481.864C610.61 481.864 620.321 484.181 628.909 488.813C637.493 493.446 644.167 499.866 648.922 508.072C653.809 516.279 656.253 525.611 656.253 536.069C656.253 546.525 653.809 555.924 648.922 564.262C644.167 572.469 637.493 578.889 628.909 583.521C620.321 588.155 610.61 590.471 599.78 590.471ZM599.78 569.225C608.895 569.225 616.425 566.181 622.37 560.093C628.314 554.004 631.286 545.996 631.286 536.069C631.286 526.141 628.314 518.132 622.37 512.043C616.425 505.955 608.895 502.91 599.78 502.91C590.665 502.91 583.135 505.955 577.191 512.043C571.377 518.132 568.472 526.141 568.472 536.069C568.472 545.996 571.377 554.004 577.191 560.093C583.135 566.181 590.665 569.225 599.78 569.225Z" fill="#F5F5F5"/>
</svg>
