<svg width="343" height="232" viewBox="0 0 343 232" fill="none" xmlns="http://www.w3.org/2000/svg">
<path d="M137.774 116.127C137.774 154.132 106.932 184.942 68.887 184.942C30.8418 184.942 0 154.132 0 116.127C0 78.1206 30.8418 47.3108 68.887 47.3108C106.932 47.3108 137.774 78.1206 137.774 116.127Z" fill="url(#paint0_linear_50_7)"/>
<path d="M188.925 112.41C192.095 170.63 152.236 217.366 101.98 231.837L267.501 232C271.396 231.052 272.757 229.922 273.93 226.999L341.977 9.72589C343.929 2.69589 343.505 0.0248081 336.989 0.00854228C331.675 -0.0047257 301.423 0.0036516 290.452 0.00719024C287.065 -0.110156 286.09 1.19101 285.008 5.22476L237.998 171.85L192.729 5.7716C191.466 1.17183 189.399 -0.0260481 183.557 0.00854228H101.98C154.054 19.1488 185.755 54.1901 188.925 112.41Z" fill="url(#paint1_linear_50_7)"/>
<defs>
<linearGradient id="paint0_linear_50_7" x1="-408.046" y1="-16.6135" x2="809.925" y2="465.369" gradientUnits="userSpaceOnUse">
<stop stop-color="#1E1E1E"/>
<stop offset="0.5" stop-color="#D5DB45"/>
<stop offset="1" stop-color="#1E1E1E"/>
</linearGradient>
<linearGradient id="paint1_linear_50_7" x1="-408.046" y1="-16.6135" x2="809.925" y2="465.369" gradientUnits="userSpaceOnUse">
<stop stop-color="#1E1E1E"/>
<stop offset="0.5" stop-color="#D5DB45"/>
<stop offset="1" stop-color="#1E1E1E"/>
</linearGradient>
</defs>
</svg>
