<svg width="351" height="240" viewBox="0 0 351 240" fill="none" xmlns="http://www.w3.org/2000/svg">
<g filter="url(#filter0_d_50_7)">
<path d="M141.774 116.127C141.774 154.132 110.932 184.942 72.887 184.942C34.8418 184.942 4 154.132 4 116.127C4 78.1206 34.8418 47.3108 72.887 47.3108C110.932 47.3108 141.774 78.1206 141.774 116.127Z" fill="url(#paint0_linear_50_7)"/>
<path d="M192.925 112.41C196.095 170.63 156.236 217.366 105.98 231.837L271.501 232C275.396 231.052 276.757 229.922 277.93 226.999L345.977 9.72589C347.929 2.69589 347.505 0.0248081 340.989 0.00854228C335.675 -0.0047257 305.423 0.0036516 294.452 0.00719024C291.065 -0.110156 290.09 1.19101 289.008 5.22476L241.998 171.85L196.729 5.7716C195.466 1.17183 193.399 -0.0260481 187.557 0.00854228H105.98C158.054 19.1488 189.755 54.1901 192.925 112.41Z" fill="url(#paint1_linear_50_7)"/>
</g>
<defs>
<filter id="filter0_d_50_7" x="0" y="0" width="351" height="240" filterUnits="userSpaceOnUse" color-interpolation-filters="sRGB">
<feFlood flood-opacity="0" result="BackgroundImageFix"/>
<feColorMatrix in="SourceAlpha" type="matrix" values="0 0 0 0 0 0 0 0 0 0 0 0 0 0 0 0 0 0 127 0" result="hardAlpha"/>
<feOffset dy="4"/>
<feGaussianBlur stdDeviation="2"/>
<feComposite in2="hardAlpha" operator="out"/>
<feColorMatrix type="matrix" values="0 0 0 0 0 0 0 0 0 0 0 0 0 0 0 0 0 0 0.25 0"/>
<feBlend mode="normal" in2="BackgroundImageFix" result="effect1_dropShadow_50_7"/>
<feBlend mode="normal" in="SourceGraphic" in2="effect1_dropShadow_50_7" result="shape"/>
</filter>
<linearGradient id="paint0_linear_50_7" x1="-404.046" y1="-16.6135" x2="813.925" y2="465.369" gradientUnits="userSpaceOnUse">
<stop stop-color="#1E1E1E"/>
<stop offset="0.5" stop-color="#D5DB45"/>
<stop offset="1" stop-color="#1E1E1E"/>
</linearGradient>
<linearGradient id="paint1_linear_50_7" x1="-404.046" y1="-16.6135" x2="813.925" y2="465.369" gradientUnits="userSpaceOnUse">
<stop stop-color="#1E1E1E"/>
<stop offset="0.5" stop-color="#D5DB45"/>
<stop offset="1" stop-color="#1E1E1E"/>
</linearGradient>
</defs>
</svg>
