<svg width="909" height="371" viewBox="0 0 909 371" fill="none" xmlns="http://www.w3.org/2000/svg">
<path d="M425.646 107.078C425.646 142.122 397.28 170.531 362.288 170.531C327.297 170.531 298.931 142.122 298.931 107.078C298.931 72.0332 327.297 43.6242 362.288 43.6242C397.28 43.6242 425.646 72.0332 425.646 107.078Z" fill="url(#paint0_linear_50_8)"/>
<path d="M472.691 103.651C475.607 157.334 438.948 200.428 392.725 213.771L544.96 213.922C548.543 213.048 549.794 212.006 550.873 209.31L613.458 8.96802C615.254 2.48582 614.864 0.022875 608.871 0.00787664C603.983 -0.00435746 576.159 0.00336705 566.07 0.00662995C562.954 -0.101573 562.057 1.0982 561.062 4.81763L517.825 158.459L476.19 5.32186C475.028 1.08052 473.127 -0.0240183 467.754 0.00787664H392.725C440.619 17.6566 469.776 49.9675 472.691 103.651Z" fill="url(#paint1_linear_50_8)"/>
<path d="M56.525 371C48.243 371 40.6856 369.6 33.8529 366.801C27.0202 364.001 21.0675 360.062 15.9947 354.981C10.922 349.901 6.98799 343.939 4.19279 337.096C1.3976 330.253 0 322.736 0 314.545C0 306.354 1.3976 298.837 4.19279 291.994C6.98799 285.151 10.922 279.19 15.9947 274.109C21.0675 269.029 27.0202 265.089 33.8529 262.289C40.6856 259.49 48.1912 258.09 56.3698 258.09C64.5483 258.09 72.0539 259.49 78.8866 262.289C85.7193 265.089 91.672 269.029 96.7448 274.109C101.818 279.19 105.7 285.151 108.391 291.994C111.187 298.837 112.584 306.354 112.584 314.545C112.584 322.632 111.187 330.149 108.391 337.096C105.7 343.939 101.818 349.901 96.7448 354.981C91.672 360.062 85.7193 364.001 78.8866 366.801C72.0539 369.6 64.6001 371 56.525 371ZM56.3698 346.116C60.6143 346.116 64.4965 345.339 68.0164 343.783C71.6398 342.228 74.7456 340.051 77.3337 337.252C80.0254 334.348 82.0959 330.979 83.5453 327.143C84.9946 323.306 85.7193 319.107 85.7193 314.545C85.7193 309.983 84.9946 305.784 83.5453 301.948C82.0959 298.112 80.0254 294.794 77.3337 291.994C74.7456 289.091 71.6398 286.862 68.0164 285.307C64.4965 283.752 60.6143 282.974 56.3698 282.974C52.1252 282.974 48.1912 283.752 44.5678 285.307C41.048 286.862 37.9422 289.091 35.2505 291.994C32.5588 294.794 30.4883 298.112 29.039 301.948C27.6931 305.784 27.0202 309.983 27.0202 314.545C27.0202 319.107 27.6931 323.358 29.039 327.298C30.4883 331.134 32.5588 334.452 35.2505 337.252C37.9422 340.051 41.048 342.228 44.5678 343.783C48.1912 345.339 52.1252 346.116 56.3698 346.116Z" fill="url(#paint2_linear_50_8)"/>
<path d="M130.213 369.445V286.862H153.817L154.593 301.792L151.332 301.948C152.575 299.252 154.128 296.867 155.991 294.794C157.958 292.72 160.132 291.009 162.513 289.662C164.998 288.21 167.534 287.121 170.122 286.396C172.814 285.67 175.506 285.307 178.197 285.307C182.235 285.307 185.91 285.929 189.223 287.173C192.536 288.417 195.434 290.439 197.919 293.239C200.404 295.934 202.371 299.615 203.82 304.281L199.938 303.97L201.18 301.481C202.526 298.993 204.234 296.764 206.305 294.794C208.479 292.72 210.86 291.009 213.448 289.662C216.036 288.21 218.728 287.121 221.523 286.396C224.318 285.67 227.01 285.307 229.598 285.307C236.12 285.307 241.555 286.603 245.903 289.195C250.251 291.683 253.512 295.468 255.686 300.548C257.964 305.629 259.103 311.798 259.103 319.055V369.445H234.101V321.077C234.101 317.759 233.635 315.012 232.704 312.834C231.772 310.657 230.374 309.05 228.511 308.013C226.751 306.873 224.525 306.302 221.833 306.302C219.659 306.302 217.641 306.665 215.777 307.391C214.017 308.117 212.464 309.102 211.118 310.346C209.876 311.59 208.893 313.042 208.168 314.701C207.443 316.36 207.081 318.226 207.081 320.3V369.445H182.08V320.922C182.08 317.811 181.614 315.167 180.682 312.99C179.75 310.813 178.353 309.154 176.489 308.013C174.626 306.873 172.452 306.302 169.967 306.302C167.793 306.302 165.774 306.665 163.911 307.391C162.151 308.117 160.598 309.102 159.252 310.346C158.01 311.59 157.026 313.042 156.302 314.701C155.577 316.36 155.215 318.174 155.215 320.144V369.445H130.213Z" fill="url(#paint3_linear_50_8)"/>
<path d="M310.179 370.844C303.243 370.844 297.031 369.03 291.545 365.401C286.161 361.669 281.865 356.588 278.656 350.16C275.446 343.628 273.842 336.267 273.842 328.076C273.842 319.677 275.446 312.264 278.656 305.836C281.865 299.408 286.265 294.379 291.855 290.75C297.446 287.018 303.812 285.151 310.956 285.151C314.89 285.151 318.461 285.722 321.671 286.862C324.983 288.003 327.882 289.61 330.367 291.683C332.851 293.653 334.974 295.986 336.734 298.682C338.494 301.274 339.788 304.073 340.616 307.08L335.491 306.458V286.862H360.182V369.445H335.025V349.538L340.616 349.382C339.788 352.285 338.442 355.033 336.578 357.625C334.715 360.217 332.437 362.498 329.746 364.468C327.054 366.438 324.052 367.993 320.739 369.134C317.426 370.274 313.906 370.844 310.179 370.844ZM317.012 349.849C320.842 349.849 324.155 348.968 326.95 347.205C329.746 345.442 331.92 342.954 333.473 339.74C335.025 336.422 335.802 332.534 335.802 328.076C335.802 323.617 335.025 319.781 333.473 316.567C331.92 313.249 329.746 310.709 326.95 308.946C324.155 307.08 320.842 306.147 317.012 306.147C313.285 306.147 310.024 307.08 307.229 308.946C304.537 310.709 302.415 313.249 300.862 316.567C299.309 319.781 298.533 323.617 298.533 328.076C298.533 332.534 299.309 336.422 300.862 339.74C302.415 342.954 304.537 345.442 307.229 347.205C310.024 348.968 313.285 349.849 317.012 349.849Z" fill="url(#paint4_linear_50_8)"/>
<path d="M382.106 369.445V286.862H405.71L406.486 303.659L401.517 305.525C402.656 301.792 404.674 298.423 407.573 295.416C410.575 292.305 414.147 289.817 418.288 287.951C422.429 286.084 426.777 285.151 431.332 285.151C437.544 285.151 442.772 286.447 447.016 289.039C451.261 291.528 454.47 295.312 456.644 300.393C458.818 305.369 459.905 311.487 459.905 318.744V369.445H434.904V320.766C434.904 317.448 434.438 314.701 433.506 312.523C432.575 310.346 431.125 308.739 429.158 307.702C427.295 306.562 424.965 306.043 422.17 306.147C419.996 306.147 417.977 306.51 416.114 307.236C414.251 307.858 412.646 308.843 411.3 310.191C409.954 311.435 408.867 312.886 408.039 314.545C407.314 316.204 406.952 318.019 406.952 319.988V369.445H394.684C391.785 369.445 389.301 369.445 387.23 369.445C385.16 369.445 383.452 369.445 382.106 369.445Z" fill="url(#paint5_linear_50_8)"/>
<path d="M563.495 369.445L520.014 260.579H547.5L568.464 316.1C569.707 319.315 570.742 322.114 571.57 324.499C572.502 326.883 573.278 329.112 573.899 331.186C574.624 333.26 575.245 335.385 575.763 337.563C576.384 339.636 577.057 342.021 577.782 344.717H572.968C573.796 341.191 574.624 338.081 575.452 335.385C576.28 332.586 577.212 329.735 578.247 326.831C579.283 323.825 580.577 320.248 582.13 316.1L602.317 260.579H629.337L585.546 369.445H563.495Z" fill="url(#paint6_linear_50_8)"/>
<path d="M642.368 369.445V286.862H667.214V369.445H642.368ZM654.791 270.532C650.133 270.532 646.458 269.444 643.766 267.266C641.178 264.985 639.884 261.771 639.884 257.624C639.884 253.891 641.229 250.833 643.921 248.448C646.613 246.063 650.236 244.871 654.791 244.871C659.45 244.871 663.073 246.011 665.662 248.292C668.25 250.47 669.544 253.58 669.544 257.624C669.544 261.46 668.198 264.57 665.506 266.955C662.918 269.34 659.346 270.532 654.791 270.532Z" fill="url(#paint7_linear_50_8)"/>
<path d="M718.357 371C710.282 371 703.138 369.704 696.927 367.112C690.819 364.52 685.953 361.047 682.33 356.692L697.393 343.628C700.602 346.842 704.225 349.227 708.263 350.782C712.3 352.234 716.131 352.959 719.754 352.959C721.203 352.959 722.498 352.804 723.636 352.493C724.775 352.182 725.707 351.767 726.432 351.249C727.26 350.627 727.881 349.953 728.295 349.227C728.709 348.397 728.916 347.464 728.916 346.427C728.916 344.354 727.984 342.747 726.121 341.606C725.189 341.088 723.636 340.466 721.462 339.74C719.288 339.014 716.493 338.185 713.077 337.252C708.211 336.007 703.966 334.556 700.343 332.897C696.823 331.134 693.924 329.112 691.647 326.831C689.576 324.654 687.972 322.269 686.833 319.677C685.694 316.982 685.125 313.975 685.125 310.657C685.125 306.821 686.005 303.348 687.765 300.237C689.628 297.127 692.061 294.431 695.063 292.15C698.169 289.869 701.689 288.158 705.623 287.018C709.66 285.773 713.801 285.151 718.046 285.151C722.601 285.151 726.949 285.67 731.09 286.707C735.231 287.743 739.062 289.195 742.582 291.061C746.205 292.927 749.414 295.157 752.209 297.749L739.165 312.368C737.302 310.605 735.179 309.05 732.798 307.702C730.521 306.251 728.14 305.11 725.655 304.281C723.17 303.451 720.893 303.036 718.822 303.036C717.27 303.036 715.872 303.192 714.63 303.503C713.491 303.71 712.507 304.125 711.679 304.747C710.851 305.266 710.23 305.94 709.816 306.769C709.402 307.495 709.195 308.376 709.195 309.413C709.195 310.45 709.453 311.435 709.971 312.368C710.592 313.301 711.42 314.079 712.456 314.701C713.491 315.323 715.147 316.049 717.425 316.878C719.702 317.604 722.808 318.537 726.742 319.677C731.608 321.025 735.801 322.529 739.32 324.188C742.84 325.847 745.636 327.816 747.706 330.097C749.362 331.86 750.605 333.934 751.433 336.318C752.261 338.599 752.675 341.088 752.675 343.783C752.675 349.071 751.174 353.789 748.172 357.936C745.273 361.98 741.236 365.194 736.059 367.579C730.883 369.86 724.982 371 718.357 371Z" fill="url(#paint8_linear_50_8)"/>
<path d="M774.279 369.445V266.022H799.125V369.445H774.279ZM759.681 308.635V286.862H815.12V308.635H759.681Z" fill="url(#paint9_linear_50_8)"/>
<path d="M858.997 370.844C852.061 370.844 845.849 369.03 840.362 365.401C834.979 361.669 830.683 356.588 827.473 350.16C824.264 343.628 822.66 336.267 822.66 328.076C822.66 319.677 824.264 312.264 827.473 305.836C830.683 299.408 835.083 294.379 840.673 290.75C846.263 287.018 852.63 285.151 859.773 285.151C863.707 285.151 867.279 285.722 870.488 286.862C873.801 288.003 876.7 289.61 879.185 291.683C881.669 293.653 883.791 295.986 885.551 298.682C887.311 301.274 888.605 304.073 889.434 307.08L884.309 306.458V286.862H909V369.445H883.843V349.538L889.434 349.382C888.605 352.285 887.26 355.033 885.396 357.625C883.533 360.217 881.255 362.498 878.563 364.468C875.872 366.438 872.869 367.993 869.557 369.134C866.244 370.274 862.724 370.844 858.997 370.844ZM865.83 349.849C869.66 349.849 872.973 348.968 875.768 347.205C878.563 345.442 880.737 342.954 882.29 339.74C883.843 336.422 884.62 332.534 884.62 328.076C884.62 323.617 883.843 319.781 882.29 316.567C880.737 313.249 878.563 310.709 875.768 308.946C872.973 307.08 869.66 306.147 865.83 306.147C862.103 306.147 858.842 307.08 856.047 308.946C853.355 310.709 851.233 313.249 849.68 316.567C848.127 319.781 847.35 323.617 847.35 328.076C847.35 332.534 848.127 336.422 849.68 339.74C851.233 342.954 853.355 345.442 856.047 347.205C858.842 348.968 862.103 349.849 865.83 349.849Z" fill="url(#paint10_linear_50_8)"/>
<defs>
<linearGradient id="paint0_linear_50_8" x1="-76.3632" y1="-15.319" x2="1044.62" y2="427.154" gradientUnits="userSpaceOnUse">
<stop stop-color="#1E1E1E"/>
<stop offset="0.5" stop-color="#D5DB45"/>
<stop offset="1" stop-color="#1E1E1E"/>
</linearGradient>
<linearGradient id="paint1_linear_50_8" x1="-76.3632" y1="-15.319" x2="1044.62" y2="427.154" gradientUnits="userSpaceOnUse">
<stop stop-color="#1E1E1E"/>
<stop offset="0.5" stop-color="#D5DB45"/>
<stop offset="1" stop-color="#1E1E1E"/>
</linearGradient>
<linearGradient id="paint2_linear_50_8" x1="-76.3632" y1="-15.319" x2="1044.62" y2="427.154" gradientUnits="userSpaceOnUse">
<stop stop-color="#1E1E1E"/>
<stop offset="0.5" stop-color="#D5DB45"/>
<stop offset="1" stop-color="#1E1E1E"/>
</linearGradient>
<linearGradient id="paint3_linear_50_8" x1="-76.3632" y1="-15.319" x2="1044.62" y2="427.154" gradientUnits="userSpaceOnUse">
<stop stop-color="#1E1E1E"/>
<stop offset="0.5" stop-color="#D5DB45"/>
<stop offset="1" stop-color="#1E1E1E"/>
</linearGradient>
<linearGradient id="paint4_linear_50_8" x1="-76.3632" y1="-15.319" x2="1044.62" y2="427.154" gradientUnits="userSpaceOnUse">
<stop stop-color="#1E1E1E"/>
<stop offset="0.5" stop-color="#D5DB45"/>
<stop offset="1" stop-color="#1E1E1E"/>
</linearGradient>
<linearGradient id="paint5_linear_50_8" x1="-76.3632" y1="-15.319" x2="1044.62" y2="427.154" gradientUnits="userSpaceOnUse">
<stop stop-color="#1E1E1E"/>
<stop offset="0.5" stop-color="#D5DB45"/>
<stop offset="1" stop-color="#1E1E1E"/>
</linearGradient>
<linearGradient id="paint6_linear_50_8" x1="-76.3632" y1="-15.319" x2="1044.62" y2="427.154" gradientUnits="userSpaceOnUse">
<stop stop-color="#1E1E1E"/>
<stop offset="0.5" stop-color="#D5DB45"/>
<stop offset="1" stop-color="#1E1E1E"/>
</linearGradient>
<linearGradient id="paint7_linear_50_8" x1="-76.3632" y1="-15.319" x2="1044.62" y2="427.154" gradientUnits="userSpaceOnUse">
<stop stop-color="#1E1E1E"/>
<stop offset="0.5" stop-color="#D5DB45"/>
<stop offset="1" stop-color="#1E1E1E"/>
</linearGradient>
<linearGradient id="paint8_linear_50_8" x1="-76.3632" y1="-15.319" x2="1044.62" y2="427.154" gradientUnits="userSpaceOnUse">
<stop stop-color="#1E1E1E"/>
<stop offset="0.5" stop-color="#D5DB45"/>
<stop offset="1" stop-color="#1E1E1E"/>
</linearGradient>
<linearGradient id="paint9_linear_50_8" x1="-76.3632" y1="-15.319" x2="1044.62" y2="427.154" gradientUnits="userSpaceOnUse">
<stop stop-color="#1E1E1E"/>
<stop offset="0.5" stop-color="#D5DB45"/>
<stop offset="1" stop-color="#1E1E1E"/>
</linearGradient>
<linearGradient id="paint10_linear_50_8" x1="-76.3632" y1="-15.319" x2="1044.62" y2="427.154" gradientUnits="userSpaceOnUse">
<stop stop-color="#1E1E1E"/>
<stop offset="0.5" stop-color="#D5DB45"/>
<stop offset="1" stop-color="#1E1E1E"/>
</linearGradient>
</defs>
</svg>
