<svg width="917" height="379" viewBox="0 0 917 379" fill="none" xmlns="http://www.w3.org/2000/svg">
<g filter="url(#filter0_d_50_8)">
<path d="M429.646 107.078C429.646 142.122 401.28 170.531 366.288 170.531C331.297 170.531 302.931 142.122 302.931 107.078C302.931 72.0332 331.297 43.6242 366.288 43.6242C401.28 43.6242 429.646 72.0332 429.646 107.078Z" fill="url(#paint0_linear_50_8)"/>
<path d="M476.691 103.651C479.607 157.334 442.948 200.428 396.725 213.771L548.96 213.922C552.543 213.048 553.794 212.006 554.873 209.31L617.458 8.96802C619.254 2.48582 618.864 0.022875 612.871 0.00787664C607.983 -0.00435746 580.159 0.00336705 570.07 0.00662995C566.954 -0.101573 566.057 1.0982 565.062 4.81763L521.825 158.459L480.19 5.32186C479.028 1.08052 477.127 -0.0240183 471.754 0.00787664H396.725C444.619 17.6566 473.776 49.9675 476.691 103.651Z" fill="url(#paint1_linear_50_8)"/>
<path d="M60.525 371C52.243 371 44.6856 369.6 37.8529 366.801C31.0202 364.001 25.0675 360.062 19.9947 354.981C14.922 349.901 10.988 343.939 8.19279 337.096C5.3976 330.253 4 322.736 4 314.545C4 306.354 5.3976 298.837 8.19279 291.994C10.988 285.151 14.922 279.19 19.9947 274.109C25.0675 269.029 31.0202 265.089 37.8529 262.289C44.6856 259.49 52.1912 258.09 60.3698 258.09C68.5483 258.09 76.0539 259.49 82.8866 262.289C89.7193 265.089 95.672 269.029 100.745 274.109C105.818 279.19 109.7 285.151 112.391 291.994C115.187 298.837 116.584 306.354 116.584 314.545C116.584 322.632 115.187 330.149 112.391 337.096C109.7 343.939 105.818 349.901 100.745 354.981C95.672 360.062 89.7193 364.001 82.8866 366.801C76.0539 369.6 68.6001 371 60.525 371ZM60.3698 346.116C64.6143 346.116 68.4965 345.339 72.0164 343.783C75.6398 342.228 78.7456 340.051 81.3337 337.252C84.0254 334.348 86.0959 330.979 87.5453 327.143C88.9946 323.306 89.7193 319.107 89.7193 314.545C89.7193 309.983 88.9946 305.784 87.5453 301.948C86.0959 298.112 84.0254 294.794 81.3337 291.994C78.7456 289.091 75.6398 286.862 72.0164 285.307C68.4965 283.752 64.6143 282.974 60.3698 282.974C56.1252 282.974 52.1912 283.752 48.5678 285.307C45.048 286.862 41.9422 289.091 39.2505 291.994C36.5588 294.794 34.4883 298.112 33.039 301.948C31.6931 305.784 31.0202 309.983 31.0202 314.545C31.0202 319.107 31.6931 323.358 33.039 327.298C34.4883 331.134 36.5588 334.452 39.2505 337.252C41.9422 340.051 45.048 342.228 48.5678 343.783C52.1912 345.339 56.1252 346.116 60.3698 346.116Z" fill="url(#paint2_linear_50_8)"/>
<path d="M134.213 369.445V286.862H157.817L158.593 301.792L155.332 301.948C156.575 299.252 158.128 296.867 159.991 294.794C161.958 292.72 164.132 291.009 166.513 289.662C168.998 288.21 171.534 287.121 174.122 286.396C176.814 285.67 179.506 285.307 182.197 285.307C186.235 285.307 189.91 285.929 193.223 287.173C196.536 288.417 199.434 290.439 201.919 293.239C204.404 295.934 206.371 299.615 207.82 304.281L203.938 303.97L205.18 301.481C206.526 298.993 208.234 296.764 210.305 294.794C212.479 292.72 214.86 291.009 217.448 289.662C220.036 288.21 222.728 287.121 225.523 286.396C228.318 285.67 231.01 285.307 233.598 285.307C240.12 285.307 245.555 286.603 249.903 289.195C254.251 291.683 257.512 295.468 259.686 300.548C261.964 305.629 263.103 311.798 263.103 319.055V369.445H238.101V321.077C238.101 317.759 237.635 315.012 236.704 312.834C235.772 310.657 234.374 309.05 232.511 308.013C230.751 306.873 228.525 306.302 225.833 306.302C223.659 306.302 221.641 306.665 219.777 307.391C218.017 308.117 216.464 309.102 215.118 310.346C213.876 311.59 212.893 313.042 212.168 314.701C211.443 316.36 211.081 318.226 211.081 320.3V369.445H186.08V320.922C186.08 317.811 185.614 315.167 184.682 312.99C183.75 310.813 182.353 309.154 180.489 308.013C178.626 306.873 176.452 306.302 173.967 306.302C171.793 306.302 169.774 306.665 167.911 307.391C166.151 308.117 164.598 309.102 163.252 310.346C162.01 311.59 161.026 313.042 160.302 314.701C159.577 316.36 159.215 318.174 159.215 320.144V369.445H134.213Z" fill="url(#paint3_linear_50_8)"/>
<path d="M314.179 370.844C307.243 370.844 301.031 369.03 295.545 365.401C290.161 361.669 285.865 356.588 282.656 350.16C279.446 343.628 277.842 336.267 277.842 328.076C277.842 319.677 279.446 312.264 282.656 305.836C285.865 299.408 290.265 294.379 295.855 290.75C301.446 287.018 307.812 285.151 314.956 285.151C318.89 285.151 322.461 285.722 325.671 286.862C328.983 288.003 331.882 289.61 334.367 291.683C336.851 293.653 338.974 295.986 340.734 298.682C342.494 301.274 343.788 304.073 344.616 307.08L339.491 306.458V286.862H364.182V369.445H339.025V349.538L344.616 349.382C343.788 352.285 342.442 355.033 340.578 357.625C338.715 360.217 336.437 362.498 333.746 364.468C331.054 366.438 328.052 367.993 324.739 369.134C321.426 370.274 317.906 370.844 314.179 370.844ZM321.012 349.849C324.842 349.849 328.155 348.968 330.95 347.205C333.746 345.442 335.92 342.954 337.473 339.74C339.025 336.422 339.802 332.534 339.802 328.076C339.802 323.617 339.025 319.781 337.473 316.567C335.92 313.249 333.746 310.709 330.95 308.946C328.155 307.08 324.842 306.147 321.012 306.147C317.285 306.147 314.024 307.08 311.229 308.946C308.537 310.709 306.415 313.249 304.862 316.567C303.309 319.781 302.533 323.617 302.533 328.076C302.533 332.534 303.309 336.422 304.862 339.74C306.415 342.954 308.537 345.442 311.229 347.205C314.024 348.968 317.285 349.849 321.012 349.849Z" fill="url(#paint4_linear_50_8)"/>
<path d="M386.106 369.445V286.862H409.71L410.486 303.659L405.517 305.525C406.656 301.792 408.674 298.423 411.573 295.416C414.575 292.305 418.147 289.817 422.288 287.951C426.429 286.084 430.777 285.151 435.332 285.151C441.544 285.151 446.772 286.447 451.016 289.039C455.261 291.528 458.47 295.312 460.644 300.393C462.818 305.369 463.905 311.487 463.905 318.744V369.445H438.904V320.766C438.904 317.448 438.438 314.701 437.506 312.523C436.575 310.346 435.125 308.739 433.158 307.702C431.295 306.562 428.965 306.043 426.17 306.147C423.996 306.147 421.977 306.51 420.114 307.236C418.251 307.858 416.646 308.843 415.3 310.191C413.954 311.435 412.867 312.886 412.039 314.545C411.314 316.204 410.952 318.019 410.952 319.988V369.445H398.684C395.785 369.445 393.301 369.445 391.23 369.445C389.16 369.445 387.452 369.445 386.106 369.445Z" fill="url(#paint5_linear_50_8)"/>
<path d="M567.495 369.445L524.014 260.579H551.5L572.464 316.1C573.707 319.315 574.742 322.114 575.57 324.499C576.502 326.883 577.278 329.112 577.899 331.186C578.624 333.26 579.245 335.385 579.763 337.563C580.384 339.636 581.057 342.021 581.782 344.717H576.968C577.796 341.191 578.624 338.081 579.452 335.385C580.28 332.586 581.212 329.735 582.247 326.831C583.283 323.825 584.577 320.248 586.13 316.1L606.317 260.579H633.337L589.546 369.445H567.495Z" fill="url(#paint6_linear_50_8)"/>
<path d="M646.368 369.445V286.862H671.214V369.445H646.368ZM658.791 270.532C654.133 270.532 650.458 269.444 647.766 267.266C645.178 264.985 643.884 261.771 643.884 257.624C643.884 253.891 645.229 250.833 647.921 248.448C650.613 246.063 654.236 244.871 658.791 244.871C663.45 244.871 667.073 246.011 669.662 248.292C672.25 250.47 673.544 253.58 673.544 257.624C673.544 261.46 672.198 264.57 669.506 266.955C666.918 269.34 663.346 270.532 658.791 270.532Z" fill="url(#paint7_linear_50_8)"/>
<path d="M722.357 371C714.282 371 707.138 369.704 700.927 367.112C694.819 364.52 689.953 361.047 686.33 356.692L701.393 343.628C704.602 346.842 708.225 349.227 712.263 350.782C716.3 352.234 720.131 352.959 723.754 352.959C725.203 352.959 726.498 352.804 727.636 352.493C728.775 352.182 729.707 351.767 730.432 351.249C731.26 350.627 731.881 349.953 732.295 349.227C732.709 348.397 732.916 347.464 732.916 346.427C732.916 344.354 731.984 342.747 730.121 341.606C729.189 341.088 727.636 340.466 725.462 339.74C723.288 339.014 720.493 338.185 717.077 337.252C712.211 336.007 707.966 334.556 704.343 332.897C700.823 331.134 697.924 329.112 695.647 326.831C693.576 324.654 691.972 322.269 690.833 319.677C689.694 316.982 689.125 313.975 689.125 310.657C689.125 306.821 690.005 303.348 691.765 300.237C693.628 297.127 696.061 294.431 699.063 292.15C702.169 289.869 705.689 288.158 709.623 287.018C713.66 285.773 717.801 285.151 722.046 285.151C726.601 285.151 730.949 285.67 735.09 286.707C739.231 287.743 743.062 289.195 746.582 291.061C750.205 292.927 753.414 295.157 756.209 297.749L743.165 312.368C741.302 310.605 739.179 309.05 736.798 307.702C734.521 306.251 732.14 305.11 729.655 304.281C727.17 303.451 724.893 303.036 722.822 303.036C721.27 303.036 719.872 303.192 718.63 303.503C717.491 303.71 716.507 304.125 715.679 304.747C714.851 305.266 714.23 305.94 713.816 306.769C713.402 307.495 713.195 308.376 713.195 309.413C713.195 310.45 713.453 311.435 713.971 312.368C714.592 313.301 715.42 314.079 716.456 314.701C717.491 315.323 719.147 316.049 721.425 316.878C723.702 317.604 726.808 318.537 730.742 319.677C735.608 321.025 739.801 322.529 743.32 324.188C746.84 325.847 749.636 327.816 751.706 330.097C753.362 331.86 754.605 333.934 755.433 336.318C756.261 338.599 756.675 341.088 756.675 343.783C756.675 349.071 755.174 353.789 752.172 357.936C749.273 361.98 745.236 365.194 740.059 367.579C734.883 369.86 728.982 371 722.357 371Z" fill="url(#paint8_linear_50_8)"/>
<path d="M778.279 369.445V266.022H803.125V369.445H778.279ZM763.681 308.635V286.862H819.12V308.635H763.681Z" fill="url(#paint9_linear_50_8)"/>
<path d="M862.997 370.844C856.061 370.844 849.849 369.03 844.362 365.401C838.979 361.669 834.683 356.588 831.473 350.16C828.264 343.628 826.66 336.267 826.66 328.076C826.66 319.677 828.264 312.264 831.473 305.836C834.683 299.408 839.083 294.379 844.673 290.75C850.263 287.018 856.63 285.151 863.773 285.151C867.707 285.151 871.279 285.722 874.488 286.862C877.801 288.003 880.7 289.61 883.185 291.683C885.669 293.653 887.791 295.986 889.551 298.682C891.311 301.274 892.605 304.073 893.434 307.08L888.309 306.458V286.862H913V369.445H887.843V349.538L893.434 349.382C892.605 352.285 891.26 355.033 889.396 357.625C887.533 360.217 885.255 362.498 882.563 364.468C879.872 366.438 876.869 367.993 873.557 369.134C870.244 370.274 866.724 370.844 862.997 370.844ZM869.83 349.849C873.66 349.849 876.973 348.968 879.768 347.205C882.563 345.442 884.737 342.954 886.29 339.74C887.843 336.422 888.62 332.534 888.62 328.076C888.62 323.617 887.843 319.781 886.29 316.567C884.737 313.249 882.563 310.709 879.768 308.946C876.973 307.08 873.66 306.147 869.83 306.147C866.103 306.147 862.842 307.08 860.047 308.946C857.355 310.709 855.233 313.249 853.68 316.567C852.127 319.781 851.35 323.617 851.35 328.076C851.35 332.534 852.127 336.422 853.68 339.74C855.233 342.954 857.355 345.442 860.047 347.205C862.842 348.968 866.103 349.849 869.83 349.849Z" fill="url(#paint10_linear_50_8)"/>
</g>
<defs>
<filter id="filter0_d_50_8" x="0" y="0" width="917" height="379" filterUnits="userSpaceOnUse" color-interpolation-filters="sRGB">
<feFlood flood-opacity="0" result="BackgroundImageFix"/>
<feColorMatrix in="SourceAlpha" type="matrix" values="0 0 0 0 0 0 0 0 0 0 0 0 0 0 0 0 0 0 127 0" result="hardAlpha"/>
<feOffset dy="4"/>
<feGaussianBlur stdDeviation="2"/>
<feComposite in2="hardAlpha" operator="out"/>
<feColorMatrix type="matrix" values="0 0 0 0 0 0 0 0 0 0 0 0 0 0 0 0 0 0 0.25 0"/>
<feBlend mode="normal" in2="BackgroundImageFix" result="effect1_dropShadow_50_8"/>
<feBlend mode="normal" in="SourceGraphic" in2="effect1_dropShadow_50_8" result="shape"/>
</filter>
<linearGradient id="paint0_linear_50_8" x1="-72.3632" y1="-15.319" x2="1048.62" y2="427.154" gradientUnits="userSpaceOnUse">
<stop stop-color="#1E1E1E"/>
<stop offset="0.5" stop-color="#D5DB45"/>
<stop offset="1" stop-color="#1E1E1E"/>
</linearGradient>
<linearGradient id="paint1_linear_50_8" x1="-72.3632" y1="-15.319" x2="1048.62" y2="427.154" gradientUnits="userSpaceOnUse">
<stop stop-color="#1E1E1E"/>
<stop offset="0.5" stop-color="#D5DB45"/>
<stop offset="1" stop-color="#1E1E1E"/>
</linearGradient>
<linearGradient id="paint2_linear_50_8" x1="-72.3632" y1="-15.319" x2="1048.62" y2="427.154" gradientUnits="userSpaceOnUse">
<stop stop-color="#1E1E1E"/>
<stop offset="0.5" stop-color="#D5DB45"/>
<stop offset="1" stop-color="#1E1E1E"/>
</linearGradient>
<linearGradient id="paint3_linear_50_8" x1="-72.3632" y1="-15.319" x2="1048.62" y2="427.154" gradientUnits="userSpaceOnUse">
<stop stop-color="#1E1E1E"/>
<stop offset="0.5" stop-color="#D5DB45"/>
<stop offset="1" stop-color="#1E1E1E"/>
</linearGradient>
<linearGradient id="paint4_linear_50_8" x1="-72.3632" y1="-15.319" x2="1048.62" y2="427.154" gradientUnits="userSpaceOnUse">
<stop stop-color="#1E1E1E"/>
<stop offset="0.5" stop-color="#D5DB45"/>
<stop offset="1" stop-color="#1E1E1E"/>
</linearGradient>
<linearGradient id="paint5_linear_50_8" x1="-72.3632" y1="-15.319" x2="1048.62" y2="427.154" gradientUnits="userSpaceOnUse">
<stop stop-color="#1E1E1E"/>
<stop offset="0.5" stop-color="#D5DB45"/>
<stop offset="1" stop-color="#1E1E1E"/>
</linearGradient>
<linearGradient id="paint6_linear_50_8" x1="-72.3632" y1="-15.319" x2="1048.62" y2="427.154" gradientUnits="userSpaceOnUse">
<stop stop-color="#1E1E1E"/>
<stop offset="0.5" stop-color="#D5DB45"/>
<stop offset="1" stop-color="#1E1E1E"/>
</linearGradient>
<linearGradient id="paint7_linear_50_8" x1="-72.3632" y1="-15.319" x2="1048.62" y2="427.154" gradientUnits="userSpaceOnUse">
<stop stop-color="#1E1E1E"/>
<stop offset="0.5" stop-color="#D5DB45"/>
<stop offset="1" stop-color="#1E1E1E"/>
</linearGradient>
<linearGradient id="paint8_linear_50_8" x1="-72.3632" y1="-15.319" x2="1048.62" y2="427.154" gradientUnits="userSpaceOnUse">
<stop stop-color="#1E1E1E"/>
<stop offset="0.5" stop-color="#D5DB45"/>
<stop offset="1" stop-color="#1E1E1E"/>
</linearGradient>
<linearGradient id="paint9_linear_50_8" x1="-72.3632" y1="-15.319" x2="1048.62" y2="427.154" gradientUnits="userSpaceOnUse">
<stop stop-color="#1E1E1E"/>
<stop offset="0.5" stop-color="#D5DB45"/>
<stop offset="1" stop-color="#1E1E1E"/>
</linearGradient>
<linearGradient id="paint10_linear_50_8" x1="-72.3632" y1="-15.319" x2="1048.62" y2="427.154" gradientUnits="userSpaceOnUse">
<stop stop-color="#1E1E1E"/>
<stop offset="0.5" stop-color="#D5DB45"/>
<stop offset="1" stop-color="#1E1E1E"/>
</linearGradient>
</defs>
</svg>
