<svg width="1023" height="1023" viewBox="0 0 1023 1023" fill="none" xmlns="http://www.w3.org/2000/svg">
<path d="M294.5 0C303.061 0 310 6.93966 310 15.5C310 24.0608 303.061 31 294.5 31C285.94 31 279 24.0608 279 15.5C279 6.93966 285.94 0 294.5 0Z" fill="#1E1E1E"/>
<path d="M325.5 0C334.061 0 341 6.93966 341 15.5C341 24.0608 334.061 31 325.5 31C316.94 31 310 24.0608 310 15.5C310 6.93966 316.94 0 325.5 0Z" fill="#1E1E1E"/>
<path d="M418.5 0C427.061 0 434 6.93966 434 15.5C434 24.0608 427.061 31 418.5 31C409.94 31 403 24.0608 403 15.5C403 6.93966 409.94 0 418.5 0Z" fill="#1E1E1E"/>
<path d="M480.5 0C489.061 0 496 6.93966 496 15.5C496 24.0608 489.061 31 480.5 31C471.94 31 465 24.0608 465 15.5C465 6.93966 471.94 0 480.5 0Z" fill="#1E1E1E"/>
<path d="M542.5 0C551.061 0 558 6.93966 558 15.5C558 24.0608 551.061 31 542.5 31C533.94 31 527 24.0608 527 15.5C527 6.93966 533.94 0 542.5 0Z" fill="#1E1E1E"/>
<path d="M604.5 0C613.061 0 620 6.93966 620 15.5C620 24.0608 613.061 31 604.5 31C595.94 31 589 24.0608 589 15.5C589 6.93966 595.94 0 604.5 0Z" fill="#1E1E1E"/>
<path d="M635.5 0C644.061 0 651 6.93966 651 15.5C651 24.0608 644.061 31 635.5 31C626.94 31 620 24.0608 620 15.5C620 6.93966 626.94 0 635.5 0Z" fill="#1E1E1E"/>
<path d="M728.5 0C737.061 0 744 6.93966 744 15.5C744 24.0608 737.061 31 728.5 31C719.94 31 713 24.0608 713 15.5C713 6.93966 719.94 0 728.5 0Z" fill="#1E1E1E"/>
<path d="M759.5 0C768.061 0 775 6.93966 775 15.5C775 24.0608 768.061 31 759.5 31C750.94 31 744 24.0608 744 15.5C744 6.93966 750.94 0 759.5 0Z" fill="#1E1E1E"/>
<path d="M263.5 31C272.061 31 279 37.9397 279 46.5C279 55.0608 272.061 62 263.5 62C254.94 62 248 55.0608 248 46.5C248 37.9397 254.94 31 263.5 31Z" fill="#1E1E1E"/>
<path d="M325.5 31C334.061 31 341 37.9397 341 46.5C341 55.0608 334.061 62 325.5 62C316.94 62 310 55.0608 310 46.5C310 37.9397 316.94 31 325.5 31Z" fill="#1E1E1E"/>
<path d="M356.5 31C365.061 31 372 37.9397 372 46.5C372 55.0608 365.061 62 356.5 62C347.94 62 341 55.0608 341 46.5C341 37.9397 347.94 31 356.5 31Z" fill="#1E1E1E"/>
<path d="M418.5 31C427.061 31 434 37.9397 434 46.5C434 55.0608 427.061 62 418.5 62C409.94 62 403 55.0608 403 46.5C403 37.9397 409.94 31 418.5 31Z" fill="#1E1E1E"/>
<path d="M449.5 31C458.061 31 465 37.9397 465 46.5C465 55.0608 458.061 62 449.5 62C440.94 62 434 55.0608 434 46.5C434 37.9397 440.94 31 449.5 31Z" fill="#1E1E1E"/>
<path d="M480.5 31C489.061 31 496 37.9397 496 46.5C496 55.0608 489.061 62 480.5 62C471.94 62 465 55.0608 465 46.5C465 37.9397 471.94 31 480.5 31Z" fill="#1E1E1E"/>
<path d="M511.5 31C520.061 31 527 37.9397 527 46.5C527 55.0608 520.061 62 511.5 62C502.94 62 496 55.0608 496 46.5C496 37.9397 502.94 31 511.5 31Z" fill="#1E1E1E"/>
<path d="M635.5 31C644.061 31 651 37.9397 651 46.5C651 55.0608 644.061 62 635.5 62C626.94 62 620 55.0608 620 46.5C620 37.9397 626.94 31 635.5 31Z" fill="#1E1E1E"/>
<path d="M666.5 31C675.061 31 682 37.9397 682 46.5C682 55.0608 675.061 62 666.5 62C657.94 62 651 55.0608 651 46.5C651 37.9397 657.94 31 666.5 31Z" fill="#1E1E1E"/>
<path d="M759.5 31C768.061 31 775 37.9397 775 46.5C775 55.0608 768.061 62 759.5 62C750.94 62 744 55.0608 744 46.5C744 37.9397 750.94 31 759.5 31Z" fill="#1E1E1E"/>
<path d="M294.5 62C303.061 62 310 68.9397 310 77.5C310 86.0608 303.061 93 294.5 93C285.94 93 279 86.0608 279 77.5C279 68.9397 285.94 62 294.5 62Z" fill="#1E1E1E"/>
<path d="M325.5 62C334.061 62 341 68.9397 341 77.5C341 86.0608 334.061 93 325.5 93C316.94 93 310 86.0608 310 77.5C310 68.9397 316.94 62 325.5 62Z" fill="#1E1E1E"/>
<path d="M480.5 62C489.061 62 496 68.9397 496 77.5C496 86.0608 489.061 93 480.5 93C471.94 93 465 86.0608 465 77.5C465 68.9397 471.94 62 480.5 62Z" fill="#1E1E1E"/>
<path d="M542.5 62C551.061 62 558 68.9397 558 77.5C558 86.0608 551.061 93 542.5 93C533.94 93 527 86.0608 527 77.5C527 68.9397 533.94 62 542.5 62Z" fill="#1E1E1E"/>
<path d="M573.5 62C582.061 62 589 68.9397 589 77.5C589 86.0608 582.061 93 573.5 93C564.94 93 558 86.0608 558 77.5C558 68.9397 564.94 62 573.5 62Z" fill="#1E1E1E"/>
<path d="M666.5 62C675.061 62 682 68.9397 682 77.5C682 86.0608 675.061 93 666.5 93C657.94 93 651 86.0608 651 77.5C651 68.9397 657.94 62 666.5 62Z" fill="#1E1E1E"/>
<path d="M325.5 93C334.061 93 341 99.9397 341 108.5C341 117.061 334.061 124 325.5 124C316.94 124 310 117.061 310 108.5C310 99.9397 316.94 93 325.5 93Z" fill="#1E1E1E"/>
<path d="M356.5 93C365.061 93 372 99.9397 372 108.5C372 117.061 365.061 124 356.5 124C347.94 124 341 117.061 341 108.5C341 99.9397 347.94 93 356.5 93Z" fill="#1E1E1E"/>
<path d="M449.5 93C458.061 93 465 99.9397 465 108.5C465 117.061 458.061 124 449.5 124C440.94 124 434 117.061 434 108.5C434 99.9397 440.94 93 449.5 93Z" fill="#1E1E1E"/>
<path d="M511.5 93C520.061 93 527 99.9397 527 108.5C527 117.061 520.061 124 511.5 124C502.94 124 496 117.061 496 108.5C496 99.9397 502.94 93 511.5 93Z" fill="#1E1E1E"/>
<path d="M573.5 93C582.061 93 589 99.9397 589 108.5C589 117.061 582.061 124 573.5 124C564.94 124 558 117.061 558 108.5C558 99.9397 564.94 93 573.5 93Z" fill="#1E1E1E"/>
<path d="M635.5 93C644.061 93 651 99.9397 651 108.5C651 117.061 644.061 124 635.5 124C626.94 124 620 117.061 620 108.5C620 99.9397 626.94 93 635.5 93Z" fill="#1E1E1E"/>
<path d="M294.5 124C303.061 124 310 130.94 310 139.5C310 148.061 303.061 155 294.5 155C285.94 155 279 148.061 279 139.5C279 130.94 285.94 124 294.5 124Z" fill="#1E1E1E"/>
<path d="M356.5 124C365.061 124 372 130.94 372 139.5C372 148.061 365.061 155 356.5 155C347.94 155 341 148.061 341 139.5C341 130.94 347.94 124 356.5 124Z" fill="#1E1E1E"/>
<path d="M387.5 124C396.061 124 403 130.94 403 139.5C403 148.061 396.061 155 387.5 155C378.94 155 372 148.061 372 139.5C372 130.94 378.94 124 387.5 124Z" fill="#1E1E1E"/>
<path d="M604.5 124C613.061 124 620 130.94 620 139.5C620 148.061 613.061 155 604.5 155C595.94 155 589 148.061 589 139.5C589 130.94 595.94 124 604.5 124Z" fill="#1E1E1E"/>
<path d="M635.5 124C644.061 124 651 130.94 651 139.5C651 148.061 644.061 155 635.5 155C626.94 155 620 148.061 620 139.5C620 130.94 626.94 124 635.5 124Z" fill="#1E1E1E"/>
<path d="M666.5 124C675.061 124 682 130.94 682 139.5C682 148.061 675.061 155 666.5 155C657.94 155 651 148.061 651 139.5C651 130.94 657.94 124 666.5 124Z" fill="#1E1E1E"/>
<path d="M697.5 124C706.061 124 713 130.94 713 139.5C713 148.061 706.061 155 697.5 155C688.94 155 682 148.061 682 139.5C682 130.94 688.94 124 697.5 124Z" fill="#1E1E1E"/>
<path d="M263.5 155C272.061 155 279 161.94 279 170.5C279 179.061 272.061 186 263.5 186C254.94 186 248 179.061 248 170.5C248 161.94 254.94 155 263.5 155Z" fill="#1E1E1E"/>
<path d="M325.5 155C334.061 155 341 161.94 341 170.5C341 179.061 334.061 186 325.5 186C316.94 186 310 179.061 310 170.5C310 161.94 316.94 155 325.5 155Z" fill="#1E1E1E"/>
<path d="M573.5 155C582.061 155 589 161.94 589 170.5C589 179.061 582.061 186 573.5 186C564.94 186 558 179.061 558 170.5C558 161.94 564.94 155 573.5 155Z" fill="#1E1E1E"/>
<path d="M604.5 155C613.061 155 620 161.94 620 170.5C620 179.061 613.061 186 604.5 186C595.94 186 589 179.061 589 170.5C589 161.94 595.94 155 604.5 155Z" fill="#1E1E1E"/>
<path d="M666.5 155C675.061 155 682 161.94 682 170.5C682 179.061 675.061 186 666.5 186C657.94 186 651 179.061 651 170.5C651 161.94 657.94 155 666.5 155Z" fill="#1E1E1E"/>
<path d="M697.5 155C706.061 155 713 161.94 713 170.5C713 179.061 706.061 186 697.5 186C688.94 186 682 179.061 682 170.5C682 161.94 688.94 155 697.5 155Z" fill="#1E1E1E"/>
<path d="M728.5 155C737.061 155 744 161.94 744 170.5C744 179.061 737.061 186 728.5 186C719.94 186 713 179.061 713 170.5C713 161.94 719.94 155 728.5 155Z" fill="#1E1E1E"/>
<path d="M759.5 155C768.061 155 775 161.94 775 170.5C775 179.061 768.061 186 759.5 186C750.94 186 744 179.061 744 170.5C744 161.94 750.94 155 759.5 155Z" fill="#1E1E1E"/>
<path d="M263.5 186C272.061 186 279 192.94 279 201.5C279 210.061 272.061 217 263.5 217C254.94 217 248 210.061 248 201.5C248 192.94 254.94 186 263.5 186Z" fill="#1E1E1E"/>
<path d="M325.5 186C334.061 186 341 192.94 341 201.5C341 210.061 334.061 217 325.5 217C316.94 217 310 210.061 310 201.5C310 192.94 316.94 186 325.5 186Z" fill="#1E1E1E"/>
<path d="M387.5 186C396.061 186 403 192.94 403 201.5C403 210.061 396.061 217 387.5 217C378.94 217 372 210.061 372 201.5C372 192.94 378.94 186 387.5 186Z" fill="#1E1E1E"/>
<path d="M449.5 186C458.061 186 465 192.94 465 201.5C465 210.061 458.061 217 449.5 217C440.94 217 434 210.061 434 201.5C434 192.94 440.94 186 449.5 186Z" fill="#1E1E1E"/>
<path d="M511.5 186C520.061 186 527 192.94 527 201.5C527 210.061 520.061 217 511.5 217C502.94 217 496 210.061 496 201.5C496 192.94 502.94 186 511.5 186Z" fill="#1E1E1E"/>
<path d="M573.5 186C582.061 186 589 192.94 589 201.5C589 210.061 582.061 217 573.5 217C564.94 217 558 210.061 558 201.5C558 192.94 564.94 186 573.5 186Z" fill="#1E1E1E"/>
<path d="M635.5 186C644.061 186 651 192.94 651 201.5C651 210.061 644.061 217 635.5 217C626.94 217 620 210.061 620 201.5C620 192.94 626.94 186 635.5 186Z" fill="#1E1E1E"/>
<path d="M697.5 186C706.061 186 713 192.94 713 201.5C713 210.061 706.061 217 697.5 217C688.94 217 682 210.061 682 201.5C682 192.94 688.94 186 697.5 186Z" fill="#1E1E1E"/>
<path d="M759.5 186C768.061 186 775 192.94 775 201.5C775 210.061 768.061 217 759.5 217C750.94 217 744 210.061 744 201.5C744 192.94 750.94 186 759.5 186Z" fill="#1E1E1E"/>
<path d="M263.5 217C272.061 217 279 223.94 279 232.5C279 241.061 272.061 248 263.5 248C254.94 248 248 241.061 248 232.5C248 223.94 254.94 217 263.5 217Z" fill="#1E1E1E"/>
<path d="M294.5 217C303.061 217 310 223.94 310 232.5C310 241.061 303.061 248 294.5 248C285.94 248 279 241.061 279 232.5C279 223.94 285.94 217 294.5 217Z" fill="#1E1E1E"/>
<path d="M387.5 217C396.061 217 403 223.94 403 232.5C403 241.061 396.061 248 387.5 248C378.94 248 372 241.061 372 232.5C372 223.94 378.94 217 387.5 217Z" fill="#1E1E1E"/>
<path d="M449.5 217C458.061 217 465 223.94 465 232.5C465 241.061 458.061 248 449.5 248C440.94 248 434 241.061 434 232.5C434 223.94 440.94 217 449.5 217Z" fill="#1E1E1E"/>
<path d="M480.5 217C489.061 217 496 223.94 496 232.5C496 241.061 489.061 248 480.5 248C471.94 248 465 241.061 465 232.5C465 223.94 471.94 217 480.5 217Z" fill="#1E1E1E"/>
<path d="M573.5 217C582.061 217 589 223.94 589 232.5C589 241.061 582.061 248 573.5 248C564.94 248 558 241.061 558 232.5C558 223.94 564.94 217 573.5 217Z" fill="#1E1E1E"/>
<path d="M604.5 217C613.061 217 620 223.94 620 232.5C620 241.061 613.061 248 604.5 248C595.94 248 589 241.061 589 232.5C589 223.94 595.94 217 604.5 217Z" fill="#1E1E1E"/>
<path d="M635.5 217C644.061 217 651 223.94 651 232.5C651 241.061 644.061 248 635.5 248C626.94 248 620 241.061 620 232.5C620 223.94 626.94 217 635.5 217Z" fill="#1E1E1E"/>
<path d="M666.5 217C675.061 217 682 223.94 682 232.5C682 241.061 675.061 248 666.5 248C657.94 248 651 241.061 651 232.5C651 223.94 657.94 217 666.5 217Z" fill="#1E1E1E"/>
<path d="M759.5 217C768.061 217 775 223.94 775 232.5C775 241.061 768.061 248 759.5 248C750.94 248 744 241.061 744 232.5C744 223.94 750.94 217 759.5 217Z" fill="#1E1E1E"/>
<path d="M139.5 248C148.061 248 155 254.94 155 263.5C155 272.061 148.061 279 139.5 279C130.94 279 124 272.061 124 263.5C124 254.94 130.94 248 139.5 248Z" fill="#1E1E1E"/>
<path d="M170.5 248C179.061 248 186 254.94 186 263.5C186 272.061 179.061 279 170.5 279C161.94 279 155 272.061 155 263.5C155 254.94 161.94 248 170.5 248Z" fill="#1E1E1E"/>
<path d="M201.5 248C210.061 248 217 254.94 217 263.5C217 272.061 210.061 279 201.5 279C192.94 279 186 272.061 186 263.5C186 254.94 192.94 248 201.5 248Z" fill="#1E1E1E"/>
<path d="M232.5 248C241.061 248 248 254.94 248 263.5C248 272.061 241.061 279 232.5 279C223.94 279 217 272.061 217 263.5C217 254.94 223.94 248 232.5 248Z" fill="#1E1E1E"/>
<path d="M356.5 248C365.061 248 372 254.94 372 263.5C372 272.061 365.061 279 356.5 279C347.94 279 341 272.061 341 263.5C341 254.94 347.94 248 356.5 248Z" fill="#1E1E1E"/>
<path d="M387.5 248C396.061 248 403 254.94 403 263.5C403 272.061 396.061 279 387.5 279C378.94 279 372 272.061 372 263.5C372 254.94 378.94 248 387.5 248Z" fill="#1E1E1E"/>
<path d="M418.5 248C427.061 248 434 254.94 434 263.5C434 272.061 427.061 279 418.5 279C409.94 279 403 272.061 403 263.5C403 254.94 409.94 248 418.5 248Z" fill="#1E1E1E"/>
<path d="M449.5 248C458.061 248 465 254.94 465 263.5C465 272.061 458.061 279 449.5 279C440.94 279 434 272.061 434 263.5C434 254.94 440.94 248 449.5 248Z" fill="#1E1E1E"/>
<path d="M604.5 248C613.061 248 620 254.94 620 263.5C620 272.061 613.061 279 604.5 279C595.94 279 589 272.061 589 263.5C589 254.94 595.94 248 604.5 248Z" fill="#1E1E1E"/>
<path d="M635.5 248C644.061 248 651 254.94 651 263.5C651 272.061 644.061 279 635.5 279C626.94 279 620 272.061 620 263.5C620 254.94 626.94 248 635.5 248Z" fill="#1E1E1E"/>
<path d="M666.5 248C675.061 248 682 254.94 682 263.5C682 272.061 675.061 279 666.5 279C657.94 279 651 272.061 651 263.5C651 254.94 657.94 248 666.5 248Z" fill="#1E1E1E"/>
<path d="M697.5 248C706.061 248 713 254.94 713 263.5C713 272.061 706.061 279 697.5 279C688.94 279 682 272.061 682 263.5C682 254.94 688.94 248 697.5 248Z" fill="#1E1E1E"/>
<path d="M728.5 248C737.061 248 744 254.94 744 263.5C744 272.061 737.061 279 728.5 279C719.94 279 713 272.061 713 263.5C713 254.94 719.94 248 728.5 248Z" fill="#1E1E1E"/>
<path d="M759.5 248C768.061 248 775 254.94 775 263.5C775 272.061 768.061 279 759.5 279C750.94 279 744 272.061 744 263.5C744 254.94 750.94 248 759.5 248Z" fill="#1E1E1E"/>
<path d="M821.5 248C830.061 248 837 254.94 837 263.5C837 272.061 830.061 279 821.5 279C812.94 279 806 272.061 806 263.5C806 254.94 812.94 248 821.5 248Z" fill="#1E1E1E"/>
<path d="M852.5 248C861.061 248 868 254.94 868 263.5C868 272.061 861.061 279 852.5 279C843.94 279 837 272.061 837 263.5C837 254.94 843.94 248 852.5 248Z" fill="#1E1E1E"/>
<path d="M976.5 248C985.061 248 992 254.94 992 263.5C992 272.061 985.061 279 976.5 279C967.94 279 961 272.061 961 263.5C961 254.94 967.94 248 976.5 248Z" fill="#1E1E1E"/>
<path d="M15.5 279C24.0608 279 31 285.94 31 294.5C31 303.061 24.0608 310 15.5 310C6.93966 310 0 303.061 0 294.5C0 285.94 6.93966 279 15.5 279Z" fill="#1E1E1E"/>
<path d="M108.5 279C117.061 279 124 285.94 124 294.5C124 303.061 117.061 310 108.5 310C99.9397 310 93 303.061 93 294.5C93 285.94 99.9397 279 108.5 279Z" fill="#1E1E1E"/>
<path d="M139.5 279C148.061 279 155 285.94 155 294.5C155 303.061 148.061 310 139.5 310C130.94 310 124 303.061 124 294.5C124 285.94 130.94 279 139.5 279Z" fill="#1E1E1E"/>
<path d="M170.5 279C179.061 279 186 285.94 186 294.5C186 303.061 179.061 310 170.5 310C161.94 310 155 303.061 155 294.5C155 285.94 161.94 279 170.5 279Z" fill="#1E1E1E"/>
<path d="M232.5 279C241.061 279 248 285.94 248 294.5C248 303.061 241.061 310 232.5 310C223.94 310 217 303.061 217 294.5C217 285.94 223.94 279 232.5 279Z" fill="#1E1E1E"/>
<path d="M263.5 279C272.061 279 279 285.94 279 294.5C279 303.061 272.061 310 263.5 310C254.94 310 248 303.061 248 294.5C248 285.94 254.94 279 263.5 279Z" fill="#1E1E1E"/>
<path d="M356.5 279C365.061 279 372 285.94 372 294.5C372 303.061 365.061 310 356.5 310C347.94 310 341 303.061 341 294.5C341 285.94 347.94 279 356.5 279Z" fill="#1E1E1E"/>
<path d="M387.5 279C396.061 279 403 285.94 403 294.5C403 303.061 396.061 310 387.5 310C378.94 310 372 303.061 372 294.5C372 285.94 378.94 279 387.5 279Z" fill="#1E1E1E"/>
<path d="M418.5 279C427.061 279 434 285.94 434 294.5C434 303.061 427.061 310 418.5 310C409.94 310 403 303.061 403 294.5C403 285.94 409.94 279 418.5 279Z" fill="#1E1E1E"/>
<path d="M542.5 279C551.061 279 558 285.94 558 294.5C558 303.061 551.061 310 542.5 310C533.94 310 527 303.061 527 294.5C527 285.94 533.94 279 542.5 279Z" fill="#1E1E1E"/>
<path d="M573.5 279C582.061 279 589 285.94 589 294.5C589 303.061 582.061 310 573.5 310C564.94 310 558 303.061 558 294.5C558 285.94 564.94 279 573.5 279Z" fill="#1E1E1E"/>
<path d="M604.5 279C613.061 279 620 285.94 620 294.5C620 303.061 613.061 310 604.5 310C595.94 310 589 303.061 589 294.5C589 285.94 595.94 279 604.5 279Z" fill="#1E1E1E"/>
<path d="M728.5 279C737.061 279 744 285.94 744 294.5C744 303.061 737.061 310 728.5 310C719.94 310 713 303.061 713 294.5C713 285.94 719.94 279 728.5 279Z" fill="#1E1E1E"/>
<path d="M852.5 279C861.061 279 868 285.94 868 294.5C868 303.061 861.061 310 852.5 310C843.94 310 837 303.061 837 294.5C837 285.94 843.94 279 852.5 279Z" fill="#1E1E1E"/>
<path d="M914.5 279C923.061 279 930 285.94 930 294.5C930 303.061 923.061 310 914.5 310C905.94 310 899 303.061 899 294.5C899 285.94 905.94 279 914.5 279Z" fill="#1E1E1E"/>
<path d="M976.5 279C985.061 279 992 285.94 992 294.5C992 303.061 985.061 310 976.5 310C967.94 310 961 303.061 961 294.5C961 285.94 967.94 279 976.5 279Z" fill="#1E1E1E"/>
<path d="M15.5 310C24.0608 310 31 316.94 31 325.5C31 334.061 24.0608 341 15.5 341C6.93966 341 0 334.061 0 325.5C0 316.94 6.93966 310 15.5 310Z" fill="#1E1E1E"/>
<path d="M46.5 310C55.0608 310 62 316.94 62 325.5C62 334.061 55.0608 341 46.5 341C37.9397 341 31 334.061 31 325.5C31 316.94 37.9397 310 46.5 310Z" fill="#1E1E1E"/>
<path d="M77.5 310C86.0608 310 93 316.94 93 325.5C93 334.061 86.0608 341 77.5 341C68.9397 341 62 334.061 62 325.5C62 316.94 68.9397 310 77.5 310Z" fill="#1E1E1E"/>
<path d="M108.5 310C117.061 310 124 316.94 124 325.5C124 334.061 117.061 341 108.5 341C99.9397 341 93 334.061 93 325.5C93 316.94 99.9397 310 108.5 310Z" fill="#1E1E1E"/>
<path d="M139.5 310C148.061 310 155 316.94 155 325.5C155 334.061 148.061 341 139.5 341C130.94 341 124 334.061 124 325.5C124 316.94 130.94 310 139.5 310Z" fill="#1E1E1E"/>
<path d="M201.5 310C210.061 310 217 316.94 217 325.5C217 334.061 210.061 341 201.5 341C192.94 341 186 334.061 186 325.5C186 316.94 192.94 310 201.5 310Z" fill="#1E1E1E"/>
<path d="M294.5 310C303.061 310 310 316.94 310 325.5C310 334.061 303.061 341 294.5 341C285.94 341 279 334.061 279 325.5C279 316.94 285.94 310 294.5 310Z" fill="#1E1E1E"/>
<path d="M387.5 310C396.061 310 403 316.94 403 325.5C403 334.061 396.061 341 387.5 341C378.94 341 372 334.061 372 325.5C372 316.94 378.94 310 387.5 310Z" fill="#1E1E1E"/>
<path d="M418.5 310C427.061 310 434 316.94 434 325.5C434 334.061 427.061 341 418.5 341C409.94 341 403 334.061 403 325.5C403 316.94 409.94 310 418.5 310Z" fill="#1E1E1E"/>
<path d="M511.5 310C520.061 310 527 316.94 527 325.5C527 334.061 520.061 341 511.5 341C502.94 341 496 334.061 496 325.5C496 316.94 502.94 310 511.5 310Z" fill="#1E1E1E"/>
<path d="M604.5 310C613.061 310 620 316.94 620 325.5C620 334.061 613.061 341 604.5 341C595.94 341 589 334.061 589 325.5C589 316.94 595.94 310 604.5 310Z" fill="#1E1E1E"/>
<path d="M635.5 310C644.061 310 651 316.94 651 325.5C651 334.061 644.061 341 635.5 341C626.94 341 620 334.061 620 325.5C620 316.94 626.94 310 635.5 310Z" fill="#1E1E1E"/>
<path d="M666.5 310C675.061 310 682 316.94 682 325.5C682 334.061 675.061 341 666.5 341C657.94 341 651 334.061 651 325.5C651 316.94 657.94 310 666.5 310Z" fill="#1E1E1E"/>
<path d="M697.5 310C706.061 310 713 316.94 713 325.5C713 334.061 706.061 341 697.5 341C688.94 341 682 334.061 682 325.5C682 316.94 688.94 310 697.5 310Z" fill="#1E1E1E"/>
<path d="M728.5 310C737.061 310 744 316.94 744 325.5C744 334.061 737.061 341 728.5 341C719.94 341 713 334.061 713 325.5C713 316.94 719.94 310 728.5 310Z" fill="#1E1E1E"/>
<path d="M790.5 310C799.061 310 806 316.94 806 325.5C806 334.061 799.061 341 790.5 341C781.94 341 775 334.061 775 325.5C775 316.94 781.94 310 790.5 310Z" fill="#1E1E1E"/>
<path d="M821.5 310C830.061 310 837 316.94 837 325.5C837 334.061 830.061 341 821.5 341C812.94 341 806 334.061 806 325.5C806 316.94 812.94 310 821.5 310Z" fill="#1E1E1E"/>
<path d="M852.5 310C861.061 310 868 316.94 868 325.5C868 334.061 861.061 341 852.5 341C843.94 341 837 334.061 837 325.5C837 316.94 843.94 310 852.5 310Z" fill="#1E1E1E"/>
<path d="M883.5 310C892.061 310 899 316.94 899 325.5C899 334.061 892.061 341 883.5 341C874.94 341 868 334.061 868 325.5C868 316.94 874.94 310 883.5 310Z" fill="#1E1E1E"/>
<path d="M914.5 310C923.061 310 930 316.94 930 325.5C930 334.061 923.061 341 914.5 341C905.94 341 899 334.061 899 325.5C899 316.94 905.94 310 914.5 310Z" fill="#1E1E1E"/>
<path d="M945.5 310C954.061 310 961 316.94 961 325.5C961 334.061 954.061 341 945.5 341C936.94 341 930 334.061 930 325.5C930 316.94 936.94 310 945.5 310Z" fill="#1E1E1E"/>
<path d="M976.5 310C985.061 310 992 316.94 992 325.5C992 334.061 985.061 341 976.5 341C967.94 341 961 334.061 961 325.5C961 316.94 967.94 310 976.5 310Z" fill="#1E1E1E"/>
<path d="M15.5 341C24.0608 341 31 347.94 31 356.5C31 365.061 24.0608 372 15.5 372C6.93966 372 0 365.061 0 356.5C0 347.94 6.93966 341 15.5 341Z" fill="#1E1E1E"/>
<path d="M46.5 341C55.0608 341 62 347.94 62 356.5C62 365.061 55.0608 372 46.5 372C37.9397 372 31 365.061 31 356.5C31 347.94 37.9397 341 46.5 341Z" fill="#1E1E1E"/>
<path d="M77.5 341C86.0608 341 93 347.94 93 356.5C93 365.061 86.0608 372 77.5 372C68.9397 372 62 365.061 62 356.5C62 347.94 68.9397 341 77.5 341Z" fill="#1E1E1E"/>
<path d="M294.5 341C303.061 341 310 347.94 310 356.5C310 365.061 303.061 372 294.5 372C285.94 372 279 365.061 279 356.5C279 347.94 285.94 341 294.5 341Z" fill="#1E1E1E"/>
<path d="M759.5 341C768.061 341 775 347.94 775 356.5C775 365.061 768.061 372 759.5 372C750.94 372 744 365.061 744 356.5C744 347.94 750.94 341 759.5 341Z" fill="#1E1E1E"/>
<path d="M821.5 341C830.061 341 837 347.94 837 356.5C837 365.061 830.061 372 821.5 372C812.94 372 806 365.061 806 356.5C806 347.94 812.94 341 821.5 341Z" fill="#1E1E1E"/>
<path d="M883.5 341C892.061 341 899 347.94 899 356.5C899 365.061 892.061 372 883.5 372C874.94 372 868 365.061 868 356.5C868 347.94 874.94 341 883.5 341Z" fill="#1E1E1E"/>
<path d="M976.5 341C985.061 341 992 347.94 992 356.5C992 365.061 985.061 372 976.5 372C967.94 372 961 365.061 961 356.5C961 347.94 967.94 341 976.5 341Z" fill="#1E1E1E"/>
<path d="M1007.5 341C1016.06 341 1023 347.94 1023 356.5C1023 365.061 1016.06 372 1007.5 372C998.94 372 992 365.061 992 356.5C992 347.94 998.94 341 1007.5 341Z" fill="#1E1E1E"/>
<path d="M46.5 372C55.0608 372 62 378.94 62 387.5C62 396.061 55.0608 403 46.5 403C37.9397 403 31 396.061 31 387.5C31 378.94 37.9397 372 46.5 372Z" fill="#1E1E1E"/>
<path d="M108.5 372C117.061 372 124 378.94 124 387.5C124 396.061 117.061 403 108.5 403C99.9397 403 93 396.061 93 387.5C93 378.94 99.9397 372 108.5 372Z" fill="#1E1E1E"/>
<path d="M201.5 372C210.061 372 217 378.94 217 387.5C217 396.061 210.061 403 201.5 403C192.94 403 186 396.061 186 387.5C186 378.94 192.94 372 201.5 372Z" fill="#1E1E1E"/>
<path d="M263.5 372C272.061 372 279 378.94 279 387.5C279 396.061 272.061 403 263.5 403C254.94 403 248 396.061 248 387.5C248 378.94 254.94 372 263.5 372Z" fill="#1E1E1E"/>
<path d="M325.5 372C334.061 372 341 378.94 341 387.5C341 396.061 334.061 403 325.5 403C316.94 403 310 396.061 310 387.5C310 378.94 316.94 372 325.5 372Z" fill="#1E1E1E"/>
<path d="M821.5 372C830.061 372 837 378.94 837 387.5C837 396.061 830.061 403 821.5 403C812.94 403 806 396.061 806 387.5C806 378.94 812.94 372 821.5 372Z" fill="#1E1E1E"/>
<path d="M852.5 372C861.061 372 868 378.94 868 387.5C868 396.061 861.061 403 852.5 403C843.94 403 837 396.061 837 387.5C837 378.94 843.94 372 852.5 372Z" fill="#1E1E1E"/>
<path d="M46.5 403C55.0608 403 62 409.94 62 418.5C62 427.061 55.0608 434 46.5 434C37.9397 434 31 427.061 31 418.5C31 409.94 37.9397 403 46.5 403Z" fill="#1E1E1E"/>
<path d="M77.5 403C86.0608 403 93 409.94 93 418.5C93 427.061 86.0608 434 77.5 434C68.9397 434 62 427.061 62 418.5C62 409.94 68.9397 403 77.5 403Z" fill="#1E1E1E"/>
<path d="M108.5 403C117.061 403 124 409.94 124 418.5C124 427.061 117.061 434 108.5 434C99.9397 434 93 427.061 93 418.5C93 409.94 99.9397 403 108.5 403Z" fill="#1E1E1E"/>
<path d="M170.5 403C179.061 403 186 409.94 186 418.5C186 427.061 179.061 434 170.5 434C161.94 434 155 427.061 155 418.5C155 409.94 161.94 403 170.5 403Z" fill="#1E1E1E"/>
<path d="M232.5 403C241.061 403 248 409.94 248 418.5C248 427.061 241.061 434 232.5 434C223.94 434 217 427.061 217 418.5C217 409.94 223.94 403 232.5 403Z" fill="#1E1E1E"/>
<path d="M263.5 403C272.061 403 279 409.94 279 418.5C279 427.061 272.061 434 263.5 434C254.94 434 248 427.061 248 418.5C248 409.94 254.94 403 263.5 403Z" fill="#1E1E1E"/>
<path d="M294.5 403C303.061 403 310 409.94 310 418.5C310 427.061 303.061 434 294.5 434C285.94 434 279 427.061 279 418.5C279 409.94 285.94 403 294.5 403Z" fill="#1E1E1E"/>
<path d="M325.5 403C334.061 403 341 409.94 341 418.5C341 427.061 334.061 434 325.5 434C316.94 434 310 427.061 310 418.5C310 409.94 316.94 403 325.5 403Z" fill="#1E1E1E"/>
<path d="M697.5 403C706.061 403 713 409.94 713 418.5C713 427.061 706.061 434 697.5 434C688.94 434 682 427.061 682 418.5C682 409.94 688.94 403 697.5 403Z" fill="#1E1E1E"/>
<path d="M728.5 403C737.061 403 744 409.94 744 418.5C744 427.061 737.061 434 728.5 434C719.94 434 713 427.061 713 418.5C713 409.94 719.94 403 728.5 403Z" fill="#1E1E1E"/>
<path d="M945.5 403C954.061 403 961 409.94 961 418.5C961 427.061 954.061 434 945.5 434C936.94 434 930 427.061 930 418.5C930 409.94 936.94 403 945.5 403Z" fill="#1E1E1E"/>
<path d="M976.5 403C985.061 403 992 409.94 992 418.5C992 427.061 985.061 434 976.5 434C967.94 434 961 427.061 961 418.5C961 409.94 967.94 403 976.5 403Z" fill="#1E1E1E"/>
<path d="M15.5 434C24.0608 434 31 440.94 31 449.5C31 458.061 24.0608 465 15.5 465C6.93966 465 0 458.061 0 449.5C0 440.94 6.93966 434 15.5 434Z" fill="#1E1E1E"/>
<path d="M108.5 434C117.061 434 124 440.94 124 449.5C124 458.061 117.061 465 108.5 465C99.9397 465 93 458.061 93 449.5C93 440.94 99.9397 434 108.5 434Z" fill="#1E1E1E"/>
<path d="M201.5 434C210.061 434 217 440.94 217 449.5C217 458.061 210.061 465 201.5 465C192.94 465 186 458.061 186 449.5C186 440.94 192.94 434 201.5 434Z" fill="#1E1E1E"/>
<path d="M325.5 434C334.061 434 341 440.94 341 449.5C341 458.061 334.061 465 325.5 465C316.94 465 310 458.061 310 449.5C310 440.94 316.94 434 325.5 434Z" fill="#1E1E1E"/>
<path d="M728.5 434C737.061 434 744 440.94 744 449.5C744 458.061 737.061 465 728.5 465C719.94 465 713 458.061 713 449.5C713 440.94 719.94 434 728.5 434Z" fill="#1E1E1E"/>
<path d="M759.5 434C768.061 434 775 440.94 775 449.5C775 458.061 768.061 465 759.5 465C750.94 465 744 458.061 744 449.5C744 440.94 750.94 434 759.5 434Z" fill="#1E1E1E"/>
<path d="M790.5 434C799.061 434 806 440.94 806 449.5C806 458.061 799.061 465 790.5 465C781.94 465 775 458.061 775 449.5C775 440.94 781.94 434 790.5 434Z" fill="#1E1E1E"/>
<path d="M821.5 434C830.061 434 837 440.94 837 449.5C837 458.061 830.061 465 821.5 465C812.94 465 806 458.061 806 449.5C806 440.94 812.94 434 821.5 434Z" fill="#1E1E1E"/>
<path d="M883.5 434C892.061 434 899 440.94 899 449.5C899 458.061 892.061 465 883.5 465C874.94 465 868 458.061 868 449.5C868 440.94 874.94 434 883.5 434Z" fill="#1E1E1E"/>
<path d="M945.5 434C954.061 434 961 440.94 961 449.5C961 458.061 954.061 465 945.5 465C936.94 465 930 458.061 930 449.5C930 440.94 936.94 434 945.5 434Z" fill="#1E1E1E"/>
<path d="M976.5 434C985.061 434 992 440.94 992 449.5C992 458.061 985.061 465 976.5 465C967.94 465 961 458.061 961 449.5C961 440.94 967.94 434 976.5 434Z" fill="#1E1E1E"/>
<path d="M108.5 465C117.061 465 124 471.94 124 480.5C124 489.061 117.061 496 108.5 496C99.9397 496 93 489.061 93 480.5C93 471.94 99.9397 465 108.5 465Z" fill="#1E1E1E"/>
<path d="M139.5 465C148.061 465 155 471.94 155 480.5C155 489.061 148.061 496 139.5 496C130.94 496 124 489.061 124 480.5C124 471.94 130.94 465 139.5 465Z" fill="#1E1E1E"/>
<path d="M170.5 465C179.061 465 186 471.94 186 480.5C186 489.061 179.061 496 170.5 496C161.94 496 155 489.061 155 480.5C155 471.94 161.94 465 170.5 465Z" fill="#1E1E1E"/>
<path d="M728.5 465C737.061 465 744 471.94 744 480.5C744 489.061 737.061 496 728.5 496C719.94 496 713 489.061 713 480.5C713 471.94 719.94 465 728.5 465Z" fill="#1E1E1E"/>
<path d="M790.5 465C799.061 465 806 471.94 806 480.5C806 489.061 799.061 496 790.5 496C781.94 496 775 489.061 775 480.5C775 471.94 781.94 465 790.5 465Z" fill="#1E1E1E"/>
<path d="M852.5 465C861.061 465 868 471.94 868 480.5C868 489.061 861.061 496 852.5 496C843.94 496 837 489.061 837 480.5C837 471.94 843.94 465 852.5 465Z" fill="#1E1E1E"/>
<path d="M883.5 465C892.061 465 899 471.94 899 480.5C899 489.061 892.061 496 883.5 496C874.94 496 868 489.061 868 480.5C868 471.94 874.94 465 883.5 465Z" fill="#1E1E1E"/>
<path d="M914.5 465C923.061 465 930 471.94 930 480.5C930 489.061 923.061 496 914.5 496C905.94 496 899 489.061 899 480.5C899 471.94 905.94 465 914.5 465Z" fill="#1E1E1E"/>
<path d="M976.5 465C985.061 465 992 471.94 992 480.5C992 489.061 985.061 496 976.5 496C967.94 496 961 489.061 961 480.5C961 471.94 967.94 465 976.5 465Z" fill="#1E1E1E"/>
<path d="M1007.5 465C1016.06 465 1023 471.94 1023 480.5C1023 489.061 1016.06 496 1007.5 496C998.94 496 992 489.061 992 480.5C992 471.94 998.94 465 1007.5 465Z" fill="#1E1E1E"/>
<path d="M46.5 496C55.0608 496 62 502.94 62 511.5C62 520.061 55.0608 527 46.5 527C37.9397 527 31 520.061 31 511.5C31 502.94 37.9397 496 46.5 496Z" fill="#1E1E1E"/>
<path d="M77.5 496C86.0608 496 93 502.94 93 511.5C93 520.061 86.0608 527 77.5 527C68.9397 527 62 520.061 62 511.5C62 502.94 68.9397 496 77.5 496Z" fill="#1E1E1E"/>
<path d="M108.5 496C117.061 496 124 502.94 124 511.5C124 520.061 117.061 527 108.5 527C99.9397 527 93 520.061 93 511.5C93 502.94 99.9397 496 108.5 496Z" fill="#1E1E1E"/>
<path d="M139.5 496C148.061 496 155 502.94 155 511.5C155 520.061 148.061 527 139.5 527C130.94 527 124 520.061 124 511.5C124 502.94 130.94 496 139.5 496Z" fill="#1E1E1E"/>
<path d="M201.5 496C210.061 496 217 502.94 217 511.5C217 520.061 210.061 527 201.5 527C192.94 527 186 520.061 186 511.5C186 502.94 192.94 496 201.5 496Z" fill="#1E1E1E"/>
<path d="M232.5 496C241.061 496 248 502.94 248 511.5C248 520.061 241.061 527 232.5 527C223.94 527 217 520.061 217 511.5C217 502.94 223.94 496 232.5 496Z" fill="#1E1E1E"/>
<path d="M263.5 496C272.061 496 279 502.94 279 511.5C279 520.061 272.061 527 263.5 527C254.94 527 248 520.061 248 511.5C248 502.94 254.94 496 263.5 496Z" fill="#1E1E1E"/>
<path d="M325.5 496C334.061 496 341 502.94 341 511.5C341 520.061 334.061 527 325.5 527C316.94 527 310 520.061 310 511.5C310 502.94 316.94 496 325.5 496Z" fill="#1E1E1E"/>
<path d="M728.5 496C737.061 496 744 502.94 744 511.5C744 520.061 737.061 527 728.5 527C719.94 527 713 520.061 713 511.5C713 502.94 719.94 496 728.5 496Z" fill="#1E1E1E"/>
<path d="M790.5 496C799.061 496 806 502.94 806 511.5C806 520.061 799.061 527 790.5 527C781.94 527 775 520.061 775 511.5C775 502.94 781.94 496 790.5 496Z" fill="#1E1E1E"/>
<path d="M821.5 496C830.061 496 837 502.94 837 511.5C837 520.061 830.061 527 821.5 527C812.94 527 806 520.061 806 511.5C806 502.94 812.94 496 821.5 496Z" fill="#1E1E1E"/>
<path d="M883.5 496C892.061 496 899 502.94 899 511.5C899 520.061 892.061 527 883.5 527C874.94 527 868 520.061 868 511.5C868 502.94 874.94 496 883.5 496Z" fill="#1E1E1E"/>
<path d="M945.5 496C954.061 496 961 502.94 961 511.5C961 520.061 954.061 527 945.5 527C936.94 527 930 520.061 930 511.5C930 502.94 936.94 496 945.5 496Z" fill="#1E1E1E"/>
<path d="M976.5 496C985.061 496 992 502.94 992 511.5C992 520.061 985.061 527 976.5 527C967.94 527 961 520.061 961 511.5C961 502.94 967.94 496 976.5 496Z" fill="#1E1E1E"/>
<path d="M15.5 527C24.0608 527 31 533.94 31 542.5C31 551.061 24.0608 558 15.5 558C6.93966 558 0 551.061 0 542.5C0 533.94 6.93966 527 15.5 527Z" fill="#1E1E1E"/>
<path d="M46.5 527C55.0608 527 62 533.94 62 542.5C62 551.061 55.0608 558 46.5 558C37.9397 558 31 551.061 31 542.5C31 533.94 37.9397 527 46.5 527Z" fill="#1E1E1E"/>
<path d="M139.5 527C148.061 527 155 533.94 155 542.5C155 551.061 148.061 558 139.5 558C130.94 558 124 551.061 124 542.5C124 533.94 130.94 527 139.5 527Z" fill="#1E1E1E"/>
<path d="M170.5 527C179.061 527 186 533.94 186 542.5C186 551.061 179.061 558 170.5 558C161.94 558 155 551.061 155 542.5C155 533.94 161.94 527 170.5 527Z" fill="#1E1E1E"/>
<path d="M232.5 527C241.061 527 248 533.94 248 542.5C248 551.061 241.061 558 232.5 558C223.94 558 217 551.061 217 542.5C217 533.94 223.94 527 232.5 527Z" fill="#1E1E1E"/>
<path d="M294.5 527C303.061 527 310 533.94 310 542.5C310 551.061 303.061 558 294.5 558C285.94 558 279 551.061 279 542.5C279 533.94 285.94 527 294.5 527Z" fill="#1E1E1E"/>
<path d="M728.5 527C737.061 527 744 533.94 744 542.5C744 551.061 737.061 558 728.5 558C719.94 558 713 551.061 713 542.5C713 533.94 719.94 527 728.5 527Z" fill="#1E1E1E"/>
<path d="M759.5 527C768.061 527 775 533.94 775 542.5C775 551.061 768.061 558 759.5 558C750.94 558 744 551.061 744 542.5C744 533.94 750.94 527 759.5 527Z" fill="#1E1E1E"/>
<path d="M790.5 527C799.061 527 806 533.94 806 542.5C806 551.061 799.061 558 790.5 558C781.94 558 775 551.061 775 542.5C775 533.94 781.94 527 790.5 527Z" fill="#1E1E1E"/>
<path d="M852.5 527C861.061 527 868 533.94 868 542.5C868 551.061 861.061 558 852.5 558C843.94 558 837 551.061 837 542.5C837 533.94 843.94 527 852.5 527Z" fill="#1E1E1E"/>
<path d="M15.5 558C24.0608 558 31 564.94 31 573.5C31 582.061 24.0608 589 15.5 589C6.93966 589 0 582.061 0 573.5C0 564.94 6.93966 558 15.5 558Z" fill="#1E1E1E"/>
<path d="M77.5 558C86.0608 558 93 564.94 93 573.5C93 582.061 86.0608 589 77.5 589C68.9397 589 62 582.061 62 573.5C62 564.94 68.9397 558 77.5 558Z" fill="#1E1E1E"/>
<path d="M201.5 558C210.061 558 217 564.94 217 573.5C217 582.061 210.061 589 201.5 589C192.94 589 186 582.061 186 573.5C186 564.94 192.94 558 201.5 558Z" fill="#1E1E1E"/>
<path d="M232.5 558C241.061 558 248 564.94 248 573.5C248 582.061 241.061 589 232.5 589C223.94 589 217 582.061 217 573.5C217 564.94 223.94 558 232.5 558Z" fill="#1E1E1E"/>
<path d="M325.5 558C334.061 558 341 564.94 341 573.5C341 582.061 334.061 589 325.5 589C316.94 589 310 582.061 310 573.5C310 564.94 316.94 558 325.5 558Z" fill="#1E1E1E"/>
<path d="M728.5 558C737.061 558 744 564.94 744 573.5C744 582.061 737.061 589 728.5 589C719.94 589 713 582.061 713 573.5C713 564.94 719.94 558 728.5 558Z" fill="#1E1E1E"/>
<path d="M759.5 558C768.061 558 775 564.94 775 573.5C775 582.061 768.061 589 759.5 589C750.94 589 744 582.061 744 573.5C744 564.94 750.94 558 759.5 558Z" fill="#1E1E1E"/>
<path d="M790.5 558C799.061 558 806 564.94 806 573.5C806 582.061 799.061 589 790.5 589C781.94 589 775 582.061 775 573.5C775 564.94 781.94 558 790.5 558Z" fill="#1E1E1E"/>
<path d="M821.5 558C830.061 558 837 564.94 837 573.5C837 582.061 830.061 589 821.5 589C812.94 589 806 582.061 806 573.5C806 564.94 812.94 558 821.5 558Z" fill="#1E1E1E"/>
<path d="M914.5 558C923.061 558 930 564.94 930 573.5C930 582.061 923.061 589 914.5 589C905.94 589 899 582.061 899 573.5C899 564.94 905.94 558 914.5 558Z" fill="#1E1E1E"/>
<path d="M976.5 558C985.061 558 992 564.94 992 573.5C992 582.061 985.061 589 976.5 589C967.94 589 961 582.061 961 573.5C961 564.94 967.94 558 976.5 558Z" fill="#1E1E1E"/>
<path d="M77.5 589C86.0608 589 93 595.94 93 604.5C93 613.061 86.0608 620 77.5 620C68.9397 620 62 613.061 62 604.5C62 595.94 68.9397 589 77.5 589Z" fill="#1E1E1E"/>
<path d="M108.5 589C117.061 589 124 595.94 124 604.5C124 613.061 117.061 620 108.5 620C99.9397 620 93 613.061 93 604.5C93 595.94 99.9397 589 108.5 589Z" fill="#1E1E1E"/>
<path d="M170.5 589C179.061 589 186 595.94 186 604.5C186 613.061 179.061 620 170.5 620C161.94 620 155 613.061 155 604.5C155 595.94 161.94 589 170.5 589Z" fill="#1E1E1E"/>
<path d="M232.5 589C241.061 589 248 595.94 248 604.5C248 613.061 241.061 620 232.5 620C223.94 620 217 613.061 217 604.5C217 595.94 223.94 589 232.5 589Z" fill="#1E1E1E"/>
<path d="M263.5 589C272.061 589 279 595.94 279 604.5C279 613.061 272.061 620 263.5 620C254.94 620 248 613.061 248 604.5C248 595.94 254.94 589 263.5 589Z" fill="#1E1E1E"/>
<path d="M697.5 589C706.061 589 713 595.94 713 604.5C713 613.061 706.061 620 697.5 620C688.94 620 682 613.061 682 604.5C682 595.94 688.94 589 697.5 589Z" fill="#1E1E1E"/>
<path d="M821.5 589C830.061 589 837 595.94 837 604.5C837 613.061 830.061 620 821.5 620C812.94 620 806 613.061 806 604.5C806 595.94 812.94 589 821.5 589Z" fill="#1E1E1E"/>
<path d="M976.5 589C985.061 589 992 595.94 992 604.5C992 613.061 985.061 620 976.5 620C967.94 620 961 613.061 961 604.5C961 595.94 967.94 589 976.5 589Z" fill="#1E1E1E"/>
<path d="M15.5 620C24.0608 620 31 626.94 31 635.5C31 644.061 24.0608 651 15.5 651C6.93966 651 0 644.061 0 635.5C0 626.94 6.93966 620 15.5 620Z" fill="#1E1E1E"/>
<path d="M201.5 620C210.061 620 217 626.94 217 635.5C217 644.061 210.061 651 201.5 651C192.94 651 186 644.061 186 635.5C186 626.94 192.94 620 201.5 620Z" fill="#1E1E1E"/>
<path d="M263.5 620C272.061 620 279 626.94 279 635.5C279 644.061 272.061 651 263.5 651C254.94 651 248 644.061 248 635.5C248 626.94 254.94 620 263.5 620Z" fill="#1E1E1E"/>
<path d="M325.5 620C334.061 620 341 626.94 341 635.5C341 644.061 334.061 651 325.5 651C316.94 651 310 644.061 310 635.5C310 626.94 316.94 620 325.5 620Z" fill="#1E1E1E"/>
<path d="M697.5 620C706.061 620 713 626.94 713 635.5C713 644.061 706.061 651 697.5 651C688.94 651 682 644.061 682 635.5C682 626.94 688.94 620 697.5 620Z" fill="#1E1E1E"/>
<path d="M883.5 620C892.061 620 899 626.94 899 635.5C899 644.061 892.061 651 883.5 651C874.94 651 868 644.061 868 635.5C868 626.94 874.94 620 883.5 620Z" fill="#1E1E1E"/>
<path d="M914.5 620C923.061 620 930 626.94 930 635.5C930 644.061 923.061 651 914.5 651C905.94 651 899 644.061 899 635.5C899 626.94 905.94 620 914.5 620Z" fill="#1E1E1E"/>
<path d="M1007.5 620C1016.06 620 1023 626.94 1023 635.5C1023 644.061 1016.06 651 1007.5 651C998.94 651 992 644.061 992 635.5C992 626.94 998.94 620 1007.5 620Z" fill="#1E1E1E"/>
<path d="M15.5 651C24.0608 651 31 657.94 31 666.5C31 675.061 24.0608 682 15.5 682C6.93966 682 0 675.061 0 666.5C0 657.94 6.93966 651 15.5 651Z" fill="#1E1E1E"/>
<path d="M46.5 651C55.0608 651 62 657.94 62 666.5C62 675.061 55.0608 682 46.5 682C37.9397 682 31 675.061 31 666.5C31 657.94 37.9397 651 46.5 651Z" fill="#1E1E1E"/>
<path d="M77.5 651C86.0608 651 93 657.94 93 666.5C93 675.061 86.0608 682 77.5 682C68.9397 682 62 675.061 62 666.5C62 657.94 68.9397 651 77.5 651Z" fill="#1E1E1E"/>
<path d="M108.5 651C117.061 651 124 657.94 124 666.5C124 675.061 117.061 682 108.5 682C99.9397 682 93 675.061 93 666.5C93 657.94 99.9397 651 108.5 651Z" fill="#1E1E1E"/>
<path d="M139.5 651C148.061 651 155 657.94 155 666.5C155 675.061 148.061 682 139.5 682C130.94 682 124 675.061 124 666.5C124 657.94 130.94 651 139.5 651Z" fill="#1E1E1E"/>
<path d="M170.5 651C179.061 651 186 657.94 186 666.5C186 675.061 179.061 682 170.5 682C161.94 682 155 675.061 155 666.5C155 657.94 161.94 651 170.5 651Z" fill="#1E1E1E"/>
<path d="M325.5 651C334.061 651 341 657.94 341 666.5C341 675.061 334.061 682 325.5 682C316.94 682 310 675.061 310 666.5C310 657.94 316.94 651 325.5 651Z" fill="#1E1E1E"/>
<path d="M759.5 651C768.061 651 775 657.94 775 666.5C775 675.061 768.061 682 759.5 682C750.94 682 744 675.061 744 666.5C744 657.94 750.94 651 759.5 651Z" fill="#1E1E1E"/>
<path d="M790.5 651C799.061 651 806 657.94 806 666.5C806 675.061 799.061 682 790.5 682C781.94 682 775 675.061 775 666.5C775 657.94 781.94 651 790.5 651Z" fill="#1E1E1E"/>
<path d="M821.5 651C830.061 651 837 657.94 837 666.5C837 675.061 830.061 682 821.5 682C812.94 682 806 675.061 806 666.5C806 657.94 812.94 651 821.5 651Z" fill="#1E1E1E"/>
<path d="M852.5 651C861.061 651 868 657.94 868 666.5C868 675.061 861.061 682 852.5 682C843.94 682 837 675.061 837 666.5C837 657.94 843.94 651 852.5 651Z" fill="#1E1E1E"/>
<path d="M914.5 651C923.061 651 930 657.94 930 666.5C930 675.061 923.061 682 914.5 682C905.94 682 899 675.061 899 666.5C899 657.94 905.94 651 914.5 651Z" fill="#1E1E1E"/>
<path d="M976.5 651C985.061 651 992 657.94 992 666.5C992 675.061 985.061 682 976.5 682C967.94 682 961 675.061 961 666.5C961 657.94 967.94 651 976.5 651Z" fill="#1E1E1E"/>
<path d="M108.5 682C117.061 682 124 688.94 124 697.5C124 706.061 117.061 713 108.5 713C99.9397 713 93 706.061 93 697.5C93 688.94 99.9397 682 108.5 682Z" fill="#1E1E1E"/>
<path d="M139.5 682C148.061 682 155 688.94 155 697.5C155 706.061 148.061 713 139.5 713C130.94 713 124 706.061 124 697.5C124 688.94 130.94 682 139.5 682Z" fill="#1E1E1E"/>
<path d="M170.5 682C179.061 682 186 688.94 186 697.5C186 706.061 179.061 713 170.5 713C161.94 713 155 706.061 155 697.5C155 688.94 161.94 682 170.5 682Z" fill="#1E1E1E"/>
<path d="M201.5 682C210.061 682 217 688.94 217 697.5C217 706.061 210.061 713 201.5 713C192.94 713 186 706.061 186 697.5C186 688.94 192.94 682 201.5 682Z" fill="#1E1E1E"/>
<path d="M294.5 682C303.061 682 310 688.94 310 697.5C310 706.061 303.061 713 294.5 713C285.94 713 279 706.061 279 697.5C279 688.94 285.94 682 294.5 682Z" fill="#1E1E1E"/>
<path d="M325.5 682C334.061 682 341 688.94 341 697.5C341 706.061 334.061 713 325.5 713C316.94 713 310 706.061 310 697.5C310 688.94 316.94 682 325.5 682Z" fill="#1E1E1E"/>
<path d="M356.5 682C365.061 682 372 688.94 372 697.5C372 706.061 365.061 713 356.5 713C347.94 713 341 706.061 341 697.5C341 688.94 347.94 682 356.5 682Z" fill="#1E1E1E"/>
<path d="M387.5 682C396.061 682 403 688.94 403 697.5C403 706.061 396.061 713 387.5 713C378.94 713 372 706.061 372 697.5C372 688.94 378.94 682 387.5 682Z" fill="#1E1E1E"/>
<path d="M418.5 682C427.061 682 434 688.94 434 697.5C434 706.061 427.061 713 418.5 713C409.94 713 403 706.061 403 697.5C403 688.94 409.94 682 418.5 682Z" fill="#1E1E1E"/>
<path d="M480.5 682C489.061 682 496 688.94 496 697.5C496 706.061 489.061 713 480.5 713C471.94 713 465 706.061 465 697.5C465 688.94 471.94 682 480.5 682Z" fill="#1E1E1E"/>
<path d="M573.5 682C582.061 682 589 688.94 589 697.5C589 706.061 582.061 713 573.5 713C564.94 713 558 706.061 558 697.5C558 688.94 564.94 682 573.5 682Z" fill="#1E1E1E"/>
<path d="M604.5 682C613.061 682 620 688.94 620 697.5C620 706.061 613.061 713 604.5 713C595.94 713 589 706.061 589 697.5C589 688.94 595.94 682 604.5 682Z" fill="#1E1E1E"/>
<path d="M697.5 682C706.061 682 713 688.94 713 697.5C713 706.061 706.061 713 697.5 713C688.94 713 682 706.061 682 697.5C682 688.94 688.94 682 697.5 682Z" fill="#1E1E1E"/>
<path d="M728.5 682C737.061 682 744 688.94 744 697.5C744 706.061 737.061 713 728.5 713C719.94 713 713 706.061 713 697.5C713 688.94 719.94 682 728.5 682Z" fill="#1E1E1E"/>
<path d="M759.5 682C768.061 682 775 688.94 775 697.5C775 706.061 768.061 713 759.5 713C750.94 713 744 706.061 744 697.5C744 688.94 750.94 682 759.5 682Z" fill="#1E1E1E"/>
<path d="M883.5 682C892.061 682 899 688.94 899 697.5C899 706.061 892.061 713 883.5 713C874.94 713 868 706.061 868 697.5C868 688.94 874.94 682 883.5 682Z" fill="#1E1E1E"/>
<path d="M108.5 713C117.061 713 124 719.94 124 728.5C124 737.061 117.061 744 108.5 744C99.9397 744 93 737.061 93 728.5C93 719.94 99.9397 713 108.5 713Z" fill="#1E1E1E"/>
<path d="M139.5 713C148.061 713 155 719.94 155 728.5C155 737.061 148.061 744 139.5 744C130.94 744 124 737.061 124 728.5C124 719.94 130.94 713 139.5 713Z" fill="#1E1E1E"/>
<path d="M232.5 713C241.061 713 248 719.94 248 728.5C248 737.061 241.061 744 232.5 744C223.94 744 217 737.061 217 728.5C217 719.94 223.94 713 232.5 713Z" fill="#1E1E1E"/>
<path d="M263.5 713C272.061 713 279 719.94 279 728.5C279 737.061 272.061 744 263.5 744C254.94 744 248 737.061 248 728.5C248 719.94 254.94 713 263.5 713Z" fill="#1E1E1E"/>
<path d="M387.5 713C396.061 713 403 719.94 403 728.5C403 737.061 396.061 744 387.5 744C378.94 744 372 737.061 372 728.5C372 719.94 378.94 713 387.5 713Z" fill="#1E1E1E"/>
<path d="M418.5 713C427.061 713 434 719.94 434 728.5C434 737.061 427.061 744 418.5 744C409.94 744 403 737.061 403 728.5C403 719.94 409.94 713 418.5 713Z" fill="#1E1E1E"/>
<path d="M480.5 713C489.061 713 496 719.94 496 728.5C496 737.061 489.061 744 480.5 744C471.94 744 465 737.061 465 728.5C465 719.94 471.94 713 480.5 713Z" fill="#1E1E1E"/>
<path d="M511.5 713C520.061 713 527 719.94 527 728.5C527 737.061 520.061 744 511.5 744C502.94 744 496 737.061 496 728.5C496 719.94 502.94 713 511.5 713Z" fill="#1E1E1E"/>
<path d="M542.5 713C551.061 713 558 719.94 558 728.5C558 737.061 551.061 744 542.5 744C533.94 744 527 737.061 527 728.5C527 719.94 533.94 713 542.5 713Z" fill="#1E1E1E"/>
<path d="M573.5 713C582.061 713 589 719.94 589 728.5C589 737.061 582.061 744 573.5 744C564.94 744 558 737.061 558 728.5C558 719.94 564.94 713 573.5 713Z" fill="#1E1E1E"/>
<path d="M604.5 713C613.061 713 620 719.94 620 728.5C620 737.061 613.061 744 604.5 744C595.94 744 589 737.061 589 728.5C589 719.94 595.94 713 604.5 713Z" fill="#1E1E1E"/>
<path d="M635.5 713C644.061 713 651 719.94 651 728.5C651 737.061 644.061 744 635.5 744C626.94 744 620 737.061 620 728.5C620 719.94 626.94 713 635.5 713Z" fill="#1E1E1E"/>
<path d="M666.5 713C675.061 713 682 719.94 682 728.5C682 737.061 675.061 744 666.5 744C657.94 744 651 737.061 651 728.5C651 719.94 657.94 713 666.5 713Z" fill="#1E1E1E"/>
<path d="M728.5 713C737.061 713 744 719.94 744 728.5C744 737.061 737.061 744 728.5 744C719.94 744 713 737.061 713 728.5C713 719.94 719.94 713 728.5 713Z" fill="#1E1E1E"/>
<path d="M852.5 713C861.061 713 868 719.94 868 728.5C868 737.061 861.061 744 852.5 744C843.94 744 837 737.061 837 728.5C837 719.94 843.94 713 852.5 713Z" fill="#1E1E1E"/>
<path d="M883.5 713C892.061 713 899 719.94 899 728.5C899 737.061 892.061 744 883.5 744C874.94 744 868 737.061 868 728.5C868 719.94 874.94 713 883.5 713Z" fill="#1E1E1E"/>
<path d="M976.5 713C985.061 713 992 719.94 992 728.5C992 737.061 985.061 744 976.5 744C967.94 744 961 737.061 961 728.5C961 719.94 967.94 713 976.5 713Z" fill="#1E1E1E"/>
<path d="M15.5 744C24.0608 744 31 750.94 31 759.5C31 768.061 24.0608 775 15.5 775C6.93966 775 0 768.061 0 759.5C0 750.94 6.93966 744 15.5 744Z" fill="#1E1E1E"/>
<path d="M46.5 744C55.0608 744 62 750.94 62 759.5C62 768.061 55.0608 775 46.5 775C37.9397 775 31 768.061 31 759.5C31 750.94 37.9397 744 46.5 744Z" fill="#1E1E1E"/>
<path d="M77.5 744C86.0608 744 93 750.94 93 759.5C93 768.061 86.0608 775 77.5 775C68.9397 775 62 768.061 62 759.5C62 750.94 68.9397 744 77.5 744Z" fill="#1E1E1E"/>
<path d="M108.5 744C117.061 744 124 750.94 124 759.5C124 768.061 117.061 775 108.5 775C99.9397 775 93 768.061 93 759.5C93 750.94 99.9397 744 108.5 744Z" fill="#1E1E1E"/>
<path d="M139.5 744C148.061 744 155 750.94 155 759.5C155 768.061 148.061 775 139.5 775C130.94 775 124 768.061 124 759.5C124 750.94 130.94 744 139.5 744Z" fill="#1E1E1E"/>
<path d="M201.5 744C210.061 744 217 750.94 217 759.5C217 768.061 210.061 775 201.5 775C192.94 775 186 768.061 186 759.5C186 750.94 192.94 744 201.5 744Z" fill="#1E1E1E"/>
<path d="M263.5 744C272.061 744 279 750.94 279 759.5C279 768.061 272.061 775 263.5 775C254.94 775 248 768.061 248 759.5C248 750.94 254.94 744 263.5 744Z" fill="#1E1E1E"/>
<path d="M325.5 744C334.061 744 341 750.94 341 759.5C341 768.061 334.061 775 325.5 775C316.94 775 310 768.061 310 759.5C310 750.94 316.94 744 325.5 744Z" fill="#1E1E1E"/>
<path d="M387.5 744C396.061 744 403 750.94 403 759.5C403 768.061 396.061 775 387.5 775C378.94 775 372 768.061 372 759.5C372 750.94 378.94 744 387.5 744Z" fill="#1E1E1E"/>
<path d="M480.5 744C489.061 744 496 750.94 496 759.5C496 768.061 489.061 775 480.5 775C471.94 775 465 768.061 465 759.5C465 750.94 471.94 744 480.5 744Z" fill="#1E1E1E"/>
<path d="M573.5 744C582.061 744 589 750.94 589 759.5C589 768.061 582.061 775 573.5 775C564.94 775 558 768.061 558 759.5C558 750.94 564.94 744 573.5 744Z" fill="#1E1E1E"/>
<path d="M666.5 744C675.061 744 682 750.94 682 759.5C682 768.061 675.061 775 666.5 775C657.94 775 651 768.061 651 759.5C651 750.94 657.94 744 666.5 744Z" fill="#1E1E1E"/>
<path d="M697.5 744C706.061 744 713 750.94 713 759.5C713 768.061 706.061 775 697.5 775C688.94 775 682 768.061 682 759.5C682 750.94 688.94 744 697.5 744Z" fill="#1E1E1E"/>
<path d="M759.5 744C768.061 744 775 750.94 775 759.5C775 768.061 768.061 775 759.5 775C750.94 775 744 768.061 744 759.5C744 750.94 750.94 744 759.5 744Z" fill="#1E1E1E"/>
<path d="M790.5 744C799.061 744 806 750.94 806 759.5C806 768.061 799.061 775 790.5 775C781.94 775 775 768.061 775 759.5C775 750.94 781.94 744 790.5 744Z" fill="#1E1E1E"/>
<path d="M821.5 744C830.061 744 837 750.94 837 759.5C837 768.061 830.061 775 821.5 775C812.94 775 806 768.061 806 759.5C806 750.94 812.94 744 821.5 744Z" fill="#1E1E1E"/>
<path d="M852.5 744C861.061 744 868 750.94 868 759.5C868 768.061 861.061 775 852.5 775C843.94 775 837 768.061 837 759.5C837 750.94 843.94 744 852.5 744Z" fill="#1E1E1E"/>
<path d="M883.5 744C892.061 744 899 750.94 899 759.5C899 768.061 892.061 775 883.5 775C874.94 775 868 768.061 868 759.5C868 750.94 874.94 744 883.5 744Z" fill="#1E1E1E"/>
<path d="M976.5 744C985.061 744 992 750.94 992 759.5C992 768.061 985.061 775 976.5 775C967.94 775 961 768.061 961 759.5C961 750.94 967.94 744 976.5 744Z" fill="#1E1E1E"/>
<path d="M1007.5 744C1016.06 744 1023 750.94 1023 759.5C1023 768.061 1016.06 775 1007.5 775C998.94 775 992 768.061 992 759.5C992 750.94 998.94 744 1007.5 744Z" fill="#1E1E1E"/>
<path d="M263.5 775C272.061 775 279 781.94 279 790.5C279 799.061 272.061 806 263.5 806C254.94 806 248 799.061 248 790.5C248 781.94 254.94 775 263.5 775Z" fill="#1E1E1E"/>
<path d="M294.5 775C303.061 775 310 781.94 310 790.5C310 799.061 303.061 806 294.5 806C285.94 806 279 799.061 279 790.5C279 781.94 285.94 775 294.5 775Z" fill="#1E1E1E"/>
<path d="M325.5 775C334.061 775 341 781.94 341 790.5C341 799.061 334.061 806 325.5 806C316.94 806 310 799.061 310 790.5C310 781.94 316.94 775 325.5 775Z" fill="#1E1E1E"/>
<path d="M356.5 775C365.061 775 372 781.94 372 790.5C372 799.061 365.061 806 356.5 806C347.94 806 341 799.061 341 790.5C341 781.94 347.94 775 356.5 775Z" fill="#1E1E1E"/>
<path d="M387.5 775C396.061 775 403 781.94 403 790.5C403 799.061 396.061 806 387.5 806C378.94 806 372 799.061 372 790.5C372 781.94 378.94 775 387.5 775Z" fill="#1E1E1E"/>
<path d="M511.5 775C520.061 775 527 781.94 527 790.5C527 799.061 520.061 806 511.5 806C502.94 806 496 799.061 496 790.5C496 781.94 502.94 775 511.5 775Z" fill="#1E1E1E"/>
<path d="M542.5 775C551.061 775 558 781.94 558 790.5C558 799.061 551.061 806 542.5 806C533.94 806 527 799.061 527 790.5C527 781.94 533.94 775 542.5 775Z" fill="#1E1E1E"/>
<path d="M666.5 775C675.061 775 682 781.94 682 790.5C682 799.061 675.061 806 666.5 806C657.94 806 651 799.061 651 790.5C651 781.94 657.94 775 666.5 775Z" fill="#1E1E1E"/>
<path d="M697.5 775C706.061 775 713 781.94 713 790.5C713 799.061 706.061 806 697.5 806C688.94 806 682 799.061 682 790.5C682 781.94 688.94 775 697.5 775Z" fill="#1E1E1E"/>
<path d="M759.5 775C768.061 775 775 781.94 775 790.5C775 799.061 768.061 806 759.5 806C750.94 806 744 799.061 744 790.5C744 781.94 750.94 775 759.5 775Z" fill="#1E1E1E"/>
<path d="M883.5 775C892.061 775 899 781.94 899 790.5C899 799.061 892.061 806 883.5 806C874.94 806 868 799.061 868 790.5C868 781.94 874.94 775 883.5 775Z" fill="#1E1E1E"/>
<path d="M945.5 775C954.061 775 961 781.94 961 790.5C961 799.061 954.061 806 945.5 806C936.94 806 930 799.061 930 790.5C930 781.94 936.94 775 945.5 775Z" fill="#1E1E1E"/>
<path d="M976.5 775C985.061 775 992 781.94 992 790.5C992 799.061 985.061 806 976.5 806C967.94 806 961 799.061 961 790.5C961 781.94 967.94 775 976.5 775Z" fill="#1E1E1E"/>
<path d="M263.5 806C272.061 806 279 812.94 279 821.5C279 830.061 272.061 837 263.5 837C254.94 837 248 830.061 248 821.5C248 812.94 254.94 806 263.5 806Z" fill="#1E1E1E"/>
<path d="M387.5 806C396.061 806 403 812.94 403 821.5C403 830.061 396.061 837 387.5 837C378.94 837 372 830.061 372 821.5C372 812.94 378.94 806 387.5 806Z" fill="#1E1E1E"/>
<path d="M449.5 806C458.061 806 465 812.94 465 821.5C465 830.061 458.061 837 449.5 837C440.94 837 434 830.061 434 821.5C434 812.94 440.94 806 449.5 806Z" fill="#1E1E1E"/>
<path d="M480.5 806C489.061 806 496 812.94 496 821.5C496 830.061 489.061 837 480.5 837C471.94 837 465 830.061 465 821.5C465 812.94 471.94 806 480.5 806Z" fill="#1E1E1E"/>
<path d="M542.5 806C551.061 806 558 812.94 558 821.5C558 830.061 551.061 837 542.5 837C533.94 837 527 830.061 527 821.5C527 812.94 533.94 806 542.5 806Z" fill="#1E1E1E"/>
<path d="M604.5 806C613.061 806 620 812.94 620 821.5C620 830.061 613.061 837 604.5 837C595.94 837 589 830.061 589 821.5C589 812.94 595.94 806 604.5 806Z" fill="#1E1E1E"/>
<path d="M635.5 806C644.061 806 651 812.94 651 821.5C651 830.061 644.061 837 635.5 837C626.94 837 620 830.061 620 821.5C620 812.94 626.94 806 635.5 806Z" fill="#1E1E1E"/>
<path d="M759.5 806C768.061 806 775 812.94 775 821.5C775 830.061 768.061 837 759.5 837C750.94 837 744 830.061 744 821.5C744 812.94 750.94 806 759.5 806Z" fill="#1E1E1E"/>
<path d="M821.5 806C830.061 806 837 812.94 837 821.5C837 830.061 830.061 837 821.5 837C812.94 837 806 830.061 806 821.5C806 812.94 812.94 806 821.5 806Z" fill="#1E1E1E"/>
<path d="M883.5 806C892.061 806 899 812.94 899 821.5C899 830.061 892.061 837 883.5 837C874.94 837 868 830.061 868 821.5C868 812.94 874.94 806 883.5 806Z" fill="#1E1E1E"/>
<path d="M945.5 806C954.061 806 961 812.94 961 821.5C961 830.061 954.061 837 945.5 837C936.94 837 930 830.061 930 821.5C930 812.94 936.94 806 945.5 806Z" fill="#1E1E1E"/>
<path d="M976.5 806C985.061 806 992 812.94 992 821.5C992 830.061 985.061 837 976.5 837C967.94 837 961 830.061 961 821.5C961 812.94 967.94 806 976.5 806Z" fill="#1E1E1E"/>
<path d="M263.5 837C272.061 837 279 843.94 279 852.5C279 861.061 272.061 868 263.5 868C254.94 868 248 861.061 248 852.5C248 843.94 254.94 837 263.5 837Z" fill="#1E1E1E"/>
<path d="M449.5 837C458.061 837 465 843.94 465 852.5C465 861.061 458.061 868 449.5 868C440.94 868 434 861.061 434 852.5C434 843.94 440.94 837 449.5 837Z" fill="#1E1E1E"/>
<path d="M480.5 837C489.061 837 496 843.94 496 852.5C496 861.061 489.061 868 480.5 868C471.94 868 465 861.061 465 852.5C465 843.94 471.94 837 480.5 837Z" fill="#1E1E1E"/>
<path d="M542.5 837C551.061 837 558 843.94 558 852.5C558 861.061 551.061 868 542.5 868C533.94 868 527 861.061 527 852.5C527 843.94 533.94 837 542.5 837Z" fill="#1E1E1E"/>
<path d="M573.5 837C582.061 837 589 843.94 589 852.5C589 861.061 582.061 868 573.5 868C564.94 868 558 861.061 558 852.5C558 843.94 564.94 837 573.5 837Z" fill="#1E1E1E"/>
<path d="M604.5 837C613.061 837 620 843.94 620 852.5C620 861.061 613.061 868 604.5 868C595.94 868 589 861.061 589 852.5C589 843.94 595.94 837 604.5 837Z" fill="#1E1E1E"/>
<path d="M697.5 837C706.061 837 713 843.94 713 852.5C713 861.061 706.061 868 697.5 868C688.94 868 682 861.061 682 852.5C682 843.94 688.94 837 697.5 837Z" fill="#1E1E1E"/>
<path d="M759.5 837C768.061 837 775 843.94 775 852.5C775 861.061 768.061 868 759.5 868C750.94 868 744 861.061 744 852.5C744 843.94 750.94 837 759.5 837Z" fill="#1E1E1E"/>
<path d="M883.5 837C892.061 837 899 843.94 899 852.5C899 861.061 892.061 868 883.5 868C874.94 868 868 861.061 868 852.5C868 843.94 874.94 837 883.5 837Z" fill="#1E1E1E"/>
<path d="M976.5 837C985.061 837 992 843.94 992 852.5C992 861.061 985.061 868 976.5 868C967.94 868 961 861.061 961 852.5C961 843.94 967.94 837 976.5 837Z" fill="#1E1E1E"/>
<path d="M1007.5 837C1016.06 837 1023 843.94 1023 852.5C1023 861.061 1016.06 868 1007.5 868C998.94 868 992 861.061 992 852.5C992 843.94 998.94 837 1007.5 837Z" fill="#1E1E1E"/>
<path d="M263.5 868C272.061 868 279 874.94 279 883.5C279 892.061 272.061 899 263.5 899C254.94 899 248 892.061 248 883.5C248 874.94 254.94 868 263.5 868Z" fill="#1E1E1E"/>
<path d="M294.5 868C303.061 868 310 874.94 310 883.5C310 892.061 303.061 899 294.5 899C285.94 899 279 892.061 279 883.5C279 874.94 285.94 868 294.5 868Z" fill="#1E1E1E"/>
<path d="M325.5 868C334.061 868 341 874.94 341 883.5C341 892.061 334.061 899 325.5 899C316.94 899 310 892.061 310 883.5C310 874.94 316.94 868 325.5 868Z" fill="#1E1E1E"/>
<path d="M356.5 868C365.061 868 372 874.94 372 883.5C372 892.061 365.061 899 356.5 899C347.94 899 341 892.061 341 883.5C341 874.94 347.94 868 356.5 868Z" fill="#1E1E1E"/>
<path d="M480.5 868C489.061 868 496 874.94 496 883.5C496 892.061 489.061 899 480.5 899C471.94 899 465 892.061 465 883.5C465 874.94 471.94 868 480.5 868Z" fill="#1E1E1E"/>
<path d="M542.5 868C551.061 868 558 874.94 558 883.5C558 892.061 551.061 899 542.5 899C533.94 899 527 892.061 527 883.5C527 874.94 533.94 868 542.5 868Z" fill="#1E1E1E"/>
<path d="M573.5 868C582.061 868 589 874.94 589 883.5C589 892.061 582.061 899 573.5 899C564.94 899 558 892.061 558 883.5C558 874.94 564.94 868 573.5 868Z" fill="#1E1E1E"/>
<path d="M697.5 868C706.061 868 713 874.94 713 883.5C713 892.061 706.061 899 697.5 899C688.94 899 682 892.061 682 883.5C682 874.94 688.94 868 697.5 868Z" fill="#1E1E1E"/>
<path d="M759.5 868C768.061 868 775 874.94 775 883.5C775 892.061 768.061 899 759.5 899C750.94 899 744 892.061 744 883.5C744 874.94 750.94 868 759.5 868Z" fill="#1E1E1E"/>
<path d="M790.5 868C799.061 868 806 874.94 806 883.5C806 892.061 799.061 899 790.5 899C781.94 899 775 892.061 775 883.5C775 874.94 781.94 868 790.5 868Z" fill="#1E1E1E"/>
<path d="M821.5 868C830.061 868 837 874.94 837 883.5C837 892.061 830.061 899 821.5 899C812.94 899 806 892.061 806 883.5C806 874.94 812.94 868 821.5 868Z" fill="#1E1E1E"/>
<path d="M852.5 868C861.061 868 868 874.94 868 883.5C868 892.061 861.061 899 852.5 899C843.94 899 837 892.061 837 883.5C837 874.94 843.94 868 852.5 868Z" fill="#1E1E1E"/>
<path d="M883.5 868C892.061 868 899 874.94 899 883.5C899 892.061 892.061 899 883.5 899C874.94 899 868 892.061 868 883.5C868 874.94 874.94 868 883.5 868Z" fill="#1E1E1E"/>
<path d="M294.5 899C303.061 899 310 905.94 310 914.5C310 923.061 303.061 930 294.5 930C285.94 930 279 923.061 279 914.5C279 905.94 285.94 899 294.5 899Z" fill="#1E1E1E"/>
<path d="M387.5 899C396.061 899 403 905.94 403 914.5C403 923.061 396.061 930 387.5 930C378.94 930 372 923.061 372 914.5C372 905.94 378.94 899 387.5 899Z" fill="#1E1E1E"/>
<path d="M418.5 899C427.061 899 434 905.94 434 914.5C434 923.061 427.061 930 418.5 930C409.94 930 403 923.061 403 914.5C403 905.94 409.94 899 418.5 899Z" fill="#1E1E1E"/>
<path d="M480.5 899C489.061 899 496 905.94 496 914.5C496 923.061 489.061 930 480.5 930C471.94 930 465 923.061 465 914.5C465 905.94 471.94 899 480.5 899Z" fill="#1E1E1E"/>
<path d="M511.5 899C520.061 899 527 905.94 527 914.5C527 923.061 520.061 930 511.5 930C502.94 930 496 923.061 496 914.5C496 905.94 502.94 899 511.5 899Z" fill="#1E1E1E"/>
<path d="M573.5 899C582.061 899 589 905.94 589 914.5C589 923.061 582.061 930 573.5 930C564.94 930 558 923.061 558 914.5C558 905.94 564.94 899 573.5 899Z" fill="#1E1E1E"/>
<path d="M604.5 899C613.061 899 620 905.94 620 914.5C620 923.061 613.061 930 604.5 930C595.94 930 589 923.061 589 914.5C589 905.94 595.94 899 604.5 899Z" fill="#1E1E1E"/>
<path d="M635.5 899C644.061 899 651 905.94 651 914.5C651 923.061 644.061 930 635.5 930C626.94 930 620 923.061 620 914.5C620 905.94 626.94 899 635.5 899Z" fill="#1E1E1E"/>
<path d="M666.5 899C675.061 899 682 905.94 682 914.5C682 923.061 675.061 930 666.5 930C657.94 930 651 923.061 651 914.5C651 905.94 657.94 899 666.5 899Z" fill="#1E1E1E"/>
<path d="M728.5 899C737.061 899 744 905.94 744 914.5C744 923.061 737.061 930 728.5 930C719.94 930 713 923.061 713 914.5C713 905.94 719.94 899 728.5 899Z" fill="#1E1E1E"/>
<path d="M821.5 899C830.061 899 837 905.94 837 914.5C837 923.061 830.061 930 821.5 930C812.94 930 806 923.061 806 914.5C806 905.94 812.94 899 821.5 899Z" fill="#1E1E1E"/>
<path d="M852.5 899C861.061 899 868 905.94 868 914.5C868 923.061 861.061 930 852.5 930C843.94 930 837 923.061 837 914.5C837 905.94 843.94 899 852.5 899Z" fill="#1E1E1E"/>
<path d="M883.5 899C892.061 899 899 905.94 899 914.5C899 923.061 892.061 930 883.5 930C874.94 930 868 923.061 868 914.5C868 905.94 874.94 899 883.5 899Z" fill="#1E1E1E"/>
<path d="M914.5 899C923.061 899 930 905.94 930 914.5C930 923.061 923.061 930 914.5 930C905.94 930 899 923.061 899 914.5C899 905.94 905.94 899 914.5 899Z" fill="#1E1E1E"/>
<path d="M1007.5 899C1016.06 899 1023 905.94 1023 914.5C1023 923.061 1016.06 930 1007.5 930C998.94 930 992 923.061 992 914.5C992 905.94 998.94 899 1007.5 899Z" fill="#1E1E1E"/>
<path d="M325.5 930C334.061 930 341 936.94 341 945.5C341 954.061 334.061 961 325.5 961C316.94 961 310 954.061 310 945.5C310 936.94 316.94 930 325.5 930Z" fill="#1E1E1E"/>
<path d="M356.5 930C365.061 930 372 936.94 372 945.5C372 954.061 365.061 961 356.5 961C347.94 961 341 954.061 341 945.5C341 936.94 347.94 930 356.5 930Z" fill="#1E1E1E"/>
<path d="M418.5 930C427.061 930 434 936.94 434 945.5C434 954.061 427.061 961 418.5 961C409.94 961 403 954.061 403 945.5C403 936.94 409.94 930 418.5 930Z" fill="#1E1E1E"/>
<path d="M480.5 930C489.061 930 496 936.94 496 945.5C496 954.061 489.061 961 480.5 961C471.94 961 465 954.061 465 945.5C465 936.94 471.94 930 480.5 930Z" fill="#1E1E1E"/>
<path d="M511.5 930C520.061 930 527 936.94 527 945.5C527 954.061 520.061 961 511.5 961C502.94 961 496 954.061 496 945.5C496 936.94 502.94 930 511.5 930Z" fill="#1E1E1E"/>
<path d="M542.5 930C551.061 930 558 936.94 558 945.5C558 954.061 551.061 961 542.5 961C533.94 961 527 954.061 527 945.5C527 936.94 533.94 930 542.5 930Z" fill="#1E1E1E"/>
<path d="M573.5 930C582.061 930 589 936.94 589 945.5C589 954.061 582.061 961 573.5 961C564.94 961 558 954.061 558 945.5C558 936.94 564.94 930 573.5 930Z" fill="#1E1E1E"/>
<path d="M635.5 930C644.061 930 651 936.94 651 945.5C651 954.061 644.061 961 635.5 961C626.94 961 620 954.061 620 945.5C620 936.94 626.94 930 635.5 930Z" fill="#1E1E1E"/>
<path d="M759.5 930C768.061 930 775 936.94 775 945.5C775 954.061 768.061 961 759.5 961C750.94 961 744 954.061 744 945.5C744 936.94 750.94 930 759.5 930Z" fill="#1E1E1E"/>
<path d="M790.5 930C799.061 930 806 936.94 806 945.5C806 954.061 799.061 961 790.5 961C781.94 961 775 954.061 775 945.5C775 936.94 781.94 930 790.5 930Z" fill="#1E1E1E"/>
<path d="M821.5 930C830.061 930 837 936.94 837 945.5C837 954.061 830.061 961 821.5 961C812.94 961 806 954.061 806 945.5C806 936.94 812.94 930 821.5 930Z" fill="#1E1E1E"/>
<path d="M883.5 930C892.061 930 899 936.94 899 945.5C899 954.061 892.061 961 883.5 961C874.94 961 868 954.061 868 945.5C868 936.94 874.94 930 883.5 930Z" fill="#1E1E1E"/>
<path d="M914.5 930C923.061 930 930 936.94 930 945.5C930 954.061 923.061 961 914.5 961C905.94 961 899 954.061 899 945.5C899 936.94 905.94 930 914.5 930Z" fill="#1E1E1E"/>
<path d="M945.5 930C954.061 930 961 936.94 961 945.5C961 954.061 954.061 961 945.5 961C936.94 961 930 954.061 930 945.5C930 936.94 936.94 930 945.5 930Z" fill="#1E1E1E"/>
<path d="M325.5 961C334.061 961 341 967.94 341 976.5C341 985.061 334.061 992 325.5 992C316.94 992 310 985.061 310 976.5C310 967.94 316.94 961 325.5 961Z" fill="#1E1E1E"/>
<path d="M356.5 961C365.061 961 372 967.94 372 976.5C372 985.061 365.061 992 356.5 992C347.94 992 341 985.061 341 976.5C341 967.94 347.94 961 356.5 961Z" fill="#1E1E1E"/>
<path d="M387.5 961C396.061 961 403 967.94 403 976.5C403 985.061 396.061 992 387.5 992C378.94 992 372 985.061 372 976.5C372 967.94 378.94 961 387.5 961Z" fill="#1E1E1E"/>
<path d="M480.5 961C489.061 961 496 967.94 496 976.5C496 985.061 489.061 992 480.5 992C471.94 992 465 985.061 465 976.5C465 967.94 471.94 961 480.5 961Z" fill="#1E1E1E"/>
<path d="M511.5 961C520.061 961 527 967.94 527 976.5C527 985.061 520.061 992 511.5 992C502.94 992 496 985.061 496 976.5C496 967.94 502.94 961 511.5 961Z" fill="#1E1E1E"/>
<path d="M635.5 961C644.061 961 651 967.94 651 976.5C651 985.061 644.061 992 635.5 992C626.94 992 620 985.061 620 976.5C620 967.94 626.94 961 635.5 961Z" fill="#1E1E1E"/>
<path d="M666.5 961C675.061 961 682 967.94 682 976.5C682 985.061 675.061 992 666.5 992C657.94 992 651 985.061 651 976.5C651 967.94 657.94 961 666.5 961Z" fill="#1E1E1E"/>
<path d="M728.5 961C737.061 961 744 967.94 744 976.5C744 985.061 737.061 992 728.5 992C719.94 992 713 985.061 713 976.5C713 967.94 719.94 961 728.5 961Z" fill="#1E1E1E"/>
<path d="M759.5 961C768.061 961 775 967.94 775 976.5C775 985.061 768.061 992 759.5 992C750.94 992 744 985.061 744 976.5C744 967.94 750.94 961 759.5 961Z" fill="#1E1E1E"/>
<path d="M790.5 961C799.061 961 806 967.94 806 976.5C806 985.061 799.061 992 790.5 992C781.94 992 775 985.061 775 976.5C775 967.94 781.94 961 790.5 961Z" fill="#1E1E1E"/>
<path d="M852.5 961C861.061 961 868 967.94 868 976.5C868 985.061 861.061 992 852.5 992C843.94 992 837 985.061 837 976.5C837 967.94 843.94 961 852.5 961Z" fill="#1E1E1E"/>
<path d="M883.5 961C892.061 961 899 967.94 899 976.5C899 985.061 892.061 992 883.5 992C874.94 992 868 985.061 868 976.5C868 967.94 874.94 961 883.5 961Z" fill="#1E1E1E"/>
<path d="M945.5 961C954.061 961 961 967.94 961 976.5C961 985.061 954.061 992 945.5 992C936.94 992 930 985.061 930 976.5C930 967.94 936.94 961 945.5 961Z" fill="#1E1E1E"/>
<path d="M356.5 992C365.061 992 372 998.94 372 1007.5C372 1016.06 365.061 1023 356.5 1023C347.94 1023 341 1016.06 341 1007.5C341 998.94 347.94 992 356.5 992Z" fill="#1E1E1E"/>
<path d="M387.5 992C396.061 992 403 998.94 403 1007.5C403 1016.06 396.061 1023 387.5 1023C378.94 1023 372 1016.06 372 1007.5C372 998.94 378.94 992 387.5 992Z" fill="#1E1E1E"/>
<path d="M418.5 992C427.061 992 434 998.94 434 1007.5C434 1016.06 427.061 1023 418.5 1023C409.94 1023 403 1016.06 403 1007.5C403 998.94 409.94 992 418.5 992Z" fill="#1E1E1E"/>
<path d="M511.5 992C520.061 992 527 998.94 527 1007.5C527 1016.06 520.061 1023 511.5 1023C502.94 1023 496 1016.06 496 1007.5C496 998.94 502.94 992 511.5 992Z" fill="#1E1E1E"/>
<path d="M666.5 992C675.061 992 682 998.94 682 1007.5C682 1016.06 675.061 1023 666.5 1023C657.94 1023 651 1016.06 651 1007.5C651 998.94 657.94 992 666.5 992Z" fill="#1E1E1E"/>
<path d="M697.5 992C706.061 992 713 998.94 713 1007.5C713 1016.06 706.061 1023 697.5 1023C688.94 1023 682 1016.06 682 1007.5C682 998.94 688.94 992 697.5 992Z" fill="#1E1E1E"/>
<path d="M728.5 992C737.061 992 744 998.94 744 1007.5C744 1016.06 737.061 1023 728.5 1023C719.94 1023 713 1016.06 713 1007.5C713 998.94 719.94 992 728.5 992Z" fill="#1E1E1E"/>
<path d="M759.5 992C768.061 992 775 998.94 775 1007.5C775 1016.06 768.061 1023 759.5 1023C750.94 1023 744 1016.06 744 1007.5C744 998.94 750.94 992 759.5 992Z" fill="#1E1E1E"/>
<path d="M790.5 992C799.061 992 806 998.94 806 1007.5C806 1016.06 799.061 1023 790.5 1023C781.94 1023 775 1016.06 775 1007.5C775 998.94 781.94 992 790.5 992Z" fill="#1E1E1E"/>
<path d="M852.5 992C861.061 992 868 998.94 868 1007.5C868 1016.06 861.061 1023 852.5 1023C843.94 1023 837 1016.06 837 1007.5C837 998.94 843.94 992 852.5 992Z" fill="#1E1E1E"/>
<path d="M945.5 992C954.061 992 961 998.94 961 1007.5C961 1016.06 954.061 1023 945.5 1023C936.94 1023 930 1016.06 930 1007.5C930 998.94 936.94 992 945.5 992Z" fill="#1E1E1E"/>
<path d="M1007.5 992C1016.06 992 1023 998.94 1023 1007.5C1023 1016.06 1016.06 1023 1007.5 1023C998.94 1023 992 1016.06 992 1007.5C992 998.94 998.94 992 1007.5 992Z" fill="#1E1E1E"/>
<path d="M142.914 0.017334H74.086C40.5421 0.017334 12.1238 22.1795 3.038 52.4706C2.09839 55.6041 1.36493 58.8243 0.85498 62.1162C0.29295 65.7488 0 69.4682 0 73.2548V143.717C0 184.12 33.2444 216.976 74.086 216.976L108.5 216.983L142.914 216.974C183.753 216.974 217 184.118 217 143.715V73.2548C217 32.8711 183.756 0.017334 142.914 0.017334ZM184.45 143.717C184.45 166.163 165.818 184.426 142.905 184.426L108.5 184.433L74.0947 184.424C51.1816 184.424 32.55 166.161 32.55 143.717V73.2548C32.55 66.2436 34.3685 59.6424 37.5692 53.8746C40.6506 48.3259 45.0101 43.554 50.2594 39.941C57.0081 35.295 65.2259 32.5673 74.0838 32.5673H142.914C165.818 32.5673 184.45 50.8192 184.45 73.2548V143.717Z" fill="#1E1E1E"/>
<path d="M948.914 0.017334H880.086C846.542 0.017334 818.124 22.1795 809.038 52.4706C808.098 55.6041 807.365 58.8243 806.855 62.1162C806.293 65.7488 806 69.4682 806 73.2548V143.717C806 184.12 839.244 216.976 880.086 216.976L914.5 216.983L948.914 216.974C989.753 216.974 1023 184.118 1023 143.715V73.2548C1023 32.8711 989.756 0.017334 948.914 0.017334ZM990.45 143.717C990.45 166.163 971.818 184.426 948.905 184.426L914.5 184.433L880.095 184.424C857.182 184.424 838.55 166.161 838.55 143.717V73.2548C838.55 66.2436 840.368 59.6424 843.569 53.8746C846.651 48.3259 851.01 43.554 856.259 39.941C863.008 35.295 871.226 32.5673 880.084 32.5673H948.914C971.818 32.5673 990.45 50.8192 990.45 73.2548V143.717Z" fill="#1E1E1E"/>
<path d="M142.914 806.017H74.086C40.5421 806.017 12.1238 828.18 3.038 858.471C2.09839 861.604 1.36493 864.824 0.85498 868.116C0.29295 871.749 0 875.468 0 879.255V949.717C0 990.12 33.2444 1022.98 74.086 1022.98L108.5 1022.98L142.914 1022.97C183.753 1022.97 217 990.118 217 949.715V879.255C217 838.871 183.756 806.017 142.914 806.017ZM184.45 949.717C184.45 972.163 165.818 990.426 142.905 990.426L108.5 990.433L74.0947 990.424C51.1816 990.424 32.55 972.161 32.55 949.717V879.255C32.55 872.244 34.3685 865.642 37.5692 859.875C40.6506 854.326 45.0101 849.554 50.2594 845.941C57.0081 841.295 65.2259 838.567 74.0838 838.567H142.914C165.818 838.567 184.45 856.819 184.45 879.255V949.717Z" fill="#1E1E1E"/>
<path d="M107.588 153.176C132.766 153.176 153.176 132.766 153.176 107.588C153.176 82.4105 132.766 62 107.588 62C82.4105 62 62 82.4105 62 107.588C62 132.766 82.4105 153.176 107.588 153.176Z" fill="#1E1E1E"/>
<path d="M913.588 153.176C938.766 153.176 959.176 132.766 959.176 107.588C959.176 82.4105 938.766 62 913.588 62C888.411 62 868 82.4105 868 107.588C868 132.766 888.411 153.176 913.588 153.176Z" fill="#1E1E1E"/>
<path d="M107.588 959.176C132.766 959.176 153.176 938.766 153.176 913.588C153.176 888.411 132.766 868 107.588 868C82.4105 868 62 888.411 62 913.588C62 938.766 82.4105 959.176 107.588 959.176Z" fill="#1E1E1E"/>
<g filter="url(#filter0_d_24_23236)">
<path d="M487.72 511.589C487.72 538.333 466.045 560.012 439.308 560.012C412.57 560.012 390.895 538.333 390.895 511.589C390.895 484.846 412.57 463.166 439.308 463.166C466.045 463.166 487.72 484.846 487.72 511.589Z" fill="#1E1E1E"/>
<path d="M523.668 508.974C525.896 549.941 497.883 582.828 462.564 593.009L578.889 593.125C581.627 592.457 582.583 591.662 583.408 589.606L631.231 436.719C632.603 431.772 632.305 429.893 627.725 429.881C623.99 429.872 602.73 429.878 595.019 429.88C592.64 429.798 591.954 430.713 591.193 433.552L558.156 550.8L526.342 433.936C525.453 430.7 524.002 429.857 519.895 429.881H462.564C499.162 443.349 521.44 468.007 523.668 508.974Z" fill="#1E1E1E"/>
</g>
<defs>
<filter id="filter0_d_24_23236" x="390.271" y="429.875" width="242.302" height="164.497" filterUnits="userSpaceOnUse" color-interpolation-filters="sRGB">
<feFlood flood-opacity="0" result="BackgroundImageFix"/>
<feColorMatrix in="SourceAlpha" type="matrix" values="0 0 0 0 0 0 0 0 0 0 0 0 0 0 0 0 0 0 127 0" result="hardAlpha"/>
<feOffset dy="0.623685"/>
<feGaussianBlur stdDeviation="0.311843"/>
<feComposite in2="hardAlpha" operator="out"/>
<feColorMatrix type="matrix" values="0 0 0 0 0 0 0 0 0 0 0 0 0 0 0 0 0 0 0.25 0"/>
<feBlend mode="normal" in2="BackgroundImageFix" result="effect1_dropShadow_24_23236"/>
<feBlend mode="normal" in="SourceGraphic" in2="effect1_dropShadow_24_23236" result="shape"/>
</filter>
</defs>
</svg>
