<svg width="1023" height="1023" viewBox="0 0 1023 1023" fill="none" xmlns="http://www.w3.org/2000/svg">
<path d="M263.5 0C272.061 0 279 6.93966 279 15.5C279 24.0608 272.061 31 263.5 31C254.94 31 248 24.0608 248 15.5C248 6.93966 254.94 0 263.5 0Z" fill="#1E1E1E"/>
<path d="M294.5 0C303.061 0 310 6.93966 310 15.5C310 24.0608 303.061 31 294.5 31C285.94 31 279 24.0608 279 15.5C279 6.93966 285.94 0 294.5 0Z" fill="#1E1E1E"/>
<path d="M449.5 0C458.061 0 465 6.93966 465 15.5C465 24.0608 458.061 31 449.5 31C440.94 31 434 24.0608 434 15.5C434 6.93966 440.94 0 449.5 0Z" fill="#1E1E1E"/>
<path d="M511.5 0C520.061 0 527 6.93966 527 15.5C527 24.0608 520.061 31 511.5 31C502.94 31 496 24.0608 496 15.5C496 6.93966 502.94 0 511.5 0Z" fill="#1E1E1E"/>
<path d="M573.5 0C582.061 0 589 6.93966 589 15.5C589 24.0608 582.061 31 573.5 31C564.94 31 558 24.0608 558 15.5C558 6.93966 564.94 0 573.5 0Z" fill="#1E1E1E"/>
<path d="M666.5 0C675.061 0 682 6.93966 682 15.5C682 24.0608 675.061 31 666.5 31C657.94 31 651 24.0608 651 15.5C651 6.93966 657.94 0 666.5 0Z" fill="#1E1E1E"/>
<path d="M697.5 0C706.061 0 713 6.93966 713 15.5C713 24.0608 706.061 31 697.5 31C688.94 31 682 24.0608 682 15.5C682 6.93966 688.94 0 697.5 0Z" fill="#1E1E1E"/>
<path d="M728.5 0C737.061 0 744 6.93966 744 15.5C744 24.0608 737.061 31 728.5 31C719.94 31 713 24.0608 713 15.5C713 6.93966 719.94 0 728.5 0Z" fill="#1E1E1E"/>
<path d="M759.5 0C768.061 0 775 6.93966 775 15.5C775 24.0608 768.061 31 759.5 31C750.94 31 744 24.0608 744 15.5C744 6.93966 750.94 0 759.5 0Z" fill="#1E1E1E"/>
<path d="M263.5 31C272.061 31 279 37.9397 279 46.5C279 55.0608 272.061 62 263.5 62C254.94 62 248 55.0608 248 46.5C248 37.9397 254.94 31 263.5 31Z" fill="#1E1E1E"/>
<path d="M294.5 31C303.061 31 310 37.9397 310 46.5C310 55.0608 303.061 62 294.5 62C285.94 62 279 55.0608 279 46.5C279 37.9397 285.94 31 294.5 31Z" fill="#1E1E1E"/>
<path d="M325.5 31C334.061 31 341 37.9397 341 46.5C341 55.0608 334.061 62 325.5 62C316.94 62 310 55.0608 310 46.5C310 37.9397 316.94 31 325.5 31Z" fill="#1E1E1E"/>
<path d="M418.5 31C427.061 31 434 37.9397 434 46.5C434 55.0608 427.061 62 418.5 62C409.94 62 403 55.0608 403 46.5C403 37.9397 409.94 31 418.5 31Z" fill="#1E1E1E"/>
<path d="M449.5 31C458.061 31 465 37.9397 465 46.5C465 55.0608 458.061 62 449.5 62C440.94 62 434 55.0608 434 46.5C434 37.9397 440.94 31 449.5 31Z" fill="#1E1E1E"/>
<path d="M511.5 31C520.061 31 527 37.9397 527 46.5C527 55.0608 520.061 62 511.5 62C502.94 62 496 55.0608 496 46.5C496 37.9397 502.94 31 511.5 31Z" fill="#1E1E1E"/>
<path d="M542.5 31C551.061 31 558 37.9397 558 46.5C558 55.0608 551.061 62 542.5 62C533.94 62 527 55.0608 527 46.5C527 37.9397 533.94 31 542.5 31Z" fill="#1E1E1E"/>
<path d="M573.5 31C582.061 31 589 37.9397 589 46.5C589 55.0608 582.061 62 573.5 62C564.94 62 558 55.0608 558 46.5C558 37.9397 564.94 31 573.5 31Z" fill="#1E1E1E"/>
<path d="M728.5 31C737.061 31 744 37.9397 744 46.5C744 55.0608 737.061 62 728.5 62C719.94 62 713 55.0608 713 46.5C713 37.9397 719.94 31 728.5 31Z" fill="#1E1E1E"/>
<path d="M294.5 62C303.061 62 310 68.9397 310 77.5C310 86.0608 303.061 93 294.5 93C285.94 93 279 86.0608 279 77.5C279 68.9397 285.94 62 294.5 62Z" fill="#1E1E1E"/>
<path d="M356.5 62C365.061 62 372 68.9397 372 77.5C372 86.0608 365.061 93 356.5 93C347.94 93 341 86.0608 341 77.5C341 68.9397 347.94 62 356.5 62Z" fill="#1E1E1E"/>
<path d="M449.5 62C458.061 62 465 68.9397 465 77.5C465 86.0608 458.061 93 449.5 93C440.94 93 434 86.0608 434 77.5C434 68.9397 440.94 62 449.5 62Z" fill="#1E1E1E"/>
<path d="M542.5 62C551.061 62 558 68.9397 558 77.5C558 86.0608 551.061 93 542.5 93C533.94 93 527 86.0608 527 77.5C527 68.9397 533.94 62 542.5 62Z" fill="#1E1E1E"/>
<path d="M573.5 62C582.061 62 589 68.9397 589 77.5C589 86.0608 582.061 93 573.5 93C564.94 93 558 86.0608 558 77.5C558 68.9397 564.94 62 573.5 62Z" fill="#1E1E1E"/>
<path d="M697.5 62C706.061 62 713 68.9397 713 77.5C713 86.0608 706.061 93 697.5 93C688.94 93 682 86.0608 682 77.5C682 68.9397 688.94 62 697.5 62Z" fill="#1E1E1E"/>
<path d="M759.5 62C768.061 62 775 68.9397 775 77.5C775 86.0608 768.061 93 759.5 93C750.94 93 744 86.0608 744 77.5C744 68.9397 750.94 62 759.5 62Z" fill="#1E1E1E"/>
<path d="M263.5 93C272.061 93 279 99.9397 279 108.5C279 117.061 272.061 124 263.5 124C254.94 124 248 117.061 248 108.5C248 99.9397 254.94 93 263.5 93Z" fill="#1E1E1E"/>
<path d="M294.5 93C303.061 93 310 99.9397 310 108.5C310 117.061 303.061 124 294.5 124C285.94 124 279 117.061 279 108.5C279 99.9397 285.94 93 294.5 93Z" fill="#1E1E1E"/>
<path d="M325.5 93C334.061 93 341 99.9397 341 108.5C341 117.061 334.061 124 325.5 124C316.94 124 310 117.061 310 108.5C310 99.9397 316.94 93 325.5 93Z" fill="#1E1E1E"/>
<path d="M356.5 93C365.061 93 372 99.9397 372 108.5C372 117.061 365.061 124 356.5 124C347.94 124 341 117.061 341 108.5C341 99.9397 347.94 93 356.5 93Z" fill="#1E1E1E"/>
<path d="M511.5 93C520.061 93 527 99.9397 527 108.5C527 117.061 520.061 124 511.5 124C502.94 124 496 117.061 496 108.5C496 99.9397 502.94 93 511.5 93Z" fill="#1E1E1E"/>
<path d="M573.5 93C582.061 93 589 99.9397 589 108.5C589 117.061 582.061 124 573.5 124C564.94 124 558 117.061 558 108.5C558 99.9397 564.94 93 573.5 93Z" fill="#1E1E1E"/>
<path d="M604.5 93C613.061 93 620 99.9397 620 108.5C620 117.061 613.061 124 604.5 124C595.94 124 589 117.061 589 108.5C589 99.9397 595.94 93 604.5 93Z" fill="#1E1E1E"/>
<path d="M635.5 93C644.061 93 651 99.9397 651 108.5C651 117.061 644.061 124 635.5 124C626.94 124 620 117.061 620 108.5C620 99.9397 626.94 93 635.5 93Z" fill="#1E1E1E"/>
<path d="M697.5 93C706.061 93 713 99.9397 713 108.5C713 117.061 706.061 124 697.5 124C688.94 124 682 117.061 682 108.5C682 99.9397 688.94 93 697.5 93Z" fill="#1E1E1E"/>
<path d="M263.5 124C272.061 124 279 130.94 279 139.5C279 148.061 272.061 155 263.5 155C254.94 155 248 148.061 248 139.5C248 130.94 254.94 124 263.5 124Z" fill="#1E1E1E"/>
<path d="M294.5 124C303.061 124 310 130.94 310 139.5C310 148.061 303.061 155 294.5 155C285.94 155 279 148.061 279 139.5C279 130.94 285.94 124 294.5 124Z" fill="#1E1E1E"/>
<path d="M418.5 124C427.061 124 434 130.94 434 139.5C434 148.061 427.061 155 418.5 155C409.94 155 403 148.061 403 139.5C403 130.94 409.94 124 418.5 124Z" fill="#1E1E1E"/>
<path d="M480.5 124C489.061 124 496 130.94 496 139.5C496 148.061 489.061 155 480.5 155C471.94 155 465 148.061 465 139.5C465 130.94 471.94 124 480.5 124Z" fill="#1E1E1E"/>
<path d="M511.5 124C520.061 124 527 130.94 527 139.5C527 148.061 520.061 155 511.5 155C502.94 155 496 148.061 496 139.5C496 130.94 502.94 124 511.5 124Z" fill="#1E1E1E"/>
<path d="M604.5 124C613.061 124 620 130.94 620 139.5C620 148.061 613.061 155 604.5 155C595.94 155 589 148.061 589 139.5C589 130.94 595.94 124 604.5 124Z" fill="#1E1E1E"/>
<path d="M666.5 124C675.061 124 682 130.94 682 139.5C682 148.061 675.061 155 666.5 155C657.94 155 651 148.061 651 139.5C651 130.94 657.94 124 666.5 124Z" fill="#1E1E1E"/>
<path d="M263.5 155C272.061 155 279 161.94 279 170.5C279 179.061 272.061 186 263.5 186C254.94 186 248 179.061 248 170.5C248 161.94 254.94 155 263.5 155Z" fill="#1E1E1E"/>
<path d="M325.5 155C334.061 155 341 161.94 341 170.5C341 179.061 334.061 186 325.5 186C316.94 186 310 179.061 310 170.5C310 161.94 316.94 155 325.5 155Z" fill="#1E1E1E"/>
<path d="M356.5 155C365.061 155 372 161.94 372 170.5C372 179.061 365.061 186 356.5 186C347.94 186 341 179.061 341 170.5C341 161.94 347.94 155 356.5 155Z" fill="#1E1E1E"/>
<path d="M387.5 155C396.061 155 403 161.94 403 170.5C403 179.061 396.061 186 387.5 186C378.94 186 372 179.061 372 170.5C372 161.94 378.94 155 387.5 155Z" fill="#1E1E1E"/>
<path d="M418.5 155C427.061 155 434 161.94 434 170.5C434 179.061 427.061 186 418.5 186C409.94 186 403 179.061 403 170.5C403 161.94 409.94 155 418.5 155Z" fill="#1E1E1E"/>
<path d="M511.5 155C520.061 155 527 161.94 527 170.5C527 179.061 520.061 186 511.5 186C502.94 186 496 179.061 496 170.5C496 161.94 502.94 155 511.5 155Z" fill="#1E1E1E"/>
<path d="M542.5 155C551.061 155 558 161.94 558 170.5C558 179.061 551.061 186 542.5 186C533.94 186 527 179.061 527 170.5C527 161.94 533.94 155 542.5 155Z" fill="#1E1E1E"/>
<path d="M573.5 155C582.061 155 589 161.94 589 170.5C589 179.061 582.061 186 573.5 186C564.94 186 558 179.061 558 170.5C558 161.94 564.94 155 573.5 155Z" fill="#1E1E1E"/>
<path d="M604.5 155C613.061 155 620 161.94 620 170.5C620 179.061 613.061 186 604.5 186C595.94 186 589 179.061 589 170.5C589 161.94 595.94 155 604.5 155Z" fill="#1E1E1E"/>
<path d="M635.5 155C644.061 155 651 161.94 651 170.5C651 179.061 644.061 186 635.5 186C626.94 186 620 179.061 620 170.5C620 161.94 626.94 155 635.5 155Z" fill="#1E1E1E"/>
<path d="M697.5 155C706.061 155 713 161.94 713 170.5C713 179.061 706.061 186 697.5 186C688.94 186 682 179.061 682 170.5C682 161.94 688.94 155 697.5 155Z" fill="#1E1E1E"/>
<path d="M728.5 155C737.061 155 744 161.94 744 170.5C744 179.061 737.061 186 728.5 186C719.94 186 713 179.061 713 170.5C713 161.94 719.94 155 728.5 155Z" fill="#1E1E1E"/>
<path d="M263.5 186C272.061 186 279 192.94 279 201.5C279 210.061 272.061 217 263.5 217C254.94 217 248 210.061 248 201.5C248 192.94 254.94 186 263.5 186Z" fill="#1E1E1E"/>
<path d="M325.5 186C334.061 186 341 192.94 341 201.5C341 210.061 334.061 217 325.5 217C316.94 217 310 210.061 310 201.5C310 192.94 316.94 186 325.5 186Z" fill="#1E1E1E"/>
<path d="M387.5 186C396.061 186 403 192.94 403 201.5C403 210.061 396.061 217 387.5 217C378.94 217 372 210.061 372 201.5C372 192.94 378.94 186 387.5 186Z" fill="#1E1E1E"/>
<path d="M449.5 186C458.061 186 465 192.94 465 201.5C465 210.061 458.061 217 449.5 217C440.94 217 434 210.061 434 201.5C434 192.94 440.94 186 449.5 186Z" fill="#1E1E1E"/>
<path d="M511.5 186C520.061 186 527 192.94 527 201.5C527 210.061 520.061 217 511.5 217C502.94 217 496 210.061 496 201.5C496 192.94 502.94 186 511.5 186Z" fill="#1E1E1E"/>
<path d="M573.5 186C582.061 186 589 192.94 589 201.5C589 210.061 582.061 217 573.5 217C564.94 217 558 210.061 558 201.5C558 192.94 564.94 186 573.5 186Z" fill="#1E1E1E"/>
<path d="M635.5 186C644.061 186 651 192.94 651 201.5C651 210.061 644.061 217 635.5 217C626.94 217 620 210.061 620 201.5C620 192.94 626.94 186 635.5 186Z" fill="#1E1E1E"/>
<path d="M697.5 186C706.061 186 713 192.94 713 201.5C713 210.061 706.061 217 697.5 217C688.94 217 682 210.061 682 201.5C682 192.94 688.94 186 697.5 186Z" fill="#1E1E1E"/>
<path d="M759.5 186C768.061 186 775 192.94 775 201.5C775 210.061 768.061 217 759.5 217C750.94 217 744 210.061 744 201.5C744 192.94 750.94 186 759.5 186Z" fill="#1E1E1E"/>
<path d="M325.5 217C334.061 217 341 223.94 341 232.5C341 241.061 334.061 248 325.5 248C316.94 248 310 241.061 310 232.5C310 223.94 316.94 217 325.5 217Z" fill="#1E1E1E"/>
<path d="M387.5 217C396.061 217 403 223.94 403 232.5C403 241.061 396.061 248 387.5 248C378.94 248 372 241.061 372 232.5C372 223.94 378.94 217 387.5 217Z" fill="#1E1E1E"/>
<path d="M418.5 217C427.061 217 434 223.94 434 232.5C434 241.061 427.061 248 418.5 248C409.94 248 403 241.061 403 232.5C403 223.94 409.94 217 418.5 217Z" fill="#1E1E1E"/>
<path d="M480.5 217C489.061 217 496 223.94 496 232.5C496 241.061 489.061 248 480.5 248C471.94 248 465 241.061 465 232.5C465 223.94 471.94 217 480.5 217Z" fill="#1E1E1E"/>
<path d="M511.5 217C520.061 217 527 223.94 527 232.5C527 241.061 520.061 248 511.5 248C502.94 248 496 241.061 496 232.5C496 223.94 502.94 217 511.5 217Z" fill="#1E1E1E"/>
<path d="M542.5 217C551.061 217 558 223.94 558 232.5C558 241.061 551.061 248 542.5 248C533.94 248 527 241.061 527 232.5C527 223.94 533.94 217 542.5 217Z" fill="#1E1E1E"/>
<path d="M573.5 217C582.061 217 589 223.94 589 232.5C589 241.061 582.061 248 573.5 248C564.94 248 558 241.061 558 232.5C558 223.94 564.94 217 573.5 217Z" fill="#1E1E1E"/>
<path d="M604.5 217C613.061 217 620 223.94 620 232.5C620 241.061 613.061 248 604.5 248C595.94 248 589 241.061 589 232.5C589 223.94 595.94 217 604.5 217Z" fill="#1E1E1E"/>
<path d="M635.5 217C644.061 217 651 223.94 651 232.5C651 241.061 644.061 248 635.5 248C626.94 248 620 241.061 620 232.5C620 223.94 626.94 217 635.5 217Z" fill="#1E1E1E"/>
<path d="M666.5 217C675.061 217 682 223.94 682 232.5C682 241.061 675.061 248 666.5 248C657.94 248 651 241.061 651 232.5C651 223.94 657.94 217 666.5 217Z" fill="#1E1E1E"/>
<path d="M759.5 217C768.061 217 775 223.94 775 232.5C775 241.061 768.061 248 759.5 248C750.94 248 744 241.061 744 232.5C744 223.94 750.94 217 759.5 217Z" fill="#1E1E1E"/>
<path d="M108.5 248C117.061 248 124 254.94 124 263.5C124 272.061 117.061 279 108.5 279C99.9397 279 93 272.061 93 263.5C93 254.94 99.9397 248 108.5 248Z" fill="#1E1E1E"/>
<path d="M201.5 248C210.061 248 217 254.94 217 263.5C217 272.061 210.061 279 201.5 279C192.94 279 186 272.061 186 263.5C186 254.94 192.94 248 201.5 248Z" fill="#1E1E1E"/>
<path d="M294.5 248C303.061 248 310 254.94 310 263.5C310 272.061 303.061 279 294.5 279C285.94 279 279 272.061 279 263.5C279 254.94 285.94 248 294.5 248Z" fill="#1E1E1E"/>
<path d="M325.5 248C334.061 248 341 254.94 341 263.5C341 272.061 334.061 279 325.5 279C316.94 279 310 272.061 310 263.5C310 254.94 316.94 248 325.5 248Z" fill="#1E1E1E"/>
<path d="M356.5 248C365.061 248 372 254.94 372 263.5C372 272.061 365.061 279 356.5 279C347.94 279 341 272.061 341 263.5C341 254.94 347.94 248 356.5 248Z" fill="#1E1E1E"/>
<path d="M387.5 248C396.061 248 403 254.94 403 263.5C403 272.061 396.061 279 387.5 279C378.94 279 372 272.061 372 263.5C372 254.94 378.94 248 387.5 248Z" fill="#1E1E1E"/>
<path d="M418.5 248C427.061 248 434 254.94 434 263.5C434 272.061 427.061 279 418.5 279C409.94 279 403 272.061 403 263.5C403 254.94 409.94 248 418.5 248Z" fill="#1E1E1E"/>
<path d="M480.5 248C489.061 248 496 254.94 496 263.5C496 272.061 489.061 279 480.5 279C471.94 279 465 272.061 465 263.5C465 254.94 471.94 248 480.5 248Z" fill="#1E1E1E"/>
<path d="M511.5 248C520.061 248 527 254.94 527 263.5C527 272.061 520.061 279 511.5 279C502.94 279 496 272.061 496 263.5C496 254.94 502.94 248 511.5 248Z" fill="#1E1E1E"/>
<path d="M573.5 248C582.061 248 589 254.94 589 263.5C589 272.061 582.061 279 573.5 279C564.94 279 558 272.061 558 263.5C558 254.94 564.94 248 573.5 248Z" fill="#1E1E1E"/>
<path d="M604.5 248C613.061 248 620 254.94 620 263.5C620 272.061 613.061 279 604.5 279C595.94 279 589 272.061 589 263.5C589 254.94 595.94 248 604.5 248Z" fill="#1E1E1E"/>
<path d="M666.5 248C675.061 248 682 254.94 682 263.5C682 272.061 675.061 279 666.5 279C657.94 279 651 272.061 651 263.5C651 254.94 657.94 248 666.5 248Z" fill="#1E1E1E"/>
<path d="M759.5 248C768.061 248 775 254.94 775 263.5C775 272.061 768.061 279 759.5 279C750.94 279 744 272.061 744 263.5C744 254.94 750.94 248 759.5 248Z" fill="#1E1E1E"/>
<path d="M852.5 248C861.061 248 868 254.94 868 263.5C868 272.061 861.061 279 852.5 279C843.94 279 837 272.061 837 263.5C837 254.94 843.94 248 852.5 248Z" fill="#1E1E1E"/>
<path d="M883.5 248C892.061 248 899 254.94 899 263.5C899 272.061 892.061 279 883.5 279C874.94 279 868 272.061 868 263.5C868 254.94 874.94 248 883.5 248Z" fill="#1E1E1E"/>
<path d="M914.5 248C923.061 248 930 254.94 930 263.5C930 272.061 923.061 279 914.5 279C905.94 279 899 272.061 899 263.5C899 254.94 905.94 248 914.5 248Z" fill="#1E1E1E"/>
<path d="M976.5 248C985.061 248 992 254.94 992 263.5C992 272.061 985.061 279 976.5 279C967.94 279 961 272.061 961 263.5C961 254.94 967.94 248 976.5 248Z" fill="#1E1E1E"/>
<path d="M1007.5 248C1016.06 248 1023 254.94 1023 263.5C1023 272.061 1016.06 279 1007.5 279C998.94 279 992 272.061 992 263.5C992 254.94 998.94 248 1007.5 248Z" fill="#1E1E1E"/>
<path d="M46.5 279C55.0608 279 62 285.94 62 294.5C62 303.061 55.0608 310 46.5 310C37.9397 310 31 303.061 31 294.5C31 285.94 37.9397 279 46.5 279Z" fill="#1E1E1E"/>
<path d="M232.5 279C241.061 279 248 285.94 248 294.5C248 303.061 241.061 310 232.5 310C223.94 310 217 303.061 217 294.5C217 285.94 223.94 279 232.5 279Z" fill="#1E1E1E"/>
<path d="M418.5 279C427.061 279 434 285.94 434 294.5C434 303.061 427.061 310 418.5 310C409.94 310 403 303.061 403 294.5C403 285.94 409.94 279 418.5 279Z" fill="#1E1E1E"/>
<path d="M449.5 279C458.061 279 465 285.94 465 294.5C465 303.061 458.061 310 449.5 310C440.94 310 434 303.061 434 294.5C434 285.94 440.94 279 449.5 279Z" fill="#1E1E1E"/>
<path d="M480.5 279C489.061 279 496 285.94 496 294.5C496 303.061 489.061 310 480.5 310C471.94 310 465 303.061 465 294.5C465 285.94 471.94 279 480.5 279Z" fill="#1E1E1E"/>
<path d="M573.5 279C582.061 279 589 285.94 589 294.5C589 303.061 582.061 310 573.5 310C564.94 310 558 303.061 558 294.5C558 285.94 564.94 279 573.5 279Z" fill="#1E1E1E"/>
<path d="M604.5 279C613.061 279 620 285.94 620 294.5C620 303.061 613.061 310 604.5 310C595.94 310 589 303.061 589 294.5C589 285.94 595.94 279 604.5 279Z" fill="#1E1E1E"/>
<path d="M635.5 279C644.061 279 651 285.94 651 294.5C651 303.061 644.061 310 635.5 310C626.94 310 620 303.061 620 294.5C620 285.94 626.94 279 635.5 279Z" fill="#1E1E1E"/>
<path d="M666.5 279C675.061 279 682 285.94 682 294.5C682 303.061 675.061 310 666.5 310C657.94 310 651 303.061 651 294.5C651 285.94 657.94 279 666.5 279Z" fill="#1E1E1E"/>
<path d="M759.5 279C768.061 279 775 285.94 775 294.5C775 303.061 768.061 310 759.5 310C750.94 310 744 303.061 744 294.5C744 285.94 750.94 279 759.5 279Z" fill="#1E1E1E"/>
<path d="M821.5 279C830.061 279 837 285.94 837 294.5C837 303.061 830.061 310 821.5 310C812.94 310 806 303.061 806 294.5C806 285.94 812.94 279 821.5 279Z" fill="#1E1E1E"/>
<path d="M1007.5 279C1016.06 279 1023 285.94 1023 294.5C1023 303.061 1016.06 310 1007.5 310C998.94 310 992 303.061 992 294.5C992 285.94 998.94 279 1007.5 279Z" fill="#1E1E1E"/>
<path d="M15.5 310C24.0608 310 31 316.94 31 325.5C31 334.061 24.0608 341 15.5 341C6.93966 341 0 334.061 0 325.5C0 316.94 6.93966 310 15.5 310Z" fill="#1E1E1E"/>
<path d="M108.5 310C117.061 310 124 316.94 124 325.5C124 334.061 117.061 341 108.5 341C99.9397 341 93 334.061 93 325.5C93 316.94 99.9397 310 108.5 310Z" fill="#1E1E1E"/>
<path d="M139.5 310C148.061 310 155 316.94 155 325.5C155 334.061 148.061 341 139.5 341C130.94 341 124 334.061 124 325.5C124 316.94 130.94 310 139.5 310Z" fill="#1E1E1E"/>
<path d="M170.5 310C179.061 310 186 316.94 186 325.5C186 334.061 179.061 341 170.5 341C161.94 341 155 334.061 155 325.5C155 316.94 161.94 310 170.5 310Z" fill="#1E1E1E"/>
<path d="M201.5 310C210.061 310 217 316.94 217 325.5C217 334.061 210.061 341 201.5 341C192.94 341 186 334.061 186 325.5C186 316.94 192.94 310 201.5 310Z" fill="#1E1E1E"/>
<path d="M232.5 310C241.061 310 248 316.94 248 325.5C248 334.061 241.061 341 232.5 341C223.94 341 217 334.061 217 325.5C217 316.94 223.94 310 232.5 310Z" fill="#1E1E1E"/>
<path d="M263.5 310C272.061 310 279 316.94 279 325.5C279 334.061 272.061 341 263.5 341C254.94 341 248 334.061 248 325.5C248 316.94 254.94 310 263.5 310Z" fill="#1E1E1E"/>
<path d="M356.5 310C365.061 310 372 316.94 372 325.5C372 334.061 365.061 341 356.5 341C347.94 341 341 334.061 341 325.5C341 316.94 347.94 310 356.5 310Z" fill="#1E1E1E"/>
<path d="M387.5 310C396.061 310 403 316.94 403 325.5C403 334.061 396.061 341 387.5 341C378.94 341 372 334.061 372 325.5C372 316.94 378.94 310 387.5 310Z" fill="#1E1E1E"/>
<path d="M418.5 310C427.061 310 434 316.94 434 325.5C434 334.061 427.061 341 418.5 341C409.94 341 403 334.061 403 325.5C403 316.94 409.94 310 418.5 310Z" fill="#1E1E1E"/>
<path d="M449.5 310C458.061 310 465 316.94 465 325.5C465 334.061 458.061 341 449.5 341C440.94 341 434 334.061 434 325.5C434 316.94 440.94 310 449.5 310Z" fill="#1E1E1E"/>
<path d="M480.5 310C489.061 310 496 316.94 496 325.5C496 334.061 489.061 341 480.5 341C471.94 341 465 334.061 465 325.5C465 316.94 471.94 310 480.5 310Z" fill="#1E1E1E"/>
<path d="M604.5 310C613.061 310 620 316.94 620 325.5C620 334.061 613.061 341 604.5 341C595.94 341 589 334.061 589 325.5C589 316.94 595.94 310 604.5 310Z" fill="#1E1E1E"/>
<path d="M945.5 310C954.061 310 961 316.94 961 325.5C961 334.061 954.061 341 945.5 341C936.94 341 930 334.061 930 325.5C930 316.94 936.94 310 945.5 310Z" fill="#1E1E1E"/>
<path d="M1007.5 310C1016.06 310 1023 316.94 1023 325.5C1023 334.061 1016.06 341 1007.5 341C998.94 341 992 334.061 992 325.5C992 316.94 998.94 310 1007.5 310Z" fill="#1E1E1E"/>
<path d="M15.5 341C24.0608 341 31 347.94 31 356.5C31 365.061 24.0608 372 15.5 372C6.93966 372 0 365.061 0 356.5C0 347.94 6.93966 341 15.5 341Z" fill="#1E1E1E"/>
<path d="M294.5 341C303.061 341 310 347.94 310 356.5C310 365.061 303.061 372 294.5 372C285.94 372 279 365.061 279 356.5C279 347.94 285.94 341 294.5 341Z" fill="#1E1E1E"/>
<path d="M356.5 341C365.061 341 372 347.94 372 356.5C372 365.061 365.061 372 356.5 372C347.94 372 341 365.061 341 356.5C341 347.94 347.94 341 356.5 341Z" fill="#1E1E1E"/>
<path d="M511.5 341C520.061 341 527 347.94 527 356.5C527 365.061 520.061 372 511.5 372C502.94 372 496 365.061 496 356.5C496 347.94 502.94 341 511.5 341Z" fill="#1E1E1E"/>
<path d="M573.5 341C582.061 341 589 347.94 589 356.5C589 365.061 582.061 372 573.5 372C564.94 372 558 365.061 558 356.5C558 347.94 564.94 341 573.5 341Z" fill="#1E1E1E"/>
<path d="M604.5 341C613.061 341 620 347.94 620 356.5C620 365.061 613.061 372 604.5 372C595.94 372 589 365.061 589 356.5C589 347.94 595.94 341 604.5 341Z" fill="#1E1E1E"/>
<path d="M666.5 341C675.061 341 682 347.94 682 356.5C682 365.061 675.061 372 666.5 372C657.94 372 651 365.061 651 356.5C651 347.94 657.94 341 666.5 341Z" fill="#1E1E1E"/>
<path d="M697.5 341C706.061 341 713 347.94 713 356.5C713 365.061 706.061 372 697.5 372C688.94 372 682 365.061 682 356.5C682 347.94 688.94 341 697.5 341Z" fill="#1E1E1E"/>
<path d="M728.5 341C737.061 341 744 347.94 744 356.5C744 365.061 737.061 372 728.5 372C719.94 372 713 365.061 713 356.5C713 347.94 719.94 341 728.5 341Z" fill="#1E1E1E"/>
<path d="M790.5 341C799.061 341 806 347.94 806 356.5C806 365.061 799.061 372 790.5 372C781.94 372 775 365.061 775 356.5C775 347.94 781.94 341 790.5 341Z" fill="#1E1E1E"/>
<path d="M914.5 341C923.061 341 930 347.94 930 356.5C930 365.061 923.061 372 914.5 372C905.94 372 899 365.061 899 356.5C899 347.94 905.94 341 914.5 341Z" fill="#1E1E1E"/>
<path d="M77.5 372C86.0608 372 93 378.94 93 387.5C93 396.061 86.0608 403 77.5 403C68.9397 403 62 396.061 62 387.5C62 378.94 68.9397 372 77.5 372Z" fill="#1E1E1E"/>
<path d="M108.5 372C117.061 372 124 378.94 124 387.5C124 396.061 117.061 403 108.5 403C99.9397 403 93 396.061 93 387.5C93 378.94 99.9397 372 108.5 372Z" fill="#1E1E1E"/>
<path d="M170.5 372C179.061 372 186 378.94 186 387.5C186 396.061 179.061 403 170.5 403C161.94 403 155 396.061 155 387.5C155 378.94 161.94 372 170.5 372Z" fill="#1E1E1E"/>
<path d="M201.5 372C210.061 372 217 378.94 217 387.5C217 396.061 210.061 403 201.5 403C192.94 403 186 396.061 186 387.5C186 378.94 192.94 372 201.5 372Z" fill="#1E1E1E"/>
<path d="M263.5 372C272.061 372 279 378.94 279 387.5C279 396.061 272.061 403 263.5 403C254.94 403 248 396.061 248 387.5C248 378.94 254.94 372 263.5 372Z" fill="#1E1E1E"/>
<path d="M294.5 372C303.061 372 310 378.94 310 387.5C310 396.061 303.061 403 294.5 403C285.94 403 279 396.061 279 387.5C279 378.94 285.94 372 294.5 372Z" fill="#1E1E1E"/>
<path d="M697.5 372C706.061 372 713 378.94 713 387.5C713 396.061 706.061 403 697.5 403C688.94 403 682 396.061 682 387.5C682 378.94 688.94 372 697.5 372Z" fill="#1E1E1E"/>
<path d="M759.5 372C768.061 372 775 378.94 775 387.5C775 396.061 768.061 403 759.5 403C750.94 403 744 396.061 744 387.5C744 378.94 750.94 372 759.5 372Z" fill="#1E1E1E"/>
<path d="M790.5 372C799.061 372 806 378.94 806 387.5C806 396.061 799.061 403 790.5 403C781.94 403 775 396.061 775 387.5C775 378.94 781.94 372 790.5 372Z" fill="#1E1E1E"/>
<path d="M821.5 372C830.061 372 837 378.94 837 387.5C837 396.061 830.061 403 821.5 403C812.94 403 806 396.061 806 387.5C806 378.94 812.94 372 821.5 372Z" fill="#1E1E1E"/>
<path d="M976.5 372C985.061 372 992 378.94 992 387.5C992 396.061 985.061 403 976.5 403C967.94 403 961 396.061 961 387.5C961 378.94 967.94 372 976.5 372Z" fill="#1E1E1E"/>
<path d="M1007.5 372C1016.06 372 1023 378.94 1023 387.5C1023 396.061 1016.06 403 1007.5 403C998.94 403 992 396.061 992 387.5C992 378.94 998.94 372 1007.5 372Z" fill="#1E1E1E"/>
<path d="M46.5 403C55.0608 403 62 409.94 62 418.5C62 427.061 55.0608 434 46.5 434C37.9397 434 31 427.061 31 418.5C31 409.94 37.9397 403 46.5 403Z" fill="#1E1E1E"/>
<path d="M139.5 403C148.061 403 155 409.94 155 418.5C155 427.061 148.061 434 139.5 434C130.94 434 124 427.061 124 418.5C124 409.94 130.94 403 139.5 403Z" fill="#1E1E1E"/>
<path d="M232.5 403C241.061 403 248 409.94 248 418.5C248 427.061 241.061 434 232.5 434C223.94 434 217 427.061 217 418.5C217 409.94 223.94 403 232.5 403Z" fill="#1E1E1E"/>
<path d="M294.5 403C303.061 403 310 409.94 310 418.5C310 427.061 303.061 434 294.5 434C285.94 434 279 427.061 279 418.5C279 409.94 285.94 403 294.5 403Z" fill="#1E1E1E"/>
<path d="M759.5 403C768.061 403 775 409.94 775 418.5C775 427.061 768.061 434 759.5 434C750.94 434 744 427.061 744 418.5C744 409.94 750.94 403 759.5 403Z" fill="#1E1E1E"/>
<path d="M821.5 403C830.061 403 837 409.94 837 418.5C837 427.061 830.061 434 821.5 434C812.94 434 806 427.061 806 418.5C806 409.94 812.94 403 821.5 403Z" fill="#1E1E1E"/>
<path d="M883.5 403C892.061 403 899 409.94 899 418.5C899 427.061 892.061 434 883.5 434C874.94 434 868 427.061 868 418.5C868 409.94 874.94 403 883.5 403Z" fill="#1E1E1E"/>
<path d="M945.5 403C954.061 403 961 409.94 961 418.5C961 427.061 954.061 434 945.5 434C936.94 434 930 427.061 930 418.5C930 409.94 936.94 403 945.5 403Z" fill="#1E1E1E"/>
<path d="M1007.5 403C1016.06 403 1023 409.94 1023 418.5C1023 427.061 1016.06 434 1007.5 434C998.94 434 992 427.061 992 418.5C992 409.94 998.94 403 1007.5 403Z" fill="#1E1E1E"/>
<path d="M46.5 434C55.0608 434 62 440.94 62 449.5C62 458.061 55.0608 465 46.5 465C37.9397 465 31 458.061 31 449.5C31 440.94 37.9397 434 46.5 434Z" fill="#1E1E1E"/>
<path d="M77.5 434C86.0608 434 93 440.94 93 449.5C93 458.061 86.0608 465 77.5 465C68.9397 465 62 458.061 62 449.5C62 440.94 68.9397 434 77.5 434Z" fill="#1E1E1E"/>
<path d="M108.5 434C117.061 434 124 440.94 124 449.5C124 458.061 117.061 465 108.5 465C99.9397 465 93 458.061 93 449.5C93 440.94 99.9397 434 108.5 434Z" fill="#1E1E1E"/>
<path d="M201.5 434C210.061 434 217 440.94 217 449.5C217 458.061 210.061 465 201.5 465C192.94 465 186 458.061 186 449.5C186 440.94 192.94 434 201.5 434Z" fill="#1E1E1E"/>
<path d="M232.5 434C241.061 434 248 440.94 248 449.5C248 458.061 241.061 465 232.5 465C223.94 465 217 458.061 217 449.5C217 440.94 223.94 434 232.5 434Z" fill="#1E1E1E"/>
<path d="M263.5 434C272.061 434 279 440.94 279 449.5C279 458.061 272.061 465 263.5 465C254.94 465 248 458.061 248 449.5C248 440.94 254.94 434 263.5 434Z" fill="#1E1E1E"/>
<path d="M294.5 434C303.061 434 310 440.94 310 449.5C310 458.061 303.061 465 294.5 465C285.94 465 279 458.061 279 449.5C279 440.94 285.94 434 294.5 434Z" fill="#1E1E1E"/>
<path d="M325.5 434C334.061 434 341 440.94 341 449.5C341 458.061 334.061 465 325.5 465C316.94 465 310 458.061 310 449.5C310 440.94 316.94 434 325.5 434Z" fill="#1E1E1E"/>
<path d="M728.5 434C737.061 434 744 440.94 744 449.5C744 458.061 737.061 465 728.5 465C719.94 465 713 458.061 713 449.5C713 440.94 719.94 434 728.5 434Z" fill="#1E1E1E"/>
<path d="M790.5 434C799.061 434 806 440.94 806 449.5C806 458.061 799.061 465 790.5 465C781.94 465 775 458.061 775 449.5C775 440.94 781.94 434 790.5 434Z" fill="#1E1E1E"/>
<path d="M821.5 434C830.061 434 837 440.94 837 449.5C837 458.061 830.061 465 821.5 465C812.94 465 806 458.061 806 449.5C806 440.94 812.94 434 821.5 434Z" fill="#1E1E1E"/>
<path d="M914.5 434C923.061 434 930 440.94 930 449.5C930 458.061 923.061 465 914.5 465C905.94 465 899 458.061 899 449.5C899 440.94 905.94 434 914.5 434Z" fill="#1E1E1E"/>
<path d="M976.5 434C985.061 434 992 440.94 992 449.5C992 458.061 985.061 465 976.5 465C967.94 465 961 458.061 961 449.5C961 440.94 967.94 434 976.5 434Z" fill="#1E1E1E"/>
<path d="M170.5 465C179.061 465 186 471.94 186 480.5C186 489.061 179.061 496 170.5 496C161.94 496 155 489.061 155 480.5C155 471.94 161.94 465 170.5 465Z" fill="#1E1E1E"/>
<path d="M232.5 465C241.061 465 248 471.94 248 480.5C248 489.061 241.061 496 232.5 496C223.94 496 217 489.061 217 480.5C217 471.94 223.94 465 232.5 465Z" fill="#1E1E1E"/>
<path d="M263.5 465C272.061 465 279 471.94 279 480.5C279 489.061 272.061 496 263.5 496C254.94 496 248 489.061 248 480.5C248 471.94 254.94 465 263.5 465Z" fill="#1E1E1E"/>
<path d="M294.5 465C303.061 465 310 471.94 310 480.5C310 489.061 303.061 496 294.5 496C285.94 496 279 489.061 279 480.5C279 471.94 285.94 465 294.5 465Z" fill="#1E1E1E"/>
<path d="M325.5 465C334.061 465 341 471.94 341 480.5C341 489.061 334.061 496 325.5 496C316.94 496 310 489.061 310 480.5C310 471.94 316.94 465 325.5 465Z" fill="#1E1E1E"/>
<path d="M697.5 465C706.061 465 713 471.94 713 480.5C713 489.061 706.061 496 697.5 496C688.94 496 682 489.061 682 480.5C682 471.94 688.94 465 697.5 465Z" fill="#1E1E1E"/>
<path d="M728.5 465C737.061 465 744 471.94 744 480.5C744 489.061 737.061 496 728.5 496C719.94 496 713 489.061 713 480.5C713 471.94 719.94 465 728.5 465Z" fill="#1E1E1E"/>
<path d="M821.5 465C830.061 465 837 471.94 837 480.5C837 489.061 830.061 496 821.5 496C812.94 496 806 489.061 806 480.5C806 471.94 812.94 465 821.5 465Z" fill="#1E1E1E"/>
<path d="M1007.5 465C1016.06 465 1023 471.94 1023 480.5C1023 489.061 1016.06 496 1007.5 496C998.94 496 992 489.061 992 480.5C992 471.94 998.94 465 1007.5 465Z" fill="#1E1E1E"/>
<path d="M46.5 496C55.0608 496 62 502.94 62 511.5C62 520.061 55.0608 527 46.5 527C37.9397 527 31 520.061 31 511.5C31 502.94 37.9397 496 46.5 496Z" fill="#1E1E1E"/>
<path d="M77.5 496C86.0608 496 93 502.94 93 511.5C93 520.061 86.0608 527 77.5 527C68.9397 527 62 520.061 62 511.5C62 502.94 68.9397 496 77.5 496Z" fill="#1E1E1E"/>
<path d="M139.5 496C148.061 496 155 502.94 155 511.5C155 520.061 148.061 527 139.5 527C130.94 527 124 520.061 124 511.5C124 502.94 130.94 496 139.5 496Z" fill="#1E1E1E"/>
<path d="M170.5 496C179.061 496 186 502.94 186 511.5C186 520.061 179.061 527 170.5 527C161.94 527 155 520.061 155 511.5C155 502.94 161.94 496 170.5 496Z" fill="#1E1E1E"/>
<path d="M201.5 496C210.061 496 217 502.94 217 511.5C217 520.061 210.061 527 201.5 527C192.94 527 186 520.061 186 511.5C186 502.94 192.94 496 201.5 496Z" fill="#1E1E1E"/>
<path d="M232.5 496C241.061 496 248 502.94 248 511.5C248 520.061 241.061 527 232.5 527C223.94 527 217 520.061 217 511.5C217 502.94 223.94 496 232.5 496Z" fill="#1E1E1E"/>
<path d="M263.5 496C272.061 496 279 502.94 279 511.5C279 520.061 272.061 527 263.5 527C254.94 527 248 520.061 248 511.5C248 502.94 254.94 496 263.5 496Z" fill="#1E1E1E"/>
<path d="M294.5 496C303.061 496 310 502.94 310 511.5C310 520.061 303.061 527 294.5 527C285.94 527 279 520.061 279 511.5C279 502.94 285.94 496 294.5 496Z" fill="#1E1E1E"/>
<path d="M728.5 496C737.061 496 744 502.94 744 511.5C744 520.061 737.061 527 728.5 527C719.94 527 713 520.061 713 511.5C713 502.94 719.94 496 728.5 496Z" fill="#1E1E1E"/>
<path d="M790.5 496C799.061 496 806 502.94 806 511.5C806 520.061 799.061 527 790.5 527C781.94 527 775 520.061 775 511.5C775 502.94 781.94 496 790.5 496Z" fill="#1E1E1E"/>
<path d="M821.5 496C830.061 496 837 502.94 837 511.5C837 520.061 830.061 527 821.5 527C812.94 527 806 520.061 806 511.5C806 502.94 812.94 496 821.5 496Z" fill="#1E1E1E"/>
<path d="M883.5 496C892.061 496 899 502.94 899 511.5C899 520.061 892.061 527 883.5 527C874.94 527 868 520.061 868 511.5C868 502.94 874.94 496 883.5 496Z" fill="#1E1E1E"/>
<path d="M15.5 527C24.0608 527 31 533.94 31 542.5C31 551.061 24.0608 558 15.5 558C6.93966 558 0 551.061 0 542.5C0 533.94 6.93966 527 15.5 527Z" fill="#1E1E1E"/>
<path d="M139.5 527C148.061 527 155 533.94 155 542.5C155 551.061 148.061 558 139.5 558C130.94 558 124 551.061 124 542.5C124 533.94 130.94 527 139.5 527Z" fill="#1E1E1E"/>
<path d="M170.5 527C179.061 527 186 533.94 186 542.5C186 551.061 179.061 558 170.5 558C161.94 558 155 551.061 155 542.5C155 533.94 161.94 527 170.5 527Z" fill="#1E1E1E"/>
<path d="M263.5 527C272.061 527 279 533.94 279 542.5C279 551.061 272.061 558 263.5 558C254.94 558 248 551.061 248 542.5C248 533.94 254.94 527 263.5 527Z" fill="#1E1E1E"/>
<path d="M728.5 527C737.061 527 744 533.94 744 542.5C744 551.061 737.061 558 728.5 558C719.94 558 713 551.061 713 542.5C713 533.94 719.94 527 728.5 527Z" fill="#1E1E1E"/>
<path d="M790.5 527C799.061 527 806 533.94 806 542.5C806 551.061 799.061 558 790.5 558C781.94 558 775 551.061 775 542.5C775 533.94 781.94 527 790.5 527Z" fill="#1E1E1E"/>
<path d="M945.5 527C954.061 527 961 533.94 961 542.5C961 551.061 954.061 558 945.5 558C936.94 558 930 551.061 930 542.5C930 533.94 936.94 527 945.5 527Z" fill="#1E1E1E"/>
<path d="M976.5 527C985.061 527 992 533.94 992 542.5C992 551.061 985.061 558 976.5 558C967.94 558 961 551.061 961 542.5C961 533.94 967.94 527 976.5 527Z" fill="#1E1E1E"/>
<path d="M15.5 558C24.0608 558 31 564.94 31 573.5C31 582.061 24.0608 589 15.5 589C6.93966 589 0 582.061 0 573.5C0 564.94 6.93966 558 15.5 558Z" fill="#1E1E1E"/>
<path d="M77.5 558C86.0608 558 93 564.94 93 573.5C93 582.061 86.0608 589 77.5 589C68.9397 589 62 582.061 62 573.5C62 564.94 68.9397 558 77.5 558Z" fill="#1E1E1E"/>
<path d="M139.5 558C148.061 558 155 564.94 155 573.5C155 582.061 148.061 589 139.5 589C130.94 589 124 582.061 124 573.5C124 564.94 130.94 558 139.5 558Z" fill="#1E1E1E"/>
<path d="M201.5 558C210.061 558 217 564.94 217 573.5C217 582.061 210.061 589 201.5 589C192.94 589 186 582.061 186 573.5C186 564.94 192.94 558 201.5 558Z" fill="#1E1E1E"/>
<path d="M294.5 558C303.061 558 310 564.94 310 573.5C310 582.061 303.061 589 294.5 589C285.94 589 279 582.061 279 573.5C279 564.94 285.94 558 294.5 558Z" fill="#1E1E1E"/>
<path d="M697.5 558C706.061 558 713 564.94 713 573.5C713 582.061 706.061 589 697.5 589C688.94 589 682 582.061 682 573.5C682 564.94 688.94 558 697.5 558Z" fill="#1E1E1E"/>
<path d="M821.5 558C830.061 558 837 564.94 837 573.5C837 582.061 830.061 589 821.5 589C812.94 589 806 582.061 806 573.5C806 564.94 812.94 558 821.5 558Z" fill="#1E1E1E"/>
<path d="M945.5 558C954.061 558 961 564.94 961 573.5C961 582.061 954.061 589 945.5 589C936.94 589 930 582.061 930 573.5C930 564.94 936.94 558 945.5 558Z" fill="#1E1E1E"/>
<path d="M976.5 558C985.061 558 992 564.94 992 573.5C992 582.061 985.061 589 976.5 589C967.94 589 961 582.061 961 573.5C961 564.94 967.94 558 976.5 558Z" fill="#1E1E1E"/>
<path d="M1007.5 558C1016.06 558 1023 564.94 1023 573.5C1023 582.061 1016.06 589 1007.5 589C998.94 589 992 582.061 992 573.5C992 564.94 998.94 558 1007.5 558Z" fill="#1E1E1E"/>
<path d="M77.5 589C86.0608 589 93 595.94 93 604.5C93 613.061 86.0608 620 77.5 620C68.9397 620 62 613.061 62 604.5C62 595.94 68.9397 589 77.5 589Z" fill="#1E1E1E"/>
<path d="M108.5 589C117.061 589 124 595.94 124 604.5C124 613.061 117.061 620 108.5 620C99.9397 620 93 613.061 93 604.5C93 595.94 99.9397 589 108.5 589Z" fill="#1E1E1E"/>
<path d="M139.5 589C148.061 589 155 595.94 155 604.5C155 613.061 148.061 620 139.5 620C130.94 620 124 613.061 124 604.5C124 595.94 130.94 589 139.5 589Z" fill="#1E1E1E"/>
<path d="M294.5 589C303.061 589 310 595.94 310 604.5C310 613.061 303.061 620 294.5 620C285.94 620 279 613.061 279 604.5C279 595.94 285.94 589 294.5 589Z" fill="#1E1E1E"/>
<path d="M325.5 589C334.061 589 341 595.94 341 604.5C341 613.061 334.061 620 325.5 620C316.94 620 310 613.061 310 604.5C310 595.94 316.94 589 325.5 589Z" fill="#1E1E1E"/>
<path d="M790.5 589C799.061 589 806 595.94 806 604.5C806 613.061 799.061 620 790.5 620C781.94 620 775 613.061 775 604.5C775 595.94 781.94 589 790.5 589Z" fill="#1E1E1E"/>
<path d="M883.5 589C892.061 589 899 595.94 899 604.5C899 613.061 892.061 620 883.5 620C874.94 620 868 613.061 868 604.5C868 595.94 874.94 589 883.5 589Z" fill="#1E1E1E"/>
<path d="M976.5 589C985.061 589 992 595.94 992 604.5C992 613.061 985.061 620 976.5 620C967.94 620 961 613.061 961 604.5C961 595.94 967.94 589 976.5 589Z" fill="#1E1E1E"/>
<path d="M1007.5 589C1016.06 589 1023 595.94 1023 604.5C1023 613.061 1016.06 620 1007.5 620C998.94 620 992 613.061 992 604.5C992 595.94 998.94 589 1007.5 589Z" fill="#1E1E1E"/>
<path d="M201.5 620C210.061 620 217 626.94 217 635.5C217 644.061 210.061 651 201.5 651C192.94 651 186 644.061 186 635.5C186 626.94 192.94 620 201.5 620Z" fill="#1E1E1E"/>
<path d="M232.5 620C241.061 620 248 626.94 248 635.5C248 644.061 241.061 651 232.5 651C223.94 651 217 644.061 217 635.5C217 626.94 223.94 620 232.5 620Z" fill="#1E1E1E"/>
<path d="M294.5 620C303.061 620 310 626.94 310 635.5C310 644.061 303.061 651 294.5 651C285.94 651 279 644.061 279 635.5C279 626.94 285.94 620 294.5 620Z" fill="#1E1E1E"/>
<path d="M325.5 620C334.061 620 341 626.94 341 635.5C341 644.061 334.061 651 325.5 651C316.94 651 310 644.061 310 635.5C310 626.94 316.94 620 325.5 620Z" fill="#1E1E1E"/>
<path d="M728.5 620C737.061 620 744 626.94 744 635.5C744 644.061 737.061 651 728.5 651C719.94 651 713 644.061 713 635.5C713 626.94 719.94 620 728.5 620Z" fill="#1E1E1E"/>
<path d="M759.5 620C768.061 620 775 626.94 775 635.5C775 644.061 768.061 651 759.5 651C750.94 651 744 644.061 744 635.5C744 626.94 750.94 620 759.5 620Z" fill="#1E1E1E"/>
<path d="M790.5 620C799.061 620 806 626.94 806 635.5C806 644.061 799.061 651 790.5 651C781.94 651 775 644.061 775 635.5C775 626.94 781.94 620 790.5 620Z" fill="#1E1E1E"/>
<path d="M976.5 620C985.061 620 992 626.94 992 635.5C992 644.061 985.061 651 976.5 651C967.94 651 961 644.061 961 635.5C961 626.94 967.94 620 976.5 620Z" fill="#1E1E1E"/>
<path d="M1007.5 620C1016.06 620 1023 626.94 1023 635.5C1023 644.061 1016.06 651 1007.5 651C998.94 651 992 644.061 992 635.5C992 626.94 998.94 620 1007.5 620Z" fill="#1E1E1E"/>
<path d="M108.5 651C117.061 651 124 657.94 124 666.5C124 675.061 117.061 682 108.5 682C99.9397 682 93 675.061 93 666.5C93 657.94 99.9397 651 108.5 651Z" fill="#1E1E1E"/>
<path d="M232.5 651C241.061 651 248 657.94 248 666.5C248 675.061 241.061 682 232.5 682C223.94 682 217 675.061 217 666.5C217 657.94 223.94 651 232.5 651Z" fill="#1E1E1E"/>
<path d="M263.5 651C272.061 651 279 657.94 279 666.5C279 675.061 272.061 682 263.5 682C254.94 682 248 675.061 248 666.5C248 657.94 254.94 651 263.5 651Z" fill="#1E1E1E"/>
<path d="M356.5 651C365.061 651 372 657.94 372 666.5C372 675.061 365.061 682 356.5 682C347.94 682 341 675.061 341 666.5C341 657.94 347.94 651 356.5 651Z" fill="#1E1E1E"/>
<path d="M387.5 651C396.061 651 403 657.94 403 666.5C403 675.061 396.061 682 387.5 682C378.94 682 372 675.061 372 666.5C372 657.94 378.94 651 387.5 651Z" fill="#1E1E1E"/>
<path d="M418.5 651C427.061 651 434 657.94 434 666.5C434 675.061 427.061 682 418.5 682C409.94 682 403 675.061 403 666.5C403 657.94 409.94 651 418.5 651Z" fill="#1E1E1E"/>
<path d="M449.5 651C458.061 651 465 657.94 465 666.5C465 675.061 458.061 682 449.5 682C440.94 682 434 675.061 434 666.5C434 657.94 440.94 651 449.5 651Z" fill="#1E1E1E"/>
<path d="M480.5 651C489.061 651 496 657.94 496 666.5C496 675.061 489.061 682 480.5 682C471.94 682 465 675.061 465 666.5C465 657.94 471.94 651 480.5 651Z" fill="#1E1E1E"/>
<path d="M542.5 651C551.061 651 558 657.94 558 666.5C558 675.061 551.061 682 542.5 682C533.94 682 527 675.061 527 666.5C527 657.94 533.94 651 542.5 651Z" fill="#1E1E1E"/>
<path d="M573.5 651C582.061 651 589 657.94 589 666.5C589 675.061 582.061 682 573.5 682C564.94 682 558 675.061 558 666.5C558 657.94 564.94 651 573.5 651Z" fill="#1E1E1E"/>
<path d="M728.5 651C737.061 651 744 657.94 744 666.5C744 675.061 737.061 682 728.5 682C719.94 682 713 675.061 713 666.5C713 657.94 719.94 651 728.5 651Z" fill="#1E1E1E"/>
<path d="M790.5 651C799.061 651 806 657.94 806 666.5C806 675.061 799.061 682 790.5 682C781.94 682 775 675.061 775 666.5C775 657.94 781.94 651 790.5 651Z" fill="#1E1E1E"/>
<path d="M821.5 651C830.061 651 837 657.94 837 666.5C837 675.061 830.061 682 821.5 682C812.94 682 806 675.061 806 666.5C806 657.94 812.94 651 821.5 651Z" fill="#1E1E1E"/>
<path d="M852.5 651C861.061 651 868 657.94 868 666.5C868 675.061 861.061 682 852.5 682C843.94 682 837 675.061 837 666.5C837 657.94 843.94 651 852.5 651Z" fill="#1E1E1E"/>
<path d="M976.5 651C985.061 651 992 657.94 992 666.5C992 675.061 985.061 682 976.5 682C967.94 682 961 675.061 961 666.5C961 657.94 967.94 651 976.5 651Z" fill="#1E1E1E"/>
<path d="M1007.5 651C1016.06 651 1023 657.94 1023 666.5C1023 675.061 1016.06 682 1007.5 682C998.94 682 992 675.061 992 666.5C992 657.94 998.94 651 1007.5 651Z" fill="#1E1E1E"/>
<path d="M15.5 682C24.0608 682 31 688.94 31 697.5C31 706.061 24.0608 713 15.5 713C6.93966 713 0 706.061 0 697.5C0 688.94 6.93966 682 15.5 682Z" fill="#1E1E1E"/>
<path d="M46.5 682C55.0608 682 62 688.94 62 697.5C62 706.061 55.0608 713 46.5 713C37.9397 713 31 706.061 31 697.5C31 688.94 37.9397 682 46.5 682Z" fill="#1E1E1E"/>
<path d="M170.5 682C179.061 682 186 688.94 186 697.5C186 706.061 179.061 713 170.5 713C161.94 713 155 706.061 155 697.5C155 688.94 161.94 682 170.5 682Z" fill="#1E1E1E"/>
<path d="M201.5 682C210.061 682 217 688.94 217 697.5C217 706.061 210.061 713 201.5 713C192.94 713 186 706.061 186 697.5C186 688.94 192.94 682 201.5 682Z" fill="#1E1E1E"/>
<path d="M232.5 682C241.061 682 248 688.94 248 697.5C248 706.061 241.061 713 232.5 713C223.94 713 217 706.061 217 697.5C217 688.94 223.94 682 232.5 682Z" fill="#1E1E1E"/>
<path d="M325.5 682C334.061 682 341 688.94 341 697.5C341 706.061 334.061 713 325.5 713C316.94 713 310 706.061 310 697.5C310 688.94 316.94 682 325.5 682Z" fill="#1E1E1E"/>
<path d="M356.5 682C365.061 682 372 688.94 372 697.5C372 706.061 365.061 713 356.5 713C347.94 713 341 706.061 341 697.5C341 688.94 347.94 682 356.5 682Z" fill="#1E1E1E"/>
<path d="M418.5 682C427.061 682 434 688.94 434 697.5C434 706.061 427.061 713 418.5 713C409.94 713 403 706.061 403 697.5C403 688.94 409.94 682 418.5 682Z" fill="#1E1E1E"/>
<path d="M635.5 682C644.061 682 651 688.94 651 697.5C651 706.061 644.061 713 635.5 713C626.94 713 620 706.061 620 697.5C620 688.94 626.94 682 635.5 682Z" fill="#1E1E1E"/>
<path d="M697.5 682C706.061 682 713 688.94 713 697.5C713 706.061 706.061 713 697.5 713C688.94 713 682 706.061 682 697.5C682 688.94 688.94 682 697.5 682Z" fill="#1E1E1E"/>
<path d="M759.5 682C768.061 682 775 688.94 775 697.5C775 706.061 768.061 713 759.5 713C750.94 713 744 706.061 744 697.5C744 688.94 750.94 682 759.5 682Z" fill="#1E1E1E"/>
<path d="M790.5 682C799.061 682 806 688.94 806 697.5C806 706.061 799.061 713 790.5 713C781.94 713 775 706.061 775 697.5C775 688.94 781.94 682 790.5 682Z" fill="#1E1E1E"/>
<path d="M821.5 682C830.061 682 837 688.94 837 697.5C837 706.061 830.061 713 821.5 713C812.94 713 806 706.061 806 697.5C806 688.94 812.94 682 821.5 682Z" fill="#1E1E1E"/>
<path d="M852.5 682C861.061 682 868 688.94 868 697.5C868 706.061 861.061 713 852.5 713C843.94 713 837 706.061 837 697.5C837 688.94 843.94 682 852.5 682Z" fill="#1E1E1E"/>
<path d="M883.5 682C892.061 682 899 688.94 899 697.5C899 706.061 892.061 713 883.5 713C874.94 713 868 706.061 868 697.5C868 688.94 874.94 682 883.5 682Z" fill="#1E1E1E"/>
<path d="M914.5 682C923.061 682 930 688.94 930 697.5C930 706.061 923.061 713 914.5 713C905.94 713 899 706.061 899 697.5C899 688.94 905.94 682 914.5 682Z" fill="#1E1E1E"/>
<path d="M1007.5 682C1016.06 682 1023 688.94 1023 697.5C1023 706.061 1016.06 713 1007.5 713C998.94 713 992 706.061 992 697.5C992 688.94 998.94 682 1007.5 682Z" fill="#1E1E1E"/>
<path d="M46.5 713C55.0608 713 62 719.94 62 728.5C62 737.061 55.0608 744 46.5 744C37.9397 744 31 737.061 31 728.5C31 719.94 37.9397 713 46.5 713Z" fill="#1E1E1E"/>
<path d="M77.5 713C86.0608 713 93 719.94 93 728.5C93 737.061 86.0608 744 77.5 744C68.9397 744 62 737.061 62 728.5C62 719.94 68.9397 713 77.5 713Z" fill="#1E1E1E"/>
<path d="M108.5 713C117.061 713 124 719.94 124 728.5C124 737.061 117.061 744 108.5 744C99.9397 744 93 737.061 93 728.5C93 719.94 99.9397 713 108.5 713Z" fill="#1E1E1E"/>
<path d="M139.5 713C148.061 713 155 719.94 155 728.5C155 737.061 148.061 744 139.5 744C130.94 744 124 737.061 124 728.5C124 719.94 130.94 713 139.5 713Z" fill="#1E1E1E"/>
<path d="M170.5 713C179.061 713 186 719.94 186 728.5C186 737.061 179.061 744 170.5 744C161.94 744 155 737.061 155 728.5C155 719.94 161.94 713 170.5 713Z" fill="#1E1E1E"/>
<path d="M263.5 713C272.061 713 279 719.94 279 728.5C279 737.061 272.061 744 263.5 744C254.94 744 248 737.061 248 728.5C248 719.94 254.94 713 263.5 713Z" fill="#1E1E1E"/>
<path d="M480.5 713C489.061 713 496 719.94 496 728.5C496 737.061 489.061 744 480.5 744C471.94 744 465 737.061 465 728.5C465 719.94 471.94 713 480.5 713Z" fill="#1E1E1E"/>
<path d="M542.5 713C551.061 713 558 719.94 558 728.5C558 737.061 551.061 744 542.5 744C533.94 744 527 737.061 527 728.5C527 719.94 533.94 713 542.5 713Z" fill="#1E1E1E"/>
<path d="M573.5 713C582.061 713 589 719.94 589 728.5C589 737.061 582.061 744 573.5 744C564.94 744 558 737.061 558 728.5C558 719.94 564.94 713 573.5 713Z" fill="#1E1E1E"/>
<path d="M666.5 713C675.061 713 682 719.94 682 728.5C682 737.061 675.061 744 666.5 744C657.94 744 651 737.061 651 728.5C651 719.94 657.94 713 666.5 713Z" fill="#1E1E1E"/>
<path d="M697.5 713C706.061 713 713 719.94 713 728.5C713 737.061 706.061 744 697.5 744C688.94 744 682 737.061 682 728.5C682 719.94 688.94 713 697.5 713Z" fill="#1E1E1E"/>
<path d="M728.5 713C737.061 713 744 719.94 744 728.5C744 737.061 737.061 744 728.5 744C719.94 744 713 737.061 713 728.5C713 719.94 719.94 713 728.5 713Z" fill="#1E1E1E"/>
<path d="M759.5 713C768.061 713 775 719.94 775 728.5C775 737.061 768.061 744 759.5 744C750.94 744 744 737.061 744 728.5C744 719.94 750.94 713 759.5 713Z" fill="#1E1E1E"/>
<path d="M790.5 713C799.061 713 806 719.94 806 728.5C806 737.061 799.061 744 790.5 744C781.94 744 775 737.061 775 728.5C775 719.94 781.94 713 790.5 713Z" fill="#1E1E1E"/>
<path d="M821.5 713C830.061 713 837 719.94 837 728.5C837 737.061 830.061 744 821.5 744C812.94 744 806 737.061 806 728.5C806 719.94 812.94 713 821.5 713Z" fill="#1E1E1E"/>
<path d="M914.5 713C923.061 713 930 719.94 930 728.5C930 737.061 923.061 744 914.5 744C905.94 744 899 737.061 899 728.5C899 719.94 905.94 713 914.5 713Z" fill="#1E1E1E"/>
<path d="M1007.5 713C1016.06 713 1023 719.94 1023 728.5C1023 737.061 1016.06 744 1007.5 744C998.94 744 992 737.061 992 728.5C992 719.94 998.94 713 1007.5 713Z" fill="#1E1E1E"/>
<path d="M15.5 744C24.0608 744 31 750.94 31 759.5C31 768.061 24.0608 775 15.5 775C6.93966 775 0 768.061 0 759.5C0 750.94 6.93966 744 15.5 744Z" fill="#1E1E1E"/>
<path d="M108.5 744C117.061 744 124 750.94 124 759.5C124 768.061 117.061 775 108.5 775C99.9397 775 93 768.061 93 759.5C93 750.94 99.9397 744 108.5 744Z" fill="#1E1E1E"/>
<path d="M139.5 744C148.061 744 155 750.94 155 759.5C155 768.061 148.061 775 139.5 775C130.94 775 124 768.061 124 759.5C124 750.94 130.94 744 139.5 744Z" fill="#1E1E1E"/>
<path d="M201.5 744C210.061 744 217 750.94 217 759.5C217 768.061 210.061 775 201.5 775C192.94 775 186 768.061 186 759.5C186 750.94 192.94 744 201.5 744Z" fill="#1E1E1E"/>
<path d="M232.5 744C241.061 744 248 750.94 248 759.5C248 768.061 241.061 775 232.5 775C223.94 775 217 768.061 217 759.5C217 750.94 223.94 744 232.5 744Z" fill="#1E1E1E"/>
<path d="M263.5 744C272.061 744 279 750.94 279 759.5C279 768.061 272.061 775 263.5 775C254.94 775 248 768.061 248 759.5C248 750.94 254.94 744 263.5 744Z" fill="#1E1E1E"/>
<path d="M325.5 744C334.061 744 341 750.94 341 759.5C341 768.061 334.061 775 325.5 775C316.94 775 310 768.061 310 759.5C310 750.94 316.94 744 325.5 744Z" fill="#1E1E1E"/>
<path d="M511.5 744C520.061 744 527 750.94 527 759.5C527 768.061 520.061 775 511.5 775C502.94 775 496 768.061 496 759.5C496 750.94 502.94 744 511.5 744Z" fill="#1E1E1E"/>
<path d="M635.5 744C644.061 744 651 750.94 651 759.5C651 768.061 644.061 775 635.5 775C626.94 775 620 768.061 620 759.5C620 750.94 626.94 744 635.5 744Z" fill="#1E1E1E"/>
<path d="M666.5 744C675.061 744 682 750.94 682 759.5C682 768.061 675.061 775 666.5 775C657.94 775 651 768.061 651 759.5C651 750.94 657.94 744 666.5 744Z" fill="#1E1E1E"/>
<path d="M697.5 744C706.061 744 713 750.94 713 759.5C713 768.061 706.061 775 697.5 775C688.94 775 682 768.061 682 759.5C682 750.94 688.94 744 697.5 744Z" fill="#1E1E1E"/>
<path d="M728.5 744C737.061 744 744 750.94 744 759.5C744 768.061 737.061 775 728.5 775C719.94 775 713 768.061 713 759.5C713 750.94 719.94 744 728.5 744Z" fill="#1E1E1E"/>
<path d="M759.5 744C768.061 744 775 750.94 775 759.5C775 768.061 768.061 775 759.5 775C750.94 775 744 768.061 744 759.5C744 750.94 750.94 744 759.5 744Z" fill="#1E1E1E"/>
<path d="M790.5 744C799.061 744 806 750.94 806 759.5C806 768.061 799.061 775 790.5 775C781.94 775 775 768.061 775 759.5C775 750.94 781.94 744 790.5 744Z" fill="#1E1E1E"/>
<path d="M821.5 744C830.061 744 837 750.94 837 759.5C837 768.061 830.061 775 821.5 775C812.94 775 806 768.061 806 759.5C806 750.94 812.94 744 821.5 744Z" fill="#1E1E1E"/>
<path d="M852.5 744C861.061 744 868 750.94 868 759.5C868 768.061 861.061 775 852.5 775C843.94 775 837 768.061 837 759.5C837 750.94 843.94 744 852.5 744Z" fill="#1E1E1E"/>
<path d="M883.5 744C892.061 744 899 750.94 899 759.5C899 768.061 892.061 775 883.5 775C874.94 775 868 768.061 868 759.5C868 750.94 874.94 744 883.5 744Z" fill="#1E1E1E"/>
<path d="M914.5 744C923.061 744 930 750.94 930 759.5C930 768.061 923.061 775 914.5 775C905.94 775 899 768.061 899 759.5C899 750.94 905.94 744 914.5 744Z" fill="#1E1E1E"/>
<path d="M976.5 744C985.061 744 992 750.94 992 759.5C992 768.061 985.061 775 976.5 775C967.94 775 961 768.061 961 759.5C961 750.94 967.94 744 976.5 744Z" fill="#1E1E1E"/>
<path d="M1007.5 744C1016.06 744 1023 750.94 1023 759.5C1023 768.061 1016.06 775 1007.5 775C998.94 775 992 768.061 992 759.5C992 750.94 998.94 744 1007.5 744Z" fill="#1E1E1E"/>
<path d="M263.5 775C272.061 775 279 781.94 279 790.5C279 799.061 272.061 806 263.5 806C254.94 806 248 799.061 248 790.5C248 781.94 254.94 775 263.5 775Z" fill="#1E1E1E"/>
<path d="M294.5 775C303.061 775 310 781.94 310 790.5C310 799.061 303.061 806 294.5 806C285.94 806 279 799.061 279 790.5C279 781.94 285.94 775 294.5 775Z" fill="#1E1E1E"/>
<path d="M449.5 775C458.061 775 465 781.94 465 790.5C465 799.061 458.061 806 449.5 806C440.94 806 434 799.061 434 790.5C434 781.94 440.94 775 449.5 775Z" fill="#1E1E1E"/>
<path d="M480.5 775C489.061 775 496 781.94 496 790.5C496 799.061 489.061 806 480.5 806C471.94 806 465 799.061 465 790.5C465 781.94 471.94 775 480.5 775Z" fill="#1E1E1E"/>
<path d="M635.5 775C644.061 775 651 781.94 651 790.5C651 799.061 644.061 806 635.5 806C626.94 806 620 799.061 620 790.5C620 781.94 626.94 775 635.5 775Z" fill="#1E1E1E"/>
<path d="M697.5 775C706.061 775 713 781.94 713 790.5C713 799.061 706.061 806 697.5 806C688.94 806 682 799.061 682 790.5C682 781.94 688.94 775 697.5 775Z" fill="#1E1E1E"/>
<path d="M728.5 775C737.061 775 744 781.94 744 790.5C744 799.061 737.061 806 728.5 806C719.94 806 713 799.061 713 790.5C713 781.94 719.94 775 728.5 775Z" fill="#1E1E1E"/>
<path d="M759.5 775C768.061 775 775 781.94 775 790.5C775 799.061 768.061 806 759.5 806C750.94 806 744 799.061 744 790.5C744 781.94 750.94 775 759.5 775Z" fill="#1E1E1E"/>
<path d="M883.5 775C892.061 775 899 781.94 899 790.5C899 799.061 892.061 806 883.5 806C874.94 806 868 799.061 868 790.5C868 781.94 874.94 775 883.5 775Z" fill="#1E1E1E"/>
<path d="M914.5 775C923.061 775 930 781.94 930 790.5C930 799.061 923.061 806 914.5 806C905.94 806 899 799.061 899 790.5C899 781.94 905.94 775 914.5 775Z" fill="#1E1E1E"/>
<path d="M945.5 775C954.061 775 961 781.94 961 790.5C961 799.061 954.061 806 945.5 806C936.94 806 930 799.061 930 790.5C930 781.94 936.94 775 945.5 775Z" fill="#1E1E1E"/>
<path d="M976.5 775C985.061 775 992 781.94 992 790.5C992 799.061 985.061 806 976.5 806C967.94 806 961 799.061 961 790.5C961 781.94 967.94 775 976.5 775Z" fill="#1E1E1E"/>
<path d="M1007.5 775C1016.06 775 1023 781.94 1023 790.5C1023 799.061 1016.06 806 1007.5 806C998.94 806 992 799.061 992 790.5C992 781.94 998.94 775 1007.5 775Z" fill="#1E1E1E"/>
<path d="M294.5 806C303.061 806 310 812.94 310 821.5C310 830.061 303.061 837 294.5 837C285.94 837 279 830.061 279 821.5C279 812.94 285.94 806 294.5 806Z" fill="#1E1E1E"/>
<path d="M418.5 806C427.061 806 434 812.94 434 821.5C434 830.061 427.061 837 418.5 837C409.94 837 403 830.061 403 821.5C403 812.94 409.94 806 418.5 806Z" fill="#1E1E1E"/>
<path d="M449.5 806C458.061 806 465 812.94 465 821.5C465 830.061 458.061 837 449.5 837C440.94 837 434 830.061 434 821.5C434 812.94 440.94 806 449.5 806Z" fill="#1E1E1E"/>
<path d="M480.5 806C489.061 806 496 812.94 496 821.5C496 830.061 489.061 837 480.5 837C471.94 837 465 830.061 465 821.5C465 812.94 471.94 806 480.5 806Z" fill="#1E1E1E"/>
<path d="M511.5 806C520.061 806 527 812.94 527 821.5C527 830.061 520.061 837 511.5 837C502.94 837 496 830.061 496 821.5C496 812.94 502.94 806 511.5 806Z" fill="#1E1E1E"/>
<path d="M573.5 806C582.061 806 589 812.94 589 821.5C589 830.061 582.061 837 573.5 837C564.94 837 558 830.061 558 821.5C558 812.94 564.94 806 573.5 806Z" fill="#1E1E1E"/>
<path d="M604.5 806C613.061 806 620 812.94 620 821.5C620 830.061 613.061 837 604.5 837C595.94 837 589 830.061 589 821.5C589 812.94 595.94 806 604.5 806Z" fill="#1E1E1E"/>
<path d="M635.5 806C644.061 806 651 812.94 651 821.5C651 830.061 644.061 837 635.5 837C626.94 837 620 830.061 620 821.5C620 812.94 626.94 806 635.5 806Z" fill="#1E1E1E"/>
<path d="M666.5 806C675.061 806 682 812.94 682 821.5C682 830.061 675.061 837 666.5 837C657.94 837 651 830.061 651 821.5C651 812.94 657.94 806 666.5 806Z" fill="#1E1E1E"/>
<path d="M759.5 806C768.061 806 775 812.94 775 821.5C775 830.061 768.061 837 759.5 837C750.94 837 744 830.061 744 821.5C744 812.94 750.94 806 759.5 806Z" fill="#1E1E1E"/>
<path d="M821.5 806C830.061 806 837 812.94 837 821.5C837 830.061 830.061 837 821.5 837C812.94 837 806 830.061 806 821.5C806 812.94 812.94 806 821.5 806Z" fill="#1E1E1E"/>
<path d="M883.5 806C892.061 806 899 812.94 899 821.5C899 830.061 892.061 837 883.5 837C874.94 837 868 830.061 868 821.5C868 812.94 874.94 806 883.5 806Z" fill="#1E1E1E"/>
<path d="M945.5 806C954.061 806 961 812.94 961 821.5C961 830.061 954.061 837 945.5 837C936.94 837 930 830.061 930 821.5C930 812.94 936.94 806 945.5 806Z" fill="#1E1E1E"/>
<path d="M976.5 806C985.061 806 992 812.94 992 821.5C992 830.061 985.061 837 976.5 837C967.94 837 961 830.061 961 821.5C961 812.94 967.94 806 976.5 806Z" fill="#1E1E1E"/>
<path d="M294.5 837C303.061 837 310 843.94 310 852.5C310 861.061 303.061 868 294.5 868C285.94 868 279 861.061 279 852.5C279 843.94 285.94 837 294.5 837Z" fill="#1E1E1E"/>
<path d="M325.5 837C334.061 837 341 843.94 341 852.5C341 861.061 334.061 868 325.5 868C316.94 868 310 861.061 310 852.5C310 843.94 316.94 837 325.5 837Z" fill="#1E1E1E"/>
<path d="M356.5 837C365.061 837 372 843.94 372 852.5C372 861.061 365.061 868 356.5 868C347.94 868 341 861.061 341 852.5C341 843.94 347.94 837 356.5 837Z" fill="#1E1E1E"/>
<path d="M387.5 837C396.061 837 403 843.94 403 852.5C403 861.061 396.061 868 387.5 868C378.94 868 372 861.061 372 852.5C372 843.94 378.94 837 387.5 837Z" fill="#1E1E1E"/>
<path d="M449.5 837C458.061 837 465 843.94 465 852.5C465 861.061 458.061 868 449.5 868C440.94 868 434 861.061 434 852.5C434 843.94 440.94 837 449.5 837Z" fill="#1E1E1E"/>
<path d="M480.5 837C489.061 837 496 843.94 496 852.5C496 861.061 489.061 868 480.5 868C471.94 868 465 861.061 465 852.5C465 843.94 471.94 837 480.5 837Z" fill="#1E1E1E"/>
<path d="M542.5 837C551.061 837 558 843.94 558 852.5C558 861.061 551.061 868 542.5 868C533.94 868 527 861.061 527 852.5C527 843.94 533.94 837 542.5 837Z" fill="#1E1E1E"/>
<path d="M604.5 837C613.061 837 620 843.94 620 852.5C620 861.061 613.061 868 604.5 868C595.94 868 589 861.061 589 852.5C589 843.94 595.94 837 604.5 837Z" fill="#1E1E1E"/>
<path d="M759.5 837C768.061 837 775 843.94 775 852.5C775 861.061 768.061 868 759.5 868C750.94 868 744 861.061 744 852.5C744 843.94 750.94 837 759.5 837Z" fill="#1E1E1E"/>
<path d="M883.5 837C892.061 837 899 843.94 899 852.5C899 861.061 892.061 868 883.5 868C874.94 868 868 861.061 868 852.5C868 843.94 874.94 837 883.5 837Z" fill="#1E1E1E"/>
<path d="M1007.5 837C1016.06 837 1023 843.94 1023 852.5C1023 861.061 1016.06 868 1007.5 868C998.94 868 992 861.061 992 852.5C992 843.94 998.94 837 1007.5 837Z" fill="#1E1E1E"/>
<path d="M325.5 868C334.061 868 341 874.94 341 883.5C341 892.061 334.061 899 325.5 899C316.94 899 310 892.061 310 883.5C310 874.94 316.94 868 325.5 868Z" fill="#1E1E1E"/>
<path d="M356.5 868C365.061 868 372 874.94 372 883.5C372 892.061 365.061 899 356.5 899C347.94 899 341 892.061 341 883.5C341 874.94 347.94 868 356.5 868Z" fill="#1E1E1E"/>
<path d="M480.5 868C489.061 868 496 874.94 496 883.5C496 892.061 489.061 899 480.5 899C471.94 899 465 892.061 465 883.5C465 874.94 471.94 868 480.5 868Z" fill="#1E1E1E"/>
<path d="M573.5 868C582.061 868 589 874.94 589 883.5C589 892.061 582.061 899 573.5 899C564.94 899 558 892.061 558 883.5C558 874.94 564.94 868 573.5 868Z" fill="#1E1E1E"/>
<path d="M697.5 868C706.061 868 713 874.94 713 883.5C713 892.061 706.061 899 697.5 899C688.94 899 682 892.061 682 883.5C682 874.94 688.94 868 697.5 868Z" fill="#1E1E1E"/>
<path d="M759.5 868C768.061 868 775 874.94 775 883.5C775 892.061 768.061 899 759.5 899C750.94 899 744 892.061 744 883.5C744 874.94 750.94 868 759.5 868Z" fill="#1E1E1E"/>
<path d="M790.5 868C799.061 868 806 874.94 806 883.5C806 892.061 799.061 899 790.5 899C781.94 899 775 892.061 775 883.5C775 874.94 781.94 868 790.5 868Z" fill="#1E1E1E"/>
<path d="M821.5 868C830.061 868 837 874.94 837 883.5C837 892.061 830.061 899 821.5 899C812.94 899 806 892.061 806 883.5C806 874.94 812.94 868 821.5 868Z" fill="#1E1E1E"/>
<path d="M852.5 868C861.061 868 868 874.94 868 883.5C868 892.061 861.061 899 852.5 899C843.94 899 837 892.061 837 883.5C837 874.94 843.94 868 852.5 868Z" fill="#1E1E1E"/>
<path d="M883.5 868C892.061 868 899 874.94 899 883.5C899 892.061 892.061 899 883.5 899C874.94 899 868 892.061 868 883.5C868 874.94 874.94 868 883.5 868Z" fill="#1E1E1E"/>
<path d="M914.5 868C923.061 868 930 874.94 930 883.5C930 892.061 923.061 899 914.5 899C905.94 899 899 892.061 899 883.5C899 874.94 905.94 868 914.5 868Z" fill="#1E1E1E"/>
<path d="M263.5 899C272.061 899 279 905.94 279 914.5C279 923.061 272.061 930 263.5 930C254.94 930 248 923.061 248 914.5C248 905.94 254.94 899 263.5 899Z" fill="#1E1E1E"/>
<path d="M325.5 899C334.061 899 341 905.94 341 914.5C341 923.061 334.061 930 325.5 930C316.94 930 310 923.061 310 914.5C310 905.94 316.94 899 325.5 899Z" fill="#1E1E1E"/>
<path d="M356.5 899C365.061 899 372 905.94 372 914.5C372 923.061 365.061 930 356.5 930C347.94 930 341 923.061 341 914.5C341 905.94 347.94 899 356.5 899Z" fill="#1E1E1E"/>
<path d="M387.5 899C396.061 899 403 905.94 403 914.5C403 923.061 396.061 930 387.5 930C378.94 930 372 923.061 372 914.5C372 905.94 378.94 899 387.5 899Z" fill="#1E1E1E"/>
<path d="M449.5 899C458.061 899 465 905.94 465 914.5C465 923.061 458.061 930 449.5 930C440.94 930 434 923.061 434 914.5C434 905.94 440.94 899 449.5 899Z" fill="#1E1E1E"/>
<path d="M480.5 899C489.061 899 496 905.94 496 914.5C496 923.061 489.061 930 480.5 930C471.94 930 465 923.061 465 914.5C465 905.94 471.94 899 480.5 899Z" fill="#1E1E1E"/>
<path d="M573.5 899C582.061 899 589 905.94 589 914.5C589 923.061 582.061 930 573.5 930C564.94 930 558 923.061 558 914.5C558 905.94 564.94 899 573.5 899Z" fill="#1E1E1E"/>
<path d="M604.5 899C613.061 899 620 905.94 620 914.5C620 923.061 613.061 930 604.5 930C595.94 930 589 923.061 589 914.5C589 905.94 595.94 899 604.5 899Z" fill="#1E1E1E"/>
<path d="M759.5 899C768.061 899 775 905.94 775 914.5C775 923.061 768.061 930 759.5 930C750.94 930 744 923.061 744 914.5C744 905.94 750.94 899 759.5 899Z" fill="#1E1E1E"/>
<path d="M821.5 899C830.061 899 837 905.94 837 914.5C837 923.061 830.061 930 821.5 930C812.94 930 806 923.061 806 914.5C806 905.94 812.94 899 821.5 899Z" fill="#1E1E1E"/>
<path d="M883.5 899C892.061 899 899 905.94 899 914.5C899 923.061 892.061 930 883.5 930C874.94 930 868 923.061 868 914.5C868 905.94 874.94 899 883.5 899Z" fill="#1E1E1E"/>
<path d="M1007.5 899C1016.06 899 1023 905.94 1023 914.5C1023 923.061 1016.06 930 1007.5 930C998.94 930 992 923.061 992 914.5C992 905.94 998.94 899 1007.5 899Z" fill="#1E1E1E"/>
<path d="M294.5 930C303.061 930 310 936.94 310 945.5C310 954.061 303.061 961 294.5 961C285.94 961 279 954.061 279 945.5C279 936.94 285.94 930 294.5 930Z" fill="#1E1E1E"/>
<path d="M356.5 930C365.061 930 372 936.94 372 945.5C372 954.061 365.061 961 356.5 961C347.94 961 341 954.061 341 945.5C341 936.94 347.94 930 356.5 930Z" fill="#1E1E1E"/>
<path d="M387.5 930C396.061 930 403 936.94 403 945.5C403 954.061 396.061 961 387.5 961C378.94 961 372 954.061 372 945.5C372 936.94 378.94 930 387.5 930Z" fill="#1E1E1E"/>
<path d="M480.5 930C489.061 930 496 936.94 496 945.5C496 954.061 489.061 961 480.5 961C471.94 961 465 954.061 465 945.5C465 936.94 471.94 930 480.5 930Z" fill="#1E1E1E"/>
<path d="M511.5 930C520.061 930 527 936.94 527 945.5C527 954.061 520.061 961 511.5 961C502.94 961 496 954.061 496 945.5C496 936.94 502.94 930 511.5 930Z" fill="#1E1E1E"/>
<path d="M542.5 930C551.061 930 558 936.94 558 945.5C558 954.061 551.061 961 542.5 961C533.94 961 527 954.061 527 945.5C527 936.94 533.94 930 542.5 930Z" fill="#1E1E1E"/>
<path d="M573.5 930C582.061 930 589 936.94 589 945.5C589 954.061 582.061 961 573.5 961C564.94 961 558 954.061 558 945.5C558 936.94 564.94 930 573.5 930Z" fill="#1E1E1E"/>
<path d="M604.5 930C613.061 930 620 936.94 620 945.5C620 954.061 613.061 961 604.5 961C595.94 961 589 954.061 589 945.5C589 936.94 595.94 930 604.5 930Z" fill="#1E1E1E"/>
<path d="M697.5 930C706.061 930 713 936.94 713 945.5C713 954.061 706.061 961 697.5 961C688.94 961 682 954.061 682 945.5C682 936.94 688.94 930 697.5 930Z" fill="#1E1E1E"/>
<path d="M728.5 930C737.061 930 744 936.94 744 945.5C744 954.061 737.061 961 728.5 961C719.94 961 713 954.061 713 945.5C713 936.94 719.94 930 728.5 930Z" fill="#1E1E1E"/>
<path d="M790.5 930C799.061 930 806 936.94 806 945.5C806 954.061 799.061 961 790.5 961C781.94 961 775 954.061 775 945.5C775 936.94 781.94 930 790.5 930Z" fill="#1E1E1E"/>
<path d="M852.5 930C861.061 930 868 936.94 868 945.5C868 954.061 861.061 961 852.5 961C843.94 961 837 954.061 837 945.5C837 936.94 843.94 930 852.5 930Z" fill="#1E1E1E"/>
<path d="M883.5 930C892.061 930 899 936.94 899 945.5C899 954.061 892.061 961 883.5 961C874.94 961 868 954.061 868 945.5C868 936.94 874.94 930 883.5 930Z" fill="#1E1E1E"/>
<path d="M914.5 930C923.061 930 930 936.94 930 945.5C930 954.061 923.061 961 914.5 961C905.94 961 899 954.061 899 945.5C899 936.94 905.94 930 914.5 930Z" fill="#1E1E1E"/>
<path d="M945.5 930C954.061 930 961 936.94 961 945.5C961 954.061 954.061 961 945.5 961C936.94 961 930 954.061 930 945.5C930 936.94 936.94 930 945.5 930Z" fill="#1E1E1E"/>
<path d="M1007.5 930C1016.06 930 1023 936.94 1023 945.5C1023 954.061 1016.06 961 1007.5 961C998.94 961 992 954.061 992 945.5C992 936.94 998.94 930 1007.5 930Z" fill="#1E1E1E"/>
<path d="M294.5 961C303.061 961 310 967.94 310 976.5C310 985.061 303.061 992 294.5 992C285.94 992 279 985.061 279 976.5C279 967.94 285.94 961 294.5 961Z" fill="#1E1E1E"/>
<path d="M325.5 961C334.061 961 341 967.94 341 976.5C341 985.061 334.061 992 325.5 992C316.94 992 310 985.061 310 976.5C310 967.94 316.94 961 325.5 961Z" fill="#1E1E1E"/>
<path d="M356.5 961C365.061 961 372 967.94 372 976.5C372 985.061 365.061 992 356.5 992C347.94 992 341 985.061 341 976.5C341 967.94 347.94 961 356.5 961Z" fill="#1E1E1E"/>
<path d="M387.5 961C396.061 961 403 967.94 403 976.5C403 985.061 396.061 992 387.5 992C378.94 992 372 985.061 372 976.5C372 967.94 378.94 961 387.5 961Z" fill="#1E1E1E"/>
<path d="M418.5 961C427.061 961 434 967.94 434 976.5C434 985.061 427.061 992 418.5 992C409.94 992 403 985.061 403 976.5C403 967.94 409.94 961 418.5 961Z" fill="#1E1E1E"/>
<path d="M449.5 961C458.061 961 465 967.94 465 976.5C465 985.061 458.061 992 449.5 992C440.94 992 434 985.061 434 976.5C434 967.94 440.94 961 449.5 961Z" fill="#1E1E1E"/>
<path d="M511.5 961C520.061 961 527 967.94 527 976.5C527 985.061 520.061 992 511.5 992C502.94 992 496 985.061 496 976.5C496 967.94 502.94 961 511.5 961Z" fill="#1E1E1E"/>
<path d="M604.5 961C613.061 961 620 967.94 620 976.5C620 985.061 613.061 992 604.5 992C595.94 992 589 985.061 589 976.5C589 967.94 595.94 961 604.5 961Z" fill="#1E1E1E"/>
<path d="M728.5 961C737.061 961 744 967.94 744 976.5C744 985.061 737.061 992 728.5 992C719.94 992 713 985.061 713 976.5C713 967.94 719.94 961 728.5 961Z" fill="#1E1E1E"/>
<path d="M759.5 961C768.061 961 775 967.94 775 976.5C775 985.061 768.061 992 759.5 992C750.94 992 744 985.061 744 976.5C744 967.94 750.94 961 759.5 961Z" fill="#1E1E1E"/>
<path d="M790.5 961C799.061 961 806 967.94 806 976.5C806 985.061 799.061 992 790.5 992C781.94 992 775 985.061 775 976.5C775 967.94 781.94 961 790.5 961Z" fill="#1E1E1E"/>
<path d="M821.5 961C830.061 961 837 967.94 837 976.5C837 985.061 830.061 992 821.5 992C812.94 992 806 985.061 806 976.5C806 967.94 812.94 961 821.5 961Z" fill="#1E1E1E"/>
<path d="M852.5 961C861.061 961 868 967.94 868 976.5C868 985.061 861.061 992 852.5 992C843.94 992 837 985.061 837 976.5C837 967.94 843.94 961 852.5 961Z" fill="#1E1E1E"/>
<path d="M883.5 961C892.061 961 899 967.94 899 976.5C899 985.061 892.061 992 883.5 992C874.94 992 868 985.061 868 976.5C868 967.94 874.94 961 883.5 961Z" fill="#1E1E1E"/>
<path d="M294.5 992C303.061 992 310 998.94 310 1007.5C310 1016.06 303.061 1023 294.5 1023C285.94 1023 279 1016.06 279 1007.5C279 998.94 285.94 992 294.5 992Z" fill="#1E1E1E"/>
<path d="M356.5 992C365.061 992 372 998.94 372 1007.5C372 1016.06 365.061 1023 356.5 1023C347.94 1023 341 1016.06 341 1007.5C341 998.94 347.94 992 356.5 992Z" fill="#1E1E1E"/>
<path d="M387.5 992C396.061 992 403 998.94 403 1007.5C403 1016.06 396.061 1023 387.5 1023C378.94 1023 372 1016.06 372 1007.5C372 998.94 378.94 992 387.5 992Z" fill="#1E1E1E"/>
<path d="M449.5 992C458.061 992 465 998.94 465 1007.5C465 1016.06 458.061 1023 449.5 1023C440.94 1023 434 1016.06 434 1007.5C434 998.94 440.94 992 449.5 992Z" fill="#1E1E1E"/>
<path d="M511.5 992C520.061 992 527 998.94 527 1007.5C527 1016.06 520.061 1023 511.5 1023C502.94 1023 496 1016.06 496 1007.5C496 998.94 502.94 992 511.5 992Z" fill="#1E1E1E"/>
<path d="M635.5 992C644.061 992 651 998.94 651 1007.5C651 1016.06 644.061 1023 635.5 1023C626.94 1023 620 1016.06 620 1007.5C620 998.94 626.94 992 635.5 992Z" fill="#1E1E1E"/>
<path d="M666.5 992C675.061 992 682 998.94 682 1007.5C682 1016.06 675.061 1023 666.5 1023C657.94 1023 651 1016.06 651 1007.5C651 998.94 657.94 992 666.5 992Z" fill="#1E1E1E"/>
<path d="M697.5 992C706.061 992 713 998.94 713 1007.5C713 1016.06 706.061 1023 697.5 1023C688.94 1023 682 1016.06 682 1007.5C682 998.94 688.94 992 697.5 992Z" fill="#1E1E1E"/>
<path d="M759.5 992C768.061 992 775 998.94 775 1007.5C775 1016.06 768.061 1023 759.5 1023C750.94 1023 744 1016.06 744 1007.5C744 998.94 750.94 992 759.5 992Z" fill="#1E1E1E"/>
<path d="M852.5 992C861.061 992 868 998.94 868 1007.5C868 1016.06 861.061 1023 852.5 1023C843.94 1023 837 1016.06 837 1007.5C837 998.94 843.94 992 852.5 992Z" fill="#1E1E1E"/>
<path d="M883.5 992C892.061 992 899 998.94 899 1007.5C899 1016.06 892.061 1023 883.5 1023C874.94 1023 868 1016.06 868 1007.5C868 998.94 874.94 992 883.5 992Z" fill="#1E1E1E"/>
<path d="M976.5 992C985.061 992 992 998.94 992 1007.5C992 1016.06 985.061 1023 976.5 1023C967.94 1023 961 1016.06 961 1007.5C961 998.94 967.94 992 976.5 992Z" fill="#1E1E1E"/>
<path d="M142.914 0.0175781H74.086C40.5421 0.0175781 12.1238 22.1798 3.038 52.4708C2.09839 55.6043 1.36493 58.8246 0.85498 62.1165C0.29295 65.7491 0 69.4684 0 73.2551V143.717C0 184.12 33.2444 216.976 74.086 216.976L108.5 216.983L142.914 216.974C183.753 216.974 217 184.118 217 143.715V73.2551C217 32.8714 183.756 0.0175781 142.914 0.0175781ZM184.45 143.717C184.45 166.164 165.818 184.426 142.905 184.426L108.5 184.433L74.0947 184.424C51.1816 184.424 32.55 166.161 32.55 143.717V73.2551C32.55 66.2438 34.3685 59.6427 37.5692 53.8748C40.6506 48.3261 45.0101 43.5543 50.2594 39.9412C57.0081 35.2953 65.2259 32.5676 74.0838 32.5676H142.914C165.818 32.5676 184.45 50.8195 184.45 73.2551V143.717Z" fill="#1E1E1E"/>
<path d="M948.914 0.0175781H880.086C846.542 0.0175781 818.124 22.1798 809.038 52.4708C808.098 55.6043 807.365 58.8246 806.855 62.1165C806.293 65.7491 806 69.4684 806 73.2551V143.717C806 184.12 839.244 216.976 880.086 216.976L914.5 216.983L948.914 216.974C989.753 216.974 1023 184.118 1023 143.715V73.2551C1023 32.8714 989.756 0.0175781 948.914 0.0175781ZM990.45 143.717C990.45 166.164 971.818 184.426 948.905 184.426L914.5 184.433L880.095 184.424C857.182 184.424 838.55 166.161 838.55 143.717V73.2551C838.55 66.2438 840.368 59.6427 843.569 53.8748C846.651 48.3261 851.01 43.5543 856.259 39.9412C863.008 35.2953 871.226 32.5676 880.084 32.5676H948.914C971.818 32.5676 990.45 50.8195 990.45 73.2551V143.717Z" fill="#1E1E1E"/>
<path d="M142.914 806.018H74.086C40.5421 806.018 12.1238 828.18 3.038 858.471C2.09839 861.604 1.36493 864.825 0.85498 868.116C0.29295 871.749 0 875.468 0 879.255V949.717C0 990.12 33.2444 1022.98 74.086 1022.98L108.5 1022.98L142.914 1022.97C183.753 1022.97 217 990.118 217 949.715V879.255C217 838.871 183.756 806.018 142.914 806.018ZM184.45 949.717C184.45 972.164 165.818 990.426 142.905 990.426L108.5 990.433L74.0947 990.424C51.1816 990.424 32.55 972.161 32.55 949.717V879.255C32.55 872.244 34.3685 865.643 37.5692 859.875C40.6506 854.326 45.0101 849.554 50.2594 845.941C57.0081 841.295 65.2259 838.568 74.0838 838.568H142.914C165.818 838.568 184.45 856.819 184.45 879.255V949.717Z" fill="#1E1E1E"/>
<path d="M87.4368 155C73.4031 155 61.9873 143.81 61.9873 130.069V86.9184C61.9873 82.6255 63.1033 78.5856 65.0572 75.0507C66.9442 71.6488 69.6152 68.7248 72.832 66.5189C76.964 63.6749 82.0009 62 87.4228 62H129.577C143.598 62 155.013 73.1767 155.013 86.9175V130.068C155.013 143.808 143.599 154.999 129.577 154.999H108.5L87.4368 155Z" fill="#1E1E1E"/>
<path d="M893.436 155C879.403 155 867.987 143.81 867.987 130.069V86.9184C867.987 82.6255 869.103 78.5856 871.057 75.0507C872.944 71.6488 875.615 68.7248 878.832 66.5189C882.964 63.6749 888 62 893.422 62H935.576C949.597 62 961.013 73.1767 961.013 86.9175V130.068C961.013 143.808 949.598 154.999 935.576 154.999H914.5L893.436 155Z" fill="#1E1E1E"/>
<path d="M87.4368 961C73.4031 961 61.9873 949.81 61.9873 936.069V892.918C61.9873 888.626 63.1033 884.586 65.0572 881.051C66.9442 877.649 69.6152 874.725 72.832 872.519C76.964 869.675 82.0009 868 87.4228 868H129.577C143.598 868 155.013 879.177 155.013 892.917V936.068C155.013 949.808 143.599 960.999 129.577 960.999H108.5L87.4368 961Z" fill="#1E1E1E"/>
<path d="M359.399 444.538C359.399 418.856 380.175 398.037 405.807 398.037H616.685C642.317 398.037 663.093 418.856 663.093 444.538V578.46C663.093 604.142 642.317 624.962 616.685 624.962H405.807C380.175 624.962 359.399 604.142 359.399 578.46V444.538Z" fill="#1E1E1E"/>
<path d="M403.866 478.763H427.07V578.089H403.866V478.763ZM415.561 462.395C411.35 462.395 407.823 461.093 404.979 458.489C402.132 455.761 400.71 452.413 400.71 448.444C400.71 444.476 402.132 441.19 404.979 438.586C407.823 435.858 411.35 434.494 415.561 434.494C419.767 434.494 423.294 435.796 426.141 438.4C428.985 440.88 430.411 444.043 430.411 447.886C430.411 451.978 428.985 455.45 426.141 458.303C423.416 461.031 419.889 462.395 415.561 462.395ZM541.059 478.763L498.549 578.089H474.603L432.093 478.763H456.225L487.04 552.42L518.783 478.763H541.059ZM588.112 579.391C578.088 579.391 569.051 577.221 561.01 572.88C552.966 568.541 546.653 562.527 542.076 554.838C537.621 547.027 535.393 538.222 535.393 528.427C535.393 518.63 537.621 509.887 542.076 502.199C546.653 494.511 552.966 488.497 561.01 484.157C569.051 479.817 578.088 477.647 588.112 477.647C598.258 477.647 607.355 479.817 615.401 484.157C623.442 488.497 629.694 494.511 634.149 502.199C638.727 509.887 641.017 518.63 641.017 528.427C641.017 538.222 638.727 547.027 634.149 554.838C629.694 562.527 623.442 568.541 615.401 572.88C607.355 577.221 598.258 579.391 588.112 579.391ZM588.112 559.488C596.652 559.488 603.706 556.636 609.275 550.933C614.844 545.229 617.628 537.727 617.628 528.427C617.628 519.126 614.844 511.623 609.275 505.919C603.706 500.216 596.652 497.363 588.112 497.363C579.573 497.363 572.519 500.216 566.95 505.919C561.504 511.623 558.782 519.126 558.782 528.427C558.782 537.727 561.504 545.229 566.95 550.933C572.519 556.636 579.573 559.488 588.112 559.488Z" fill="#F5F5F5"/>
</svg>
